<?xml version="1.0" encoding="utf-8"?>
<!-- Generator: Adobe Illustrator 25.2.1, SVG Export Plug-In . SVG Version: 6.00 Build 0)  -->
<svg version="1.1" id="Layer_1" xmlns="http://www.w3.org/2000/svg" xmlns:xlink="http://www.w3.org/1999/xlink" x="0px" y="0px"
	 viewBox="0 0 101 100" style="enable-background:new 0 0 101 100;" xml:space="preserve">
<style type="text/css">
	.st0{fill:none;stroke:#505050;stroke-width:5;}
	.st1{fill:#505050;}
</style>
<path class="st0" d="M87.4,8c1.4,0,2.7,0.5,3.6,1.4s1.5,2.3,1.4,3.6l-0.9,31.2c0,1.3-0.6,2.5-1.4,3.4L47.2,90.5
	c-1.9,1.9-5.1,1.9-7,0L10,60.3c-1.9-1.9-1.9-5.1,0-7l42.9-42.9c0.9-0.9,2.1-1.4,3.4-1.4L87.4,8z"/>
<path class="st1" d="M38,60.5c-1.6,0.7-2.3,1-2.9,0.4c-0.5-0.5-0.4-1.3,0.4-2.2c0.4-0.4,0.9-0.8,1.2-1c0.6-0.3,0.7-1.1,0.4-1.6l0,0
	c-0.2-0.3-0.4-0.5-0.7-0.6c-0.3-0.1-0.6,0-0.9,0.1c-0.5,0.3-1.1,0.8-1.6,1.3c-2.1,2.2-2.2,4.7-0.7,6.3c1.3,1.3,3.1,1.2,5.1,0.2
	c1.5-0.7,2.2-0.8,2.8-0.2c0.6,0.6,0.5,1.5-0.4,2.5c-0.5,0.5-1.1,0.9-1.6,1.2c-0.3,0.2-0.5,0.4-0.6,0.8c-0.1,0.3,0,0.7,0.1,1l0,0
	c0.3,0.6,1,0.8,1.6,0.4c0.6-0.4,1.4-0.9,2-1.6c2.4-2.5,2.3-5.1,0.8-6.6C41.7,59.6,40.2,59.5,38,60.5z"/>
<path class="st1" d="M52.2,54.4l-9-4.7c-0.4-0.2-1-0.2-1.3,0.2l-1.4,1.4c-0.4,0.4-0.4,0.9-0.2,1.4l4.8,9c0.2,0.4,0.6,0.6,1,0.7
	c0.4,0.1,0.9-0.1,1.2-0.4c0.4-0.4,0.5-1.1,0.2-1.6l-1.1-2l2.5-2.5l2,1.1c0.6,0.3,1.2,0.2,1.7-0.2c0.3-0.3,0.5-0.8,0.4-1.2
	C52.9,55,52.6,54.6,52.2,54.4z M45.2,56.6c0,0-2.2-3.8-2.6-4.5l0,0c0.6,0.4,4.5,2.6,4.5,2.6L45.2,56.6z"/>
<path class="st1" d="M58.7,46.8c-0.3,0-0.6,0.1-0.8,0.3l-2.6,2.4l-6-5.6c-0.3-0.2-0.6-0.4-1-0.4c-0.4,0-0.7,0.1-1,0.4
	c-0.5,0.5-0.5,1.3,0,1.8l6.8,6.4c0.4,0.4,1.1,0.4,1.6,0l3.7-3.5c0.4-0.4,0.4-1.1,0-1.5C59.3,46.9,59,46.8,58.7,46.8z"/>
<path class="st1" d="M64.8,40.8l-2.9,2.7l-2.1-2l2.5-2.3c0.5-0.4,0.5-1.1,0-1.6c-0.5-0.4-1.2-0.4-1.7,0l-2.5,2.3l-1.9-1.8l2.7-2.5
	c0.5-0.4,0.5-1.1,0-1.6c-0.2-0.2-0.5-0.3-0.8-0.3c-0.3,0-0.6,0.1-0.8,0.3l-3.9,3.7c-0.2,0.2-0.3,0.5-0.3,0.8c0,0.3,0.1,0.6,0.3,0.8
	l7.4,6.9c0.5,0.4,1.2,0.4,1.7,0l4.1-3.9c0.5-0.4,0.5-1.1,0-1.6C66,40.3,65.2,40.3,64.8,40.8z"/>
</svg>
