<?xml version="1.0" encoding="utf-8"?>
<!-- Generator: Adobe Illustrator 25.2.1, SVG Export Plug-In . SVG Version: 6.00 Build 0)  -->
<svg version="1.1" id="Layer_1" xmlns="http://www.w3.org/2000/svg" xmlns:xlink="http://www.w3.org/1999/xlink" x="0px" y="0px"
	 viewBox="0 0 86 86" style="enable-background:new 0 0 86 86;" xml:space="preserve">
<style type="text/css">
	.st0{fill-rule:evenodd;clip-rule:evenodd;fill:#181818;}
	.st1{fill-rule:evenodd;clip-rule:evenodd;fill-opacity:0.2;}
</style>
<path class="st0" d="M29.6,77.7c-1.4,0-2.8-0.1-4.1-0.3l-0.8-0.1c-8.2-1.7-13-8-13-17.6V26.4c0-1.2,0.1-2.3,0.2-3.3
	c1.2-9.3,7.6-14.8,17.6-14.8h26.8c11.1,0,17.7,6.7,17.8,17.8v0.3v33.3c0,11.3-6.7,18.1-17.8,18.1H29.6z M29.6,13.3
	c-8.5,0-12.9,4.4-12.9,13v33.3c0,8.6,4.3,13,12.9,13h26.8c8.5,0,12.8-4.4,12.8-13V26.4c0-8.6-4.3-13-12.8-13H29.6z M58,57.7
	c0-1.4-1.1-2.5-2.5-2.5h-25c-1.4,0-2.5,1.1-2.5,2.5s1.1,2.5,2.5,2.5h25C56.8,60.2,58,59.1,58,57.7z M55.5,40.5
	c1-0.1,1.9,0.4,2.4,1.2c0.5,0.8,0.5,1.9,0,2.7c-0.5,0.8-1.4,1.3-2.4,1.2h-25c-1.3-0.1-2.2-1.2-2.2-2.5s1-2.4,2.2-2.5H55.5z
	 M42.2,28.3c0-1.3-1-2.4-2.2-2.5h-9.5c-1.3,0.1-2.2,1.2-2.2,2.5c0,1.3,1,2.4,2.2,2.5H40C41.3,30.7,42.2,29.6,42.2,28.3z"/>
<path class="st1" d="M29.6,77.7c-1.4,0-2.8-0.1-4.1-0.3l-0.8-0.1c-8.2-1.7-13-8-13-17.6V26.4c0-1.2,0.1-2.3,0.2-3.3
	c1.2-9.3,7.6-14.8,17.6-14.8h26.8c11.1,0,17.7,6.7,17.8,17.8v0.3v33.3c0,11.3-6.7,18.1-17.8,18.1H29.6z M29.6,13.3
	c-8.5,0-12.9,4.4-12.9,13v33.3c0,8.6,4.3,13,12.9,13h26.8c8.5,0,12.8-4.4,12.8-13V26.4c0-8.6-4.3-13-12.8-13H29.6z M58,57.7
	c0-1.4-1.1-2.5-2.5-2.5h-25c-1.4,0-2.5,1.1-2.5,2.5s1.1,2.5,2.5,2.5h25C56.8,60.2,58,59.1,58,57.7z M55.5,40.5
	c1-0.1,1.9,0.4,2.4,1.2c0.5,0.8,0.5,1.9,0,2.7c-0.5,0.8-1.4,1.3-2.4,1.2h-25c-1.3-0.1-2.2-1.2-2.2-2.5s1-2.4,2.2-2.5H55.5z
	 M42.2,28.3c0-1.3-1-2.4-2.2-2.5h-9.5c-1.3,0.1-2.2,1.2-2.2,2.5c0,1.3,1,2.4,2.2,2.5H40C41.3,30.7,42.2,29.6,42.2,28.3z"/>
</svg>
