<svg width="101" height="100" viewBox="0 0 101 100" fill="none" xmlns="http://www.w3.org/2000/svg">
<path d="M87.4018 8.00212C88.7651 7.96222 90.085 8.48598 91.0495 9.45049C92.014 10.415 92.538 11.7346 92.4978 13.0979L91.5776 44.2974C91.5403 45.5599 91.0221 46.7604 90.1293 47.6533L47.2332 90.5495C45.2992 92.4835 42.1639 92.4835 40.23 90.5495L9.95047 60.2699C8.01651 58.336 8.01651 55.2007 9.95047 53.2667L52.8463 10.3704C53.7394 9.47729 54.9396 8.95935 56.2021 8.92206L87.4018 8.00212Z" stroke="#505050" stroke-width="5"/>
<path d="M38.0267 60.5498C36.4388 61.2937 35.684 61.5554 35.1152 60.9629C34.6519 60.481 34.6787 59.6268 35.5519 58.7179C35.9762 58.2762 36.4036 57.9546 36.7915 57.7189C37.3432 57.3839 37.5332 56.6503 37.2184 56.0718L37.2131 56.063C37.0548 55.7722 36.7898 55.5608 36.4793 55.4757C36.1688 55.3912 35.8385 55.4405 35.5636 55.6129C35.0541 55.9321 34.5044 56.3641 33.9379 56.9541C31.8335 59.144 31.7279 61.679 33.2497 63.2631C34.5466 64.6131 36.3332 64.4614 38.3311 63.4561C39.7871 62.74 40.5279 62.6294 41.0837 63.208C41.6662 63.8144 41.5603 64.7237 40.6341 65.6875C40.1412 66.2006 39.5657 66.6095 39.0099 66.9172C38.7207 67.0772 38.5071 67.3534 38.4201 67.6821C38.3328 68.0107 38.3796 68.3621 38.549 68.6537L38.5595 68.6719C38.8921 69.2441 39.5997 69.4385 40.1607 69.1132C40.8093 68.7373 41.5376 68.1912 42.169 67.5336C44.6167 64.9857 44.4974 62.4644 43.0024 60.9078C41.7448 59.5996 40.1834 59.5169 38.0267 60.5498Z" fill="#505050"/>
<path d="M52.2049 54.3743L43.2056 49.6381C42.7603 49.4038 42.2145 49.4865 41.8586 49.8419L40.4599 51.2398C40.1029 51.5966 40.0209 52.1443 40.258 52.5899L45.0661 61.6244C45.2709 62.0088 45.6457 62.2734 46.0767 62.3379C46.5077 62.4021 46.9435 62.2586 47.2517 61.9506C47.6881 61.5145 47.7804 60.8403 47.4762 60.3035L46.3668 58.3438L48.8737 55.8387L50.8571 56.9045C51.4146 57.2041 52.1027 57.1031 52.5502 56.6559C52.8727 56.3336 53.0227 55.8778 52.9544 55.4277C52.8861 54.9773 52.6082 54.5863 52.2049 54.3743ZM45.1718 56.5782C45.1718 56.5782 42.9377 52.7622 42.5478 52.1132L42.5738 52.087C43.2233 52.4763 47.1072 54.644 47.1072 54.644L45.1718 56.5782Z" fill="#505050"/>
<path d="M58.7398 46.8054C58.4352 46.8054 58.1431 46.9193 57.9278 47.1215L55.3398 49.5552L49.384 43.9545C49.1266 43.7124 48.7774 43.5765 48.4136 43.5765C48.0499 43.5765 47.7004 43.7126 47.4432 43.9545C46.9071 44.4586 46.9071 45.2757 47.4432 45.7796L54.23 52.1619C54.6679 52.5735 55.3778 52.5735 55.8157 52.1619L59.552 48.6484C60.0003 48.2269 60.0003 47.5433 59.552 47.1215C59.3364 46.919 59.0444 46.8054 58.7398 46.8054Z" fill="#505050"/>
<path d="M64.7808 40.7811L61.9018 43.4913L59.7545 41.4696L62.251 39.1197C62.7105 38.6869 62.7105 37.9859 62.2507 37.5531C61.7912 37.1205 61.0459 37.1205 60.5864 37.5531L58.0902 39.9029L56.2111 38.1343L58.9018 35.6014C59.3652 35.1652 59.3652 34.4581 58.9018 34.0217C58.6793 33.8119 58.3777 33.6941 58.0628 33.6941C57.7482 33.6941 57.4462 33.8119 57.2237 34.0214L53.318 37.6978C53.0957 37.9073 52.9706 38.1913 52.9706 38.4877C52.9706 38.7839 53.0957 39.0681 53.3182 39.2775L60.6871 46.2143C61.1504 46.6502 61.9015 46.6502 62.3649 46.2143L66.4584 42.3608C66.9217 41.9247 66.9217 41.2176 66.4584 40.7811C65.995 40.3449 65.2442 40.3449 64.7808 40.7811Z" fill="#505050"/>
</svg>
