<?xml version="1.0" encoding="utf-8"?>
<!-- Generator: Adobe Illustrator 25.2.1, SVG Export Plug-In . SVG Version: 6.00 Build 0)  -->
<svg version="1.1" id="Layer_1" xmlns="http://www.w3.org/2000/svg" xmlns:xlink="http://www.w3.org/1999/xlink" x="0px" y="0px"
	 viewBox="0 0 86 86" style="enable-background:new 0 0 86 86;" xml:space="preserve">
<style type="text/css">
	.st0{fill-rule:evenodd;clip-rule:evenodd;fill:#1B1B1B;}
</style>
<path class="st0" d="M41.6,7.2c-19,0-34.4,15.1-34.4,33.7s15.4,33.7,34.4,33.7c8.1,0,15.6-2.8,21.5-7.4l11.2,10.9l0.3,0.3
	c1,0.8,2.5,0.7,3.5-0.3c1-1,1-2.7,0-3.7L67,63.6c5.6-6,9.1-14,9.1-22.8C76,22.2,60.6,7.2,41.6,7.2z M41.6,12.4
	c16.1,0,29.1,12.8,29.1,28.5s-13,28.5-29.1,28.5S12.5,56.6,12.5,40.8S25.5,12.4,41.6,12.4z"/>
</svg>
