<svg width="101" height="100" viewBox="0 0 101 100" fill="none" xmlns="http://www.w3.org/2000/svg">
<path fill-rule="evenodd" clip-rule="evenodd" d="M48.8814 8.33334C26.7635 8.33334 8.83331 25.8675 8.83331 47.4969C8.83331 69.1264 26.7635 86.6605 48.8814 86.6605C58.3412 86.6605 67.0349 83.4531 73.8874 78.0896L86.9044 90.786L87.2507 91.0776C88.4593 91.9522 90.1726 91.8527 91.2661 90.7805C92.469 89.6011 92.4665 87.6914 91.2605 86.5151L78.3966 73.9679C84.9372 66.9974 88.9295 57.7031 88.9295 47.4969C88.9295 25.8675 70.9993 8.33334 48.8814 8.33334ZM48.8814 14.3656C67.5926 14.3656 82.761 29.199 82.761 47.4969C82.761 65.7949 67.5926 80.6283 48.8814 80.6283C30.1702 80.6283 15.0018 65.7949 15.0018 47.4969C15.0018 29.199 30.1702 14.3656 48.8814 14.3656Z" fill="#505050"/>
</svg>
