<?xml version="1.0" encoding="utf-8"?>
<!-- Generator: Adobe Illustrator 25.2.1, SVG Export Plug-In . SVG Version: 6.00 Build 0)  -->
<svg version="1.1" id="Layer_1" xmlns="http://www.w3.org/2000/svg" xmlns:xlink="http://www.w3.org/1999/xlink" x="0px" y="0px"
	 viewBox="0 0 101 100" style="enable-background:new 0 0 101 100;" xml:space="preserve">
<style type="text/css">
	.st0{fill-rule:evenodd;clip-rule:evenodd;fill:#505050;}
</style>
<path class="st0" d="M48.9,8.3c-22.1,0-40,17.5-40,39.2c0,21.6,17.9,39.2,40,39.2c9.5,0,18.2-3.2,25-8.6l13,12.7l0.3,0.3
	c1.2,0.9,2.9,0.8,4-0.3c1.2-1.2,1.2-3.1,0-4.3L78.4,74c6.5-7,10.5-16.3,10.5-26.5C88.9,25.9,71,8.3,48.9,8.3z M48.9,14.4
	c18.7,0,33.9,14.8,33.9,33.1c0,18.3-15.2,33.1-33.9,33.1S15,65.8,15,47.5C15,29.2,30.2,14.4,48.9,14.4z"/>
</svg>
