<?xml version="1.0" encoding="utf-8"?>
<!-- Generator: Adobe Illustrator 25.2.1, SVG Export Plug-In . SVG Version: 6.00 Build 0)  -->
<svg version="1.1" id="Layer_1" xmlns="http://www.w3.org/2000/svg" xmlns:xlink="http://www.w3.org/1999/xlink" x="0px" y="0px"
	 viewBox="0 0 101 100" style="enable-background:new 0 0 101 100;" xml:space="preserve">
<style type="text/css">
	.st0{fill-rule:evenodd;clip-rule:evenodd;fill:#505050;}
</style>
<path class="st0" d="M34.4,91.7c-1.7,0-3.3-0.1-4.9-0.4l-0.9-0.2C18.7,89,13,81.5,13,70V30c0-1.4,0.1-2.7,0.2-4
	c1.5-11.2,9.1-17.7,21.2-17.7h32.2c13.3,0,21.3,8,21.4,21.4V30V70c0,13.6-8,21.7-21.4,21.7H34.4z M34.4,14.4
	C24.2,14.4,19,19.7,19,30V70c0,10.4,5.2,15.6,15.4,15.6h32.1c10.2,0,15.4-5.3,15.4-15.6V30c0-10.4-5.2-15.6-15.4-15.6H34.4z
	 M68.4,67.6c0-1.7-1.3-3-3-3h-30c-1.6,0-3,1.3-3,3c0,1.7,1.3,3,3,3h30C67.1,70.7,68.4,69.3,68.4,67.6z M65.5,47
	c1.1-0.1,2.3,0.4,2.9,1.4c0.6,1,0.6,2.3,0,3.2c-0.6,1-1.7,1.5-2.9,1.4h-30c-1.5-0.2-2.7-1.5-2.7-3s1.2-2.9,2.7-3H65.5z M49.6,32.4
	c0-1.6-1.2-2.9-2.7-3H35.5c-1.5,0.2-2.7,1.5-2.7,3c0,1.6,1.2,2.9,2.7,3h11.4C48.4,35.2,49.6,33.9,49.6,32.4z"/>
</svg>
