<?xml version="1.0" encoding="utf-8"?>
<!-- Generator: Adobe Illustrator 25.2.1, SVG Export Plug-In . SVG Version: 6.00 Build 0)  -->
<svg version="1.1" id="Layer_1" xmlns="http://www.w3.org/2000/svg" xmlns:xlink="http://www.w3.org/1999/xlink" x="0px" y="0px"
	 viewBox="0 0 86 86" style="enable-background:new 0 0 86 86;" xml:space="preserve">
<style type="text/css">
	.st0{fill:#181818;}
	.st1{fill-opacity:0.2;}
	.st2{fill:none;stroke:#181818;stroke-linecap:round;}
	.st3{fill:none;stroke:#000000;stroke-linecap:round;stroke-opacity:0.2;}
</style>
<path class="st0" d="M71,10.7c0-1.2-1-2.2-2.2-2.2c-1.2,0-2.2,1-2.2,2.2l0,5.9c0,2.3,0,3.8-0.1,5C60.6,15.3,52.3,11.4,43,11.4
	c-17.7,0-32,14.2-32,31.7c0,1.2,1,2.2,2.2,2.2s2.2-1,2.2-2.2c0-15.1,12.3-27.3,27.5-27.3c8.2,0,15.5,3.5,20.6,9.1
	c-0.1,0-0.3,0-0.5,0.1c-1.2,0.1-2.8,0.1-5.3,0.1l-5.9,0c-1.2,0-2.2,1-2.2,2.2c0,1.2,1,2.2,2.2,2.2l6,0c2.2,0,4.1,0,5.6-0.1
	c1.6-0.2,3-0.6,4.3-1.5c0.5-0.4,1-0.9,1.5-1.4c1-1.3,1.4-2.7,1.5-4.3c0.2-1.5,0.2-3.3,0.1-5.6L71,10.7z"/>
<path class="st1" d="M71,10.7c0-1.2-1-2.2-2.2-2.2c-1.2,0-2.2,1-2.2,2.2l0,5.9c0,2.3,0,3.8-0.1,5C60.6,15.3,52.3,11.4,43,11.4
	c-17.7,0-32,14.2-32,31.7c0,1.2,1,2.2,2.2,2.2s2.2-1,2.2-2.2c0-15.1,12.3-27.3,27.5-27.3c8.2,0,15.5,3.5,20.6,9.1
	c-0.1,0-0.3,0-0.5,0.1c-1.2,0.1-2.8,0.1-5.3,0.1l-5.9,0c-1.2,0-2.2,1-2.2,2.2c0,1.2,1,2.2,2.2,2.2l6,0c2.2,0,4.1,0,5.6-0.1
	c1.6-0.2,3-0.6,4.3-1.5c0.5-0.4,1-0.9,1.5-1.4c1-1.3,1.4-2.7,1.5-4.3c0.2-1.5,0.2-3.3,0.1-5.6L71,10.7z"/>
<path class="st0" d="M75,43.1c0-1.2-1-2.2-2.2-2.2c-1.2,0-2.2,1-2.2,2.2c0,15.1-12.3,27.3-27.5,27.3c-8.3,0-15.7-3.6-20.8-9.4
	c0.1,0,0.3,0,0.4-0.1c1.2-0.1,2.8-0.1,5.3-0.1l5.9,0c1.2,0,2.2-1,2.2-2.2c0-1.2-1-2.2-2.2-2.2l-6,0c-2.2,0-4.1,0-5.6,0.1
	c-1.6,0.2-3,0.6-4.3,1.5c-0.5,0.4-1,0.9-1.5,1.4c-1,1.3-1.4,2.7-1.5,4.3c-0.2,1.5-0.2,3.3-0.1,5.6l0,6c0,1.2,1,2.2,2.2,2.2
	c1.2,0,2.2-1,2.2-2.2l0-5.9c0-2.3,0-3.8,0.1-5c5.9,6.4,14.3,10.4,23.7,10.4C60.7,74.8,75,60.6,75,43.1z"/>
<path class="st1" d="M75,43.1c0-1.2-1-2.2-2.2-2.2c-1.2,0-2.2,1-2.2,2.2c0,15.1-12.3,27.3-27.5,27.3c-8.3,0-15.7-3.6-20.8-9.4
	c0.1,0,0.3,0,0.4-0.1c1.2-0.1,2.8-0.1,5.3-0.1l5.9,0c1.2,0,2.2-1,2.2-2.2c0-1.2-1-2.2-2.2-2.2l-6,0c-2.2,0-4.1,0-5.6,0.1
	c-1.6,0.2-3,0.6-4.3,1.5c-0.5,0.4-1,0.9-1.5,1.4c-1,1.3-1.4,2.7-1.5,4.3c-0.2,1.5-0.2,3.3-0.1,5.6l0,6c0,1.2,1,2.2,2.2,2.2
	c1.2,0,2.2-1,2.2-2.2l0-5.9c0-2.3,0-3.8,0.1-5c5.9,6.4,14.3,10.4,23.7,10.4C60.7,74.8,75,60.6,75,43.1z"/>
<path class="st2" d="M71,10.7c0-1.2-1-2.2-2.2-2.2c-1.2,0-2.2,1-2.2,2.2l0,5.9c0,2.3,0,3.8-0.1,5C60.6,15.3,52.3,11.4,43,11.4
	c-17.7,0-32,14.2-32,31.7c0,1.2,1,2.2,2.2,2.2s2.2-1,2.2-2.2c0-15.1,12.3-27.3,27.5-27.3c8.2,0,15.5,3.5,20.6,9.1
	c-0.1,0-0.3,0-0.5,0.1c-1.2,0.1-2.8,0.1-5.3,0.1l-5.9,0c-1.2,0-2.2,1-2.2,2.2c0,1.2,1,2.2,2.2,2.2l6,0c2.2,0,4.1,0,5.6-0.1
	c1.6-0.2,3-0.6,4.3-1.5c0.5-0.4,1-0.9,1.5-1.4c1-1.3,1.4-2.7,1.5-4.3c0.2-1.5,0.2-3.3,0.1-5.6L71,10.7z"/>
<path class="st3" d="M71,10.7c0-1.2-1-2.2-2.2-2.2c-1.2,0-2.2,1-2.2,2.2l0,5.9c0,2.3,0,3.8-0.1,5C60.6,15.3,52.3,11.4,43,11.4
	c-17.7,0-32,14.2-32,31.7c0,1.2,1,2.2,2.2,2.2s2.2-1,2.2-2.2c0-15.1,12.3-27.3,27.5-27.3c8.2,0,15.5,3.5,20.6,9.1
	c-0.1,0-0.3,0-0.5,0.1c-1.2,0.1-2.8,0.1-5.3,0.1l-5.9,0c-1.2,0-2.2,1-2.2,2.2c0,1.2,1,2.2,2.2,2.2l6,0c2.2,0,4.1,0,5.6-0.1
	c1.6-0.2,3-0.6,4.3-1.5c0.5-0.4,1-0.9,1.5-1.4c1-1.3,1.4-2.7,1.5-4.3c0.2-1.5,0.2-3.3,0.1-5.6L71,10.7z"/>
<path class="st2" d="M75,43.1c0-1.2-1-2.2-2.2-2.2c-1.2,0-2.2,1-2.2,2.2c0,15.1-12.3,27.3-27.5,27.3c-8.3,0-15.7-3.6-20.8-9.4
	c0.1,0,0.3,0,0.4-0.1c1.2-0.1,2.8-0.1,5.3-0.1l5.9,0c1.2,0,2.2-1,2.2-2.2c0-1.2-1-2.2-2.2-2.2l-6,0c-2.2,0-4.1,0-5.6,0.1
	c-1.6,0.2-3,0.6-4.3,1.5c-0.5,0.4-1,0.9-1.5,1.4c-1,1.3-1.4,2.7-1.5,4.3c-0.2,1.5-0.2,3.3-0.1,5.6l0,6c0,1.2,1,2.2,2.2,2.2
	c1.2,0,2.2-1,2.2-2.2l0-5.9c0-2.3,0-3.8,0.1-5c5.9,6.4,14.3,10.4,23.7,10.4C60.7,74.8,75,60.6,75,43.1z"/>
<path class="st3" d="M75,43.1c0-1.2-1-2.2-2.2-2.2c-1.2,0-2.2,1-2.2,2.2c0,15.1-12.3,27.3-27.5,27.3c-8.3,0-15.7-3.6-20.8-9.4
	c0.1,0,0.3,0,0.4-0.1c1.2-0.1,2.8-0.1,5.3-0.1l5.9,0c1.2,0,2.2-1,2.2-2.2c0-1.2-1-2.2-2.2-2.2l-6,0c-2.2,0-4.1,0-5.6,0.1
	c-1.6,0.2-3,0.6-4.3,1.5c-0.5,0.4-1,0.9-1.5,1.4c-1,1.3-1.4,2.7-1.5,4.3c-0.2,1.5-0.2,3.3-0.1,5.6l0,6c0,1.2,1,2.2,2.2,2.2
	c1.2,0,2.2-1,2.2-2.2l0-5.9c0-2.3,0-3.8,0.1-5c5.9,6.4,14.3,10.4,23.7,10.4C60.7,74.8,75,60.6,75,43.1z"/>
</svg>
