<?xml version="1.0" encoding="utf-8"?>
<!-- Generator: Adobe Illustrator 25.2.1, SVG Export Plug-In . SVG Version: 6.00 Build 0)  -->
<svg version="1.1" id="Layer_1" xmlns="http://www.w3.org/2000/svg" xmlns:xlink="http://www.w3.org/1999/xlink" x="0px" y="0px"
	 viewBox="0 0 86 86" style="enable-background:new 0 0 86 86;" xml:space="preserve">
<style type="text/css">
	.st0{fill:#181818;}
	.st1{fill-opacity:0.2;}
	.st2{fill-rule:evenodd;clip-rule:evenodd;fill:#181818;}
	.st3{fill-rule:evenodd;clip-rule:evenodd;fill-opacity:0.2;}
</style>
<path class="st0" d="M62.1,34.4c0.9-1.1,0.9-2.7-0.2-3.6c-1.1-0.9-2.7-0.9-3.6,0.2L46.7,43.9c-2.3,2.6-3.9,4.4-5.3,5.5
	c-1.3,1.1-2,1.3-2.7,1.3c-0.7,0-1.4-0.2-2.7-1.3c-1.4-1.1-2.9-2.9-5.3-5.5l-3-3.3c-0.9-1.1-2.6-1.2-3.6-0.2C23,41.3,23,42.9,23.9,44
	l3.1,3.5c2.2,2.4,4,4.5,5.7,5.9c1.8,1.5,3.7,2.5,6,2.5s4.3-1,6-2.5c1.7-1.4,3.5-3.4,5.7-5.9L62.1,34.4z"/>
<path class="st1" d="M62.1,34.4c0.9-1.1,0.9-2.7-0.2-3.6c-1.1-0.9-2.7-0.9-3.6,0.2L46.7,43.9c-2.3,2.6-3.9,4.4-5.3,5.5
	c-1.3,1.1-2,1.3-2.7,1.3c-0.7,0-1.4-0.2-2.7-1.3c-1.4-1.1-2.9-2.9-5.3-5.5l-3-3.3c-0.9-1.1-2.6-1.2-3.6-0.2C23,41.3,23,42.9,23.9,44
	l3.1,3.5c2.2,2.4,4,4.5,5.7,5.9c1.8,1.5,3.7,2.5,6,2.5s4.3-1,6-2.5c1.7-1.4,3.5-3.4,5.7-5.9L62.1,34.4z"/>
<path class="st2" d="M58.3,9.9c-3.9-0.4-8.9-0.4-15.2-0.4h-0.3c-6.3,0-11.3,0-15.2,0.4c-4,0.4-7.2,1.3-10,3.3
	c-1.7,1.2-3.2,2.7-4.4,4.4c-2,2.8-2.9,6-3.3,10c-0.4,3.9-0.4,8.9-0.4,15.2v0.3c0,6.3,0,11.3,0.4,15.2c0.4,4,1.3,7.2,3.3,10
	c1.2,1.7,2.7,3.2,4.4,4.4c2.8,2,6,2.9,10,3.3c3.9,0.4,8.9,0.4,15.2,0.4h0.3c6.3,0,11.3,0,15.2-0.4c4-0.4,7.2-1.3,10-3.3
	c1.7-1.2,3.2-2.7,4.4-4.4c2-2.8,2.9-6,3.3-10c0.4-3.9,0.4-8.9,0.4-15.2v-0.3c0-6.3,0-11.3-0.4-15.2c-0.4-4-1.3-7.2-3.3-10
	c-1.2-1.7-2.7-3.2-4.4-4.4C65.6,11.3,62.3,10.4,58.3,9.9z M20.7,17.4c1.7-1.3,4-2,7.5-2.4c3.6-0.4,8.3-0.4,14.8-0.4s11.2,0,14.8,0.4
	c3.6,0.4,5.8,1.1,7.5,2.4c1.2,0.9,2.3,2,3.2,3.2c1.3,1.7,2,4,2.4,7.5c0.4,3.6,0.4,8.3,0.4,14.8s0,11.2-0.4,14.8
	c-0.4,3.6-1.1,5.8-2.4,7.5c-0.9,1.2-2,2.3-3.2,3.2c-1.7,1.3-4,2-7.5,2.4c-3.6,0.4-8.3,0.4-14.8,0.4s-11.2,0-14.8-0.4
	c-3.6-0.4-5.8-1.1-7.5-2.4c-1.2-0.9-2.3-2-3.2-3.2c-1.3-1.7-2-4-2.4-7.5c-0.4-3.6-0.4-8.3-0.4-14.8s0-11.2,0.4-14.8
	c0.4-3.6,1.1-5.8,2.4-7.5C18.3,19.4,19.4,18.3,20.7,17.4z"/>
<path class="st3" d="M58.3,9.9c-3.9-0.4-8.9-0.4-15.2-0.4h-0.3c-6.3,0-11.3,0-15.2,0.4c-4,0.4-7.2,1.3-10,3.3
	c-1.7,1.2-3.2,2.7-4.4,4.4c-2,2.8-2.9,6-3.3,10c-0.4,3.9-0.4,8.9-0.4,15.2v0.3c0,6.3,0,11.3,0.4,15.2c0.4,4,1.3,7.2,3.3,10
	c1.2,1.7,2.7,3.2,4.4,4.4c2.8,2,6,2.9,10,3.3c3.9,0.4,8.9,0.4,15.2,0.4h0.3c6.3,0,11.3,0,15.2-0.4c4-0.4,7.2-1.3,10-3.3
	c1.7-1.2,3.2-2.7,4.4-4.4c2-2.8,2.9-6,3.3-10c0.4-3.9,0.4-8.9,0.4-15.2v-0.3c0-6.3,0-11.3-0.4-15.2c-0.4-4-1.3-7.2-3.3-10
	c-1.2-1.7-2.7-3.2-4.4-4.4C65.6,11.3,62.3,10.4,58.3,9.9z M20.7,17.4c1.7-1.3,4-2,7.5-2.4c3.6-0.4,8.3-0.4,14.8-0.4s11.2,0,14.8,0.4
	c3.6,0.4,5.8,1.1,7.5,2.4c1.2,0.9,2.3,2,3.2,3.2c1.3,1.7,2,4,2.4,7.5c0.4,3.6,0.4,8.3,0.4,14.8s0,11.2-0.4,14.8
	c-0.4,3.6-1.1,5.8-2.4,7.5c-0.9,1.2-2,2.3-3.2,3.2c-1.7,1.3-4,2-7.5,2.4c-3.6,0.4-8.3,0.4-14.8,0.4s-11.2,0-14.8-0.4
	c-3.6-0.4-5.8-1.1-7.5-2.4c-1.2-0.9-2.3-2-3.2-3.2c-1.3-1.7-2-4-2.4-7.5c-0.4-3.6-0.4-8.3-0.4-14.8s0-11.2,0.4-14.8
	c0.4-3.6,1.1-5.8,2.4-7.5C18.3,19.4,19.4,18.3,20.7,17.4z"/>
</svg>
