<svg width="1359" height="221" viewBox="0 0 1359 221" fill="none" xmlns="http://www.w3.org/2000/svg">
<path d="M533.73 129V91.1818H547.912C550.817 91.1818 553.255 91.7235 555.224 92.8068C557.206 93.8902 558.702 95.3797 559.712 97.2756C560.733 99.1591 561.244 101.301 561.244 103.702C561.244 106.127 560.733 108.281 559.712 110.165C558.69 112.048 557.182 113.532 555.188 114.615C553.193 115.686 550.737 116.222 547.82 116.222H538.42V110.589H546.896C548.595 110.589 549.986 110.294 551.07 109.703C552.153 109.112 552.953 108.3 553.47 107.266C554 106.232 554.264 105.044 554.264 103.702C554.264 102.36 554 101.178 553.47 100.156C552.953 99.1345 552.147 98.3404 551.051 97.7741C549.968 97.1955 548.571 96.9062 546.859 96.9062H540.581V129H533.73ZM573.584 91.1818V129H566.9V91.1818H573.584ZM588.62 129.572C586.823 129.572 585.204 129.252 583.763 128.612C582.335 127.96 581.203 127 580.366 125.732C579.541 124.464 579.129 122.9 579.129 121.041C579.129 119.441 579.424 118.117 580.015 117.071C580.606 116.025 581.412 115.188 582.434 114.56C583.456 113.932 584.607 113.458 585.887 113.138C587.18 112.805 588.515 112.565 589.894 112.418C591.556 112.245 592.904 112.091 593.938 111.956C594.972 111.808 595.723 111.587 596.191 111.291C596.671 110.983 596.911 110.509 596.911 109.869V109.759C596.911 108.367 596.499 107.29 595.674 106.527C594.849 105.764 593.661 105.382 592.11 105.382C590.473 105.382 589.174 105.739 588.214 106.453C587.266 107.167 586.626 108.01 586.293 108.983L580.052 108.097C580.544 106.373 581.357 104.933 582.489 103.776C583.622 102.606 585.007 101.732 586.644 101.153C588.281 100.562 590.091 100.267 592.073 100.267C593.44 100.267 594.8 100.427 596.154 100.747C597.508 101.067 598.746 101.597 599.866 102.335C600.986 103.062 601.885 104.053 602.562 105.308C603.251 106.564 603.596 108.134 603.596 110.017V129H597.17V125.104H596.948C596.542 125.892 595.969 126.63 595.231 127.32C594.504 127.997 593.587 128.545 592.479 128.963C591.384 129.369 590.097 129.572 588.62 129.572ZM590.356 124.661C591.698 124.661 592.861 124.396 593.846 123.866C594.831 123.325 595.588 122.611 596.117 121.724C596.659 120.838 596.93 119.872 596.93 118.825V115.483C596.72 115.655 596.363 115.815 595.859 115.963C595.366 116.111 594.812 116.24 594.197 116.351C593.581 116.462 592.972 116.56 592.369 116.646C591.765 116.732 591.242 116.806 590.799 116.868C589.802 117.003 588.909 117.225 588.121 117.533C587.334 117.84 586.712 118.271 586.256 118.825C585.801 119.367 585.573 120.069 585.573 120.93C585.573 122.161 586.022 123.091 586.921 123.719C587.82 124.347 588.965 124.661 590.356 124.661ZM622.69 129.554C619.858 129.554 617.427 128.932 615.396 127.689C613.377 126.446 611.819 124.728 610.724 122.537C609.64 120.333 609.099 117.797 609.099 114.929C609.099 112.048 609.653 109.506 610.761 107.303C611.869 105.087 613.432 103.363 615.451 102.132C617.482 100.889 619.883 100.267 622.653 100.267C624.955 100.267 626.992 100.692 628.765 101.541C630.55 102.378 631.972 103.566 633.031 105.105C634.089 106.632 634.692 108.417 634.84 110.46H628.451C628.192 109.094 627.577 107.955 626.604 107.044C625.644 106.121 624.358 105.659 622.745 105.659C621.379 105.659 620.178 106.028 619.144 106.767C618.11 107.493 617.304 108.54 616.725 109.906C616.159 111.273 615.876 112.91 615.876 114.818C615.876 116.751 616.159 118.413 616.725 119.804C617.291 121.183 618.085 122.248 619.107 122.999C620.141 123.737 621.354 124.107 622.745 124.107C623.73 124.107 624.61 123.922 625.386 123.553C626.174 123.171 626.832 122.623 627.362 121.909C627.891 121.195 628.254 120.327 628.451 119.305H634.84C634.68 121.312 634.089 123.091 633.067 124.642C632.046 126.181 630.655 127.387 628.894 128.261C627.134 129.123 625.066 129.554 622.69 129.554ZM652.886 129.554C650.042 129.554 647.586 128.963 645.518 127.781C643.462 126.587 641.88 124.901 640.772 122.722C639.664 120.53 639.11 117.951 639.11 114.984C639.11 112.067 639.664 109.506 640.772 107.303C641.893 105.087 643.456 103.363 645.463 102.132C647.469 100.889 649.827 100.267 652.535 100.267C654.283 100.267 655.933 100.55 657.484 101.116C659.047 101.67 660.426 102.532 661.62 103.702C662.827 104.871 663.775 106.361 664.464 108.17C665.154 109.968 665.498 112.11 665.498 114.597V116.646H642.25V112.141H659.091C659.078 110.86 658.801 109.722 658.26 108.724C657.718 107.715 656.961 106.921 655.988 106.342C655.028 105.764 653.908 105.474 652.627 105.474C651.261 105.474 650.061 105.807 649.027 106.472C647.993 107.124 647.186 107.986 646.608 109.057C646.041 110.116 645.752 111.279 645.74 112.547V116.48C645.74 118.13 646.041 119.545 646.645 120.727C647.248 121.897 648.091 122.795 649.174 123.423C650.258 124.039 651.526 124.347 652.978 124.347C653.951 124.347 654.831 124.211 655.619 123.94C656.407 123.657 657.09 123.245 657.669 122.703C658.247 122.161 658.684 121.491 658.98 120.69L665.221 121.392C664.827 123.042 664.076 124.482 662.968 125.713C661.873 126.932 660.469 127.88 658.758 128.557C657.047 129.222 655.09 129.554 652.886 129.554ZM677.838 112.381V129H671.153V91.1818H677.69V105.456H678.023C678.688 103.856 679.715 102.594 681.107 101.67C682.51 100.735 684.295 100.267 686.462 100.267C688.431 100.267 690.149 100.679 691.614 101.504C693.079 102.329 694.211 103.536 695.011 105.124C695.824 106.712 696.23 108.651 696.23 110.94V129H689.545V111.974C689.545 110.066 689.053 108.583 688.068 107.524C687.096 106.453 685.729 105.918 683.969 105.918C682.787 105.918 681.728 106.176 680.793 106.693C679.869 107.198 679.143 107.93 678.614 108.891C678.097 109.851 677.838 111.014 677.838 112.381ZM715.416 129.554C712.646 129.554 710.246 128.945 708.214 127.726C706.183 126.507 704.607 124.802 703.487 122.611C702.379 120.42 701.825 117.859 701.825 114.929C701.825 111.999 702.379 109.432 703.487 107.229C704.607 105.025 706.183 103.314 708.214 102.095C710.246 100.876 712.646 100.267 715.416 100.267C718.186 100.267 720.587 100.876 722.618 102.095C724.649 103.314 726.219 105.025 727.327 107.229C728.447 109.432 729.007 111.999 729.007 114.929C729.007 117.859 728.447 120.42 727.327 122.611C726.219 124.802 724.649 126.507 722.618 127.726C720.587 128.945 718.186 129.554 715.416 129.554ZM715.453 124.199C716.955 124.199 718.211 123.786 719.22 122.962C720.23 122.125 720.981 121.004 721.473 119.601C721.978 118.197 722.23 116.634 722.23 114.911C722.23 113.175 721.978 111.605 721.473 110.202C720.981 108.786 720.23 107.66 719.22 106.822C718.211 105.985 716.955 105.567 715.453 105.567C713.914 105.567 712.634 105.985 711.612 106.822C710.603 107.66 709.846 108.786 709.341 110.202C708.848 111.605 708.602 113.175 708.602 114.911C708.602 116.634 708.848 118.197 709.341 119.601C709.846 121.004 710.603 122.125 711.612 122.962C712.634 123.786 713.914 124.199 715.453 124.199ZM741.365 91.1818V129H734.681V91.1818H741.365ZM758.765 129.499C756.537 129.499 754.542 128.926 752.782 127.781C751.022 126.636 749.63 124.974 748.609 122.795C747.587 120.616 747.076 117.97 747.076 114.855C747.076 111.704 747.593 109.045 748.627 106.878C749.674 104.699 751.083 103.055 752.856 101.947C754.629 100.827 756.604 100.267 758.783 100.267C760.445 100.267 761.812 100.55 762.883 101.116C763.954 101.67 764.803 102.341 765.431 103.129C766.059 103.905 766.545 104.637 766.89 105.327H767.167V91.1818H773.87V129H767.296V124.531H766.89C766.545 125.221 766.047 125.953 765.394 126.729C764.742 127.492 763.88 128.144 762.809 128.686C761.738 129.228 760.39 129.499 758.765 129.499ZM760.63 124.014C762.046 124.014 763.252 123.633 764.249 122.869C765.246 122.094 766.004 121.017 766.521 119.638C767.038 118.259 767.296 116.652 767.296 114.818C767.296 112.984 767.038 111.39 766.521 110.036C766.016 108.681 765.265 107.629 764.268 106.878C763.283 106.127 762.07 105.751 760.63 105.751C759.14 105.751 757.897 106.139 756.9 106.915C755.903 107.69 755.152 108.761 754.647 110.128C754.142 111.494 753.89 113.058 753.89 114.818C753.89 116.591 754.142 118.173 754.647 119.564C755.164 120.943 755.921 122.032 756.918 122.832C757.928 123.62 759.165 124.014 760.63 124.014ZM793.55 129.554C790.706 129.554 788.25 128.963 786.182 127.781C784.126 126.587 782.544 124.901 781.436 122.722C780.328 120.53 779.775 117.951 779.775 114.984C779.775 112.067 780.328 109.506 781.436 107.303C782.557 105.087 784.12 103.363 786.127 102.132C788.133 100.889 790.491 100.267 793.199 100.267C794.947 100.267 796.597 100.55 798.148 101.116C799.712 101.67 801.09 102.532 802.284 103.702C803.491 104.871 804.439 106.361 805.128 108.17C805.818 109.968 806.162 112.11 806.162 114.597V116.646H782.914V112.141H799.755C799.742 110.86 799.465 109.722 798.924 108.724C798.382 107.715 797.625 106.921 796.652 106.342C795.692 105.764 794.572 105.474 793.292 105.474C791.925 105.474 790.725 105.807 789.691 106.472C788.657 107.124 787.85 107.986 787.272 109.057C786.705 110.116 786.416 111.279 786.404 112.547V116.48C786.404 118.13 786.705 119.545 787.309 120.727C787.912 121.897 788.755 122.795 789.838 123.423C790.922 124.039 792.19 124.347 793.642 124.347C794.615 124.347 795.495 124.211 796.283 123.94C797.071 123.657 797.754 123.245 798.333 122.703C798.911 122.161 799.348 121.491 799.644 120.69L805.885 121.392C805.491 123.042 804.74 124.482 803.632 125.713C802.537 126.932 801.133 127.88 799.422 128.557C797.711 129.222 795.754 129.554 793.55 129.554ZM811.817 129V100.636H818.299V105.364H818.594C819.112 103.726 819.998 102.464 821.254 101.578C822.522 100.679 823.968 100.23 825.593 100.23C825.962 100.23 826.375 100.249 826.83 100.286C827.298 100.31 827.686 100.353 827.994 100.415V106.564C827.71 106.465 827.261 106.379 826.646 106.305C826.042 106.219 825.458 106.176 824.891 106.176C823.673 106.176 822.577 106.441 821.604 106.97C820.644 107.487 819.887 108.207 819.333 109.131C818.779 110.054 818.502 111.119 818.502 112.325V129H811.817Z" fill="#EFEFEF"/>
</svg>
