<?xml version="1.0" encoding="utf-8"?>
<!-- Generator: Adobe Illustrator 25.2.1, SVG Export Plug-In . SVG Version: 6.00 Build 0)  -->
<svg version="1.1" id="Layer_1" xmlns="http://www.w3.org/2000/svg" xmlns:xlink="http://www.w3.org/1999/xlink" x="0px" y="0px"
	 viewBox="0 0 100 100" style="enable-background:new 0 0 100 100;" xml:space="preserve">
<style type="text/css">
	.st0{fill-rule:evenodd;clip-rule:evenodd;fill:#505050;}
</style>
<path class="st0" d="M68.4,10.8c-0.2-1.4-1.4-2.5-2.9-2.5c-1.6,0-2.9,1.3-2.9,2.9v3.2H37.4v-3.2l0-0.4c-0.2-1.4-1.4-2.5-2.9-2.5
	c-1.6,0-2.9,1.3-2.9,2.9v3.3C19.8,15.3,12.5,23,12.5,35.4v35.1c0,13.3,8.2,21.2,21.2,21.2h32.5c13.1,0,21.2-7.8,21.2-20.9V35.4
	c0-12.4-7.2-20-19.1-20.8v-3.3L68.4,10.8z M62.7,20.3V24l0,0.4c0.2,1.4,1.4,2.5,2.9,2.5c1.6,0,2.9-1.3,2.9-2.9v-3.6
	c8.6,0.7,13.3,5.9,13.3,15V37H18.3v-1.7c0-9.1,4.7-14.3,13.3-15V24l0,0.4c0.2,1.4,1.4,2.5,2.9,2.5c1.6,0,2.9-1.3,2.9-2.9v-3.7H62.7z
	 M18.3,42.8v27.6c0,10,5.5,15.4,15.5,15.4h32.5c10,0,15.5-5.3,15.5-15.1V42.8H18.3z M70,55.1c0-1.6-1.3-2.9-2.9-2.9l-0.4,0
	c-1.4,0.2-2.5,1.4-2.5,2.9c0,1.6,1.3,2.9,2.9,2.9l0.4,0C68.9,57.8,70,56.5,70,55.1z M50.1,52.2c1.6,0,2.9,1.3,2.9,2.9
	c0,1.5-1.1,2.7-2.5,2.9l-0.4,0c-1.6,0-2.9-1.3-2.9-2.9c0-1.5,1.1-2.7,2.5-2.9L50.1,52.2z M35.8,55.1c0-1.6-1.3-2.9-2.9-2.9l-0.4,0
	c-1.4,0.2-2.5,1.4-2.5,2.9c0,1.6,1.3,2.9,2.9,2.9l0.4,0C34.7,57.8,35.8,56.5,35.8,55.1z M67.1,67.2c1.6,0,2.9,1.3,2.9,2.9
	c0,1.5-1.1,2.7-2.5,2.9l-0.4,0c-1.6,0-2.9-1.3-2.9-2.9c0-1.5,1.1-2.7,2.5-2.9L67.1,67.2z M52.9,70.1c0-1.6-1.3-2.9-2.9-2.9l-0.4,0
	c-1.4,0.2-2.5,1.4-2.5,2.9c0,1.6,1.3,2.9,2.9,2.9l0.4,0C51.9,72.8,52.9,71.6,52.9,70.1z M33,67.2c1.6,0,2.9,1.3,2.9,2.9
	c0,1.5-1.1,2.7-2.5,2.9l-0.4,0c-1.6,0-2.9-1.3-2.9-2.9c0-1.5,1.1-2.7,2.5-2.9L33,67.2z"/>
</svg>
