<svg width="1285" height="794" viewBox="0 0 1285 794" fill="none" xmlns="http://www.w3.org/2000/svg">
<path d="M562 63C562 49.1929 573.193 38 587 38H688C701.807 38 713 49.1929 713 63V63C713 76.8071 701.807 88 688 88H587C573.193 88 562 76.8071 562 63V63Z" fill="#EFEFEF"/>
<path d="M590.057 71.2578C593.483 71.2578 596.051 69.1846 596.534 66.1016L596.545 65.9941H594.16L594.128 66.0908C593.548 68.0566 592.119 69.1309 590.057 69.1309C587.188 69.1309 585.33 66.832 585.33 63.2441V63.2334C585.33 59.6455 587.178 57.3682 590.057 57.3682C592.141 57.3682 593.58 58.4746 594.096 60.29L594.16 60.5049H596.545L596.523 60.4082C596.04 57.3467 593.473 55.2412 590.057 55.2412C585.663 55.2412 582.87 58.3135 582.87 63.2334V63.2441C582.87 68.1641 585.663 71.2578 590.057 71.2578ZM603.302 71.2256C606.535 71.2256 608.662 68.9912 608.662 65.3496V65.3281C608.662 61.708 606.514 59.4844 603.291 59.4844C600.079 59.4844 597.941 61.7188 597.941 65.3281V65.3496C597.941 68.9805 600.058 71.2256 603.302 71.2256ZM603.312 69.2812C601.497 69.2812 600.315 67.8525 600.315 65.3496V65.3281C600.315 62.8574 601.508 61.4287 603.291 61.4287C605.106 61.4287 606.288 62.8574 606.288 65.3281V65.3496C606.288 67.8418 605.128 69.2812 603.312 69.2812ZM610.456 71H612.776V64.415C612.776 62.6533 613.829 61.4717 615.462 61.4717C617.073 61.4717 617.868 62.4277 617.868 64.125V71H620.199V63.6846C620.199 61.085 618.771 59.4844 616.289 59.4844C614.581 59.4844 613.421 60.2578 612.83 61.4072H612.776V59.6992H610.456V71ZM622.444 71H624.765V64.415C624.765 62.6533 625.817 61.4717 627.45 61.4717C629.062 61.4717 629.856 62.4277 629.856 64.125V71H632.188V63.6846C632.188 61.085 630.759 59.4844 628.277 59.4844C626.569 59.4844 625.409 60.2578 624.818 61.4072H624.765V59.6992H622.444V71ZM639.256 71.2256C641.995 71.2256 643.735 69.5928 644.101 67.7988L644.122 67.6807H641.92L641.888 67.7666C641.598 68.6152 640.685 69.3242 639.31 69.3242C637.462 69.3242 636.291 68.0781 636.248 65.9404H644.251V65.1562C644.251 61.7617 642.307 59.4844 639.138 59.4844C635.969 59.4844 633.928 61.8477 633.928 65.3818V65.3926C633.928 68.959 635.937 71.2256 639.256 71.2256ZM639.148 61.3857C640.663 61.3857 641.759 62.3418 641.952 64.2969H636.28C636.484 62.4062 637.645 61.3857 639.148 61.3857ZM650.911 71.2256C653.629 71.2256 655.52 69.4854 655.767 67.2188L655.777 67.1436H653.543L653.532 67.2295C653.253 68.4541 652.34 69.2812 650.911 69.2812C649.117 69.2812 647.925 67.8311 647.925 65.3604V65.3496C647.925 62.9326 649.096 61.4287 650.9 61.4287C652.415 61.4287 653.274 62.3633 653.521 63.4697L653.543 63.5557H655.756L655.745 63.4805C655.552 61.3535 653.79 59.4844 650.879 59.4844C647.656 59.4844 645.551 61.751 645.551 65.3281V65.3389C645.551 68.959 647.613 71.2256 650.911 71.2256ZM661.385 71.2256C661.857 71.2256 662.298 71.1719 662.566 71.1289V69.335C662.395 69.3564 662.19 69.3779 661.943 69.3779C660.966 69.3779 660.45 69.0342 660.45 67.8848V61.5469H662.566V59.6992H660.45V56.7559H658.076V59.6992H656.454V61.5469H658.076V68.0244C658.076 70.2803 659.15 71.2256 661.385 71.2256ZM665.746 57.959C666.509 57.959 667.1 57.3574 667.1 56.627C667.1 55.8857 666.509 55.2842 665.746 55.2842C664.994 55.2842 664.393 55.8857 664.393 56.627C664.393 57.3574 664.994 57.959 665.746 57.959ZM664.586 71H666.906V59.6992H664.586V71ZM669.302 71H671.622V64.415C671.622 62.6533 672.675 61.4717 674.308 61.4717C675.919 61.4717 676.714 62.4277 676.714 64.125V71H679.045V63.6846C679.045 61.085 677.616 59.4844 675.135 59.4844C673.427 59.4844 672.267 60.2578 671.676 61.4072H671.622V59.6992H669.302V71ZM686.242 74.9854C689.433 74.9854 691.431 73.2666 691.431 70.6885V59.6992H689.1V61.6221H689.046C688.38 60.3438 687.134 59.4844 685.544 59.4844C682.676 59.4844 680.785 61.708 680.785 65.2529V65.2637C680.785 68.7871 682.654 71.0107 685.49 71.0107C687.112 71.0107 688.401 70.2266 689.046 69.002H689.1V70.5488C689.1 72.1279 688.079 73.1162 686.231 73.1162C684.781 73.1162 683.804 72.6221 683.492 71.9023L683.449 71.8164H681.15L681.161 71.9131C681.505 73.6426 683.342 74.9854 686.242 74.9854ZM686.146 69.1201C684.309 69.1201 683.159 67.6592 683.159 65.2959V65.2852C683.159 62.9541 684.309 61.4717 686.146 61.4717C687.907 61.4717 689.1 62.9648 689.1 65.2852V65.2959C689.1 67.627 687.918 69.1201 686.146 69.1201Z" fill="#181818"/>
<path d="M358.939 103.939C358.354 104.525 358.354 105.475 358.939 106.061L368.485 115.607C369.071 116.192 370.021 116.192 370.607 115.607C371.192 115.021 371.192 114.071 370.607 113.485L362.121 105L370.607 96.5147C371.192 95.9289 371.192 94.9792 370.607 94.3934C370.021 93.8076 369.071 93.8076 368.485 94.3934L358.939 103.939ZM915.061 106.061C915.646 105.475 915.646 104.525 915.061 103.939L905.515 94.3933C904.929 93.8076 903.979 93.8076 903.393 94.3933C902.808 94.9791 902.808 95.9289 903.393 96.5147L911.879 105L903.393 113.485C902.808 114.071 902.808 115.021 903.393 115.607C903.979 116.192 904.929 116.192 905.515 115.607L915.061 106.061ZM360 106.5L637 106.5L637 103.5L360 103.5L360 106.5ZM637 106.5L914 106.5L914 103.5L637 103.5L637 106.5Z" fill="#858585"/>
<path d="M145.758 114H155.118C159.63 114 162.428 111.686 162.428 107.979V107.95C162.428 105.182 160.304 103.102 157.359 102.882V102.794C159.688 102.486 161.446 100.509 161.446 98.1943V98.165C161.446 94.9131 158.941 92.8623 154.957 92.8623H145.758V114ZM153.814 96.1436C155.88 96.1436 157.096 97.1104 157.096 98.7949V98.8242C157.096 100.655 155.763 101.695 153.272 101.695H150.182V96.1436H153.814ZM153.8 104.698C156.51 104.698 157.916 105.738 157.916 107.672V107.701C157.916 109.664 156.524 110.704 153.99 110.704H150.182V104.698H153.8ZM169.928 114.322C172.301 114.322 173.912 113.209 174.718 111.407H174.806V114H179.083V98.2969H174.806V107.32C174.806 109.371 173.59 110.777 171.671 110.777C169.752 110.777 168.785 109.591 168.785 107.54V98.2969H164.508V108.434C164.508 112.11 166.471 114.322 169.928 114.322ZM188.326 114.322C192.369 114.322 195.196 112.301 195.196 109.225V109.21C195.196 106.896 193.849 105.606 190.567 104.918L187.901 104.347C186.319 104.01 185.777 103.482 185.777 102.677V102.662C185.777 101.651 186.7 100.992 188.18 100.992C189.762 100.992 190.685 101.842 190.831 102.97L190.846 103.087H194.786V102.94C194.684 100.187 192.354 97.9746 188.18 97.9746C184.181 97.9746 181.603 99.9082 181.603 102.896V102.911C181.603 105.255 183.141 106.778 186.188 107.423L188.854 107.979C190.392 108.316 190.919 108.8 190.919 109.635V109.649C190.919 110.66 189.938 111.29 188.326 111.29C186.612 111.29 185.689 110.572 185.411 109.342L185.382 109.21H181.207L181.222 109.342C181.559 112.315 183.976 114.322 188.326 114.322ZM199.532 96.2754C200.821 96.2754 201.817 95.2646 201.817 94.0488C201.817 92.833 200.821 91.8223 199.532 91.8223C198.243 91.8223 197.247 92.833 197.247 94.0488C197.247 95.2646 198.243 96.2754 199.532 96.2754ZM197.394 114H201.671V98.2969H197.394V114ZM204.542 114H208.819V104.977C208.819 102.926 210.035 101.52 211.954 101.52C213.873 101.52 214.84 102.691 214.84 104.742V114H219.117V103.863C219.117 100.187 217.154 97.9746 213.697 97.9746C211.324 97.9746 209.713 99.0732 208.907 100.875H208.819V98.2969H204.542V114ZM228.976 114.322C233.458 114.322 235.626 111.671 236.109 109.356L236.153 109.195H232.228L232.198 109.283C231.891 110.162 230.821 111.129 229.063 111.129C226.881 111.129 225.519 109.664 225.475 107.159H236.285V105.841C236.285 101.095 233.399 97.9746 228.8 97.9746C224.2 97.9746 221.256 101.168 221.256 106.163V106.178C221.256 111.202 224.171 114.322 228.976 114.322ZM228.873 101.168C230.646 101.168 231.92 102.296 232.184 104.464H225.519C225.797 102.34 227.115 101.168 228.873 101.168ZM244.957 114.322C249 114.322 251.827 112.301 251.827 109.225V109.21C251.827 106.896 250.479 105.606 247.198 104.918L244.532 104.347C242.95 104.01 242.408 103.482 242.408 102.677V102.662C242.408 101.651 243.331 100.992 244.811 100.992C246.393 100.992 247.315 101.842 247.462 102.97L247.477 103.087H251.417V102.94C251.314 100.187 248.985 97.9746 244.811 97.9746C240.812 97.9746 238.233 99.9082 238.233 102.896V102.911C238.233 105.255 239.771 106.778 242.818 107.423L245.484 107.979C247.022 108.316 247.55 108.8 247.55 109.635V109.649C247.55 110.66 246.568 111.29 244.957 111.29C243.243 111.29 242.32 110.572 242.042 109.342L242.013 109.21H237.838L237.853 109.342C238.189 112.315 240.606 114.322 244.957 114.322ZM260.396 114.322C264.439 114.322 267.267 112.301 267.267 109.225V109.21C267.267 106.896 265.919 105.606 262.638 104.918L259.972 104.347C258.39 104.01 257.848 103.482 257.848 102.677V102.662C257.848 101.651 258.771 100.992 260.25 100.992C261.832 100.992 262.755 101.842 262.901 102.97L262.916 103.087H266.856V102.94C266.754 100.187 264.425 97.9746 260.25 97.9746C256.251 97.9746 253.673 99.9082 253.673 102.896V102.911C253.673 105.255 255.211 106.778 258.258 107.423L260.924 107.979C262.462 108.316 262.989 108.8 262.989 109.635V109.649C262.989 110.66 262.008 111.29 260.396 111.29C258.683 111.29 257.76 110.572 257.481 109.342L257.452 109.21H253.277L253.292 109.342C253.629 112.315 256.046 114.322 260.396 114.322Z" fill="#181818"/>
<path d="M144 44H268V42H144V44ZM268 162H144V164H268V162ZM144 162C111.415 162 85 135.585 85 103H83C83 136.689 110.311 164 144 164V162ZM327 103C327 135.585 300.585 162 268 162V164C301.689 164 329 136.689 329 103H327ZM268 44C300.585 44 327 70.4152 327 103H329C329 69.3106 301.689 42 268 42V44ZM144 42C110.311 42 83 69.3106 83 103H85C85 70.4152 111.415 44 144 44V42Z" fill="black"/>
<path d="M1015.16 114.366C1020.27 114.366 1023.98 111.158 1024.39 106.661L1024.41 106.5H1020.1L1020.07 106.646C1019.5 109.151 1017.71 110.616 1015.16 110.616C1011.78 110.616 1009.61 107.862 1009.61 103.409V103.395C1009.61 98.9707 1011.78 96.2461 1015.16 96.2461C1017.8 96.2461 1019.53 97.7695 1020.03 100.099L1020.08 100.348H1024.39L1024.38 100.216C1023.97 95.7334 1020.29 92.4961 1015.16 92.4961C1009 92.4961 1005.1 96.5977 1005.1 103.409V103.424C1005.1 110.235 1008.98 114.366 1015.16 114.366ZM1032.12 114.322C1034.5 114.322 1036.11 113.209 1036.92 111.407H1037V114H1041.28V98.2969H1037V107.32C1037 109.371 1035.79 110.777 1033.87 110.777C1031.95 110.777 1030.98 109.591 1030.98 107.54V98.2969H1026.71V108.434C1026.71 112.11 1028.67 114.322 1032.12 114.322ZM1050.52 114.322C1054.57 114.322 1057.39 112.301 1057.39 109.225V109.21C1057.39 106.896 1056.05 105.606 1052.76 104.918L1050.1 104.347C1048.52 104.01 1047.97 103.482 1047.97 102.677V102.662C1047.97 101.651 1048.9 100.992 1050.38 100.992C1051.96 100.992 1052.88 101.842 1053.03 102.97L1053.04 103.087H1056.98V102.94C1056.88 100.187 1054.55 97.9746 1050.38 97.9746C1046.38 97.9746 1043.8 99.9082 1043.8 102.896V102.911C1043.8 105.255 1045.34 106.778 1048.38 107.423L1051.05 107.979C1052.59 108.316 1053.12 108.8 1053.12 109.635V109.649C1053.12 110.66 1052.13 111.29 1050.52 111.29C1048.81 111.29 1047.89 110.572 1047.61 109.342L1047.58 109.21H1043.4L1043.42 109.342C1043.76 112.315 1046.17 114.322 1050.52 114.322ZM1065.74 114.322C1066.64 114.322 1067.33 114.234 1067.81 114.161V111.026C1067.54 111.056 1067.27 111.1 1066.89 111.1C1065.6 111.1 1064.94 110.602 1064.94 109.137V101.52H1067.81V98.2969H1064.94V94.459H1060.62V98.2969H1058.43V101.52H1060.62V109.605C1060.62 112.975 1062.26 114.322 1065.74 114.322ZM1077.14 114.322C1081.89 114.322 1084.92 111.275 1084.92 106.148V106.119C1084.92 101.036 1081.83 97.9746 1077.12 97.9746C1072.44 97.9746 1069.36 101.065 1069.36 106.119V106.148C1069.36 111.261 1072.36 114.322 1077.14 114.322ZM1077.15 110.968C1075.04 110.968 1073.71 109.225 1073.71 106.148V106.119C1073.71 103.087 1075.06 101.329 1077.12 101.329C1079.21 101.329 1080.57 103.087 1080.57 106.119V106.148C1080.57 109.21 1079.23 110.968 1077.15 110.968ZM1087.13 114H1091.41V104.522C1091.41 102.75 1092.51 101.52 1094.13 101.52C1095.71 101.52 1096.67 102.516 1096.67 104.2V114H1100.78V104.449C1100.78 102.706 1101.85 101.52 1103.48 101.52C1105.13 101.52 1106.04 102.516 1106.04 104.332V114H1110.32V103.263C1110.32 100.099 1108.25 97.9746 1105.18 97.9746C1102.88 97.9746 1101 99.2344 1100.3 101.212H1100.21C1099.68 99.1465 1098.09 97.9746 1095.89 97.9746C1093.78 97.9746 1092.14 99.1465 1091.5 100.934H1091.41V98.2969H1087.13V114ZM1120.18 114.322C1124.66 114.322 1126.83 111.671 1127.31 109.356L1127.35 109.195H1123.43L1123.4 109.283C1123.09 110.162 1122.02 111.129 1120.26 111.129C1118.08 111.129 1116.72 109.664 1116.68 107.159H1127.49V105.841C1127.49 101.095 1124.6 97.9746 1120 97.9746C1115.4 97.9746 1112.46 101.168 1112.46 106.163V106.178C1112.46 111.202 1115.37 114.322 1120.18 114.322ZM1120.07 101.168C1121.85 101.168 1123.12 102.296 1123.38 104.464H1116.72C1117 102.34 1118.32 101.168 1120.07 101.168ZM1129.7 114H1133.98V105.211C1133.98 102.926 1135.21 101.666 1137.32 101.666C1137.93 101.666 1138.52 101.754 1138.87 101.9V98.1357C1138.55 98.0479 1138.11 97.9746 1137.64 97.9746C1135.81 97.9746 1134.53 99.1025 1134.06 101.036H1133.98V98.2969H1129.7V114Z" fill="#181818"/>
<path d="M1004 44H1140V42H1004V44ZM1140 162H1004V164H1140V162ZM1004 162C971.415 162 945 135.585 945 103H943C943 136.689 970.311 164 1004 164V162ZM1199 103C1199 135.585 1172.58 162 1140 162V164C1173.69 164 1201 136.689 1201 103H1199ZM1140 44C1172.58 44 1199 70.4152 1199 103H1201C1201 69.3106 1173.69 42 1140 42V44ZM1004 42C970.311 42 943 69.3106 943 103H945C945 70.4152 971.415 44 1004 44V42Z" fill="black"/>
<path d="M19 414C19 380.863 45.8629 354 79 354H333C366.137 354 393 380.863 393 414V414C393 447.137 366.137 474 333 474H79C45.8629 474 19 447.137 19 414V414Z" fill="#F8F8F8"/>
<path d="M86.0312 425H89.7959V407.041H96.1094V403.862H79.7031V407.041H86.0312V425ZM101.529 425.308C102.535 425.308 103.434 425.176 104.225 424.912C105.016 424.639 105.699 424.272 106.275 423.813C106.852 423.354 107.311 422.842 107.652 422.275C107.994 421.699 108.229 421.113 108.355 420.518L108.385 420.356H104.986L104.957 420.459C104.84 420.811 104.63 421.138 104.327 421.44C104.034 421.743 103.658 421.992 103.199 422.188C102.74 422.373 102.208 422.466 101.603 422.466C100.792 422.466 100.094 422.29 99.5078 421.938C98.9219 421.577 98.4678 421.064 98.1455 420.4C97.833 419.727 97.6768 418.916 97.6768 417.969V416.562C97.6768 415.586 97.833 414.756 98.1455 414.072C98.4678 413.389 98.9072 412.876 99.4639 412.534C100.03 412.183 100.675 412.007 101.397 412.007C102.11 412.007 102.74 412.178 103.287 412.52C103.834 412.852 104.264 413.354 104.576 414.028C104.889 414.702 105.045 415.547 105.045 416.562V417.969L106.803 415.698H95.8604V418.13H108.546V416.958C108.546 415.396 108.253 414.028 107.667 412.856C107.091 411.685 106.261 410.776 105.177 410.132C104.103 409.478 102.828 409.15 101.354 409.15C99.8691 409.15 98.5801 409.487 97.4863 410.161C96.4023 410.835 95.5576 411.782 94.9521 413.003C94.3564 414.214 94.0586 415.635 94.0586 417.266V417.28C94.0586 418.921 94.3564 420.342 94.9521 421.543C95.5479 422.744 96.4023 423.672 97.5156 424.326C98.6387 424.98 99.9766 425.308 101.529 425.308ZM115.46 425.264C116.144 425.264 116.783 425.156 117.379 424.941C117.984 424.727 118.521 424.419 118.99 424.019C119.459 423.618 119.84 423.149 120.133 422.612H120.221V425H123.854V414.321C123.854 413.276 123.59 412.368 123.062 411.597C122.545 410.825 121.808 410.225 120.851 409.795C119.903 409.365 118.78 409.15 117.481 409.15C116.173 409.15 115.04 409.36 114.083 409.78C113.136 410.2 112.394 410.776 111.856 411.509C111.319 412.231 111.012 413.052 110.934 413.97L110.919 414.146H114.288L114.317 414.014C114.444 413.438 114.767 412.969 115.284 412.607C115.802 412.236 116.49 412.051 117.35 412.051C118.277 412.051 118.985 412.28 119.474 412.739C119.972 413.188 120.221 413.804 120.221 414.585V419.243C120.221 419.858 120.06 420.41 119.737 420.898C119.415 421.387 118.976 421.772 118.419 422.056C117.872 422.339 117.247 422.48 116.544 422.48C115.743 422.48 115.099 422.3 114.61 421.938C114.132 421.567 113.893 421.064 113.893 420.43V420.415C113.893 419.8 114.132 419.307 114.61 418.936C115.089 418.564 115.777 418.35 116.676 418.291L122.096 417.954V415.537L116.163 415.903C114.288 416.011 112.833 416.47 111.798 417.28C110.772 418.081 110.26 419.17 110.26 420.547V420.576C110.26 421.494 110.475 422.31 110.904 423.022C111.344 423.726 111.954 424.277 112.735 424.678C113.526 425.068 114.435 425.264 115.46 425.264ZM126.812 425H130.445V415.493C130.445 414.858 130.572 414.297 130.826 413.809C131.09 413.32 131.446 412.935 131.896 412.651C132.345 412.368 132.862 412.227 133.448 412.227C134.298 412.227 134.967 412.48 135.455 412.988C135.953 413.486 136.202 414.175 136.202 415.054V425H139.747V415.405C139.747 414.78 139.869 414.229 140.113 413.75C140.367 413.271 140.714 412.9 141.153 412.637C141.603 412.363 142.12 412.227 142.706 412.227C143.604 412.227 144.293 412.49 144.771 413.018C145.25 413.545 145.489 414.287 145.489 415.244V425H149.137V414.351C149.137 413.306 148.922 412.397 148.492 411.626C148.072 410.845 147.481 410.239 146.72 409.81C145.968 409.37 145.079 409.15 144.054 409.15C143.312 409.15 142.618 409.282 141.974 409.546C141.339 409.8 140.782 410.161 140.304 410.63C139.835 411.089 139.474 411.641 139.22 412.285H139.146C138.961 411.621 138.663 411.06 138.253 410.601C137.853 410.132 137.364 409.775 136.788 409.531C136.212 409.277 135.562 409.15 134.84 409.15C133.814 409.15 132.921 409.409 132.159 409.927C131.397 410.435 130.855 411.113 130.533 411.963H130.445V409.473H126.812V425ZM158.468 425H161.866V409.956H163.609L159.757 404.448L168.077 425H170.641L178.961 404.448L175.108 409.956H176.852V425H180.25V403.862H175.885L169.41 420.02H169.308L162.833 403.862H158.468V425ZM187.823 425.264C188.507 425.264 189.146 425.156 189.742 424.941C190.348 424.727 190.885 424.419 191.354 424.019C191.822 423.618 192.203 423.149 192.496 422.612H192.584V425H196.217V414.321C196.217 413.276 195.953 412.368 195.426 411.597C194.908 410.825 194.171 410.225 193.214 409.795C192.267 409.365 191.144 409.15 189.845 409.15C188.536 409.15 187.403 409.36 186.446 409.78C185.499 410.2 184.757 410.776 184.22 411.509C183.683 412.231 183.375 413.052 183.297 413.97L183.282 414.146H186.651L186.681 414.014C186.808 413.438 187.13 412.969 187.647 412.607C188.165 412.236 188.854 412.051 189.713 412.051C190.641 412.051 191.349 412.28 191.837 412.739C192.335 413.188 192.584 413.804 192.584 414.585V419.243C192.584 419.858 192.423 420.41 192.101 420.898C191.778 421.387 191.339 421.772 190.782 422.056C190.235 422.339 189.61 422.48 188.907 422.48C188.106 422.48 187.462 422.3 186.974 421.938C186.495 421.567 186.256 421.064 186.256 420.43V420.415C186.256 419.8 186.495 419.307 186.974 418.936C187.452 418.564 188.141 418.35 189.039 418.291L194.459 417.954V415.537L188.526 415.903C186.651 416.011 185.196 416.47 184.161 417.28C183.136 418.081 182.623 419.17 182.623 420.547V420.576C182.623 421.494 182.838 422.31 183.268 423.022C183.707 423.726 184.317 424.277 185.099 424.678C185.89 425.068 186.798 425.264 187.823 425.264ZM199.176 425H202.809V415.991C202.809 415.239 202.95 414.585 203.233 414.028C203.517 413.462 203.917 413.022 204.435 412.71C204.952 412.388 205.558 412.227 206.251 412.227C207.286 412.227 208.062 412.529 208.58 413.135C209.098 413.73 209.356 414.58 209.356 415.684V425H213.004V414.951C213.004 413.154 212.535 411.738 211.598 410.703C210.67 409.668 209.352 409.15 207.643 409.15C206.471 409.15 205.484 409.399 204.684 409.897C203.893 410.396 203.297 411.064 202.896 411.904H202.809V409.473H199.176V425ZM220.519 425.264C221.202 425.264 221.842 425.156 222.438 424.941C223.043 424.727 223.58 424.419 224.049 424.019C224.518 423.618 224.898 423.149 225.191 422.612H225.279V425H228.912V414.321C228.912 413.276 228.648 412.368 228.121 411.597C227.604 410.825 226.866 410.225 225.909 409.795C224.962 409.365 223.839 409.15 222.54 409.15C221.231 409.15 220.099 409.36 219.142 409.78C218.194 410.2 217.452 410.776 216.915 411.509C216.378 412.231 216.07 413.052 215.992 413.97L215.978 414.146H219.347L219.376 414.014C219.503 413.438 219.825 412.969 220.343 412.607C220.86 412.236 221.549 412.051 222.408 412.051C223.336 412.051 224.044 412.28 224.532 412.739C225.03 413.188 225.279 413.804 225.279 414.585V419.243C225.279 419.858 225.118 420.41 224.796 420.898C224.474 421.387 224.034 421.772 223.478 422.056C222.931 422.339 222.306 422.48 221.603 422.48C220.802 422.48 220.157 422.3 219.669 421.938C219.19 421.567 218.951 421.064 218.951 420.43V420.415C218.951 419.8 219.19 419.307 219.669 418.936C220.147 418.564 220.836 418.35 221.734 418.291L227.154 417.954V415.537L221.222 415.903C219.347 416.011 217.892 416.47 216.856 417.28C215.831 418.081 215.318 419.17 215.318 420.547V420.576C215.318 421.494 215.533 422.31 215.963 423.022C216.402 423.726 217.013 424.277 217.794 424.678C218.585 425.068 219.493 425.264 220.519 425.264ZM238.873 430.435C240.377 430.435 241.676 430.19 242.77 429.702C243.863 429.214 244.708 428.525 245.304 427.637C245.899 426.758 246.197 425.732 246.197 424.561V409.473H242.55V412.109H242.462C242.169 411.514 241.788 410.996 241.319 410.557C240.86 410.117 240.323 409.775 239.708 409.531C239.093 409.277 238.419 409.15 237.687 409.15C236.378 409.15 235.24 409.473 234.273 410.117C233.307 410.762 232.555 411.675 232.018 412.856C231.49 414.028 231.227 415.435 231.227 417.075V417.09C231.227 418.701 231.485 420.093 232.003 421.265C232.53 422.427 233.272 423.325 234.229 423.96C235.196 424.595 236.329 424.912 237.628 424.912C238.37 424.912 239.054 424.8 239.679 424.575C240.313 424.351 240.865 424.038 241.334 423.638C241.812 423.237 242.193 422.759 242.477 422.202H242.55V424.443C242.55 425.43 242.232 426.216 241.598 426.802C240.963 427.388 240.05 427.681 238.858 427.681C237.921 427.681 237.145 427.529 236.529 427.227C235.924 426.934 235.523 426.562 235.328 426.113L235.27 425.996H231.695L231.725 426.128C231.871 426.938 232.247 427.671 232.853 428.325C233.458 428.979 234.269 429.492 235.284 429.863C236.31 430.244 237.506 430.435 238.873 430.435ZM238.771 422.1C237.989 422.1 237.311 421.899 236.734 421.499C236.158 421.099 235.714 420.532 235.401 419.8C235.089 419.058 234.933 418.179 234.933 417.163V417.148C234.933 416.133 235.089 415.259 235.401 414.526C235.714 413.794 236.158 413.228 236.734 412.827C237.311 412.427 237.989 412.227 238.771 412.227C239.522 412.227 240.182 412.427 240.748 412.827C241.314 413.228 241.759 413.799 242.081 414.541C242.403 415.273 242.564 416.143 242.564 417.148V417.163C242.564 418.159 242.403 419.028 242.081 419.771C241.769 420.513 241.329 421.089 240.763 421.499C240.196 421.899 239.532 422.1 238.771 422.1ZM256.012 425.308C257.018 425.308 257.916 425.176 258.707 424.912C259.498 424.639 260.182 424.272 260.758 423.813C261.334 423.354 261.793 422.842 262.135 422.275C262.477 421.699 262.711 421.113 262.838 420.518L262.867 420.356H259.469L259.439 420.459C259.322 420.811 259.112 421.138 258.81 421.44C258.517 421.743 258.141 421.992 257.682 422.188C257.223 422.373 256.69 422.466 256.085 422.466C255.274 422.466 254.576 422.29 253.99 421.938C253.404 421.577 252.95 421.064 252.628 420.4C252.315 419.727 252.159 418.916 252.159 417.969V416.562C252.159 415.586 252.315 414.756 252.628 414.072C252.95 413.389 253.39 412.876 253.946 412.534C254.513 412.183 255.157 412.007 255.88 412.007C256.593 412.007 257.223 412.178 257.77 412.52C258.316 412.852 258.746 413.354 259.059 414.028C259.371 414.702 259.527 415.547 259.527 416.562V417.969L261.285 415.698H250.343V418.13H263.028V416.958C263.028 415.396 262.735 414.028 262.149 412.856C261.573 411.685 260.743 410.776 259.659 410.132C258.585 409.478 257.311 409.15 255.836 409.15C254.352 409.15 253.062 409.487 251.969 410.161C250.885 410.835 250.04 411.782 249.435 413.003C248.839 414.214 248.541 415.635 248.541 417.266V417.28C248.541 418.921 248.839 420.342 249.435 421.543C250.03 422.744 250.885 423.672 251.998 424.326C253.121 424.98 254.459 425.308 256.012 425.308ZM265.357 425H268.99V415.493C268.99 414.858 269.117 414.297 269.371 413.809C269.635 413.32 269.991 412.935 270.44 412.651C270.89 412.368 271.407 412.227 271.993 412.227C272.843 412.227 273.512 412.48 274 412.988C274.498 413.486 274.747 414.175 274.747 415.054V425H278.292V415.405C278.292 414.78 278.414 414.229 278.658 413.75C278.912 413.271 279.259 412.9 279.698 412.637C280.147 412.363 280.665 412.227 281.251 412.227C282.149 412.227 282.838 412.49 283.316 413.018C283.795 413.545 284.034 414.287 284.034 415.244V425H287.682V414.351C287.682 413.306 287.467 412.397 287.037 411.626C286.617 410.845 286.026 410.239 285.265 409.81C284.513 409.37 283.624 409.15 282.599 409.15C281.856 409.15 281.163 409.282 280.519 409.546C279.884 409.8 279.327 410.161 278.849 410.63C278.38 411.089 278.019 411.641 277.765 412.285H277.691C277.506 411.621 277.208 411.06 276.798 410.601C276.397 410.132 275.909 409.775 275.333 409.531C274.757 409.277 274.107 409.15 273.385 409.15C272.359 409.15 271.466 409.409 270.704 409.927C269.942 410.435 269.4 411.113 269.078 411.963H268.99V409.473H265.357V425ZM297.438 425.308C298.443 425.308 299.342 425.176 300.133 424.912C300.924 424.639 301.607 424.272 302.184 423.813C302.76 423.354 303.219 422.842 303.561 422.275C303.902 421.699 304.137 421.113 304.264 420.518L304.293 420.356H300.895L300.865 420.459C300.748 420.811 300.538 421.138 300.235 421.44C299.942 421.743 299.566 421.992 299.107 422.188C298.648 422.373 298.116 422.466 297.511 422.466C296.7 422.466 296.002 422.29 295.416 421.938C294.83 421.577 294.376 421.064 294.054 420.4C293.741 419.727 293.585 418.916 293.585 417.969V416.562C293.585 415.586 293.741 414.756 294.054 414.072C294.376 413.389 294.815 412.876 295.372 412.534C295.938 412.183 296.583 412.007 297.306 412.007C298.019 412.007 298.648 412.178 299.195 412.52C299.742 412.852 300.172 413.354 300.484 414.028C300.797 414.702 300.953 415.547 300.953 416.562V417.969L302.711 415.698H291.769V418.13H304.454V416.958C304.454 415.396 304.161 414.028 303.575 412.856C302.999 411.685 302.169 410.776 301.085 410.132C300.011 409.478 298.736 409.15 297.262 409.15C295.777 409.15 294.488 409.487 293.395 410.161C292.311 410.835 291.466 411.782 290.86 413.003C290.265 414.214 289.967 415.635 289.967 417.266V417.28C289.967 418.921 290.265 420.342 290.86 421.543C291.456 422.744 292.311 423.672 293.424 424.326C294.547 424.98 295.885 425.308 297.438 425.308ZM306.783 425H310.416V415.991C310.416 415.239 310.558 414.585 310.841 414.028C311.124 413.462 311.524 413.022 312.042 412.71C312.56 412.388 313.165 412.227 313.858 412.227C314.894 412.227 315.67 412.529 316.188 413.135C316.705 413.73 316.964 414.58 316.964 415.684V425H320.611V414.951C320.611 413.154 320.143 411.738 319.205 410.703C318.277 409.668 316.959 409.15 315.25 409.15C314.078 409.15 313.092 409.399 312.291 409.897C311.5 410.396 310.904 411.064 310.504 411.904H310.416V409.473H306.783V425ZM329.298 425.308C329.679 425.308 330.021 425.293 330.323 425.264C330.636 425.234 330.899 425.205 331.114 425.176V422.437C330.987 422.446 330.851 422.461 330.704 422.48C330.567 422.49 330.406 422.495 330.221 422.495C329.566 422.495 329.068 422.354 328.727 422.07C328.395 421.777 328.229 421.255 328.229 420.503V412.285H331.114V409.473H328.229V405.532H324.522V409.473H322.325V412.285H324.522V420.796C324.522 422.397 324.913 423.55 325.694 424.253C326.485 424.956 327.687 425.308 329.298 425.308Z" fill="#181818"/>
<path d="M952 414C952 380.863 978.863 354 1012 354H1132C1165.14 354 1192 380.863 1192 414V414C1192 447.137 1165.14 474 1132 474H1012C978.863 474 952 447.137 952 414V414Z" fill="#F8F8F8"/>
<path d="M1012.4 425H1016.35L1022.03 407.627H1023.13V403.862H1019.95L1012.4 425ZM1016.22 419.536H1027.92L1026.91 416.621H1017.23L1016.22 419.536ZM1027.79 425H1031.75L1024.2 403.862H1022.11V407.627L1027.79 425ZM1038.95 425.308C1040.08 425.308 1041.05 425.049 1041.88 424.531C1042.71 424.004 1043.35 423.281 1043.79 422.363H1043.88V425H1047.51V403.862H1043.88V412.139H1043.79C1043.35 411.211 1042.7 410.483 1041.85 409.956C1041.01 409.419 1040.04 409.15 1038.94 409.15C1037.64 409.15 1036.51 409.478 1035.55 410.132C1034.6 410.776 1033.86 411.704 1033.33 412.915C1032.8 414.116 1032.54 415.552 1032.54 417.222V417.236C1032.54 418.896 1032.8 420.332 1033.31 421.543C1033.84 422.754 1034.58 423.687 1035.54 424.341C1036.51 424.985 1037.64 425.308 1038.95 425.308ZM1040.05 422.246C1039.27 422.246 1038.59 422.046 1038.02 421.646C1037.45 421.235 1037.01 420.654 1036.7 419.902C1036.39 419.15 1036.24 418.262 1036.24 417.236V417.222C1036.24 416.187 1036.39 415.298 1036.7 414.556C1037.01 413.813 1037.45 413.242 1038.02 412.842C1038.59 412.432 1039.27 412.227 1040.05 412.227C1040.8 412.227 1041.46 412.432 1042.03 412.842C1042.61 413.252 1043.05 413.833 1043.38 414.585C1043.71 415.327 1043.88 416.206 1043.88 417.222V417.236C1043.88 418.252 1043.71 419.136 1043.39 419.888C1043.07 420.64 1042.62 421.221 1042.04 421.631C1041.47 422.041 1040.8 422.246 1040.05 422.246ZM1056.36 425.308C1057.48 425.308 1058.46 425.049 1059.29 424.531C1060.12 424.004 1060.75 423.281 1061.19 422.363H1061.28V425H1064.91V403.862H1061.28V412.139H1061.19C1060.75 411.211 1060.11 410.483 1059.26 409.956C1058.42 409.419 1057.44 409.15 1056.34 409.15C1055.04 409.15 1053.91 409.478 1052.96 410.132C1052 410.776 1051.26 411.704 1050.73 412.915C1050.2 414.116 1049.94 415.552 1049.94 417.222V417.236C1049.94 418.896 1050.2 420.332 1050.72 421.543C1051.24 422.754 1051.99 423.687 1052.94 424.341C1053.91 424.985 1055.05 425.308 1056.36 425.308ZM1057.45 422.246C1056.67 422.246 1055.99 422.046 1055.42 421.646C1054.85 421.235 1054.41 420.654 1054.1 419.902C1053.8 419.15 1053.65 418.262 1053.65 417.236V417.222C1053.65 416.187 1053.8 415.298 1054.1 414.556C1054.41 413.813 1054.85 413.242 1055.42 412.842C1055.99 412.432 1056.67 412.227 1057.45 412.227C1058.21 412.227 1058.87 412.432 1059.43 412.842C1060.01 413.252 1060.46 413.833 1060.78 414.585C1061.11 415.327 1061.28 416.206 1061.28 417.222V417.236C1061.28 418.252 1061.12 419.136 1060.79 419.888C1060.47 420.64 1060.02 421.221 1059.45 421.631C1058.87 422.041 1058.21 422.246 1057.45 422.246ZM1076.28 418.013H1082.53C1083.96 418.013 1085.21 417.72 1086.28 417.134C1087.37 416.538 1088.21 415.713 1088.82 414.658C1089.42 413.594 1089.72 412.358 1089.72 410.952V410.923C1089.72 409.507 1089.42 408.271 1088.82 407.217C1088.21 406.152 1087.37 405.327 1086.28 404.741C1085.21 404.155 1083.96 403.862 1082.53 403.862H1076.28V406.938H1081.59C1082.96 406.938 1084.02 407.285 1084.76 407.979C1085.51 408.672 1085.89 409.658 1085.89 410.938V410.967C1085.89 412.236 1085.51 413.223 1084.76 413.926C1084.02 414.619 1082.96 414.966 1081.59 414.966H1076.28V418.013ZM1074.39 425H1078.17V403.862H1074.39V425ZM1098.37 425.308C1099.37 425.308 1100.27 425.176 1101.06 424.912C1101.85 424.639 1102.54 424.272 1103.11 423.813C1103.69 423.354 1104.15 422.842 1104.49 422.275C1104.83 421.699 1105.07 421.113 1105.19 420.518L1105.22 420.356H1101.82L1101.79 420.459C1101.68 420.811 1101.47 421.138 1101.17 421.44C1100.87 421.743 1100.5 421.992 1100.04 422.188C1099.58 422.373 1099.05 422.466 1098.44 422.466C1097.63 422.466 1096.93 422.29 1096.35 421.938C1095.76 421.577 1095.31 421.064 1094.98 420.4C1094.67 419.727 1094.51 418.916 1094.51 417.969V416.562C1094.51 415.586 1094.67 414.756 1094.98 414.072C1095.31 413.389 1095.75 412.876 1096.3 412.534C1096.87 412.183 1097.51 412.007 1098.24 412.007C1098.95 412.007 1099.58 412.178 1100.12 412.52C1100.67 412.852 1101.1 413.354 1101.41 414.028C1101.73 414.702 1101.88 415.547 1101.88 416.562V417.969L1103.64 415.698H1092.7V418.13H1105.38V416.958C1105.38 415.396 1105.09 414.028 1104.5 412.856C1103.93 411.685 1103.1 410.776 1102.01 410.132C1100.94 409.478 1099.67 409.15 1098.19 409.15C1096.71 409.15 1095.42 409.487 1094.32 410.161C1093.24 410.835 1092.4 411.782 1091.79 413.003C1091.19 414.214 1090.9 415.635 1090.9 417.266V417.28C1090.9 418.921 1091.19 420.342 1091.79 421.543C1092.39 422.744 1093.24 423.672 1094.35 424.326C1095.48 424.98 1096.81 425.308 1098.37 425.308ZM1113.47 425.308C1113.85 425.308 1114.19 425.293 1114.5 425.264C1114.81 425.234 1115.07 425.205 1115.29 425.176V422.437C1115.16 422.446 1115.02 422.461 1114.88 422.48C1114.74 422.49 1114.58 422.495 1114.39 422.495C1113.74 422.495 1113.24 422.354 1112.9 422.07C1112.57 421.777 1112.4 421.255 1112.4 420.503V412.285H1115.29V409.473H1112.4V405.532H1108.69V409.473H1106.5V412.285H1108.69V420.796C1108.69 422.397 1109.08 423.55 1109.87 424.253C1110.66 424.956 1111.86 425.308 1113.47 425.308ZM1123.86 425.308C1125.12 425.308 1126.25 425.107 1127.22 424.707C1128.21 424.297 1128.98 423.726 1129.54 422.993C1130.1 422.251 1130.37 421.392 1130.37 420.415V420.4C1130.37 419.277 1130.03 418.384 1129.35 417.72C1128.67 417.046 1127.52 416.528 1125.91 416.167L1123.33 415.596C1122.53 415.41 1121.96 415.166 1121.61 414.863C1121.28 414.561 1121.12 414.189 1121.12 413.75V413.735C1121.12 413.354 1121.22 413.022 1121.42 412.739C1121.64 412.456 1121.94 412.236 1122.33 412.08C1122.73 411.924 1123.2 411.846 1123.74 411.846C1124.59 411.846 1125.26 412.051 1125.75 412.461C1126.23 412.861 1126.52 413.374 1126.59 413.999L1126.61 414.116H1130.01L1129.99 413.955C1129.95 413.057 1129.68 412.246 1129.17 411.523C1128.67 410.801 1127.97 410.225 1127.05 409.795C1126.13 409.365 1125.03 409.15 1123.74 409.15C1122.5 409.15 1121.41 409.351 1120.47 409.751C1119.53 410.151 1118.81 410.708 1118.29 411.421C1117.77 412.134 1117.51 412.964 1117.51 413.911V413.926C1117.51 415.078 1117.88 416.021 1118.63 416.753C1119.38 417.485 1120.5 418.013 1121.98 418.335L1124.56 418.906C1125.37 419.092 1125.93 419.331 1126.24 419.624C1126.56 419.907 1126.71 420.278 1126.71 420.737V420.752C1126.71 421.133 1126.59 421.465 1126.36 421.748C1126.14 422.031 1125.81 422.246 1125.39 422.393C1124.97 422.539 1124.47 422.612 1123.87 422.612C1122.94 422.612 1122.22 422.427 1121.7 422.056C1121.19 421.685 1120.87 421.162 1120.74 420.488L1120.71 420.356H1117.12L1117.13 420.488C1117.25 421.445 1117.58 422.29 1118.11 423.022C1118.66 423.745 1119.41 424.307 1120.37 424.707C1121.34 425.107 1122.5 425.308 1123.86 425.308Z" fill="#181818"/>
<path d="M22 274C22 240.863 48.8629 214 82 214H330C363.137 214 390 240.863 390 274V274C390 307.137 363.137 334 330 334H82C48.8629 334 22 307.137 22 274V274Z" fill="#F8F8F8"/>
<path d="M85.75 285H92.7227C94.2266 285 95.5156 284.761 96.5898 284.282C97.6738 283.794 98.5088 283.105 99.0947 282.217C99.6807 281.318 99.9736 280.254 99.9736 279.023V278.994C99.9736 278.057 99.7637 277.222 99.3438 276.489C98.9238 275.747 98.3379 275.146 97.5859 274.688C96.834 274.229 95.9648 273.955 94.9785 273.867V273.794C95.7305 273.687 96.4092 273.413 97.0146 272.974C97.6201 272.524 98.0938 271.973 98.4355 271.318C98.7871 270.654 98.9629 269.941 98.9629 269.18V269.15C98.9629 268.076 98.6992 267.144 98.1719 266.353C97.6543 265.562 96.9219 264.951 95.9746 264.521C95.0371 264.082 93.9238 263.862 92.6348 263.862H85.75V266.792H91.6826C92.8057 266.792 93.6748 267.041 94.29 267.539C94.915 268.037 95.2275 268.74 95.2275 269.648V269.678C95.2275 270.684 94.8711 271.455 94.1582 271.992C93.4453 272.529 92.4053 272.798 91.0381 272.798H85.75V275.537H91.6387C92.625 275.537 93.4502 275.659 94.1143 275.903C94.7783 276.138 95.2764 276.499 95.6084 276.987C95.9502 277.466 96.1211 278.062 96.1211 278.774V278.804C96.1211 279.868 95.7549 280.679 95.0225 281.235C94.2998 281.792 93.2451 282.07 91.8584 282.07H85.75V285ZM83.8604 285H87.6396V263.862H83.8604V285ZM109.173 285.308C110.696 285.308 112.02 284.985 113.143 284.341C114.266 283.696 115.135 282.773 115.75 281.572C116.375 280.361 116.688 278.916 116.688 277.236V277.207C116.688 275.537 116.375 274.102 115.75 272.9C115.125 271.699 114.246 270.776 113.113 270.132C111.99 269.478 110.672 269.15 109.158 269.15C107.654 269.15 106.341 269.478 105.218 270.132C104.095 270.776 103.221 271.704 102.596 272.915C101.971 274.116 101.658 275.547 101.658 277.207V277.236C101.658 278.906 101.966 280.347 102.581 281.558C103.206 282.759 104.08 283.687 105.203 284.341C106.326 284.985 107.649 285.308 109.173 285.308ZM109.188 282.363C108.416 282.363 107.742 282.163 107.166 281.763C106.6 281.362 106.155 280.781 105.833 280.02C105.521 279.248 105.364 278.32 105.364 277.236V277.207C105.364 276.133 105.521 275.215 105.833 274.453C106.155 273.691 106.6 273.11 107.166 272.71C107.742 272.31 108.406 272.109 109.158 272.109C109.93 272.109 110.599 272.31 111.165 272.71C111.741 273.11 112.186 273.691 112.498 274.453C112.811 275.215 112.967 276.133 112.967 277.207V277.236C112.967 278.32 112.811 279.248 112.498 280.02C112.195 280.781 111.761 281.362 111.194 281.763C110.628 282.163 109.959 282.363 109.188 282.363ZM125.901 285.308C127.425 285.308 128.748 284.985 129.871 284.341C130.994 283.696 131.863 282.773 132.479 281.572C133.104 280.361 133.416 278.916 133.416 277.236V277.207C133.416 275.537 133.104 274.102 132.479 272.9C131.854 271.699 130.975 270.776 129.842 270.132C128.719 269.478 127.4 269.15 125.887 269.15C124.383 269.15 123.069 269.478 121.946 270.132C120.823 270.776 119.949 271.704 119.324 272.915C118.699 274.116 118.387 275.547 118.387 277.207V277.236C118.387 278.906 118.694 280.347 119.31 281.558C119.935 282.759 120.809 283.687 121.932 284.341C123.055 284.985 124.378 285.308 125.901 285.308ZM125.916 282.363C125.145 282.363 124.471 282.163 123.895 281.763C123.328 281.362 122.884 280.781 122.562 280.02C122.249 279.248 122.093 278.32 122.093 277.236V277.207C122.093 276.133 122.249 275.215 122.562 274.453C122.884 273.691 123.328 273.11 123.895 272.71C124.471 272.31 125.135 272.109 125.887 272.109C126.658 272.109 127.327 272.31 127.894 272.71C128.47 273.11 128.914 273.691 129.227 274.453C129.539 275.215 129.695 276.133 129.695 277.207V277.236C129.695 278.32 129.539 279.248 129.227 280.02C128.924 280.781 128.489 281.362 127.923 281.763C127.356 282.163 126.688 282.363 125.916 282.363ZM135.921 285H139.554V263.862H135.921V285ZM145.706 285H149.91L142.835 275.244L140.506 277.939L145.706 285ZM139.026 280.166L141.736 277.339H142.41L149.646 269.473H145.442L139.642 275.918H139.026V280.166ZM156.253 285H160.208L165.892 267.627H166.99V263.862H163.812L156.253 285ZM160.076 279.536H171.78L170.77 276.621H161.087L160.076 279.536ZM171.648 285H175.604L168.06 263.862H165.965V267.627L171.648 285ZM177.508 290.127H181.141V282.378H181.229C181.521 282.983 181.907 283.506 182.386 283.945C182.864 284.385 183.416 284.722 184.041 284.956C184.676 285.19 185.359 285.308 186.092 285.308C187.391 285.308 188.514 284.985 189.461 284.341C190.418 283.687 191.155 282.759 191.673 281.558C192.2 280.347 192.464 278.911 192.464 277.251V277.236C192.464 275.566 192.2 274.126 191.673 272.915C191.155 271.704 190.413 270.776 189.446 270.132C188.489 269.478 187.352 269.15 186.033 269.15C185.301 269.15 184.622 269.272 183.997 269.517C183.382 269.761 182.84 270.107 182.371 270.557C181.912 270.996 181.531 271.528 181.229 272.153H181.141V269.473H177.508V290.127ZM184.964 282.246C184.212 282.246 183.548 282.041 182.972 281.631C182.396 281.221 181.941 280.645 181.609 279.902C181.287 279.15 181.126 278.267 181.126 277.251V277.236C181.126 276.211 181.287 275.327 181.609 274.585C181.941 273.833 182.396 273.252 182.972 272.842C183.548 272.432 184.212 272.227 184.964 272.227C185.735 272.227 186.404 272.427 186.971 272.827C187.547 273.228 187.986 273.804 188.289 274.556C188.602 275.298 188.758 276.191 188.758 277.236V277.251C188.758 278.267 188.602 279.15 188.289 279.902C187.986 280.645 187.552 281.221 186.985 281.631C186.419 282.041 185.745 282.246 184.964 282.246ZM194.822 290.127H198.455V282.378H198.543C198.836 282.983 199.222 283.506 199.7 283.945C200.179 284.385 200.73 284.722 201.355 284.956C201.99 285.19 202.674 285.308 203.406 285.308C204.705 285.308 205.828 284.985 206.775 284.341C207.732 283.687 208.47 282.759 208.987 281.558C209.515 280.347 209.778 278.911 209.778 277.251V277.236C209.778 275.566 209.515 274.126 208.987 272.915C208.47 271.704 207.728 270.776 206.761 270.132C205.804 269.478 204.666 269.15 203.348 269.15C202.615 269.15 201.937 269.272 201.312 269.517C200.696 269.761 200.154 270.107 199.686 270.557C199.227 270.996 198.846 271.528 198.543 272.153H198.455V269.473H194.822V290.127ZM202.278 282.246C201.526 282.246 200.862 282.041 200.286 281.631C199.71 281.221 199.256 280.645 198.924 279.902C198.602 279.15 198.44 278.267 198.44 277.251V277.236C198.44 276.211 198.602 275.327 198.924 274.585C199.256 273.833 199.71 273.252 200.286 272.842C200.862 272.432 201.526 272.227 202.278 272.227C203.05 272.227 203.719 272.427 204.285 272.827C204.861 273.228 205.301 273.804 205.604 274.556C205.916 275.298 206.072 276.191 206.072 277.236V277.251C206.072 278.267 205.916 279.15 205.604 279.902C205.301 280.645 204.866 281.221 204.3 281.631C203.733 282.041 203.06 282.246 202.278 282.246ZM219.007 285.308C220.53 285.308 221.854 284.985 222.977 284.341C224.1 283.696 224.969 282.773 225.584 281.572C226.209 280.361 226.521 278.916 226.521 277.236V277.207C226.521 275.537 226.209 274.102 225.584 272.9C224.959 271.699 224.08 270.776 222.947 270.132C221.824 269.478 220.506 269.15 218.992 269.15C217.488 269.15 216.175 269.478 215.052 270.132C213.929 270.776 213.055 271.704 212.43 272.915C211.805 274.116 211.492 275.547 211.492 277.207V277.236C211.492 278.906 211.8 280.347 212.415 281.558C213.04 282.759 213.914 283.687 215.037 284.341C216.16 284.985 217.483 285.308 219.007 285.308ZM219.021 282.363C218.25 282.363 217.576 282.163 217 281.763C216.434 281.362 215.989 280.781 215.667 280.02C215.354 279.248 215.198 278.32 215.198 277.236V277.207C215.198 276.133 215.354 275.215 215.667 274.453C215.989 273.691 216.434 273.11 217 272.71C217.576 272.31 218.24 272.109 218.992 272.109C219.764 272.109 220.433 272.31 220.999 272.71C221.575 273.11 222.02 273.691 222.332 274.453C222.645 275.215 222.801 276.133 222.801 277.207V277.236C222.801 278.32 222.645 279.248 222.332 280.02C222.029 280.781 221.595 281.362 221.028 281.763C220.462 282.163 219.793 282.363 219.021 282.363ZM228.968 285H232.615V269.473H228.968V285ZM230.784 267.246C231.36 267.246 231.844 267.051 232.234 266.66C232.625 266.27 232.82 265.801 232.82 265.254C232.82 264.697 232.625 264.229 232.234 263.848C231.844 263.457 231.36 263.262 230.784 263.262C230.218 263.262 229.739 263.457 229.349 263.848C228.958 264.229 228.763 264.697 228.763 265.254C228.763 265.801 228.958 266.27 229.349 266.66C229.739 267.051 230.218 267.246 230.784 267.246ZM235.721 285H239.354V275.991C239.354 275.239 239.495 274.585 239.778 274.028C240.062 273.462 240.462 273.022 240.979 272.71C241.497 272.388 242.103 272.227 242.796 272.227C243.831 272.227 244.607 272.529 245.125 273.135C245.643 273.73 245.901 274.58 245.901 275.684V285H249.549V274.951C249.549 273.154 249.08 271.738 248.143 270.703C247.215 269.668 245.896 269.15 244.188 269.15C243.016 269.15 242.029 269.399 241.229 269.897C240.438 270.396 239.842 271.064 239.441 271.904H239.354V269.473H235.721V285ZM258.235 285.308C258.616 285.308 258.958 285.293 259.261 285.264C259.573 285.234 259.837 285.205 260.052 285.176V282.437C259.925 282.446 259.788 282.461 259.642 282.48C259.505 282.49 259.344 282.495 259.158 282.495C258.504 282.495 258.006 282.354 257.664 282.07C257.332 281.777 257.166 281.255 257.166 280.503V272.285H260.052V269.473H257.166V265.532H253.46V269.473H251.263V272.285H253.46V280.796C253.46 282.397 253.851 283.55 254.632 284.253C255.423 284.956 256.624 285.308 258.235 285.308ZM262.557 285H266.189V275.493C266.189 274.858 266.316 274.297 266.57 273.809C266.834 273.32 267.19 272.935 267.64 272.651C268.089 272.368 268.606 272.227 269.192 272.227C270.042 272.227 270.711 272.48 271.199 272.988C271.697 273.486 271.946 274.175 271.946 275.054V285H275.491V275.405C275.491 274.78 275.613 274.229 275.857 273.75C276.111 273.271 276.458 272.9 276.897 272.637C277.347 272.363 277.864 272.227 278.45 272.227C279.349 272.227 280.037 272.49 280.516 273.018C280.994 273.545 281.233 274.287 281.233 275.244V285H284.881V274.351C284.881 273.306 284.666 272.397 284.236 271.626C283.816 270.845 283.226 270.239 282.464 269.81C281.712 269.37 280.823 269.15 279.798 269.15C279.056 269.15 278.362 269.282 277.718 269.546C277.083 269.8 276.526 270.161 276.048 270.63C275.579 271.089 275.218 271.641 274.964 272.285H274.891C274.705 271.621 274.407 271.06 273.997 270.601C273.597 270.132 273.108 269.775 272.532 269.531C271.956 269.277 271.307 269.15 270.584 269.15C269.559 269.15 268.665 269.409 267.903 269.927C267.142 270.435 266.6 271.113 266.277 271.963H266.189V269.473H262.557V285ZM294.637 285.308C295.643 285.308 296.541 285.176 297.332 284.912C298.123 284.639 298.807 284.272 299.383 283.813C299.959 283.354 300.418 282.842 300.76 282.275C301.102 281.699 301.336 281.113 301.463 280.518L301.492 280.356H298.094L298.064 280.459C297.947 280.811 297.737 281.138 297.435 281.44C297.142 281.743 296.766 281.992 296.307 282.188C295.848 282.373 295.315 282.466 294.71 282.466C293.899 282.466 293.201 282.29 292.615 281.938C292.029 281.577 291.575 281.064 291.253 280.4C290.94 279.727 290.784 278.916 290.784 277.969V276.562C290.784 275.586 290.94 274.756 291.253 274.072C291.575 273.389 292.015 272.876 292.571 272.534C293.138 272.183 293.782 272.007 294.505 272.007C295.218 272.007 295.848 272.178 296.395 272.52C296.941 272.852 297.371 273.354 297.684 274.028C297.996 274.702 298.152 275.547 298.152 276.562V277.969L299.91 275.698H288.968V278.13H301.653V276.958C301.653 275.396 301.36 274.028 300.774 272.856C300.198 271.685 299.368 270.776 298.284 270.132C297.21 269.478 295.936 269.15 294.461 269.15C292.977 269.15 291.688 269.487 290.594 270.161C289.51 270.835 288.665 271.782 288.06 273.003C287.464 274.214 287.166 275.635 287.166 277.266V277.28C287.166 278.921 287.464 280.342 288.06 281.543C288.655 282.744 289.51 283.672 290.623 284.326C291.746 284.98 293.084 285.308 294.637 285.308ZM303.982 285H307.615V275.991C307.615 275.239 307.757 274.585 308.04 274.028C308.323 273.462 308.724 273.022 309.241 272.71C309.759 272.388 310.364 272.227 311.058 272.227C312.093 272.227 312.869 272.529 313.387 273.135C313.904 273.73 314.163 274.58 314.163 275.684V285H317.811V274.951C317.811 273.154 317.342 271.738 316.404 270.703C315.477 269.668 314.158 269.15 312.449 269.15C311.277 269.15 310.291 269.399 309.49 269.897C308.699 270.396 308.104 271.064 307.703 271.904H307.615V269.473H303.982V285ZM326.497 285.308C326.878 285.308 327.22 285.293 327.522 285.264C327.835 285.234 328.099 285.205 328.313 285.176V282.437C328.187 282.446 328.05 282.461 327.903 282.48C327.767 282.49 327.605 282.495 327.42 282.495C326.766 282.495 326.268 282.354 325.926 282.07C325.594 281.777 325.428 281.255 325.428 280.503V272.285H328.313V269.473H325.428V265.532H321.722V269.473H319.524V272.285H321.722V280.796C321.722 282.397 322.112 283.55 322.894 284.253C323.685 284.956 324.886 285.308 326.497 285.308Z" fill="#181818"/>
<path d="M888 274C888 240.863 914.863 214 948 214H1196C1229.14 214 1256 240.863 1256 274V274C1256 307.137 1229.14 334 1196 334H948C914.863 334 888 307.137 888 274V274Z" fill="#F8F8F8"/>
<path d="M951.75 285H958.723C960.227 285 961.516 284.761 962.59 284.282C963.674 283.794 964.509 283.105 965.095 282.217C965.681 281.318 965.974 280.254 965.974 279.023V278.994C965.974 278.057 965.764 277.222 965.344 276.489C964.924 275.747 964.338 275.146 963.586 274.688C962.834 274.229 961.965 273.955 960.979 273.867V273.794C961.73 273.687 962.409 273.413 963.015 272.974C963.62 272.524 964.094 271.973 964.436 271.318C964.787 270.654 964.963 269.941 964.963 269.18V269.15C964.963 268.076 964.699 267.144 964.172 266.353C963.654 265.562 962.922 264.951 961.975 264.521C961.037 264.082 959.924 263.862 958.635 263.862H951.75V266.792H957.683C958.806 266.792 959.675 267.041 960.29 267.539C960.915 268.037 961.228 268.74 961.228 269.648V269.678C961.228 270.684 960.871 271.455 960.158 271.992C959.445 272.529 958.405 272.798 957.038 272.798H951.75V275.537H957.639C958.625 275.537 959.45 275.659 960.114 275.903C960.778 276.138 961.276 276.499 961.608 276.987C961.95 277.466 962.121 278.062 962.121 278.774V278.804C962.121 279.868 961.755 280.679 961.022 281.235C960.3 281.792 959.245 282.07 957.858 282.07H951.75V285ZM949.86 285H953.64V263.862H949.86V285ZM975.173 285.308C976.696 285.308 978.02 284.985 979.143 284.341C980.266 283.696 981.135 282.773 981.75 281.572C982.375 280.361 982.688 278.916 982.688 277.236V277.207C982.688 275.537 982.375 274.102 981.75 272.9C981.125 271.699 980.246 270.776 979.113 270.132C977.99 269.478 976.672 269.15 975.158 269.15C973.654 269.15 972.341 269.478 971.218 270.132C970.095 270.776 969.221 271.704 968.596 272.915C967.971 274.116 967.658 275.547 967.658 277.207V277.236C967.658 278.906 967.966 280.347 968.581 281.558C969.206 282.759 970.08 283.687 971.203 284.341C972.326 284.985 973.649 285.308 975.173 285.308ZM975.188 282.363C974.416 282.363 973.742 282.163 973.166 281.763C972.6 281.362 972.155 280.781 971.833 280.02C971.521 279.248 971.364 278.32 971.364 277.236V277.207C971.364 276.133 971.521 275.215 971.833 274.453C972.155 273.691 972.6 273.11 973.166 272.71C973.742 272.31 974.406 272.109 975.158 272.109C975.93 272.109 976.599 272.31 977.165 272.71C977.741 273.11 978.186 273.691 978.498 274.453C978.811 275.215 978.967 276.133 978.967 277.207V277.236C978.967 278.32 978.811 279.248 978.498 280.02C978.195 280.781 977.761 281.362 977.194 281.763C976.628 282.163 975.959 282.363 975.188 282.363ZM991.901 285.308C993.425 285.308 994.748 284.985 995.871 284.341C996.994 283.696 997.863 282.773 998.479 281.572C999.104 280.361 999.416 278.916 999.416 277.236V277.207C999.416 275.537 999.104 274.102 998.479 272.9C997.854 271.699 996.975 270.776 995.842 270.132C994.719 269.478 993.4 269.15 991.887 269.15C990.383 269.15 989.069 269.478 987.946 270.132C986.823 270.776 985.949 271.704 985.324 272.915C984.699 274.116 984.387 275.547 984.387 277.207V277.236C984.387 278.906 984.694 280.347 985.31 281.558C985.935 282.759 986.809 283.687 987.932 284.341C989.055 284.985 990.378 285.308 991.901 285.308ZM991.916 282.363C991.145 282.363 990.471 282.163 989.895 281.763C989.328 281.362 988.884 280.781 988.562 280.02C988.249 279.248 988.093 278.32 988.093 277.236V277.207C988.093 276.133 988.249 275.215 988.562 274.453C988.884 273.691 989.328 273.11 989.895 272.71C990.471 272.31 991.135 272.109 991.887 272.109C992.658 272.109 993.327 272.31 993.894 272.71C994.47 273.11 994.914 273.691 995.227 274.453C995.539 275.215 995.695 276.133 995.695 277.207V277.236C995.695 278.32 995.539 279.248 995.227 280.02C994.924 280.781 994.489 281.362 993.923 281.763C993.356 282.163 992.688 282.363 991.916 282.363ZM1001.92 285H1005.55V263.862H1001.92V285ZM1011.71 285H1015.91L1008.83 275.244L1006.51 277.939L1011.71 285ZM1005.03 280.166L1007.74 277.339H1008.41L1015.65 269.473H1011.44L1005.64 275.918H1005.03V280.166ZM1022.25 285H1026.21L1031.89 267.627H1032.99V263.862H1029.81L1022.25 285ZM1026.08 279.536H1037.78L1036.77 276.621H1027.09L1026.08 279.536ZM1037.65 285H1041.6L1034.06 263.862H1031.96V267.627L1037.65 285ZM1043.51 290.127H1047.14V282.378H1047.23C1047.52 282.983 1047.91 283.506 1048.39 283.945C1048.86 284.385 1049.42 284.722 1050.04 284.956C1050.68 285.19 1051.36 285.308 1052.09 285.308C1053.39 285.308 1054.51 284.985 1055.46 284.341C1056.42 283.687 1057.16 282.759 1057.67 281.558C1058.2 280.347 1058.46 278.911 1058.46 277.251V277.236C1058.46 275.566 1058.2 274.126 1057.67 272.915C1057.16 271.704 1056.41 270.776 1055.45 270.132C1054.49 269.478 1053.35 269.15 1052.03 269.15C1051.3 269.15 1050.62 269.272 1050 269.517C1049.38 269.761 1048.84 270.107 1048.37 270.557C1047.91 270.996 1047.53 271.528 1047.23 272.153H1047.14V269.473H1043.51V290.127ZM1050.96 282.246C1050.21 282.246 1049.55 282.041 1048.97 281.631C1048.4 281.221 1047.94 280.645 1047.61 279.902C1047.29 279.15 1047.13 278.267 1047.13 277.251V277.236C1047.13 276.211 1047.29 275.327 1047.61 274.585C1047.94 273.833 1048.4 273.252 1048.97 272.842C1049.55 272.432 1050.21 272.227 1050.96 272.227C1051.74 272.227 1052.4 272.427 1052.97 272.827C1053.55 273.228 1053.99 273.804 1054.29 274.556C1054.6 275.298 1054.76 276.191 1054.76 277.236V277.251C1054.76 278.267 1054.6 279.15 1054.29 279.902C1053.99 280.645 1053.55 281.221 1052.99 281.631C1052.42 282.041 1051.75 282.246 1050.96 282.246ZM1060.82 290.127H1064.46V282.378H1064.54C1064.84 282.983 1065.22 283.506 1065.7 283.945C1066.18 284.385 1066.73 284.722 1067.36 284.956C1067.99 285.19 1068.67 285.308 1069.41 285.308C1070.71 285.308 1071.83 284.985 1072.78 284.341C1073.73 283.687 1074.47 282.759 1074.99 281.558C1075.51 280.347 1075.78 278.911 1075.78 277.251V277.236C1075.78 275.566 1075.51 274.126 1074.99 272.915C1074.47 271.704 1073.73 270.776 1072.76 270.132C1071.8 269.478 1070.67 269.15 1069.35 269.15C1068.62 269.15 1067.94 269.272 1067.31 269.517C1066.7 269.761 1066.15 270.107 1065.69 270.557C1065.23 270.996 1064.85 271.528 1064.54 272.153H1064.46V269.473H1060.82V290.127ZM1068.28 282.246C1067.53 282.246 1066.86 282.041 1066.29 281.631C1065.71 281.221 1065.26 280.645 1064.92 279.902C1064.6 279.15 1064.44 278.267 1064.44 277.251V277.236C1064.44 276.211 1064.6 275.327 1064.92 274.585C1065.26 273.833 1065.71 273.252 1066.29 272.842C1066.86 272.432 1067.53 272.227 1068.28 272.227C1069.05 272.227 1069.72 272.427 1070.29 272.827C1070.86 273.228 1071.3 273.804 1071.6 274.556C1071.92 275.298 1072.07 276.191 1072.07 277.236V277.251C1072.07 278.267 1071.92 279.15 1071.6 279.902C1071.3 280.645 1070.87 281.221 1070.3 281.631C1069.73 282.041 1069.06 282.246 1068.28 282.246ZM1085.01 285.308C1086.53 285.308 1087.85 284.985 1088.98 284.341C1090.1 283.696 1090.97 282.773 1091.58 281.572C1092.21 280.361 1092.52 278.916 1092.52 277.236V277.207C1092.52 275.537 1092.21 274.102 1091.58 272.9C1090.96 271.699 1090.08 270.776 1088.95 270.132C1087.82 269.478 1086.51 269.15 1084.99 269.15C1083.49 269.15 1082.17 269.478 1081.05 270.132C1079.93 270.776 1079.05 271.704 1078.43 272.915C1077.8 274.116 1077.49 275.547 1077.49 277.207V277.236C1077.49 278.906 1077.8 280.347 1078.42 281.558C1079.04 282.759 1079.91 283.687 1081.04 284.341C1082.16 284.985 1083.48 285.308 1085.01 285.308ZM1085.02 282.363C1084.25 282.363 1083.58 282.163 1083 281.763C1082.43 281.362 1081.99 280.781 1081.67 280.02C1081.35 279.248 1081.2 278.32 1081.2 277.236V277.207C1081.2 276.133 1081.35 275.215 1081.67 274.453C1081.99 273.691 1082.43 273.11 1083 272.71C1083.58 272.31 1084.24 272.109 1084.99 272.109C1085.76 272.109 1086.43 272.31 1087 272.71C1087.58 273.11 1088.02 273.691 1088.33 274.453C1088.64 275.215 1088.8 276.133 1088.8 277.207V277.236C1088.8 278.32 1088.64 279.248 1088.33 280.02C1088.03 280.781 1087.59 281.362 1087.03 281.763C1086.46 282.163 1085.79 282.363 1085.02 282.363ZM1094.97 285H1098.62V269.473H1094.97V285ZM1096.78 267.246C1097.36 267.246 1097.84 267.051 1098.23 266.66C1098.62 266.27 1098.82 265.801 1098.82 265.254C1098.82 264.697 1098.62 264.229 1098.23 263.848C1097.84 263.457 1097.36 263.262 1096.78 263.262C1096.22 263.262 1095.74 263.457 1095.35 263.848C1094.96 264.229 1094.76 264.697 1094.76 265.254C1094.76 265.801 1094.96 266.27 1095.35 266.66C1095.74 267.051 1096.22 267.246 1096.78 267.246ZM1101.72 285H1105.35V275.991C1105.35 275.239 1105.5 274.585 1105.78 274.028C1106.06 273.462 1106.46 273.022 1106.98 272.71C1107.5 272.388 1108.1 272.227 1108.8 272.227C1109.83 272.227 1110.61 272.529 1111.12 273.135C1111.64 273.73 1111.9 274.58 1111.9 275.684V285H1115.55V274.951C1115.55 273.154 1115.08 271.738 1114.14 270.703C1113.21 269.668 1111.9 269.15 1110.19 269.15C1109.02 269.15 1108.03 269.399 1107.23 269.897C1106.44 270.396 1105.84 271.064 1105.44 271.904H1105.35V269.473H1101.72V285ZM1124.24 285.308C1124.62 285.308 1124.96 285.293 1125.26 285.264C1125.57 285.234 1125.84 285.205 1126.05 285.176V282.437C1125.92 282.446 1125.79 282.461 1125.64 282.48C1125.5 282.49 1125.34 282.495 1125.16 282.495C1124.5 282.495 1124.01 282.354 1123.66 282.07C1123.33 281.777 1123.17 281.255 1123.17 280.503V272.285H1126.05V269.473H1123.17V265.532H1119.46V269.473H1117.26V272.285H1119.46V280.796C1119.46 282.397 1119.85 283.55 1120.63 284.253C1121.42 284.956 1122.62 285.308 1124.24 285.308ZM1128.56 285H1132.19V275.493C1132.19 274.858 1132.32 274.297 1132.57 273.809C1132.83 273.32 1133.19 272.935 1133.64 272.651C1134.09 272.368 1134.61 272.227 1135.19 272.227C1136.04 272.227 1136.71 272.48 1137.2 272.988C1137.7 273.486 1137.95 274.175 1137.95 275.054V285H1141.49V275.405C1141.49 274.78 1141.61 274.229 1141.86 273.75C1142.11 273.271 1142.46 272.9 1142.9 272.637C1143.35 272.363 1143.86 272.227 1144.45 272.227C1145.35 272.227 1146.04 272.49 1146.52 273.018C1146.99 273.545 1147.23 274.287 1147.23 275.244V285H1150.88V274.351C1150.88 273.306 1150.67 272.397 1150.24 271.626C1149.82 270.845 1149.23 270.239 1148.46 269.81C1147.71 269.37 1146.82 269.15 1145.8 269.15C1145.06 269.15 1144.36 269.282 1143.72 269.546C1143.08 269.8 1142.53 270.161 1142.05 270.63C1141.58 271.089 1141.22 271.641 1140.96 272.285H1140.89C1140.71 271.621 1140.41 271.06 1140 270.601C1139.6 270.132 1139.11 269.775 1138.53 269.531C1137.96 269.277 1137.31 269.15 1136.58 269.15C1135.56 269.15 1134.67 269.409 1133.9 269.927C1133.14 270.435 1132.6 271.113 1132.28 271.963H1132.19V269.473H1128.56V285ZM1160.64 285.308C1161.64 285.308 1162.54 285.176 1163.33 284.912C1164.12 284.639 1164.81 284.272 1165.38 283.813C1165.96 283.354 1166.42 282.842 1166.76 282.275C1167.1 281.699 1167.34 281.113 1167.46 280.518L1167.49 280.356H1164.09L1164.06 280.459C1163.95 280.811 1163.74 281.138 1163.43 281.44C1163.14 281.743 1162.77 281.992 1162.31 282.188C1161.85 282.373 1161.32 282.466 1160.71 282.466C1159.9 282.466 1159.2 282.29 1158.62 281.938C1158.03 281.577 1157.58 281.064 1157.25 280.4C1156.94 279.727 1156.78 278.916 1156.78 277.969V276.562C1156.78 275.586 1156.94 274.756 1157.25 274.072C1157.58 273.389 1158.01 272.876 1158.57 272.534C1159.14 272.183 1159.78 272.007 1160.5 272.007C1161.22 272.007 1161.85 272.178 1162.39 272.52C1162.94 272.852 1163.37 273.354 1163.68 274.028C1164 274.702 1164.15 275.547 1164.15 276.562V277.969L1165.91 275.698H1154.97V278.13H1167.65V276.958C1167.65 275.396 1167.36 274.028 1166.77 272.856C1166.2 271.685 1165.37 270.776 1164.28 270.132C1163.21 269.478 1161.94 269.15 1160.46 269.15C1158.98 269.15 1157.69 269.487 1156.59 270.161C1155.51 270.835 1154.67 271.782 1154.06 273.003C1153.46 274.214 1153.17 275.635 1153.17 277.266V277.28C1153.17 278.921 1153.46 280.342 1154.06 281.543C1154.66 282.744 1155.51 283.672 1156.62 284.326C1157.75 284.98 1159.08 285.308 1160.64 285.308ZM1169.98 285H1173.62V275.991C1173.62 275.239 1173.76 274.585 1174.04 274.028C1174.32 273.462 1174.72 273.022 1175.24 272.71C1175.76 272.388 1176.36 272.227 1177.06 272.227C1178.09 272.227 1178.87 272.529 1179.39 273.135C1179.9 273.73 1180.16 274.58 1180.16 275.684V285H1183.81V274.951C1183.81 273.154 1183.34 271.738 1182.4 270.703C1181.48 269.668 1180.16 269.15 1178.45 269.15C1177.28 269.15 1176.29 269.399 1175.49 269.897C1174.7 270.396 1174.1 271.064 1173.7 271.904H1173.62V269.473H1169.98V285ZM1192.5 285.308C1192.88 285.308 1193.22 285.293 1193.52 285.264C1193.83 285.234 1194.1 285.205 1194.31 285.176V282.437C1194.19 282.446 1194.05 282.461 1193.9 282.48C1193.77 282.49 1193.61 282.495 1193.42 282.495C1192.77 282.495 1192.27 282.354 1191.93 282.07C1191.59 281.777 1191.43 281.255 1191.43 280.503V272.285H1194.31V269.473H1191.43V265.532H1187.72V269.473H1185.52V272.285H1187.72V280.796C1187.72 282.397 1188.11 283.55 1188.89 284.253C1189.68 284.956 1190.89 285.308 1192.5 285.308Z" fill="#181818"/>
<path d="M58 554C58 520.863 84.8629 494 118 494H294C327.137 494 354 520.863 354 554V554C354 587.137 327.137 614 294 614H118C84.8629 614 58 587.137 58 554V554Z" fill="#F8F8F8"/>
<path d="M118.396 565H122.351L128.034 547.627H129.133V543.862H125.954L118.396 565ZM122.219 559.536H133.923L132.912 556.621H123.229L122.219 559.536ZM133.791 565H137.746L130.202 543.862H128.107V547.627L133.791 565ZM144.953 565.308C146.076 565.308 147.053 565.049 147.883 564.531C148.713 564.004 149.348 563.281 149.787 562.363H149.875V565H153.508V543.862H149.875V552.139H149.787C149.348 551.211 148.703 550.483 147.854 549.956C147.014 549.419 146.042 549.15 144.938 549.15C143.64 549.15 142.512 549.478 141.555 550.132C140.598 550.776 139.855 551.704 139.328 552.915C138.801 554.116 138.537 555.552 138.537 557.222V557.236C138.537 558.896 138.796 560.332 139.313 561.543C139.841 562.754 140.583 563.687 141.54 564.341C142.507 564.985 143.645 565.308 144.953 565.308ZM146.052 562.246C145.271 562.246 144.592 562.046 144.016 561.646C143.449 561.235 143.01 560.654 142.697 559.902C142.395 559.15 142.243 558.262 142.243 557.236V557.222C142.243 556.187 142.395 555.298 142.697 554.556C143.01 553.813 143.449 553.242 144.016 552.842C144.592 552.432 145.271 552.227 146.052 552.227C146.804 552.227 147.463 552.432 148.029 552.842C148.605 553.252 149.055 553.833 149.377 554.585C149.709 555.327 149.875 556.206 149.875 557.222V557.236C149.875 558.252 149.714 559.136 149.392 559.888C149.069 560.64 148.62 561.221 148.044 561.631C147.468 562.041 146.804 562.246 146.052 562.246ZM162.355 565.308C163.479 565.308 164.455 565.049 165.285 564.531C166.115 564.004 166.75 563.281 167.189 562.363H167.277V565H170.91V543.862H167.277V552.139H167.189C166.75 551.211 166.105 550.483 165.256 549.956C164.416 549.419 163.444 549.15 162.341 549.15C161.042 549.15 159.914 549.478 158.957 550.132C158 550.776 157.258 551.704 156.73 552.915C156.203 554.116 155.939 555.552 155.939 557.222V557.236C155.939 558.896 156.198 560.332 156.716 561.543C157.243 562.754 157.985 563.687 158.942 564.341C159.909 564.985 161.047 565.308 162.355 565.308ZM163.454 562.246C162.673 562.246 161.994 562.046 161.418 561.646C160.852 561.235 160.412 560.654 160.1 559.902C159.797 559.15 159.646 558.262 159.646 557.236V557.222C159.646 556.187 159.797 555.298 160.1 554.556C160.412 553.813 160.852 553.242 161.418 552.842C161.994 552.432 162.673 552.227 163.454 552.227C164.206 552.227 164.865 552.432 165.432 552.842C166.008 553.252 166.457 553.833 166.779 554.585C167.111 555.327 167.277 556.206 167.277 557.222V557.236C167.277 558.252 167.116 559.136 166.794 559.888C166.472 560.64 166.022 561.221 165.446 561.631C164.87 562.041 164.206 562.246 163.454 562.246ZM187.814 565.366C189.533 565.366 191.008 565.103 192.238 564.575C193.479 564.048 194.426 563.301 195.08 562.334C195.744 561.367 196.076 560.229 196.076 558.921V558.906C196.076 557.256 195.573 555.962 194.567 555.024C193.562 554.077 191.955 553.374 189.748 552.915L187.478 552.446C186.208 552.183 185.271 551.821 184.665 551.362C184.069 550.894 183.771 550.288 183.771 549.546V549.531C183.771 548.965 183.933 548.467 184.255 548.037C184.587 547.607 185.051 547.275 185.646 547.041C186.252 546.797 186.965 546.675 187.785 546.675C188.576 546.675 189.274 546.792 189.88 547.026C190.485 547.261 190.974 547.598 191.345 548.037C191.716 548.467 191.945 548.989 192.033 549.604L192.062 549.795H195.666L195.651 549.546C195.583 548.345 195.217 547.29 194.553 546.382C193.898 545.474 192.995 544.766 191.843 544.258C190.69 543.75 189.348 543.496 187.814 543.496C186.301 543.496 184.953 543.76 183.771 544.287C182.59 544.805 181.662 545.532 180.988 546.47C180.324 547.397 179.987 548.486 179.978 549.736V549.751C179.978 551.323 180.495 552.603 181.53 553.589C182.565 554.565 184.118 555.269 186.188 555.698L188.459 556.167C189.826 556.46 190.803 556.836 191.389 557.295C191.984 557.754 192.282 558.379 192.282 559.17V559.185C192.282 559.79 192.106 560.322 191.755 560.781C191.403 561.23 190.9 561.577 190.246 561.821C189.602 562.065 188.835 562.188 187.946 562.188C187.067 562.188 186.281 562.07 185.588 561.836C184.904 561.592 184.353 561.25 183.933 560.811C183.513 560.371 183.249 559.849 183.142 559.243L183.112 559.067H179.509L179.523 559.287C179.611 560.547 180.002 561.631 180.695 562.539C181.398 563.447 182.355 564.146 183.566 564.634C184.777 565.122 186.193 565.366 187.814 565.366ZM205.363 565.308C206.369 565.308 207.268 565.176 208.059 564.912C208.85 564.639 209.533 564.272 210.109 563.813C210.686 563.354 211.145 562.842 211.486 562.275C211.828 561.699 212.062 561.113 212.189 560.518L212.219 560.356H208.82L208.791 560.459C208.674 560.811 208.464 561.138 208.161 561.44C207.868 561.743 207.492 561.992 207.033 562.188C206.574 562.373 206.042 562.466 205.437 562.466C204.626 562.466 203.928 562.29 203.342 561.938C202.756 561.577 202.302 561.064 201.979 560.4C201.667 559.727 201.511 558.916 201.511 557.969V556.562C201.511 555.586 201.667 554.756 201.979 554.072C202.302 553.389 202.741 552.876 203.298 552.534C203.864 552.183 204.509 552.007 205.231 552.007C205.944 552.007 206.574 552.178 207.121 552.52C207.668 552.852 208.098 553.354 208.41 554.028C208.723 554.702 208.879 555.547 208.879 556.562V557.969L210.637 555.698H199.694V558.13H212.38V556.958C212.38 555.396 212.087 554.028 211.501 552.856C210.925 551.685 210.095 550.776 209.011 550.132C207.937 549.478 206.662 549.15 205.188 549.15C203.703 549.15 202.414 549.487 201.32 550.161C200.236 550.835 199.392 551.782 198.786 553.003C198.19 554.214 197.893 555.635 197.893 557.266V557.28C197.893 558.921 198.19 560.342 198.786 561.543C199.382 562.744 200.236 563.672 201.35 564.326C202.473 564.98 203.811 565.308 205.363 565.308ZM214.709 565H218.342V555.991C218.342 555.22 218.474 554.565 218.737 554.028C219.001 553.491 219.382 553.086 219.88 552.812C220.378 552.529 220.969 552.388 221.652 552.388C221.965 552.388 222.253 552.407 222.517 552.446C222.79 552.485 223 552.534 223.146 552.593V549.297C223.01 549.258 222.839 549.224 222.634 549.194C222.429 549.165 222.214 549.15 221.989 549.15C221.091 549.15 220.329 549.419 219.704 549.956C219.089 550.483 218.664 551.216 218.43 552.153H218.342V549.473H214.709V565ZM229.709 565H233.723L239.187 549.473H235.393L231.789 561.616H231.701L228.098 549.473H224.216L229.709 565ZM240.974 565H244.621V549.473H240.974V565ZM242.79 547.246C243.366 547.246 243.85 547.051 244.24 546.66C244.631 546.27 244.826 545.801 244.826 545.254C244.826 544.697 244.631 544.229 244.24 543.848C243.85 543.457 243.366 543.262 242.79 543.262C242.224 543.262 241.745 543.457 241.354 543.848C240.964 544.229 240.769 544.697 240.769 545.254C240.769 545.801 240.964 546.27 241.354 546.66C241.745 547.051 242.224 547.246 242.79 547.246ZM254.582 565.308C255.891 565.308 257.038 565.059 258.024 564.561C259.011 564.053 259.797 563.369 260.383 562.51C260.969 561.65 261.311 560.684 261.408 559.609L261.423 559.507H257.98L257.951 559.639C257.785 560.449 257.414 561.108 256.838 561.616C256.271 562.114 255.524 562.363 254.597 562.363C253.835 562.363 253.166 562.163 252.59 561.763C252.023 561.353 251.579 560.767 251.257 560.005C250.944 559.243 250.788 558.325 250.788 557.251V557.236C250.788 556.172 250.944 555.259 251.257 554.497C251.569 553.735 252.009 553.149 252.575 552.739C253.151 552.319 253.82 552.109 254.582 552.109C255.549 552.109 256.311 552.378 256.867 552.915C257.434 553.442 257.79 554.082 257.937 554.834L257.966 554.951H261.394V554.849C261.315 553.813 260.993 552.866 260.427 552.007C259.86 551.147 259.079 550.459 258.083 549.941C257.087 549.414 255.905 549.15 254.538 549.15C253.034 549.15 251.721 549.478 250.598 550.132C249.484 550.786 248.62 551.719 248.005 552.93C247.39 554.131 247.082 555.557 247.082 557.207V557.222C247.082 558.882 247.385 560.317 247.99 561.528C248.605 562.739 249.475 563.672 250.598 564.326C251.721 564.98 253.049 565.308 254.582 565.308ZM270.432 565.308C271.438 565.308 272.336 565.176 273.127 564.912C273.918 564.639 274.602 564.272 275.178 563.813C275.754 563.354 276.213 562.842 276.555 562.275C276.896 561.699 277.131 561.113 277.258 560.518L277.287 560.356H273.889L273.859 560.459C273.742 560.811 273.532 561.138 273.229 561.44C272.937 561.743 272.561 561.992 272.102 562.188C271.643 562.373 271.11 562.466 270.505 562.466C269.694 562.466 268.996 562.29 268.41 561.938C267.824 561.577 267.37 561.064 267.048 560.4C266.735 559.727 266.579 558.916 266.579 557.969V556.562C266.579 555.586 266.735 554.756 267.048 554.072C267.37 553.389 267.81 552.876 268.366 552.534C268.933 552.183 269.577 552.007 270.3 552.007C271.013 552.007 271.643 552.178 272.189 552.52C272.736 552.852 273.166 553.354 273.479 554.028C273.791 554.702 273.947 555.547 273.947 556.562V557.969L275.705 555.698H264.763V558.13H277.448V556.958C277.448 555.396 277.155 554.028 276.569 552.856C275.993 551.685 275.163 550.776 274.079 550.132C273.005 549.478 271.73 549.15 270.256 549.15C268.771 549.15 267.482 549.487 266.389 550.161C265.305 550.835 264.46 551.782 263.854 553.003C263.259 554.214 262.961 555.635 262.961 557.266V557.28C262.961 558.921 263.259 560.342 263.854 561.543C264.45 562.744 265.305 563.672 266.418 564.326C267.541 564.98 268.879 565.308 270.432 565.308ZM285.842 565.308C287.111 565.308 288.234 565.107 289.211 564.707C290.197 564.297 290.969 563.726 291.525 562.993C292.082 562.251 292.36 561.392 292.36 560.415V560.4C292.36 559.277 292.019 558.384 291.335 557.72C290.651 557.046 289.504 556.528 287.893 556.167L285.314 555.596C284.514 555.41 283.942 555.166 283.601 554.863C283.269 554.561 283.103 554.189 283.103 553.75V553.735C283.103 553.354 283.205 553.022 283.41 552.739C283.625 552.456 283.928 552.236 284.318 552.08C284.719 551.924 285.188 551.846 285.725 551.846C286.574 551.846 287.243 552.051 287.731 552.461C288.22 552.861 288.503 553.374 288.581 553.999L288.596 554.116H291.994L291.979 553.955C291.94 553.057 291.667 552.246 291.159 551.523C290.661 550.801 289.953 550.225 289.035 549.795C288.117 549.365 287.014 549.15 285.725 549.15C284.484 549.15 283.396 549.351 282.458 549.751C281.521 550.151 280.793 550.708 280.275 551.421C279.758 552.134 279.499 552.964 279.499 553.911V553.926C279.499 555.078 279.87 556.021 280.612 556.753C281.364 557.485 282.482 558.013 283.967 558.335L286.545 558.906C287.355 559.092 287.917 559.331 288.229 559.624C288.542 559.907 288.698 560.278 288.698 560.737V560.752C288.698 561.133 288.581 561.465 288.347 561.748C288.122 562.031 287.8 562.246 287.38 562.393C286.96 562.539 286.452 562.612 285.856 562.612C284.929 562.612 284.206 562.427 283.688 562.056C283.181 561.685 282.858 561.162 282.722 560.488L282.692 560.356H279.104L279.118 560.488C279.235 561.445 279.562 562.29 280.1 563.022C280.646 563.745 281.398 564.307 282.355 564.707C283.322 565.107 284.484 565.308 285.842 565.308Z" fill="#181818"/>
<path d="M22 694C22 660.863 48.8629 634 82 634H329C362.137 634 389 660.863 389 694V694C389 727.137 362.137 754 329 754H82C48.8629 754 22 727.137 22 694V694Z" fill="#F8F8F8"/>
<path d="M93.0596 705.366C94.6807 705.366 96.1357 705.059 97.4248 704.443C98.7139 703.818 99.7637 702.954 100.574 701.851C101.385 700.747 101.878 699.478 102.054 698.042L102.083 697.881H98.377L98.333 698.027C98.1084 698.896 97.752 699.634 97.2637 700.239C96.7754 700.845 96.1748 701.309 95.4619 701.631C94.7588 701.943 93.958 702.1 93.0596 702.1C91.8389 702.1 90.7695 701.787 89.8516 701.162C88.9434 700.527 88.2402 699.639 87.7422 698.496C87.2441 697.344 86.9951 695.986 86.9951 694.424V694.409C86.9951 692.837 87.2441 691.484 87.7422 690.352C88.2402 689.209 88.9434 688.325 89.8516 687.7C90.7598 687.075 91.8291 686.763 93.0596 686.763C93.9775 686.763 94.793 686.924 95.5059 687.246C96.2188 687.568 96.8096 688.022 97.2783 688.608C97.7471 689.194 98.084 689.893 98.2891 690.703L98.3623 690.981H102.068L102.054 690.835C101.868 689.399 101.37 688.13 100.56 687.026C99.749 685.923 98.6992 685.059 97.4102 684.434C96.1309 683.809 94.6807 683.496 93.0596 683.496C91.0381 683.496 89.2852 683.94 87.8008 684.829C86.3164 685.708 85.1689 686.963 84.3584 688.594C83.5479 690.225 83.1426 692.163 83.1426 694.409V694.424C83.1426 696.67 83.543 698.613 84.3438 700.254C85.1543 701.885 86.3018 703.145 87.7861 704.033C89.2803 704.922 91.0381 705.366 93.0596 705.366ZM104.588 705H108.221V695.991C108.221 695.22 108.353 694.565 108.616 694.028C108.88 693.491 109.261 693.086 109.759 692.812C110.257 692.529 110.848 692.388 111.531 692.388C111.844 692.388 112.132 692.407 112.396 692.446C112.669 692.485 112.879 692.534 113.025 692.593V689.297C112.889 689.258 112.718 689.224 112.513 689.194C112.308 689.165 112.093 689.15 111.868 689.15C110.97 689.15 110.208 689.419 109.583 689.956C108.968 690.483 108.543 691.216 108.309 692.153H108.221V689.473H104.588V705ZM121.141 705.308C122.146 705.308 123.045 705.176 123.836 704.912C124.627 704.639 125.311 704.272 125.887 703.813C126.463 703.354 126.922 702.842 127.264 702.275C127.605 701.699 127.84 701.113 127.967 700.518L127.996 700.356H124.598L124.568 700.459C124.451 700.811 124.241 701.138 123.938 701.44C123.646 701.743 123.27 701.992 122.811 702.188C122.352 702.373 121.819 702.466 121.214 702.466C120.403 702.466 119.705 702.29 119.119 701.938C118.533 701.577 118.079 701.064 117.757 700.4C117.444 699.727 117.288 698.916 117.288 697.969V696.562C117.288 695.586 117.444 694.756 117.757 694.072C118.079 693.389 118.519 692.876 119.075 692.534C119.642 692.183 120.286 692.007 121.009 692.007C121.722 692.007 122.352 692.178 122.898 692.52C123.445 692.852 123.875 693.354 124.188 694.028C124.5 694.702 124.656 695.547 124.656 696.562V697.969L126.414 695.698H115.472V698.13H128.157V696.958C128.157 695.396 127.864 694.028 127.278 692.856C126.702 691.685 125.872 690.776 124.788 690.132C123.714 689.478 122.439 689.15 120.965 689.15C119.48 689.15 118.191 689.487 117.098 690.161C116.014 690.835 115.169 691.782 114.563 693.003C113.968 694.214 113.67 695.635 113.67 697.266V697.28C113.67 698.921 113.968 700.342 114.563 701.543C115.159 702.744 116.014 703.672 117.127 704.326C118.25 704.98 119.588 705.308 121.141 705.308ZM135.071 705.264C135.755 705.264 136.395 705.156 136.99 704.941C137.596 704.727 138.133 704.419 138.602 704.019C139.07 703.618 139.451 703.149 139.744 702.612H139.832V705H143.465V694.321C143.465 693.276 143.201 692.368 142.674 691.597C142.156 690.825 141.419 690.225 140.462 689.795C139.515 689.365 138.392 689.15 137.093 689.15C135.784 689.15 134.651 689.36 133.694 689.78C132.747 690.2 132.005 690.776 131.468 691.509C130.931 692.231 130.623 693.052 130.545 693.97L130.53 694.146H133.899L133.929 694.014C134.056 693.438 134.378 692.969 134.896 692.607C135.413 692.236 136.102 692.051 136.961 692.051C137.889 692.051 138.597 692.28 139.085 692.739C139.583 693.188 139.832 693.804 139.832 694.585V699.243C139.832 699.858 139.671 700.41 139.349 700.898C139.026 701.387 138.587 701.772 138.03 702.056C137.483 702.339 136.858 702.48 136.155 702.48C135.354 702.48 134.71 702.3 134.222 701.938C133.743 701.567 133.504 701.064 133.504 700.43V700.415C133.504 699.8 133.743 699.307 134.222 698.936C134.7 698.564 135.389 698.35 136.287 698.291L141.707 697.954V695.537L135.774 695.903C133.899 696.011 132.444 696.47 131.409 697.28C130.384 698.081 129.871 699.17 129.871 700.547V700.576C129.871 701.494 130.086 702.31 130.516 703.022C130.955 703.726 131.565 704.277 132.347 704.678C133.138 705.068 134.046 705.264 135.071 705.264ZM152.181 705.308C152.562 705.308 152.903 705.293 153.206 705.264C153.519 705.234 153.782 705.205 153.997 705.176V702.437C153.87 702.446 153.733 702.461 153.587 702.48C153.45 702.49 153.289 702.495 153.104 702.495C152.449 702.495 151.951 702.354 151.609 702.07C151.277 701.777 151.111 701.255 151.111 700.503V692.285H153.997V689.473H151.111V685.532H147.405V689.473H145.208V692.285H147.405V700.796C147.405 702.397 147.796 703.55 148.577 704.253C149.368 704.956 150.569 705.308 152.181 705.308ZM163.035 705.308C164.041 705.308 164.939 705.176 165.73 704.912C166.521 704.639 167.205 704.272 167.781 703.813C168.357 703.354 168.816 702.842 169.158 702.275C169.5 701.699 169.734 701.113 169.861 700.518L169.891 700.356H166.492L166.463 700.459C166.346 700.811 166.136 701.138 165.833 701.44C165.54 701.743 165.164 701.992 164.705 702.188C164.246 702.373 163.714 702.466 163.108 702.466C162.298 702.466 161.6 702.29 161.014 701.938C160.428 701.577 159.974 701.064 159.651 700.4C159.339 699.727 159.183 698.916 159.183 697.969V696.562C159.183 695.586 159.339 694.756 159.651 694.072C159.974 693.389 160.413 692.876 160.97 692.534C161.536 692.183 162.181 692.007 162.903 692.007C163.616 692.007 164.246 692.178 164.793 692.52C165.34 692.852 165.77 693.354 166.082 694.028C166.395 694.702 166.551 695.547 166.551 696.562V697.969L168.309 695.698H157.366V698.13H170.052V696.958C170.052 695.396 169.759 694.028 169.173 692.856C168.597 691.685 167.767 690.776 166.683 690.132C165.608 689.478 164.334 689.15 162.859 689.15C161.375 689.15 160.086 689.487 158.992 690.161C157.908 690.835 157.063 691.782 156.458 693.003C155.862 694.214 155.564 695.635 155.564 697.266V697.28C155.564 698.921 155.862 700.342 156.458 701.543C157.054 702.744 157.908 703.672 159.021 704.326C160.145 704.98 161.482 705.308 163.035 705.308ZM180.672 698.013H186.927C188.353 698.013 189.603 697.72 190.677 697.134C191.761 696.538 192.605 695.713 193.211 694.658C193.816 693.594 194.119 692.358 194.119 690.952V690.923C194.119 689.507 193.816 688.271 193.211 687.217C192.605 686.152 191.761 685.327 190.677 684.741C189.603 684.155 188.353 683.862 186.927 683.862H180.672V686.938H185.989C187.356 686.938 188.411 687.285 189.153 687.979C189.905 688.672 190.281 689.658 190.281 690.938V690.967C190.281 692.236 189.905 693.223 189.153 693.926C188.411 694.619 187.356 694.966 185.989 694.966H180.672V698.013ZM178.782 705H182.562V683.862H178.782V705ZM196.521 705H200.154V695.991C200.154 695.22 200.286 694.565 200.55 694.028C200.813 693.491 201.194 693.086 201.692 692.812C202.19 692.529 202.781 692.388 203.465 692.388C203.777 692.388 204.065 692.407 204.329 692.446C204.603 692.485 204.812 692.534 204.959 692.593V689.297C204.822 689.258 204.651 689.224 204.446 689.194C204.241 689.165 204.026 689.15 203.802 689.15C202.903 689.15 202.142 689.419 201.517 689.956C200.901 690.483 200.477 691.216 200.242 692.153H200.154V689.473H196.521V705ZM213.118 705.308C214.642 705.308 215.965 704.985 217.088 704.341C218.211 703.696 219.08 702.773 219.695 701.572C220.32 700.361 220.633 698.916 220.633 697.236V697.207C220.633 695.537 220.32 694.102 219.695 692.9C219.07 691.699 218.191 690.776 217.059 690.132C215.936 689.478 214.617 689.15 213.104 689.15C211.6 689.15 210.286 689.478 209.163 690.132C208.04 690.776 207.166 691.704 206.541 692.915C205.916 694.116 205.604 695.547 205.604 697.207V697.236C205.604 698.906 205.911 700.347 206.526 701.558C207.151 702.759 208.025 703.687 209.148 704.341C210.271 704.985 211.595 705.308 213.118 705.308ZM213.133 702.363C212.361 702.363 211.688 702.163 211.111 701.763C210.545 701.362 210.101 700.781 209.778 700.02C209.466 699.248 209.31 698.32 209.31 697.236V697.207C209.31 696.133 209.466 695.215 209.778 694.453C210.101 693.691 210.545 693.11 211.111 692.71C211.688 692.31 212.352 692.109 213.104 692.109C213.875 692.109 214.544 692.31 215.11 692.71C215.687 693.11 216.131 693.691 216.443 694.453C216.756 695.215 216.912 696.133 216.912 697.207V697.236C216.912 698.32 216.756 699.248 216.443 700.02C216.141 700.781 215.706 701.362 215.14 701.763C214.573 702.163 213.904 702.363 213.133 702.363ZM222.977 705H226.609V695.493C226.609 694.858 226.736 694.297 226.99 693.809C227.254 693.32 227.61 692.935 228.06 692.651C228.509 692.368 229.026 692.227 229.612 692.227C230.462 692.227 231.131 692.48 231.619 692.988C232.117 693.486 232.366 694.175 232.366 695.054V705H235.911V695.405C235.911 694.78 236.033 694.229 236.277 693.75C236.531 693.271 236.878 692.9 237.317 692.637C237.767 692.363 238.284 692.227 238.87 692.227C239.769 692.227 240.457 692.49 240.936 693.018C241.414 693.545 241.653 694.287 241.653 695.244V705H245.301V694.351C245.301 693.306 245.086 692.397 244.656 691.626C244.236 690.845 243.646 690.239 242.884 689.81C242.132 689.37 241.243 689.15 240.218 689.15C239.476 689.15 238.782 689.282 238.138 689.546C237.503 689.8 236.946 690.161 236.468 690.63C235.999 691.089 235.638 691.641 235.384 692.285H235.311C235.125 691.621 234.827 691.06 234.417 690.601C234.017 690.132 233.528 689.775 232.952 689.531C232.376 689.277 231.727 689.15 231.004 689.15C229.979 689.15 229.085 689.409 228.323 689.927C227.562 690.435 227.02 691.113 226.697 691.963H226.609V689.473H222.977V705ZM255.101 705.308C256.624 705.308 257.947 704.985 259.07 704.341C260.193 703.696 261.062 702.773 261.678 701.572C262.303 700.361 262.615 698.916 262.615 697.236V697.207C262.615 695.537 262.303 694.102 261.678 692.9C261.053 691.699 260.174 690.776 259.041 690.132C257.918 689.478 256.6 689.15 255.086 689.15C253.582 689.15 252.269 689.478 251.146 690.132C250.022 690.776 249.148 691.704 248.523 692.915C247.898 694.116 247.586 695.547 247.586 697.207V697.236C247.586 698.906 247.894 700.347 248.509 701.558C249.134 702.759 250.008 703.687 251.131 704.341C252.254 704.985 253.577 705.308 255.101 705.308ZM255.115 702.363C254.344 702.363 253.67 702.163 253.094 701.763C252.527 701.362 252.083 700.781 251.761 700.02C251.448 699.248 251.292 698.32 251.292 697.236V697.207C251.292 696.133 251.448 695.215 251.761 694.453C252.083 693.691 252.527 693.11 253.094 692.71C253.67 692.31 254.334 692.109 255.086 692.109C255.857 692.109 256.526 692.31 257.093 692.71C257.669 693.11 258.113 693.691 258.426 694.453C258.738 695.215 258.895 696.133 258.895 697.207V697.236C258.895 698.32 258.738 699.248 258.426 700.02C258.123 700.781 257.688 701.362 257.122 701.763C256.556 702.163 255.887 702.363 255.115 702.363ZM270.716 705.308C271.097 705.308 271.438 705.293 271.741 705.264C272.054 705.234 272.317 705.205 272.532 705.176V702.437C272.405 702.446 272.269 702.461 272.122 702.48C271.985 702.49 271.824 702.495 271.639 702.495C270.984 702.495 270.486 702.354 270.145 702.07C269.812 701.777 269.646 701.255 269.646 700.503V692.285H272.532V689.473H269.646V685.532H265.94V689.473H263.743V692.285H265.94V700.796C265.94 702.397 266.331 703.55 267.112 704.253C267.903 704.956 269.104 705.308 270.716 705.308ZM275.14 705H278.787V689.473H275.14V705ZM276.956 687.246C277.532 687.246 278.016 687.051 278.406 686.66C278.797 686.27 278.992 685.801 278.992 685.254C278.992 684.697 278.797 684.229 278.406 683.848C278.016 683.457 277.532 683.262 276.956 683.262C276.39 683.262 275.911 683.457 275.521 683.848C275.13 684.229 274.935 684.697 274.935 685.254C274.935 685.801 275.13 686.27 275.521 686.66C275.911 687.051 276.39 687.246 276.956 687.246ZM288.763 705.308C290.286 705.308 291.609 704.985 292.732 704.341C293.855 703.696 294.725 702.773 295.34 701.572C295.965 700.361 296.277 698.916 296.277 697.236V697.207C296.277 695.537 295.965 694.102 295.34 692.9C294.715 691.699 293.836 690.776 292.703 690.132C291.58 689.478 290.262 689.15 288.748 689.15C287.244 689.15 285.931 689.478 284.808 690.132C283.685 690.776 282.811 691.704 282.186 692.915C281.561 694.116 281.248 695.547 281.248 697.207V697.236C281.248 698.906 281.556 700.347 282.171 701.558C282.796 702.759 283.67 703.687 284.793 704.341C285.916 704.985 287.239 705.308 288.763 705.308ZM288.777 702.363C288.006 702.363 287.332 702.163 286.756 701.763C286.189 701.362 285.745 700.781 285.423 700.02C285.11 699.248 284.954 698.32 284.954 697.236V697.207C284.954 696.133 285.11 695.215 285.423 694.453C285.745 693.691 286.189 693.11 286.756 692.71C287.332 692.31 287.996 692.109 288.748 692.109C289.52 692.109 290.188 692.31 290.755 692.71C291.331 693.11 291.775 693.691 292.088 694.453C292.4 695.215 292.557 696.133 292.557 697.207V697.236C292.557 698.32 292.4 699.248 292.088 700.02C291.785 700.781 291.351 701.362 290.784 701.763C290.218 702.163 289.549 702.363 288.777 702.363ZM298.621 705H302.254V695.991C302.254 695.239 302.396 694.585 302.679 694.028C302.962 693.462 303.362 693.022 303.88 692.71C304.397 692.388 305.003 692.227 305.696 692.227C306.731 692.227 307.508 692.529 308.025 693.135C308.543 693.73 308.802 694.58 308.802 695.684V705H312.449V694.951C312.449 693.154 311.98 691.738 311.043 690.703C310.115 689.668 308.797 689.15 307.088 689.15C305.916 689.15 304.93 689.399 304.129 689.897C303.338 690.396 302.742 691.064 302.342 691.904H302.254V689.473H298.621V705ZM321.443 705.308C322.713 705.308 323.836 705.107 324.812 704.707C325.799 704.297 326.57 703.726 327.127 702.993C327.684 702.251 327.962 701.392 327.962 700.415V700.4C327.962 699.277 327.62 698.384 326.937 697.72C326.253 697.046 325.105 696.528 323.494 696.167L320.916 695.596C320.115 695.41 319.544 695.166 319.202 694.863C318.87 694.561 318.704 694.189 318.704 693.75V693.735C318.704 693.354 318.807 693.022 319.012 692.739C319.227 692.456 319.529 692.236 319.92 692.08C320.32 691.924 320.789 691.846 321.326 691.846C322.176 691.846 322.845 692.051 323.333 692.461C323.821 692.861 324.104 693.374 324.183 693.999L324.197 694.116H327.596L327.581 693.955C327.542 693.057 327.269 692.246 326.761 691.523C326.263 690.801 325.555 690.225 324.637 689.795C323.719 689.365 322.615 689.15 321.326 689.15C320.086 689.15 318.997 689.351 318.06 689.751C317.122 690.151 316.395 690.708 315.877 691.421C315.359 692.134 315.101 692.964 315.101 693.911V693.926C315.101 695.078 315.472 696.021 316.214 696.753C316.966 697.485 318.084 698.013 319.568 698.335L322.146 698.906C322.957 699.092 323.519 699.331 323.831 699.624C324.144 699.907 324.3 700.278 324.3 700.737V700.752C324.3 701.133 324.183 701.465 323.948 701.748C323.724 702.031 323.401 702.246 322.981 702.393C322.562 702.539 322.054 702.612 321.458 702.612C320.53 702.612 319.808 702.427 319.29 702.056C318.782 701.685 318.46 701.162 318.323 700.488L318.294 700.356H314.705L314.72 700.488C314.837 701.445 315.164 702.29 315.701 703.022C316.248 703.745 317 704.307 317.957 704.707C318.924 705.107 320.086 705.308 321.443 705.308Z" fill="#181818"/>
</svg>
