<svg width="2350" height="500" viewBox="0 0 2350 500" fill="none" xmlns="http://www.w3.org/2000/svg">
<path d="M430.91 307H435.554L437.15 301.873H444.621L446.218 307H450.861L443.493 285.862H438.293L430.91 307ZM440.842 289.964H440.93L443.596 298.562H438.176L440.842 289.964ZM457.893 307.322C460.163 307.322 461.892 306.18 462.727 304.319H462.814V307H467.092V285.862H462.814V294.021H462.727C461.877 292.117 460.119 290.975 457.893 290.975C453.938 290.975 451.506 294.021 451.506 299.134V299.148C451.506 304.246 453.938 307.322 457.893 307.322ZM459.328 303.777C457.189 303.777 455.856 302.005 455.856 299.148V299.134C455.856 296.263 457.204 294.52 459.328 294.52C461.394 294.52 462.829 296.307 462.829 299.134V299.148C462.829 301.99 461.408 303.777 459.328 303.777ZM475.764 307.322C478.034 307.322 479.763 306.18 480.598 304.319H480.686V307H484.963V285.862H480.686V294.021H480.598C479.748 292.117 477.99 290.975 475.764 290.975C471.809 290.975 469.377 294.021 469.377 299.134V299.148C469.377 304.246 471.809 307.322 475.764 307.322ZM477.199 303.777C475.061 303.777 473.728 302.005 473.728 299.148V299.134C473.728 296.263 475.075 294.52 477.199 294.52C479.265 294.52 480.7 296.307 480.7 299.134V299.148C480.7 301.99 479.279 303.777 477.199 303.777ZM501.853 307.366C507.185 307.366 510.378 304.788 510.378 300.73V300.716C510.378 297.391 508.386 295.589 503.962 294.71L501.721 294.256C499.289 293.772 498.205 292.996 498.205 291.663V291.648C498.205 290.14 499.567 289.1 501.838 289.085C504.021 289.085 505.544 290.096 505.764 291.751L505.778 291.927H509.953L509.938 291.648C509.733 287.942 506.73 285.496 501.838 285.496C497.15 285.496 493.781 288.045 493.781 291.912V291.927C493.781 295.105 495.891 297.098 500.065 297.933L502.292 298.372C504.914 298.914 505.954 299.632 505.954 301.067V301.082C505.954 302.693 504.416 303.763 501.97 303.763C499.553 303.763 497.81 302.737 497.531 301.097L497.502 300.936H493.327L493.342 301.17C493.591 305.066 496.828 307.366 501.853 307.366ZM519.87 307.322C524.353 307.322 526.521 304.671 527.004 302.356L527.048 302.195H523.122L523.093 302.283C522.785 303.162 521.716 304.129 519.958 304.129C517.775 304.129 516.413 302.664 516.369 300.159H527.18V298.841C527.18 294.095 524.294 290.975 519.694 290.975C515.095 290.975 512.15 294.168 512.15 299.163V299.178C512.15 304.202 515.065 307.322 519.87 307.322ZM519.768 294.168C521.54 294.168 522.814 295.296 523.078 297.464H516.413C516.691 295.34 518.01 294.168 519.768 294.168ZM529.392 307H533.669V298.211C533.669 295.926 534.899 294.666 537.009 294.666C537.624 294.666 538.21 294.754 538.562 294.9V291.136C538.239 291.048 537.8 290.975 537.331 290.975C535.5 290.975 534.226 292.103 533.757 294.036H533.669V291.297H529.392V307ZM544.992 307H549.812L555.202 291.297H550.734L547.497 303.221H547.409L544.128 291.297H539.558L544.992 307ZM558.923 289.275C560.212 289.275 561.208 288.265 561.208 287.049C561.208 285.833 560.212 284.822 558.923 284.822C557.634 284.822 556.638 285.833 556.638 287.049C556.638 288.265 557.634 289.275 558.923 289.275ZM556.784 307H561.062V291.297H556.784V307ZM571.11 307.322C575.3 307.322 578.01 304.715 578.215 301.287V301.199H574.23L574.216 301.331C573.923 302.913 572.854 303.968 571.14 303.968C569.03 303.968 567.712 302.225 567.712 299.148V299.134C567.712 296.131 569.03 294.329 571.125 294.329C572.897 294.329 573.938 295.472 574.201 296.966L574.23 297.098H578.2V296.995C578.039 293.597 575.329 290.975 571.066 290.975C566.364 290.975 563.361 294.095 563.361 299.119V299.134C563.361 304.202 566.32 307.322 571.11 307.322ZM587.429 307.322C591.911 307.322 594.079 304.671 594.562 302.356L594.606 302.195H590.681L590.651 302.283C590.344 303.162 589.274 304.129 587.517 304.129C585.334 304.129 583.972 302.664 583.928 300.159H594.738V298.841C594.738 294.095 591.853 290.975 587.253 290.975C582.653 290.975 579.709 294.168 579.709 299.163V299.178C579.709 304.202 582.624 307.322 587.429 307.322ZM587.326 294.168C589.099 294.168 590.373 295.296 590.637 297.464H583.972C584.25 295.34 585.568 294.168 587.326 294.168Z" fill="#181818"/>
<path d="M446 237H581V235H446V237ZM581 355H446V357H581V355ZM446 355C413.415 355 387 328.585 387 296H385C385 329.689 412.311 357 446 357V355ZM640 296C640 328.585 613.585 355 581 355V357C614.689 357 642 329.689 642 296H640ZM581 237C613.585 237 640 263.415 640 296H642C642 262.311 614.689 235 581 235V237ZM446 235C412.311 235 385 262.311 385 296H387C387 263.415 413.415 237 446 237V235Z" fill="black"/>
<path d="M292 295C291.172 295 290.5 295.672 290.5 296.5C290.5 297.328 291.172 298 292 298L292 295ZM353.061 297.561C353.646 296.975 353.646 296.025 353.061 295.439L343.515 285.893C342.929 285.308 341.979 285.308 341.393 285.893C340.808 286.479 340.808 287.429 341.393 288.015L349.879 296.5L341.393 304.985C340.808 305.571 340.808 306.521 341.393 307.107C341.979 307.692 342.929 307.692 343.515 307.107L353.061 297.561ZM292 298L322 298L322 295L292 295L292 298ZM322 298L352 298L352 295L322 295L322 298Z" fill="#858585"/>
<path d="M943 295C942.172 295 941.5 295.672 941.5 296.5C941.5 297.328 942.172 298 943 298L943 295ZM1004.06 297.561C1004.65 296.975 1004.65 296.025 1004.06 295.439L994.515 285.893C993.929 285.308 992.979 285.308 992.393 285.893C991.808 286.479 991.808 287.429 992.393 288.015L1000.88 296.5L992.393 304.985C991.808 305.571 991.808 306.521 992.393 307.107C992.979 307.692 993.929 307.692 994.515 307.107L1004.06 297.561ZM943 298L973 298L973 295L943 295L943 298ZM973 298L1003 298L1003 295L973 295L973 298Z" fill="#858585"/>
<path d="M1291 295C1290.17 295 1289.5 295.672 1289.5 296.5C1289.5 297.328 1290.17 298 1291 298L1291 295ZM1352.06 297.561C1352.65 296.975 1352.65 296.025 1352.06 295.439L1342.51 285.893C1341.93 285.308 1340.98 285.308 1340.39 285.893C1339.81 286.479 1339.81 287.429 1340.39 288.015L1348.88 296.5L1340.39 304.985C1339.81 305.571 1339.81 306.521 1340.39 307.107C1340.98 307.692 1341.93 307.692 1342.51 307.107L1352.06 297.561ZM1291 298L1321 298L1321 295L1291 295L1291 298ZM1321 298L1351 298L1351 295L1321 295L1321 298Z" fill="#858585"/>
<path d="M38 296C38 262.863 64.8629 236 98 236H198C231.137 236 258 262.863 258 296V296C258 329.137 231.137 356 198 356H98C64.8629 356 38 329.137 38 296V296Z" fill="#F8F8F8"/>
<path d="M107.287 307.366C109.006 307.366 110.48 307.103 111.711 306.575C112.951 306.048 113.898 305.301 114.553 304.334C115.217 303.367 115.549 302.229 115.549 300.921V300.906C115.549 299.256 115.046 297.962 114.04 297.024C113.034 296.077 111.428 295.374 109.221 294.915L106.95 294.446C105.681 294.183 104.743 293.821 104.138 293.362C103.542 292.894 103.244 292.288 103.244 291.546V291.531C103.244 290.965 103.405 290.467 103.728 290.037C104.06 289.607 104.523 289.275 105.119 289.041C105.725 288.797 106.438 288.675 107.258 288.675C108.049 288.675 108.747 288.792 109.353 289.026C109.958 289.261 110.446 289.598 110.817 290.037C111.188 290.467 111.418 290.989 111.506 291.604L111.535 291.795H115.139L115.124 291.546C115.056 290.345 114.689 289.29 114.025 288.382C113.371 287.474 112.468 286.766 111.315 286.258C110.163 285.75 108.82 285.496 107.287 285.496C105.773 285.496 104.426 285.76 103.244 286.287C102.062 286.805 101.135 287.532 100.461 288.47C99.7969 289.397 99.46 290.486 99.4502 291.736V291.751C99.4502 293.323 99.9678 294.603 101.003 295.589C102.038 296.565 103.591 297.269 105.661 297.698L107.932 298.167C109.299 298.46 110.275 298.836 110.861 299.295C111.457 299.754 111.755 300.379 111.755 301.17V301.185C111.755 301.79 111.579 302.322 111.228 302.781C110.876 303.23 110.373 303.577 109.719 303.821C109.074 304.065 108.308 304.188 107.419 304.188C106.54 304.188 105.754 304.07 105.061 303.836C104.377 303.592 103.825 303.25 103.405 302.811C102.985 302.371 102.722 301.849 102.614 301.243L102.585 301.067H98.9814L98.9961 301.287C99.084 302.547 99.4746 303.631 100.168 304.539C100.871 305.447 101.828 306.146 103.039 306.634C104.25 307.122 105.666 307.366 107.287 307.366ZM124.836 307.308C125.842 307.308 126.74 307.176 127.531 306.912C128.322 306.639 129.006 306.272 129.582 305.813C130.158 305.354 130.617 304.842 130.959 304.275C131.301 303.699 131.535 303.113 131.662 302.518L131.691 302.356H128.293L128.264 302.459C128.146 302.811 127.937 303.138 127.634 303.44C127.341 303.743 126.965 303.992 126.506 304.188C126.047 304.373 125.515 304.466 124.909 304.466C124.099 304.466 123.4 304.29 122.814 303.938C122.229 303.577 121.774 303.064 121.452 302.4C121.14 301.727 120.983 300.916 120.983 299.969V298.562C120.983 297.586 121.14 296.756 121.452 296.072C121.774 295.389 122.214 294.876 122.771 294.534C123.337 294.183 123.981 294.007 124.704 294.007C125.417 294.007 126.047 294.178 126.594 294.52C127.141 294.852 127.57 295.354 127.883 296.028C128.195 296.702 128.352 297.547 128.352 298.562V299.969L130.109 297.698H119.167V300.13H131.853V298.958C131.853 297.396 131.56 296.028 130.974 294.856C130.397 293.685 129.567 292.776 128.483 292.132C127.409 291.478 126.135 291.15 124.66 291.15C123.176 291.15 121.887 291.487 120.793 292.161C119.709 292.835 118.864 293.782 118.259 295.003C117.663 296.214 117.365 297.635 117.365 299.266V299.28C117.365 300.921 117.663 302.342 118.259 303.543C118.854 304.744 119.709 305.672 120.822 306.326C121.945 306.98 123.283 307.308 124.836 307.308ZM134.182 307H137.814V297.991C137.814 297.22 137.946 296.565 138.21 296.028C138.474 295.491 138.854 295.086 139.353 294.812C139.851 294.529 140.441 294.388 141.125 294.388C141.438 294.388 141.726 294.407 141.989 294.446C142.263 294.485 142.473 294.534 142.619 294.593V291.297C142.482 291.258 142.312 291.224 142.106 291.194C141.901 291.165 141.687 291.15 141.462 291.15C140.563 291.15 139.802 291.419 139.177 291.956C138.562 292.483 138.137 293.216 137.902 294.153H137.814V291.473H134.182V307ZM149.182 307H153.195L158.659 291.473H154.865L151.262 303.616H151.174L147.57 291.473H143.688L149.182 307ZM160.446 307H164.094V291.473H160.446V307ZM162.263 289.246C162.839 289.246 163.322 289.051 163.713 288.66C164.104 288.27 164.299 287.801 164.299 287.254C164.299 286.697 164.104 286.229 163.713 285.848C163.322 285.457 162.839 285.262 162.263 285.262C161.696 285.262 161.218 285.457 160.827 285.848C160.437 286.229 160.241 286.697 160.241 287.254C160.241 287.801 160.437 288.27 160.827 288.66C161.218 289.051 161.696 289.246 162.263 289.246ZM174.055 307.308C175.363 307.308 176.511 307.059 177.497 306.561C178.483 306.053 179.27 305.369 179.855 304.51C180.441 303.65 180.783 302.684 180.881 301.609L180.896 301.507H177.453L177.424 301.639C177.258 302.449 176.887 303.108 176.311 303.616C175.744 304.114 174.997 304.363 174.069 304.363C173.308 304.363 172.639 304.163 172.062 303.763C171.496 303.353 171.052 302.767 170.729 302.005C170.417 301.243 170.261 300.325 170.261 299.251V299.236C170.261 298.172 170.417 297.259 170.729 296.497C171.042 295.735 171.481 295.149 172.048 294.739C172.624 294.319 173.293 294.109 174.055 294.109C175.021 294.109 175.783 294.378 176.34 294.915C176.906 295.442 177.263 296.082 177.409 296.834L177.438 296.951H180.866V296.849C180.788 295.813 180.466 294.866 179.899 294.007C179.333 293.147 178.552 292.459 177.556 291.941C176.56 291.414 175.378 291.15 174.011 291.15C172.507 291.15 171.193 291.478 170.07 292.132C168.957 292.786 168.093 293.719 167.478 294.93C166.862 296.131 166.555 297.557 166.555 299.207V299.222C166.555 300.882 166.857 302.317 167.463 303.528C168.078 304.739 168.947 305.672 170.07 306.326C171.193 306.98 172.521 307.308 174.055 307.308ZM189.904 307.308C190.91 307.308 191.809 307.176 192.6 306.912C193.391 306.639 194.074 306.272 194.65 305.813C195.227 305.354 195.686 304.842 196.027 304.275C196.369 303.699 196.604 303.113 196.73 302.518L196.76 302.356H193.361L193.332 302.459C193.215 302.811 193.005 303.138 192.702 303.44C192.409 303.743 192.033 303.992 191.574 304.188C191.115 304.373 190.583 304.466 189.978 304.466C189.167 304.466 188.469 304.29 187.883 303.938C187.297 303.577 186.843 303.064 186.521 302.4C186.208 301.727 186.052 300.916 186.052 299.969V298.562C186.052 297.586 186.208 296.756 186.521 296.072C186.843 295.389 187.282 294.876 187.839 294.534C188.405 294.183 189.05 294.007 189.772 294.007C190.485 294.007 191.115 294.178 191.662 294.52C192.209 294.852 192.639 295.354 192.951 296.028C193.264 296.702 193.42 297.547 193.42 298.562V299.969L195.178 297.698H184.235V300.13H196.921V298.958C196.921 297.396 196.628 296.028 196.042 294.856C195.466 293.685 194.636 292.776 193.552 292.132C192.478 291.478 191.203 291.15 189.729 291.15C188.244 291.15 186.955 291.487 185.861 292.161C184.777 292.835 183.933 293.782 183.327 295.003C182.731 296.214 182.434 297.635 182.434 299.266V299.28C182.434 300.921 182.731 302.342 183.327 303.543C183.923 304.744 184.777 305.672 185.891 306.326C187.014 306.98 188.352 307.308 189.904 307.308Z" fill="#181818"/>
<path d="M665 296C665 262.863 691.863 236 725 236H849C882.137 236 909 262.863 909 296V296C909 329.137 882.137 356 849 356H725C691.863 356 665 329.137 665 296V296Z" fill="#F8F8F8"/>
<path d="M736.06 307.366C737.681 307.366 739.136 307.059 740.425 306.443C741.714 305.818 742.764 304.954 743.574 303.851C744.385 302.747 744.878 301.478 745.054 300.042L745.083 299.881H741.377L741.333 300.027C741.108 300.896 740.752 301.634 740.264 302.239C739.775 302.845 739.175 303.309 738.462 303.631C737.759 303.943 736.958 304.1 736.06 304.1C734.839 304.1 733.77 303.787 732.852 303.162C731.943 302.527 731.24 301.639 730.742 300.496C730.244 299.344 729.995 297.986 729.995 296.424V296.409C729.995 294.837 730.244 293.484 730.742 292.352C731.24 291.209 731.943 290.325 732.852 289.7C733.76 289.075 734.829 288.763 736.06 288.763C736.978 288.763 737.793 288.924 738.506 289.246C739.219 289.568 739.81 290.022 740.278 290.608C740.747 291.194 741.084 291.893 741.289 292.703L741.362 292.981H745.068L745.054 292.835C744.868 291.399 744.37 290.13 743.56 289.026C742.749 287.923 741.699 287.059 740.41 286.434C739.131 285.809 737.681 285.496 736.06 285.496C734.038 285.496 732.285 285.94 730.801 286.829C729.316 287.708 728.169 288.963 727.358 290.594C726.548 292.225 726.143 294.163 726.143 296.409V296.424C726.143 298.67 726.543 300.613 727.344 302.254C728.154 303.885 729.302 305.145 730.786 306.033C732.28 306.922 734.038 307.366 736.06 307.366ZM752.114 307.264C752.798 307.264 753.438 307.156 754.033 306.941C754.639 306.727 755.176 306.419 755.645 306.019C756.113 305.618 756.494 305.149 756.787 304.612H756.875V307H760.508V296.321C760.508 295.276 760.244 294.368 759.717 293.597C759.199 292.825 758.462 292.225 757.505 291.795C756.558 291.365 755.435 291.15 754.136 291.15C752.827 291.15 751.694 291.36 750.737 291.78C749.79 292.2 749.048 292.776 748.511 293.509C747.974 294.231 747.666 295.052 747.588 295.97L747.573 296.146H750.942L750.972 296.014C751.099 295.438 751.421 294.969 751.938 294.607C752.456 294.236 753.145 294.051 754.004 294.051C754.932 294.051 755.64 294.28 756.128 294.739C756.626 295.188 756.875 295.804 756.875 296.585V301.243C756.875 301.858 756.714 302.41 756.392 302.898C756.069 303.387 755.63 303.772 755.073 304.056C754.526 304.339 753.901 304.48 753.198 304.48C752.397 304.48 751.753 304.3 751.265 303.938C750.786 303.567 750.547 303.064 750.547 302.43V302.415C750.547 301.8 750.786 301.307 751.265 300.936C751.743 300.564 752.432 300.35 753.33 300.291L758.75 299.954V297.537L752.817 297.903C750.942 298.011 749.487 298.47 748.452 299.28C747.427 300.081 746.914 301.17 746.914 302.547V302.576C746.914 303.494 747.129 304.31 747.559 305.022C747.998 305.726 748.608 306.277 749.39 306.678C750.181 307.068 751.089 307.264 752.114 307.264ZM769.224 307.308C769.604 307.308 769.946 307.293 770.249 307.264C770.562 307.234 770.825 307.205 771.04 307.176V304.437C770.913 304.446 770.776 304.461 770.63 304.48C770.493 304.49 770.332 304.495 770.146 304.495C769.492 304.495 768.994 304.354 768.652 304.07C768.32 303.777 768.154 303.255 768.154 302.503V294.285H771.04V291.473H768.154V287.532H764.448V291.473H762.251V294.285H764.448V302.796C764.448 304.397 764.839 305.55 765.62 306.253C766.411 306.956 767.612 307.308 769.224 307.308ZM780.078 307.308C781.084 307.308 781.982 307.176 782.773 306.912C783.564 306.639 784.248 306.272 784.824 305.813C785.4 305.354 785.859 304.842 786.201 304.275C786.543 303.699 786.777 303.113 786.904 302.518L786.934 302.356H783.535L783.506 302.459C783.389 302.811 783.179 303.138 782.876 303.44C782.583 303.743 782.207 303.992 781.748 304.188C781.289 304.373 780.757 304.466 780.151 304.466C779.341 304.466 778.643 304.29 778.057 303.938C777.471 303.577 777.017 303.064 776.694 302.4C776.382 301.727 776.226 300.916 776.226 299.969V298.562C776.226 297.586 776.382 296.756 776.694 296.072C777.017 295.389 777.456 294.876 778.013 294.534C778.579 294.183 779.224 294.007 779.946 294.007C780.659 294.007 781.289 294.178 781.836 294.52C782.383 294.852 782.812 295.354 783.125 296.028C783.438 296.702 783.594 297.547 783.594 298.562V299.969L785.352 297.698H774.409V300.13H787.095V298.958C787.095 297.396 786.802 296.028 786.216 294.856C785.64 293.685 784.81 292.776 783.726 292.132C782.651 291.478 781.377 291.15 779.902 291.15C778.418 291.15 777.129 291.487 776.035 292.161C774.951 292.835 774.106 293.782 773.501 295.003C772.905 296.214 772.607 297.635 772.607 299.266V299.28C772.607 300.921 772.905 302.342 773.501 303.543C774.097 304.744 774.951 305.672 776.064 306.326C777.188 306.98 778.525 307.308 780.078 307.308ZM796.426 312.435C797.93 312.435 799.229 312.19 800.322 311.702C801.416 311.214 802.261 310.525 802.856 309.637C803.452 308.758 803.75 307.732 803.75 306.561V291.473H800.103V294.109H800.015C799.722 293.514 799.341 292.996 798.872 292.557C798.413 292.117 797.876 291.775 797.261 291.531C796.646 291.277 795.972 291.15 795.239 291.15C793.931 291.15 792.793 291.473 791.826 292.117C790.859 292.762 790.107 293.675 789.57 294.856C789.043 296.028 788.779 297.435 788.779 299.075V299.09C788.779 300.701 789.038 302.093 789.556 303.265C790.083 304.427 790.825 305.325 791.782 305.96C792.749 306.595 793.882 306.912 795.181 306.912C795.923 306.912 796.606 306.8 797.231 306.575C797.866 306.351 798.418 306.038 798.887 305.638C799.365 305.237 799.746 304.759 800.029 304.202H800.103V306.443C800.103 307.43 799.785 308.216 799.15 308.802C798.516 309.388 797.603 309.681 796.411 309.681C795.474 309.681 794.697 309.529 794.082 309.227C793.477 308.934 793.076 308.562 792.881 308.113L792.822 307.996H789.248L789.277 308.128C789.424 308.938 789.8 309.671 790.405 310.325C791.011 310.979 791.821 311.492 792.837 311.863C793.862 312.244 795.059 312.435 796.426 312.435ZM796.323 304.1C795.542 304.1 794.863 303.899 794.287 303.499C793.711 303.099 793.267 302.532 792.954 301.8C792.642 301.058 792.485 300.179 792.485 299.163V299.148C792.485 298.133 792.642 297.259 792.954 296.526C793.267 295.794 793.711 295.228 794.287 294.827C794.863 294.427 795.542 294.227 796.323 294.227C797.075 294.227 797.734 294.427 798.301 294.827C798.867 295.228 799.312 295.799 799.634 296.541C799.956 297.273 800.117 298.143 800.117 299.148V299.163C800.117 300.159 799.956 301.028 799.634 301.771C799.321 302.513 798.882 303.089 798.315 303.499C797.749 303.899 797.085 304.1 796.323 304.1ZM813.608 307.308C815.132 307.308 816.455 306.985 817.578 306.341C818.701 305.696 819.57 304.773 820.186 303.572C820.811 302.361 821.123 300.916 821.123 299.236V299.207C821.123 297.537 820.811 296.102 820.186 294.9C819.561 293.699 818.682 292.776 817.549 292.132C816.426 291.478 815.107 291.15 813.594 291.15C812.09 291.15 810.776 291.478 809.653 292.132C808.53 292.776 807.656 293.704 807.031 294.915C806.406 296.116 806.094 297.547 806.094 299.207V299.236C806.094 300.906 806.401 302.347 807.017 303.558C807.642 304.759 808.516 305.687 809.639 306.341C810.762 306.985 812.085 307.308 813.608 307.308ZM813.623 304.363C812.852 304.363 812.178 304.163 811.602 303.763C811.035 303.362 810.591 302.781 810.269 302.02C809.956 301.248 809.8 300.32 809.8 299.236V299.207C809.8 298.133 809.956 297.215 810.269 296.453C810.591 295.691 811.035 295.11 811.602 294.71C812.178 294.31 812.842 294.109 813.594 294.109C814.365 294.109 815.034 294.31 815.601 294.71C816.177 295.11 816.621 295.691 816.934 296.453C817.246 297.215 817.402 298.133 817.402 299.207V299.236C817.402 300.32 817.246 301.248 816.934 302.02C816.631 302.781 816.196 303.362 815.63 303.763C815.063 304.163 814.395 304.363 813.623 304.363ZM823.467 307H827.1V297.991C827.1 297.22 827.231 296.565 827.495 296.028C827.759 295.491 828.14 295.086 828.638 294.812C829.136 294.529 829.727 294.388 830.41 294.388C830.723 294.388 831.011 294.407 831.274 294.446C831.548 294.485 831.758 294.534 831.904 294.593V291.297C831.768 291.258 831.597 291.224 831.392 291.194C831.187 291.165 830.972 291.15 830.747 291.15C829.849 291.15 829.087 291.419 828.462 291.956C827.847 292.483 827.422 293.216 827.188 294.153H827.1V291.473H823.467V307ZM836.357 312.156C837.432 312.156 838.359 312.005 839.141 311.702C839.932 311.409 840.605 310.921 841.162 310.237C841.719 309.563 842.192 308.66 842.583 307.527L848.179 291.473H844.341L840.474 304.656L841.03 303.895H840.254L840.811 304.656L836.943 291.473H832.974L838.555 307.015L838.335 307.645C838.101 308.299 837.778 308.743 837.368 308.978C836.958 309.222 836.401 309.344 835.698 309.344C835.435 309.344 835.2 309.329 834.995 309.3C834.79 309.271 834.619 309.246 834.482 309.227V311.995C834.707 312.034 834.985 312.068 835.317 312.098C835.659 312.137 836.006 312.156 836.357 312.156Z" fill="#181818"/>
<path d="M1048 296C1048 262.863 1074.86 236 1108 236H1208C1241.14 236 1268 262.863 1268 296V296C1268 329.137 1241.14 356 1208 356H1108C1074.86 356 1048 329.137 1048 296V296Z" fill="#F8F8F8"/>
<path d="M1117.29 307.366C1119.01 307.366 1120.48 307.103 1121.71 306.575C1122.95 306.048 1123.9 305.301 1124.55 304.334C1125.22 303.367 1125.55 302.229 1125.55 300.921V300.906C1125.55 299.256 1125.05 297.962 1124.04 297.024C1123.03 296.077 1121.43 295.374 1119.22 294.915L1116.95 294.446C1115.68 294.183 1114.74 293.821 1114.14 293.362C1113.54 292.894 1113.24 292.288 1113.24 291.546V291.531C1113.24 290.965 1113.41 290.467 1113.73 290.037C1114.06 289.607 1114.52 289.275 1115.12 289.041C1115.72 288.797 1116.44 288.675 1117.26 288.675C1118.05 288.675 1118.75 288.792 1119.35 289.026C1119.96 289.261 1120.45 289.598 1120.82 290.037C1121.19 290.467 1121.42 290.989 1121.51 291.604L1121.54 291.795H1125.14L1125.12 291.546C1125.06 290.345 1124.69 289.29 1124.03 288.382C1123.37 287.474 1122.47 286.766 1121.32 286.258C1120.16 285.75 1118.82 285.496 1117.29 285.496C1115.77 285.496 1114.43 285.76 1113.24 286.287C1112.06 286.805 1111.13 287.532 1110.46 288.47C1109.8 289.397 1109.46 290.486 1109.45 291.736V291.751C1109.45 293.323 1109.97 294.603 1111 295.589C1112.04 296.565 1113.59 297.269 1115.66 297.698L1117.93 298.167C1119.3 298.46 1120.28 298.836 1120.86 299.295C1121.46 299.754 1121.75 300.379 1121.75 301.17V301.185C1121.75 301.79 1121.58 302.322 1121.23 302.781C1120.88 303.23 1120.37 303.577 1119.72 303.821C1119.07 304.065 1118.31 304.188 1117.42 304.188C1116.54 304.188 1115.75 304.07 1115.06 303.836C1114.38 303.592 1113.83 303.25 1113.41 302.811C1112.99 302.371 1112.72 301.849 1112.61 301.243L1112.58 301.067H1108.98L1109 301.287C1109.08 302.547 1109.47 303.631 1110.17 304.539C1110.87 305.447 1111.83 306.146 1113.04 306.634C1114.25 307.122 1115.67 307.366 1117.29 307.366ZM1134.84 307.308C1135.84 307.308 1136.74 307.176 1137.53 306.912C1138.32 306.639 1139.01 306.272 1139.58 305.813C1140.16 305.354 1140.62 304.842 1140.96 304.275C1141.3 303.699 1141.54 303.113 1141.66 302.518L1141.69 302.356H1138.29L1138.26 302.459C1138.15 302.811 1137.94 303.138 1137.63 303.44C1137.34 303.743 1136.96 303.992 1136.51 304.188C1136.05 304.373 1135.51 304.466 1134.91 304.466C1134.1 304.466 1133.4 304.29 1132.81 303.938C1132.23 303.577 1131.77 303.064 1131.45 302.4C1131.14 301.727 1130.98 300.916 1130.98 299.969V298.562C1130.98 297.586 1131.14 296.756 1131.45 296.072C1131.77 295.389 1132.21 294.876 1132.77 294.534C1133.34 294.183 1133.98 294.007 1134.7 294.007C1135.42 294.007 1136.05 294.178 1136.59 294.52C1137.14 294.852 1137.57 295.354 1137.88 296.028C1138.2 296.702 1138.35 297.547 1138.35 298.562V299.969L1140.11 297.698H1129.17V300.13H1141.85V298.958C1141.85 297.396 1141.56 296.028 1140.97 294.856C1140.4 293.685 1139.57 292.776 1138.48 292.132C1137.41 291.478 1136.13 291.15 1134.66 291.15C1133.18 291.15 1131.89 291.487 1130.79 292.161C1129.71 292.835 1128.86 293.782 1128.26 295.003C1127.66 296.214 1127.37 297.635 1127.37 299.266V299.28C1127.37 300.921 1127.66 302.342 1128.26 303.543C1128.85 304.744 1129.71 305.672 1130.82 306.326C1131.95 306.98 1133.28 307.308 1134.84 307.308ZM1144.18 307H1147.81V297.991C1147.81 297.22 1147.95 296.565 1148.21 296.028C1148.47 295.491 1148.85 295.086 1149.35 294.812C1149.85 294.529 1150.44 294.388 1151.12 294.388C1151.44 294.388 1151.73 294.407 1151.99 294.446C1152.26 294.485 1152.47 294.534 1152.62 294.593V291.297C1152.48 291.258 1152.31 291.224 1152.11 291.194C1151.9 291.165 1151.69 291.15 1151.46 291.15C1150.56 291.15 1149.8 291.419 1149.18 291.956C1148.56 292.483 1148.14 293.216 1147.9 294.153H1147.81V291.473H1144.18V307ZM1159.18 307H1163.2L1168.66 291.473H1164.87L1161.26 303.616H1161.17L1157.57 291.473H1153.69L1159.18 307ZM1170.45 307H1174.09V291.473H1170.45V307ZM1172.26 289.246C1172.84 289.246 1173.32 289.051 1173.71 288.66C1174.1 288.27 1174.3 287.801 1174.3 287.254C1174.3 286.697 1174.1 286.229 1173.71 285.848C1173.32 285.457 1172.84 285.262 1172.26 285.262C1171.7 285.262 1171.22 285.457 1170.83 285.848C1170.44 286.229 1170.24 286.697 1170.24 287.254C1170.24 287.801 1170.44 288.27 1170.83 288.66C1171.22 289.051 1171.7 289.246 1172.26 289.246ZM1184.05 307.308C1185.36 307.308 1186.51 307.059 1187.5 306.561C1188.48 306.053 1189.27 305.369 1189.86 304.51C1190.44 303.65 1190.78 302.684 1190.88 301.609L1190.9 301.507H1187.45L1187.42 301.639C1187.26 302.449 1186.89 303.108 1186.31 303.616C1185.74 304.114 1185 304.363 1184.07 304.363C1183.31 304.363 1182.64 304.163 1182.06 303.763C1181.5 303.353 1181.05 302.767 1180.73 302.005C1180.42 301.243 1180.26 300.325 1180.26 299.251V299.236C1180.26 298.172 1180.42 297.259 1180.73 296.497C1181.04 295.735 1181.48 295.149 1182.05 294.739C1182.62 294.319 1183.29 294.109 1184.05 294.109C1185.02 294.109 1185.78 294.378 1186.34 294.915C1186.91 295.442 1187.26 296.082 1187.41 296.834L1187.44 296.951H1190.87V296.849C1190.79 295.813 1190.47 294.866 1189.9 294.007C1189.33 293.147 1188.55 292.459 1187.56 291.941C1186.56 291.414 1185.38 291.15 1184.01 291.15C1182.51 291.15 1181.19 291.478 1180.07 292.132C1178.96 292.786 1178.09 293.719 1177.48 294.93C1176.86 296.131 1176.55 297.557 1176.55 299.207V299.222C1176.55 300.882 1176.86 302.317 1177.46 303.528C1178.08 304.739 1178.95 305.672 1180.07 306.326C1181.19 306.98 1182.52 307.308 1184.05 307.308ZM1199.9 307.308C1200.91 307.308 1201.81 307.176 1202.6 306.912C1203.39 306.639 1204.07 306.272 1204.65 305.813C1205.23 305.354 1205.69 304.842 1206.03 304.275C1206.37 303.699 1206.6 303.113 1206.73 302.518L1206.76 302.356H1203.36L1203.33 302.459C1203.21 302.811 1203 303.138 1202.7 303.44C1202.41 303.743 1202.03 303.992 1201.57 304.188C1201.12 304.373 1200.58 304.466 1199.98 304.466C1199.17 304.466 1198.47 304.29 1197.88 303.938C1197.3 303.577 1196.84 303.064 1196.52 302.4C1196.21 301.727 1196.05 300.916 1196.05 299.969V298.562C1196.05 297.586 1196.21 296.756 1196.52 296.072C1196.84 295.389 1197.28 294.876 1197.84 294.534C1198.41 294.183 1199.05 294.007 1199.77 294.007C1200.49 294.007 1201.12 294.178 1201.66 294.52C1202.21 294.852 1202.64 295.354 1202.95 296.028C1203.26 296.702 1203.42 297.547 1203.42 298.562V299.969L1205.18 297.698H1194.24V300.13H1206.92V298.958C1206.92 297.396 1206.63 296.028 1206.04 294.856C1205.47 293.685 1204.64 292.776 1203.55 292.132C1202.48 291.478 1201.2 291.15 1199.73 291.15C1198.24 291.15 1196.96 291.487 1195.86 292.161C1194.78 292.835 1193.93 293.782 1193.33 295.003C1192.73 296.214 1192.43 297.635 1192.43 299.266V299.28C1192.43 300.921 1192.73 302.342 1193.33 303.543C1193.92 304.744 1194.78 305.672 1195.89 306.326C1197.01 306.98 1198.35 307.308 1199.9 307.308Z" fill="#181818"/>
<path d="M1385 296C1385 262.863 1411.86 236 1445 236H1543C1576.14 236 1603 262.863 1603 296V296C1603 329.137 1576.14 356 1543 356H1445C1411.86 356 1385 329.137 1385 296V296Z" fill="#F8F8F8"/>
<path d="M1446.86 307H1450.64V285.862H1446.86V307ZM1453.99 307H1457.63V297.493C1457.63 296.858 1457.75 296.297 1458.01 295.809C1458.27 295.32 1458.63 294.935 1459.08 294.651C1459.53 294.368 1460.04 294.227 1460.63 294.227C1461.48 294.227 1462.15 294.48 1462.64 294.988C1463.13 295.486 1463.38 296.175 1463.38 297.054V307H1466.93V297.405C1466.93 296.78 1467.05 296.229 1467.29 295.75C1467.55 295.271 1467.9 294.9 1468.33 294.637C1468.78 294.363 1469.3 294.227 1469.89 294.227C1470.79 294.227 1471.47 294.49 1471.95 295.018C1472.43 295.545 1472.67 296.287 1472.67 297.244V307H1476.32V296.351C1476.32 295.306 1476.1 294.397 1475.67 293.626C1475.25 292.845 1474.66 292.239 1473.9 291.81C1473.15 291.37 1472.26 291.15 1471.24 291.15C1470.49 291.15 1469.8 291.282 1469.16 291.546C1468.52 291.8 1467.96 292.161 1467.49 292.63C1467.02 293.089 1466.66 293.641 1466.4 294.285H1466.33C1466.14 293.621 1465.84 293.06 1465.43 292.601C1465.03 292.132 1464.55 291.775 1463.97 291.531C1463.39 291.277 1462.74 291.15 1462.02 291.15C1461 291.15 1460.1 291.409 1459.34 291.927C1458.58 292.435 1458.04 293.113 1457.71 293.963H1457.63V291.473H1453.99V307ZM1483.83 307.264C1484.52 307.264 1485.16 307.156 1485.75 306.941C1486.36 306.727 1486.89 306.419 1487.36 306.019C1487.83 305.618 1488.21 305.149 1488.51 304.612H1488.59V307H1492.23V296.321C1492.23 295.276 1491.96 294.368 1491.44 293.597C1490.92 292.825 1490.18 292.225 1489.22 291.795C1488.28 291.365 1487.15 291.15 1485.85 291.15C1484.55 291.15 1483.41 291.36 1482.46 291.78C1481.51 292.2 1480.77 292.776 1480.23 293.509C1479.69 294.231 1479.38 295.052 1479.31 295.97L1479.29 296.146H1482.66L1482.69 296.014C1482.82 295.438 1483.14 294.969 1483.66 294.607C1484.17 294.236 1484.86 294.051 1485.72 294.051C1486.65 294.051 1487.36 294.28 1487.85 294.739C1488.34 295.188 1488.59 295.804 1488.59 296.585V301.243C1488.59 301.858 1488.43 302.41 1488.11 302.898C1487.79 303.387 1487.35 303.772 1486.79 304.056C1486.25 304.339 1485.62 304.48 1484.92 304.48C1484.12 304.48 1483.47 304.3 1482.98 303.938C1482.5 303.567 1482.27 303.064 1482.27 302.43V302.415C1482.27 301.8 1482.5 301.307 1482.98 300.936C1483.46 300.564 1484.15 300.35 1485.05 300.291L1490.47 299.954V297.537L1484.54 297.903C1482.66 298.011 1481.21 298.47 1480.17 299.28C1479.15 300.081 1478.63 301.17 1478.63 302.547V302.576C1478.63 303.494 1478.85 304.31 1479.28 305.022C1479.72 305.726 1480.33 306.277 1481.11 306.678C1481.9 307.068 1482.81 307.264 1483.83 307.264ZM1502.19 312.435C1503.69 312.435 1504.99 312.19 1506.08 311.702C1507.18 311.214 1508.02 310.525 1508.62 309.637C1509.21 308.758 1509.51 307.732 1509.51 306.561V291.473H1505.86V294.109H1505.78C1505.48 293.514 1505.1 292.996 1504.63 292.557C1504.17 292.117 1503.64 291.775 1503.02 291.531C1502.41 291.277 1501.73 291.15 1501 291.15C1499.69 291.15 1498.55 291.473 1497.59 292.117C1496.62 292.762 1495.87 293.675 1495.33 294.856C1494.8 296.028 1494.54 297.435 1494.54 299.075V299.09C1494.54 300.701 1494.8 302.093 1495.32 303.265C1495.84 304.427 1496.59 305.325 1497.54 305.96C1498.51 306.595 1499.64 306.912 1500.94 306.912C1501.68 306.912 1502.37 306.8 1502.99 306.575C1503.63 306.351 1504.18 306.038 1504.65 305.638C1505.13 305.237 1505.51 304.759 1505.79 304.202H1505.86V306.443C1505.86 307.43 1505.55 308.216 1504.91 308.802C1504.28 309.388 1503.36 309.681 1502.17 309.681C1501.24 309.681 1500.46 309.529 1499.84 309.227C1499.24 308.934 1498.84 308.562 1498.64 308.113L1498.58 307.996H1495.01L1495.04 308.128C1495.19 308.938 1495.56 309.671 1496.17 310.325C1496.77 310.979 1497.58 311.492 1498.6 311.863C1499.62 312.244 1500.82 312.435 1502.19 312.435ZM1502.08 304.1C1501.3 304.1 1500.62 303.899 1500.05 303.499C1499.47 303.099 1499.03 302.532 1498.72 301.8C1498.4 301.058 1498.25 300.179 1498.25 299.163V299.148C1498.25 298.133 1498.4 297.259 1498.72 296.526C1499.03 295.794 1499.47 295.228 1500.05 294.827C1500.62 294.427 1501.3 294.227 1502.08 294.227C1502.84 294.227 1503.5 294.427 1504.06 294.827C1504.63 295.228 1505.07 295.799 1505.4 296.541C1505.72 297.273 1505.88 298.143 1505.88 299.148V299.163C1505.88 300.159 1505.72 301.028 1505.4 301.771C1505.08 302.513 1504.64 303.089 1504.08 303.499C1503.51 303.899 1502.85 304.1 1502.08 304.1ZM1519.33 307.308C1520.33 307.308 1521.23 307.176 1522.02 306.912C1522.81 306.639 1523.5 306.272 1524.07 305.813C1524.65 305.354 1525.11 304.842 1525.45 304.275C1525.79 303.699 1526.03 303.113 1526.15 302.518L1526.18 302.356H1522.78L1522.75 302.459C1522.64 302.811 1522.43 303.138 1522.12 303.44C1521.83 303.743 1521.46 303.992 1521 304.188C1520.54 304.373 1520 304.466 1519.4 304.466C1518.59 304.466 1517.89 304.29 1517.3 303.938C1516.72 303.577 1516.26 303.064 1515.94 302.4C1515.63 301.727 1515.47 300.916 1515.47 299.969V298.562C1515.47 297.586 1515.63 296.756 1515.94 296.072C1516.26 295.389 1516.7 294.876 1517.26 294.534C1517.83 294.183 1518.47 294.007 1519.19 294.007C1519.91 294.007 1520.54 294.178 1521.08 294.52C1521.63 294.852 1522.06 295.354 1522.37 296.028C1522.69 296.702 1522.84 297.547 1522.84 298.562V299.969L1524.6 297.698H1513.66V300.13H1526.34V298.958C1526.34 297.396 1526.05 296.028 1525.46 294.856C1524.89 293.685 1524.06 292.776 1522.97 292.132C1521.9 291.478 1520.62 291.15 1519.15 291.15C1517.67 291.15 1516.38 291.487 1515.28 292.161C1514.2 292.835 1513.35 293.782 1512.75 295.003C1512.15 296.214 1511.86 297.635 1511.86 299.266V299.28C1511.86 300.921 1512.15 302.342 1512.75 303.543C1513.34 304.744 1514.2 305.672 1515.31 306.326C1516.44 306.98 1517.77 307.308 1519.33 307.308ZM1534.74 307.308C1536.01 307.308 1537.13 307.107 1538.11 306.707C1539.09 306.297 1539.86 305.726 1540.42 304.993C1540.98 304.251 1541.25 303.392 1541.25 302.415V302.4C1541.25 301.277 1540.91 300.384 1540.23 299.72C1539.55 299.046 1538.4 298.528 1536.79 298.167L1534.21 297.596C1533.41 297.41 1532.84 297.166 1532.5 296.863C1532.16 296.561 1532 296.189 1532 295.75V295.735C1532 295.354 1532.1 295.022 1532.3 294.739C1532.52 294.456 1532.82 294.236 1533.21 294.08C1533.61 293.924 1534.08 293.846 1534.62 293.846C1535.47 293.846 1536.14 294.051 1536.63 294.461C1537.11 294.861 1537.4 295.374 1537.48 295.999L1537.49 296.116H1540.89L1540.87 295.955C1540.83 295.057 1540.56 294.246 1540.05 293.523C1539.56 292.801 1538.85 292.225 1537.93 291.795C1537.01 291.365 1535.91 291.15 1534.62 291.15C1533.38 291.15 1532.29 291.351 1531.35 291.751C1530.42 292.151 1529.69 292.708 1529.17 293.421C1528.65 294.134 1528.39 294.964 1528.39 295.911V295.926C1528.39 297.078 1528.76 298.021 1529.51 298.753C1530.26 299.485 1531.38 300.013 1532.86 300.335L1535.44 300.906C1536.25 301.092 1536.81 301.331 1537.12 301.624C1537.44 301.907 1537.59 302.278 1537.59 302.737V302.752C1537.59 303.133 1537.48 303.465 1537.24 303.748C1537.02 304.031 1536.69 304.246 1536.27 304.393C1535.85 304.539 1535.35 304.612 1534.75 304.612C1533.82 304.612 1533.1 304.427 1532.58 304.056C1532.08 303.685 1531.75 303.162 1531.62 302.488L1531.59 302.356H1528L1528.01 302.488C1528.13 303.445 1528.46 304.29 1528.99 305.022C1529.54 305.745 1530.29 306.307 1531.25 306.707C1532.22 307.107 1533.38 307.308 1534.74 307.308Z" fill="#181818"/>
<path d="M2196.16 307.366C2201.27 307.366 2204.98 304.158 2205.39 299.661L2205.41 299.5H2201.1L2201.07 299.646C2200.5 302.151 2198.71 303.616 2196.16 303.616C2192.78 303.616 2190.61 300.862 2190.61 296.409V296.395C2190.61 291.971 2192.78 289.246 2196.16 289.246C2198.8 289.246 2200.53 290.77 2201.03 293.099L2201.08 293.348H2205.39L2205.38 293.216C2204.97 288.733 2201.29 285.496 2196.16 285.496C2190 285.496 2186.1 289.598 2186.1 296.409V296.424C2186.1 303.235 2189.98 307.366 2196.16 307.366ZM2214.99 307.322C2219.73 307.322 2222.76 304.275 2222.76 299.148V299.119C2222.76 294.036 2219.67 290.975 2214.97 290.975C2210.28 290.975 2207.21 294.065 2207.21 299.119V299.148C2207.21 304.261 2210.21 307.322 2214.99 307.322ZM2215 303.968C2212.89 303.968 2211.56 302.225 2211.56 299.148V299.119C2211.56 296.087 2212.91 294.329 2214.97 294.329C2217.05 294.329 2218.41 296.087 2218.41 299.119V299.148C2218.41 302.21 2217.08 303.968 2215 303.968ZM2224.98 307H2229.25V297.977C2229.25 295.926 2230.47 294.52 2232.39 294.52C2234.31 294.52 2235.27 295.691 2235.27 297.742V307H2239.55V296.863C2239.55 293.187 2237.59 290.975 2234.13 290.975C2231.76 290.975 2230.15 292.073 2229.34 293.875H2229.25V291.297H2224.98V307ZM2243.4 307H2247.68V294.52H2250.7V291.297H2247.58V290.198C2247.58 289.07 2248.21 288.47 2249.63 288.47C2250.02 288.47 2250.43 288.484 2250.73 288.543V285.716C2250.23 285.613 2249.37 285.54 2248.57 285.54C2244.87 285.54 2243.4 286.961 2243.4 290.037V291.297H2241.26V294.52H2243.4V307ZM2255.18 289.275C2256.47 289.275 2257.47 288.265 2257.47 287.049C2257.47 285.833 2256.47 284.822 2255.18 284.822C2253.89 284.822 2252.9 285.833 2252.9 287.049C2252.9 288.265 2253.89 289.275 2255.18 289.275ZM2253.04 307H2257.32V291.297H2253.04V307ZM2260.19 307H2264.47V298.211C2264.47 295.926 2265.7 294.666 2267.81 294.666C2268.42 294.666 2269.01 294.754 2269.36 294.9V291.136C2269.04 291.048 2268.6 290.975 2268.13 290.975C2266.3 290.975 2265.02 292.103 2264.56 294.036H2264.47V291.297H2260.19V307ZM2271.12 307H2275.4V297.522C2275.4 295.75 2276.49 294.52 2278.12 294.52C2279.7 294.52 2280.65 295.516 2280.65 297.2V307H2284.77V297.449C2284.77 295.706 2285.84 294.52 2287.47 294.52C2289.12 294.52 2290.03 295.516 2290.03 297.332V307H2294.31V296.263C2294.31 293.099 2292.24 290.975 2289.17 290.975C2286.87 290.975 2284.99 292.234 2284.29 294.212H2284.2C2283.67 292.146 2282.08 290.975 2279.88 290.975C2277.77 290.975 2276.13 292.146 2275.48 293.934H2275.4V291.297H2271.12V307Z" fill="#181818"/>
<path d="M2225 237H2256V235H2225V237ZM2256 355H2225V357H2256V355ZM2225 355C2192.42 355 2166 328.585 2166 296H2164C2164 329.689 2191.31 357 2225 357V355ZM2315 296C2315 328.585 2288.58 355 2256 355V357C2289.69 357 2317 329.689 2317 296H2315ZM2256 237C2288.58 237 2315 263.415 2315 296H2317C2317 262.311 2289.69 235 2256 235V237ZM2225 235C2191.31 235 2164 262.311 2164 296H2166C2166 263.415 2192.42 237 2225 237V235Z" fill="black"/>
<path d="M2237.5 207C2237.5 207.828 2236.83 208.5 2236 208.5C2235.17 208.5 2234.5 207.828 2234.5 207H2237.5ZM149.061 208.061C148.475 208.646 147.525 208.646 146.939 208.061L137.393 198.515C136.808 197.929 136.808 196.979 137.393 196.393C137.979 195.808 138.929 195.808 139.515 196.393L148 204.879L156.485 196.393C157.071 195.808 158.021 195.808 158.607 196.393C159.192 196.979 159.192 197.929 158.607 198.515L149.061 208.061ZM146.5 197.917C146.5 197.088 147.172 196.417 148 196.417C148.828 196.417 149.5 197.088 149.5 197.917H146.5ZM149.5 179.75C149.5 180.578 148.828 181.25 148 181.25C147.172 181.25 146.5 180.578 146.5 179.75H149.5ZM146.5 161.583C146.5 160.755 147.172 160.083 148 160.083C148.828 160.083 149.5 160.755 149.5 161.583H146.5ZM149.5 143.417C149.5 144.245 148.828 144.917 148 144.917C147.172 144.917 146.5 144.245 146.5 143.417H149.5ZM146.5 125.25C146.5 124.422 147.172 123.75 148 123.75C148.828 123.75 149.5 124.422 149.5 125.25H146.5ZM149.5 107.083C149.5 107.912 148.828 108.583 148 108.583C147.172 108.583 146.5 107.912 146.5 107.083H149.5ZM147.48 87.9508C147.641 87.1381 148.43 86.6096 149.243 86.7704C150.055 86.9312 150.584 87.7203 150.423 88.533L147.48 87.9508ZM157.668 71.0537C157.207 71.7421 156.276 71.9265 155.587 71.4657C154.899 71.0048 154.714 70.0731 155.175 69.3847L157.668 71.0537ZM169.385 55.1753C170.073 54.7144 171.005 54.8989 171.466 55.5872C171.927 56.2756 171.742 57.2073 171.054 57.6682L169.385 55.1753ZM188.533 50.4232C187.72 50.584 186.931 50.0555 186.77 49.2428C186.61 48.4301 187.138 47.641 187.951 47.4802L188.533 50.4232ZM207.94 46.5C208.768 46.5 209.44 47.1716 209.44 48C209.44 48.8284 208.768 49.5 207.94 49.5V46.5ZM227.82 49.5C226.992 49.5 226.32 48.8284 226.32 48C226.32 47.1716 226.992 46.5 227.82 46.5V49.5ZM247.7 46.5C248.528 46.5 249.2 47.1716 249.2 48C249.2 48.8284 248.528 49.5 247.7 49.5V46.5ZM267.58 49.5C266.752 49.5 266.08 48.8284 266.08 48C266.08 47.1716 266.752 46.5 267.58 46.5V49.5ZM287.46 46.5C288.288 46.5 288.96 47.1716 288.96 48C288.96 48.8284 288.288 49.5 287.46 49.5V46.5ZM307.34 49.5C306.512 49.5 305.84 48.8284 305.84 48C305.84 47.1716 306.512 46.5 307.34 46.5V49.5ZM327.22 46.5C328.048 46.5 328.72 47.1716 328.72 48C328.72 48.8284 328.048 49.5 327.22 49.5V46.5ZM347.1 49.5C346.272 49.5 345.6 48.8284 345.6 48C345.6 47.1716 346.272 46.5 347.1 46.5V49.5ZM366.98 46.5C367.808 46.5 368.48 47.1716 368.48 48C368.48 48.8284 367.808 49.5 366.98 49.5V46.5ZM386.86 49.5C386.032 49.5 385.36 48.8284 385.36 48C385.36 47.1716 386.032 46.5 386.86 46.5V49.5ZM406.74 46.5C407.568 46.5 408.24 47.1716 408.24 48C408.24 48.8284 407.568 49.5 406.74 49.5V46.5ZM426.62 49.5C425.792 49.5 425.12 48.8284 425.12 48C425.12 47.1716 425.792 46.5 426.62 46.5V49.5ZM446.5 46.5C447.328 46.5 448 47.1716 448 48C448 48.8284 447.328 49.5 446.5 49.5V46.5ZM466.38 49.5C465.552 49.5 464.88 48.8284 464.88 48C464.88 47.1716 465.552 46.5 466.38 46.5V49.5ZM486.26 46.5C487.088 46.5 487.76 47.1716 487.76 48C487.76 48.8284 487.088 49.5 486.26 49.5V46.5ZM506.14 49.5C505.312 49.5 504.64 48.8284 504.64 48C504.64 47.1716 505.312 46.5 506.14 46.5V49.5ZM526.02 46.5C526.848 46.5 527.52 47.1716 527.52 48C527.52 48.8284 526.848 49.5 526.02 49.5V46.5ZM545.9 49.5C545.072 49.5 544.4 48.8284 544.4 48C544.4 47.1716 545.072 46.5 545.9 46.5V49.5ZM565.78 46.5C566.608 46.5 567.28 47.1716 567.28 48C567.28 48.8284 566.608 49.5 565.78 49.5V46.5ZM585.66 49.5C584.832 49.5 584.16 48.8284 584.16 48C584.16 47.1716 584.832 46.5 585.66 46.5V49.5ZM605.54 46.5C606.368 46.5 607.04 47.1716 607.04 48C607.04 48.8284 606.368 49.5 605.54 49.5V46.5ZM625.42 49.5C624.592 49.5 623.92 48.8284 623.92 48C623.92 47.1716 624.592 46.5 625.42 46.5V49.5ZM645.3 46.5C646.128 46.5 646.8 47.1716 646.8 48C646.8 48.8284 646.128 49.5 645.3 49.5V46.5ZM665.18 49.5C664.352 49.5 663.68 48.8284 663.68 48C663.68 47.1716 664.352 46.5 665.18 46.5V49.5ZM685.06 46.5C685.888 46.5 686.56 47.1716 686.56 48C686.56 48.8284 685.888 49.5 685.06 49.5V46.5ZM704.94 49.5C704.112 49.5 703.44 48.8284 703.44 48C703.44 47.1716 704.112 46.5 704.94 46.5V49.5ZM724.82 46.5C725.648 46.5 726.32 47.1716 726.32 48C726.32 48.8284 725.648 49.5 724.82 49.5V46.5ZM744.7 49.5C743.872 49.5 743.2 48.8284 743.2 48C743.2 47.1716 743.872 46.5 744.7 46.5V49.5ZM764.58 46.5C765.408 46.5 766.08 47.1716 766.08 48C766.08 48.8284 765.408 49.5 764.58 49.5V46.5ZM784.46 49.5C783.632 49.5 782.96 48.8284 782.96 48C782.96 47.1716 783.632 46.5 784.46 46.5V49.5ZM804.34 46.5C805.168 46.5 805.84 47.1716 805.84 48C805.84 48.8284 805.168 49.5 804.34 49.5V46.5ZM824.22 49.5C823.392 49.5 822.72 48.8284 822.72 48C822.72 47.1716 823.392 46.5 824.22 46.5V49.5ZM844.1 46.5C844.928 46.5 845.6 47.1716 845.6 48C845.6 48.8284 844.928 49.5 844.1 49.5V46.5ZM863.98 49.5C863.152 49.5 862.48 48.8284 862.48 48C862.48 47.1716 863.152 46.5 863.98 46.5V49.5ZM883.86 46.5C884.688 46.5 885.36 47.1716 885.36 48C885.36 48.8284 884.688 49.5 883.86 49.5V46.5ZM903.74 49.5C902.912 49.5 902.24 48.8284 902.24 48C902.24 47.1716 902.912 46.5 903.74 46.5V49.5ZM923.62 46.5C924.449 46.5 925.12 47.1716 925.12 48C925.12 48.8284 924.449 49.5 923.62 49.5V46.5ZM943.5 49.5C942.672 49.5 942 48.8284 942 48C942 47.1716 942.672 46.5 943.5 46.5V49.5ZM963.38 46.5C964.209 46.5 964.88 47.1716 964.88 48C964.88 48.8284 964.209 49.5 963.38 49.5V46.5ZM983.26 49.5C982.432 49.5 981.76 48.8284 981.76 48C981.76 47.1716 982.432 46.5 983.26 46.5V49.5ZM1003.14 46.5C1003.97 46.5 1004.64 47.1716 1004.64 48C1004.64 48.8284 1003.97 49.5 1003.14 49.5V46.5ZM1023.02 49.5C1022.19 49.5 1021.52 48.8284 1021.52 48C1021.52 47.1716 1022.19 46.5 1023.02 46.5V49.5ZM1042.9 46.5C1043.73 46.5 1044.4 47.1716 1044.4 48C1044.4 48.8284 1043.73 49.5 1042.9 49.5V46.5ZM1062.78 49.5C1061.95 49.5 1061.28 48.8284 1061.28 48C1061.28 47.1716 1061.95 46.5 1062.78 46.5V49.5ZM1082.66 46.5C1083.49 46.5 1084.16 47.1716 1084.16 48C1084.16 48.8284 1083.49 49.5 1082.66 49.5V46.5ZM1102.54 49.5C1101.71 49.5 1101.04 48.8284 1101.04 48C1101.04 47.1716 1101.71 46.5 1102.54 46.5V49.5ZM1122.42 46.5C1123.25 46.5 1123.92 47.1716 1123.92 48C1123.92 48.8284 1123.25 49.5 1122.42 49.5V46.5ZM1142.3 49.5C1141.47 49.5 1140.8 48.8284 1140.8 48C1140.8 47.1716 1141.47 46.5 1142.3 46.5V49.5ZM1162.18 46.5C1163.01 46.5 1163.68 47.1716 1163.68 48C1163.68 48.8284 1163.01 49.5 1162.18 49.5V46.5ZM1182.06 49.5C1181.23 49.5 1180.56 48.8284 1180.56 48C1180.56 47.1716 1181.23 46.5 1182.06 46.5V49.5ZM1201.94 46.5C1202.77 46.5 1203.44 47.1716 1203.44 48C1203.44 48.8284 1202.77 49.5 1201.94 49.5V46.5ZM1221.82 49.5C1220.99 49.5 1220.32 48.8284 1220.32 48C1220.32 47.1716 1220.99 46.5 1221.82 46.5V49.5ZM1241.7 46.5C1242.53 46.5 1243.2 47.1716 1243.2 48C1243.2 48.8284 1242.53 49.5 1241.7 49.5V46.5ZM1261.58 49.5C1260.75 49.5 1260.08 48.8284 1260.08 48C1260.08 47.1716 1260.75 46.5 1261.58 46.5V49.5ZM1281.46 46.5C1282.29 46.5 1282.96 47.1716 1282.96 48C1282.96 48.8284 1282.29 49.5 1281.46 49.5V46.5ZM1301.34 49.5C1300.51 49.5 1299.84 48.8284 1299.84 48C1299.84 47.1716 1300.51 46.5 1301.34 46.5V49.5ZM1321.22 46.5C1322.05 46.5 1322.72 47.1716 1322.72 48C1322.72 48.8284 1322.05 49.5 1321.22 49.5V46.5ZM1341.1 49.5C1340.27 49.5 1339.6 48.8284 1339.6 48C1339.6 47.1716 1340.27 46.5 1341.1 46.5V49.5ZM1360.98 46.5C1361.81 46.5 1362.48 47.1716 1362.48 48C1362.48 48.8284 1361.81 49.5 1360.98 49.5V46.5ZM1380.86 49.5C1380.03 49.5 1379.36 48.8284 1379.36 48C1379.36 47.1716 1380.03 46.5 1380.86 46.5V49.5ZM1400.74 46.5C1401.57 46.5 1402.24 47.1716 1402.24 48C1402.24 48.8284 1401.57 49.5 1400.74 49.5V46.5ZM1420.62 49.5C1419.79 49.5 1419.12 48.8284 1419.12 48C1419.12 47.1716 1419.79 46.5 1420.62 46.5V49.5ZM1440.5 46.5C1441.33 46.5 1442 47.1716 1442 48C1442 48.8284 1441.33 49.5 1440.5 49.5V46.5ZM1460.38 49.5C1459.55 49.5 1458.88 48.8284 1458.88 48C1458.88 47.1716 1459.55 46.5 1460.38 46.5V49.5ZM1480.26 46.5C1481.09 46.5 1481.76 47.1716 1481.76 48C1481.76 48.8284 1481.09 49.5 1480.26 49.5V46.5ZM1500.14 49.5C1499.31 49.5 1498.64 48.8284 1498.64 48C1498.64 47.1716 1499.31 46.5 1500.14 46.5V49.5ZM1520.02 46.5C1520.85 46.5 1521.52 47.1716 1521.52 48C1521.52 48.8284 1520.85 49.5 1520.02 49.5V46.5ZM1539.9 49.5C1539.07 49.5 1538.4 48.8284 1538.4 48C1538.4 47.1716 1539.07 46.5 1539.9 46.5V49.5ZM1559.78 46.5C1560.61 46.5 1561.28 47.1716 1561.28 48C1561.28 48.8284 1560.61 49.5 1559.78 49.5V46.5ZM1579.66 49.5C1578.83 49.5 1578.16 48.8284 1578.16 48C1578.16 47.1716 1578.83 46.5 1579.66 46.5V49.5ZM1599.54 46.5C1600.37 46.5 1601.04 47.1716 1601.04 48C1601.04 48.8284 1600.37 49.5 1599.54 49.5V46.5ZM1619.42 49.5C1618.59 49.5 1617.92 48.8284 1617.92 48C1617.92 47.1716 1618.59 46.5 1619.42 46.5V49.5ZM1639.3 46.5C1640.13 46.5 1640.8 47.1716 1640.8 48C1640.8 48.8284 1640.13 49.5 1639.3 49.5V46.5ZM1659.18 49.5C1658.35 49.5 1657.68 48.8284 1657.68 48C1657.68 47.1716 1658.35 46.5 1659.18 46.5V49.5ZM1679.06 46.5C1679.89 46.5 1680.56 47.1716 1680.56 48C1680.56 48.8284 1679.89 49.5 1679.06 49.5V46.5ZM1698.94 49.5C1698.11 49.5 1697.44 48.8284 1697.44 48C1697.44 47.1716 1698.11 46.5 1698.94 46.5V49.5ZM1718.82 46.5C1719.65 46.5 1720.32 47.1716 1720.32 48C1720.32 48.8284 1719.65 49.5 1718.82 49.5V46.5ZM1738.7 49.5C1737.87 49.5 1737.2 48.8284 1737.2 48C1737.2 47.1716 1737.87 46.5 1738.7 46.5V49.5ZM1758.58 46.5C1759.41 46.5 1760.08 47.1716 1760.08 48C1760.08 48.8284 1759.41 49.5 1758.58 49.5V46.5ZM1778.46 49.5C1777.63 49.5 1776.96 48.8284 1776.96 48C1776.96 47.1716 1777.63 46.5 1778.46 46.5V49.5ZM1798.34 46.5C1799.17 46.5 1799.84 47.1716 1799.84 48C1799.84 48.8284 1799.17 49.5 1798.34 49.5V46.5ZM1818.22 49.5C1817.39 49.5 1816.72 48.8284 1816.72 48C1816.72 47.1716 1817.39 46.5 1818.22 46.5V49.5ZM1838.1 46.5C1838.93 46.5 1839.6 47.1716 1839.6 48C1839.6 48.8284 1838.93 49.5 1838.1 49.5V46.5ZM1857.98 49.5C1857.15 49.5 1856.48 48.8284 1856.48 48C1856.48 47.1716 1857.15 46.5 1857.98 46.5V49.5ZM1877.86 46.5C1878.69 46.5 1879.36 47.1716 1879.36 48C1879.36 48.8284 1878.69 49.5 1877.86 49.5V46.5ZM1897.74 49.5C1896.91 49.5 1896.24 48.8284 1896.24 48C1896.24 47.1716 1896.91 46.5 1897.74 46.5V49.5ZM1917.62 46.5C1918.45 46.5 1919.12 47.1716 1919.12 48C1919.12 48.8284 1918.45 49.5 1917.62 49.5V46.5ZM1937.5 49.5C1936.67 49.5 1936 48.8284 1936 48C1936 47.1716 1936.67 46.5 1937.5 46.5V49.5ZM1957.38 46.5C1958.21 46.5 1958.88 47.1716 1958.88 48C1958.88 48.8284 1958.21 49.5 1957.38 49.5V46.5ZM1977.26 49.5C1976.43 49.5 1975.76 48.8284 1975.76 48C1975.76 47.1716 1976.43 46.5 1977.26 46.5V49.5ZM1997.14 46.5C1997.97 46.5 1998.64 47.1716 1998.64 48C1998.64 48.8284 1997.97 49.5 1997.14 49.5V46.5ZM2017.02 49.5C2016.19 49.5 2015.52 48.8284 2015.52 48C2015.52 47.1716 2016.19 46.5 2017.02 46.5V49.5ZM2036.9 46.5C2037.73 46.5 2038.4 47.1716 2038.4 48C2038.4 48.8284 2037.73 49.5 2036.9 49.5V46.5ZM2056.78 49.5C2055.95 49.5 2055.28 48.8284 2055.28 48C2055.28 47.1716 2055.95 46.5 2056.78 46.5V49.5ZM2076.66 46.5C2077.49 46.5 2078.16 47.1716 2078.16 48C2078.16 48.8284 2077.49 49.5 2076.66 49.5V46.5ZM2096.54 49.5C2095.71 49.5 2095.04 48.8284 2095.04 48C2095.04 47.1716 2095.71 46.5 2096.54 46.5V49.5ZM2116.42 46.5C2117.25 46.5 2117.92 47.1716 2117.92 48C2117.92 48.8284 2117.25 49.5 2116.42 49.5V46.5ZM2136.3 49.5C2135.47 49.5 2134.8 48.8284 2134.8 48C2134.8 47.1716 2135.47 46.5 2136.3 46.5V49.5ZM2156.18 46.5C2157.01 46.5 2157.68 47.1716 2157.68 48C2157.68 48.8284 2157.01 49.5 2156.18 49.5V46.5ZM2176.06 49.5C2175.23 49.5 2174.56 48.8284 2174.56 48C2174.56 47.1716 2175.23 46.5 2176.06 46.5V49.5ZM2196.05 47.4802C2196.86 47.641 2197.39 48.4301 2197.23 49.2428C2197.07 50.0555 2196.28 50.584 2195.47 50.4232L2196.05 47.4802ZM2212.95 57.6682C2212.26 57.2073 2212.07 56.2756 2212.53 55.5872C2213 54.8989 2213.93 54.7144 2214.62 55.1753L2212.95 57.6682ZM2228.82 69.3847C2229.29 70.0731 2229.1 71.0048 2228.41 71.4657C2227.72 71.9265 2226.79 71.7421 2226.33 71.0537L2228.82 69.3847ZM2233.58 88.533C2233.42 87.7203 2233.94 86.9312 2234.76 86.7704C2235.57 86.6096 2236.36 87.1381 2236.52 87.9508L2233.58 88.533ZM2237.5 107.083C2237.5 107.912 2236.83 108.583 2236 108.583C2235.17 108.583 2234.5 107.912 2234.5 107.083H2237.5ZM2234.5 125.25C2234.5 124.422 2235.17 123.75 2236 123.75C2236.83 123.75 2237.5 124.422 2237.5 125.25H2234.5ZM2237.5 143.417C2237.5 144.245 2236.83 144.917 2236 144.917C2235.17 144.917 2234.5 144.245 2234.5 143.417H2237.5ZM2234.5 161.583C2234.5 160.755 2235.17 160.083 2236 160.083C2236.83 160.083 2237.5 160.755 2237.5 161.583H2234.5ZM2237.5 179.75C2237.5 180.578 2236.83 181.25 2236 181.25C2235.17 181.25 2234.5 180.578 2234.5 179.75H2237.5ZM2234.5 197.917C2234.5 197.088 2235.17 196.417 2236 196.417C2236.83 196.417 2237.5 197.088 2237.5 197.917H2234.5ZM146.5 207V197.917H149.5V207H146.5ZM146.5 179.75V161.583H149.5V179.75H146.5ZM146.5 143.417V125.25H149.5V143.417H146.5ZM146.5 107.083V98H149.5V107.083H146.5ZM146.5 98C146.5 94.5625 146.837 91.2022 147.48 87.9508L150.423 88.533C149.818 91.5937 149.5 94.759 149.5 98H146.5ZM155.175 69.3847C158.935 63.7692 163.769 58.9348 169.385 55.1753L171.054 57.6682C165.764 61.2095 161.209 65.7641 157.668 71.0537L155.175 69.3847ZM187.951 47.4802C191.202 46.837 194.562 46.5 198 46.5V49.5C194.759 49.5 191.594 49.8177 188.533 50.4232L187.951 47.4802ZM198 46.5H207.94V49.5H198V46.5ZM227.82 46.5H247.7V49.5H227.82V46.5ZM267.58 46.5H287.46V49.5H267.58V46.5ZM307.34 46.5H327.22V49.5H307.34V46.5ZM347.1 46.5H366.98V49.5H347.1V46.5ZM386.86 46.5H406.74V49.5H386.86V46.5ZM426.62 46.5H446.5V49.5H426.62V46.5ZM466.38 46.5H486.26V49.5H466.38V46.5ZM506.14 46.5H526.02V49.5H506.14V46.5ZM545.9 46.5H565.78V49.5H545.9V46.5ZM585.66 46.5H605.54V49.5H585.66V46.5ZM625.42 46.5H645.3V49.5H625.42V46.5ZM665.18 46.5H685.06V49.5H665.18V46.5ZM704.94 46.5H724.82V49.5H704.94V46.5ZM744.7 46.5H764.58V49.5H744.7V46.5ZM784.46 46.5H804.34V49.5H784.46V46.5ZM824.22 46.5H844.1V49.5H824.22V46.5ZM863.98 46.5H883.86V49.5H863.98V46.5ZM903.74 46.5H923.62V49.5H903.74V46.5ZM943.5 46.5H963.38V49.5H943.5V46.5ZM983.26 46.5H1003.14V49.5H983.26V46.5ZM1023.02 46.5H1042.9V49.5H1023.02V46.5ZM1062.78 46.5H1082.66V49.5H1062.78V46.5ZM1102.54 46.5H1122.42V49.5H1102.54V46.5ZM1142.3 46.5H1162.18V49.5H1142.3V46.5ZM1182.06 46.5H1201.94V49.5H1182.06V46.5ZM1221.82 46.5H1241.7V49.5H1221.82V46.5ZM1261.58 46.5H1281.46V49.5H1261.58V46.5ZM1301.34 46.5H1321.22V49.5H1301.34V46.5ZM1341.1 46.5H1360.98V49.5H1341.1V46.5ZM1380.86 46.5H1400.74V49.5H1380.86V46.5ZM1420.62 46.5H1440.5V49.5H1420.62V46.5ZM1460.38 46.5H1480.26V49.5H1460.38V46.5ZM1500.14 46.5H1520.02V49.5H1500.14V46.5ZM1539.9 46.5H1559.78V49.5H1539.9V46.5ZM1579.66 46.5H1599.54V49.5H1579.66V46.5ZM1619.42 46.5H1639.3V49.5H1619.42V46.5ZM1659.18 46.5H1679.06V49.5H1659.18V46.5ZM1698.94 46.5H1718.82V49.5H1698.94V46.5ZM1738.7 46.5H1758.58V49.5H1738.7V46.5ZM1778.46 46.5H1798.34V49.5H1778.46V46.5ZM1818.22 46.5H1838.1V49.5H1818.22V46.5ZM1857.98 46.5H1877.86V49.5H1857.98V46.5ZM1897.74 46.5H1917.62V49.5H1897.74V46.5ZM1937.5 46.5H1957.38V49.5H1937.5V46.5ZM1977.26 46.5H1997.14V49.5H1977.26V46.5ZM2017.02 46.5H2036.9V49.5H2017.02V46.5ZM2056.78 46.5H2076.66V49.5H2056.78V46.5ZM2096.54 46.5H2116.42V49.5H2096.54V46.5ZM2136.3 46.5H2156.18V49.5H2136.3V46.5ZM2176.06 46.5H2186V49.5H2176.06V46.5ZM2186 46.5C2189.44 46.5 2192.8 46.837 2196.05 47.4802L2195.47 50.4232C2192.41 49.8177 2189.24 49.5 2186 49.5V46.5ZM2214.62 55.1753C2220.23 58.9348 2225.07 63.7692 2228.82 69.3847L2226.33 71.0537C2222.79 65.7641 2218.24 61.2095 2212.95 57.6682L2214.62 55.1753ZM2236.52 87.9508C2237.16 91.2022 2237.5 94.5625 2237.5 98H2234.5C2234.5 94.759 2234.18 91.5937 2233.58 88.533L2236.52 87.9508ZM2237.5 98V107.083H2234.5V98H2237.5ZM2237.5 125.25V143.417H2234.5V125.25H2237.5ZM2237.5 161.583V179.75H2234.5V161.583H2237.5ZM2237.5 197.917V207H2234.5V197.917H2237.5Z" fill="#858585"/>
<path d="M1637 295C1636.17 295 1635.5 295.672 1635.5 296.5C1635.5 297.328 1636.17 298 1637 298L1637 295ZM1698.06 297.561C1698.65 296.975 1698.65 296.025 1698.06 295.439L1688.51 285.893C1687.93 285.308 1686.98 285.308 1686.39 285.893C1685.81 286.479 1685.81 287.429 1686.39 288.015L1694.88 296.5L1686.39 304.985C1685.81 305.571 1685.81 306.521 1686.39 307.107C1686.98 307.692 1687.93 307.692 1688.51 307.107L1698.06 297.561ZM1637 298L1667 298L1667 295L1637 295L1637 298ZM1667 298L1697 298L1697 295L1667 295L1667 298Z" fill="#858585"/>
<path d="M1765 415C1765 398.431 1778.43 385 1795 385H1973C1989.57 385 2003 398.431 2003 415V415C2003 431.569 1989.57 445 1973 445H1795C1778.43 445 1765 431.569 1765 415V415Z" fill="#EFEFEF"/>
<path d="M1796.43 423H1798.83V417.704H1802.2C1805.24 417.704 1807.34 415.631 1807.34 412.602V412.58C1807.34 409.54 1805.24 407.499 1802.2 407.499H1796.43V423ZM1801.6 409.529C1803.69 409.529 1804.89 410.657 1804.89 412.591V412.612C1804.89 414.557 1803.69 415.685 1801.6 415.685H1798.83V409.529H1801.6ZM1809.25 423H1811.58V416.458C1811.58 414.696 1812.64 413.472 1814.24 413.472C1815.87 413.472 1816.82 414.589 1816.82 416.458V423H1819.14V416.018C1819.14 413.289 1817.55 411.484 1815.13 411.484C1813.44 411.484 1812.23 412.247 1811.63 413.558H1811.58V407.499H1809.25V423ZM1822.7 426.771C1824.92 426.771 1826.1 425.868 1826.94 423.526L1831.15 411.699H1828.7L1825.85 420.895H1825.78L1822.93 411.699H1820.42L1824.53 423.011L1824.34 423.548C1823.95 424.644 1823.35 424.934 1822.25 424.934C1821.94 424.934 1821.67 424.891 1821.49 424.848V426.663C1821.77 426.717 1822.25 426.771 1822.7 426.771ZM1836.71 423.226C1839.38 423.226 1841.31 421.808 1841.31 419.745V419.734C1841.31 418.112 1840.43 417.199 1838.12 416.662L1836.28 416.243C1835.07 415.953 1834.61 415.48 1834.61 414.782V414.771C1834.61 413.869 1835.39 413.278 1836.64 413.278C1837.95 413.278 1838.72 413.966 1838.86 414.954L1838.87 415.029H1841.05L1841.04 414.9C1840.92 412.978 1839.31 411.484 1836.64 411.484C1834.04 411.484 1832.28 412.87 1832.28 414.89V414.9C1832.28 416.544 1833.34 417.575 1835.49 418.069L1837.33 418.488C1838.55 418.778 1838.96 419.197 1838.96 419.928V419.938C1838.96 420.852 1838.12 421.432 1836.72 421.432C1835.29 421.432 1834.52 420.819 1834.31 419.777L1834.28 419.67H1831.99L1832 419.767C1832.23 421.829 1833.89 423.226 1836.71 423.226ZM1844.37 409.959C1845.13 409.959 1845.72 409.357 1845.72 408.627C1845.72 407.886 1845.13 407.284 1844.37 407.284C1843.62 407.284 1843.02 407.886 1843.02 408.627C1843.02 409.357 1843.62 409.959 1844.37 409.959ZM1843.21 423H1845.53V411.699H1843.21V423ZM1852.78 423.226C1855.5 423.226 1857.39 421.485 1857.64 419.219L1857.65 419.144H1855.41L1855.4 419.229C1855.12 420.454 1854.21 421.281 1852.78 421.281C1850.99 421.281 1849.8 419.831 1849.8 417.36V417.35C1849.8 414.933 1850.97 413.429 1852.77 413.429C1854.29 413.429 1855.15 414.363 1855.39 415.47L1855.41 415.556H1857.63L1857.62 415.48C1857.42 413.354 1855.66 411.484 1852.75 411.484C1849.53 411.484 1847.42 413.751 1847.42 417.328V417.339C1847.42 420.959 1849.48 423.226 1852.78 423.226ZM1862.61 423.204C1864.1 423.204 1865.42 422.431 1866.07 421.217H1866.11V423H1868.44V415.212C1868.44 412.945 1866.69 411.484 1863.93 411.484C1861.15 411.484 1859.46 412.978 1859.3 414.922L1859.29 415.04H1861.48L1861.5 414.943C1861.7 414.041 1862.53 413.407 1863.87 413.407C1865.31 413.407 1866.11 414.159 1866.11 415.405V416.254L1863.04 416.437C1860.37 416.598 1858.84 417.801 1858.84 419.767V419.788C1858.84 421.818 1860.36 423.204 1862.61 423.204ZM1861.18 419.734V419.713C1861.18 418.757 1861.96 418.145 1863.35 418.059L1866.11 417.887V418.768C1866.11 420.239 1864.88 421.346 1863.25 421.346C1862 421.346 1861.18 420.723 1861.18 419.734ZM1870.79 423H1873.11V407.499H1870.79V423ZM1884.61 423H1887.26L1892.79 407.499H1890.2L1885.96 420.325H1885.91L1881.68 407.499H1879.09L1884.61 423ZM1897.19 423.226C1899.85 423.226 1901.79 421.808 1901.79 419.745V419.734C1901.79 418.112 1900.91 417.199 1898.6 416.662L1896.76 416.243C1895.55 415.953 1895.08 415.48 1895.08 414.782V414.771C1895.08 413.869 1895.87 413.278 1897.12 413.278C1898.43 413.278 1899.2 413.966 1899.34 414.954L1899.35 415.029H1901.53L1901.52 414.9C1901.4 412.978 1899.79 411.484 1897.12 411.484C1894.52 411.484 1892.75 412.87 1892.75 414.89V414.9C1892.75 416.544 1893.82 417.575 1895.97 418.069L1897.81 418.488C1899.03 418.778 1899.44 419.197 1899.44 419.928V419.938C1899.44 420.852 1898.6 421.432 1897.2 421.432C1895.77 421.432 1895 420.819 1894.78 419.777L1894.76 419.67H1892.46L1892.47 419.767C1892.71 421.829 1894.37 423.226 1897.19 423.226ZM1904.91 423.161C1905.7 423.161 1906.32 422.538 1906.32 421.754C1906.32 420.959 1905.7 420.347 1904.91 420.347C1904.12 420.347 1903.5 420.959 1903.5 421.754C1903.5 422.538 1904.12 423.161 1904.91 423.161ZM1916.49 423H1919.15L1924.67 407.499H1922.08L1917.85 420.325H1917.79L1913.56 407.499H1910.97L1916.49 423ZM1927.09 409.959C1927.85 409.959 1928.44 409.357 1928.44 408.627C1928.44 407.886 1927.85 407.284 1927.09 407.284C1926.33 407.284 1925.73 407.886 1925.73 408.627C1925.73 409.357 1926.33 409.959 1927.09 409.959ZM1925.93 423H1928.25V411.699H1925.93V423ZM1930.64 423H1932.96V416.265C1932.96 414.578 1933.89 413.601 1935.38 413.601C1935.83 413.601 1936.24 413.654 1936.42 413.729V411.57C1936.24 411.538 1935.95 411.484 1935.62 411.484C1934.33 411.484 1933.38 412.312 1933.02 413.633H1932.96V411.699H1930.64V423ZM1942.32 423.226C1942.79 423.226 1943.23 423.172 1943.5 423.129V421.335C1943.33 421.356 1943.12 421.378 1942.88 421.378C1941.9 421.378 1941.38 421.034 1941.38 419.885V413.547H1943.5V411.699H1941.38V408.756H1939.01V411.699H1937.39V413.547H1939.01V420.024C1939.01 422.28 1940.08 423.226 1942.32 423.226ZM1949.27 423.226C1950.99 423.226 1952.14 422.441 1952.73 421.303H1952.78V423H1955.11V411.699H1952.78V418.295C1952.78 420.057 1951.73 421.228 1950.1 421.228C1948.48 421.228 1947.69 420.282 1947.69 418.574V411.699H1945.37V419.025C1945.37 421.625 1946.79 423.226 1949.27 423.226ZM1960.73 423.204C1962.22 423.204 1963.53 422.431 1964.19 421.217H1964.23V423H1966.56V415.212C1966.56 412.945 1964.81 411.484 1962.05 411.484C1959.27 411.484 1957.58 412.978 1957.42 414.922L1957.41 415.04H1959.6L1959.62 414.943C1959.82 414.041 1960.64 413.407 1961.99 413.407C1963.43 413.407 1964.23 414.159 1964.23 415.405V416.254L1961.16 416.437C1958.49 416.598 1956.96 417.801 1956.96 419.767V419.788C1956.96 421.818 1958.47 423.204 1960.73 423.204ZM1959.3 419.734V419.713C1959.3 418.757 1960.08 418.145 1961.47 418.059L1964.23 417.887V418.768C1964.23 420.239 1963 421.346 1961.36 421.346C1960.12 421.346 1959.3 420.723 1959.3 419.734ZM1968.91 423H1971.23V407.499H1968.91V423Z" fill="#181818"/>
<path d="M1037 415C1037 398.431 1050.43 385 1067 385H1248C1264.57 385 1278 398.431 1278 415V415C1278 431.569 1264.57 445 1248 445H1067C1050.43 445 1037 431.569 1037 415V415Z" fill="#EFEFEF"/>
<path d="M1068.43 423H1070.81V411.517H1070.88L1078.86 423H1081.07V407.499H1078.69V418.961H1078.62L1070.65 407.499H1068.43V423ZM1086.68 423.204C1088.17 423.204 1089.48 422.431 1090.14 421.217H1090.18V423H1092.51V415.212C1092.51 412.945 1090.76 411.484 1088 411.484C1085.22 411.484 1083.53 412.978 1083.37 414.922L1083.36 415.04H1085.55L1085.57 414.943C1085.77 414.041 1086.59 413.407 1087.94 413.407C1089.38 413.407 1090.18 414.159 1090.18 415.405V416.254L1087.11 416.437C1084.43 416.598 1082.91 417.801 1082.91 419.767V419.788C1082.91 421.818 1084.42 423.204 1086.68 423.204ZM1085.25 419.734V419.713C1085.25 418.757 1086.02 418.145 1087.42 418.059L1090.18 417.887V418.768C1090.18 420.239 1088.95 421.346 1087.31 421.346C1086.07 421.346 1085.25 420.723 1085.25 419.734ZM1094.77 423H1097.09V416.018C1097.09 414.557 1098.07 413.472 1099.44 413.472C1100.75 413.472 1101.58 414.31 1101.58 415.62V423H1103.86V415.932C1103.86 414.503 1104.81 413.472 1106.19 413.472C1107.56 413.472 1108.35 414.32 1108.35 415.792V423H1110.68V415.233C1110.68 412.967 1109.22 411.484 1106.98 411.484C1105.37 411.484 1104.04 412.333 1103.46 413.708H1103.41C1102.95 412.29 1101.82 411.484 1100.26 411.484C1098.78 411.484 1097.63 412.269 1097.14 413.45H1097.09V411.699H1094.77V423ZM1117.75 423.226C1120.49 423.226 1122.23 421.593 1122.59 419.799L1122.61 419.681H1120.41L1120.38 419.767C1120.09 420.615 1119.17 421.324 1117.8 421.324C1115.95 421.324 1114.78 420.078 1114.74 417.94H1122.74V417.156C1122.74 413.762 1120.8 411.484 1117.63 411.484C1114.46 411.484 1112.42 413.848 1112.42 417.382V417.393C1112.42 420.959 1114.43 423.226 1117.75 423.226ZM1117.64 413.386C1119.15 413.386 1120.25 414.342 1120.44 416.297H1114.77C1114.97 414.406 1116.13 413.386 1117.64 413.386ZM1129.5 423.269C1131.51 423.269 1133.18 422.667 1134.44 421.571L1135.74 423H1138.5V422.936L1135.75 420.024C1136.61 418.649 1137.07 416.888 1137.07 414.782V414.256H1134.99V414.729C1134.99 416.211 1134.76 417.468 1134.3 418.478L1130.79 414.75C1133.15 413.461 1134.05 412.279 1134.05 410.754V410.743C1134.05 408.702 1132.36 407.263 1130 407.263C1127.65 407.263 1125.91 408.756 1125.91 410.765V410.775C1125.92 411.86 1126.46 412.806 1127.81 414.331L1127.24 414.632C1125.2 415.728 1124.22 417.103 1124.22 418.896V418.907C1124.22 421.496 1126.35 423.269 1129.5 423.269ZM1128.05 410.883V410.872C1128.05 409.766 1128.88 408.981 1130 408.981C1131.16 408.981 1131.96 409.744 1131.96 410.851V410.861C1131.96 411.871 1131.33 412.612 1129.64 413.515C1128.53 412.322 1128.05 411.678 1128.05 410.883ZM1126.5 418.725V418.714C1126.5 417.629 1127.08 416.77 1128.58 415.91L1129.03 415.663L1133.14 420.143C1132.28 420.948 1131.13 421.41 1129.72 421.41C1127.8 421.41 1126.5 420.336 1126.5 418.725ZM1140.25 423H1145.72C1150.34 423 1153.06 420.121 1153.06 415.223V415.201C1153.06 410.324 1150.32 407.499 1145.72 407.499H1140.25V423ZM1142.66 420.916V409.572H1145.49C1148.76 409.572 1150.6 411.581 1150.6 415.223V415.244C1150.6 418.907 1148.78 420.916 1145.49 420.916H1142.66ZM1159.9 423.226C1162.64 423.226 1164.38 421.593 1164.74 419.799L1164.76 419.681H1162.56L1162.53 419.767C1162.24 420.615 1161.33 421.324 1159.95 421.324C1158.1 421.324 1156.93 420.078 1156.89 417.94H1164.89V417.156C1164.89 413.762 1162.95 411.484 1159.78 411.484C1156.61 411.484 1154.57 413.848 1154.57 417.382V417.393C1154.57 420.959 1156.58 423.226 1159.9 423.226ZM1159.79 413.386C1161.31 413.386 1162.4 414.342 1162.59 416.297H1156.92C1157.13 414.406 1158.29 413.386 1159.79 413.386ZM1170.93 423.226C1173.59 423.226 1175.53 421.808 1175.53 419.745V419.734C1175.53 418.112 1174.65 417.199 1172.34 416.662L1170.5 416.243C1169.29 415.953 1168.83 415.48 1168.83 414.782V414.771C1168.83 413.869 1169.61 413.278 1170.86 413.278C1172.17 413.278 1172.94 413.966 1173.08 414.954L1173.09 415.029H1175.27L1175.26 414.9C1175.14 412.978 1173.53 411.484 1170.86 411.484C1168.26 411.484 1166.49 412.87 1166.49 414.89V414.9C1166.49 416.544 1167.56 417.575 1169.71 418.069L1171.55 418.488C1172.77 418.778 1173.18 419.197 1173.18 419.928V419.938C1173.18 420.852 1172.34 421.432 1170.94 421.432C1169.51 421.432 1168.74 420.819 1168.52 419.777L1168.5 419.67H1166.2L1166.21 419.767C1166.45 421.829 1168.11 423.226 1170.93 423.226ZM1182.19 423.226C1184.91 423.226 1186.8 421.485 1187.04 419.219L1187.05 419.144H1184.82L1184.81 419.229C1184.53 420.454 1183.62 421.281 1182.19 421.281C1180.39 421.281 1179.2 419.831 1179.2 417.36V417.35C1179.2 414.933 1180.37 413.429 1182.18 413.429C1183.69 413.429 1184.55 414.363 1184.8 415.47L1184.82 415.556H1187.03L1187.02 415.48C1186.83 413.354 1185.07 411.484 1182.16 411.484C1178.93 411.484 1176.83 413.751 1176.83 417.328V417.339C1176.83 420.959 1178.89 423.226 1182.19 423.226ZM1188.7 423H1191.02V416.265C1191.02 414.578 1191.94 413.601 1193.44 413.601C1193.89 413.601 1194.29 413.654 1194.48 413.729V411.57C1194.29 411.538 1194 411.484 1193.67 411.484C1192.38 411.484 1191.44 412.312 1191.07 413.633H1191.02V411.699H1188.7V423ZM1197.17 409.959C1197.94 409.959 1198.53 409.357 1198.53 408.627C1198.53 407.886 1197.94 407.284 1197.17 407.284C1196.42 407.284 1195.82 407.886 1195.82 408.627C1195.82 409.357 1196.42 409.959 1197.17 409.959ZM1196.01 423H1198.33V411.699H1196.01V423ZM1200.73 426.76H1203.05V421.099H1203.1C1203.77 422.409 1205.07 423.226 1206.67 423.226C1209.51 423.226 1211.36 420.959 1211.36 417.36V417.35C1211.36 413.74 1209.52 411.484 1206.64 411.484C1205.03 411.484 1203.78 412.301 1203.1 413.644H1203.05V411.699H1200.73V426.76ZM1206.04 421.228C1204.29 421.228 1203.04 419.702 1203.04 417.36V417.35C1203.04 414.997 1204.27 413.472 1206.04 413.472C1207.85 413.472 1209 414.943 1209 417.35V417.36C1209 419.745 1207.86 421.228 1206.04 421.228ZM1217.13 423.226C1217.61 423.226 1218.05 423.172 1218.31 423.129V421.335C1218.14 421.356 1217.94 421.378 1217.69 421.378C1216.71 421.378 1216.2 421.034 1216.2 419.885V413.547H1218.31V411.699H1216.2V408.756H1213.82V411.699H1212.2V413.547H1213.82V420.024C1213.82 422.28 1214.9 423.226 1217.13 423.226ZM1221.49 409.959C1222.26 409.959 1222.85 409.357 1222.85 408.627C1222.85 407.886 1222.26 407.284 1221.49 407.284C1220.74 407.284 1220.14 407.886 1220.14 408.627C1220.14 409.357 1220.74 409.959 1221.49 409.959ZM1220.33 423H1222.65V411.699H1220.33V423ZM1229.91 423.226C1233.14 423.226 1235.27 420.991 1235.27 417.35V417.328C1235.27 413.708 1233.12 411.484 1229.89 411.484C1226.68 411.484 1224.54 413.719 1224.54 417.328V417.35C1224.54 420.98 1226.66 423.226 1229.91 423.226ZM1229.92 421.281C1228.1 421.281 1226.92 419.853 1226.92 417.35V417.328C1226.92 414.857 1228.11 413.429 1229.89 413.429C1231.71 413.429 1232.89 414.857 1232.89 417.328V417.35C1232.89 419.842 1231.73 421.281 1229.92 421.281ZM1237.06 423H1239.38V416.415C1239.38 414.653 1240.43 413.472 1242.07 413.472C1243.68 413.472 1244.47 414.428 1244.47 416.125V423H1246.8V415.685C1246.8 413.085 1245.37 411.484 1242.89 411.484C1241.18 411.484 1240.02 412.258 1239.43 413.407H1239.38V411.699H1237.06V423Z" fill="#181818"/>
<path d="M2071 295C2070.17 295 2069.5 295.672 2069.5 296.5C2069.5 297.328 2070.17 298 2071 298L2071 295ZM2132.06 297.561C2132.65 296.975 2132.65 296.025 2132.06 295.439L2122.51 285.893C2121.93 285.308 2120.98 285.308 2120.39 285.893C2119.81 286.479 2119.81 287.429 2120.39 288.015L2128.88 296.5L2120.39 304.985C2119.81 305.571 2119.81 306.521 2120.39 307.107C2120.98 307.692 2121.93 307.692 2122.51 307.107L2132.06 297.561ZM2071 298L2101 298L2101 295L2071 295L2071 298ZM2101 298L2131 298L2131 295L2101 295L2101 298Z" fill="#858585"/>
<path d="M1731 296C1731 262.863 1757.86 236 1791 236H1977C2010.14 236 2037 262.863 2037 296V296C2037 329.137 2010.14 356 1977 356H1791C1757.86 356 1731 329.137 1731 296V296Z" fill="#F8F8F8"/>
<path d="M1792.86 307H1806.22V303.821H1796.64V285.862H1792.86V307ZM1815.16 307.308C1816.68 307.308 1818 306.985 1819.12 306.341C1820.25 305.696 1821.12 304.773 1821.73 303.572C1822.36 302.361 1822.67 300.916 1822.67 299.236V299.207C1822.67 297.537 1822.36 296.102 1821.73 294.9C1821.11 293.699 1820.23 292.776 1819.1 292.132C1817.97 291.478 1816.65 291.15 1815.14 291.15C1813.64 291.15 1812.32 291.478 1811.2 292.132C1810.08 292.776 1809.2 293.704 1808.58 294.915C1807.95 296.116 1807.64 297.547 1807.64 299.207V299.236C1807.64 300.906 1807.95 302.347 1808.56 303.558C1809.19 304.759 1810.06 305.687 1811.19 306.341C1812.31 306.985 1813.63 307.308 1815.16 307.308ZM1815.17 304.363C1814.4 304.363 1813.72 304.163 1813.15 303.763C1812.58 303.362 1812.14 302.781 1811.82 302.02C1811.5 301.248 1811.35 300.32 1811.35 299.236V299.207C1811.35 298.133 1811.5 297.215 1811.82 296.453C1812.14 295.691 1812.58 295.11 1813.15 294.71C1813.72 294.31 1814.39 294.109 1815.14 294.109C1815.91 294.109 1816.58 294.31 1817.15 294.71C1817.72 295.11 1818.17 295.691 1818.48 296.453C1818.79 297.215 1818.95 298.133 1818.95 299.207V299.236C1818.95 300.32 1818.79 301.248 1818.48 302.02C1818.18 302.781 1817.74 303.362 1817.18 303.763C1816.61 304.163 1815.94 304.363 1815.17 304.363ZM1831.87 307.308C1833.18 307.308 1834.33 307.059 1835.31 306.561C1836.3 306.053 1837.08 305.369 1837.67 304.51C1838.26 303.65 1838.6 302.684 1838.7 301.609L1838.71 301.507H1835.27L1835.24 301.639C1835.07 302.449 1834.7 303.108 1834.12 303.616C1833.56 304.114 1832.81 304.363 1831.88 304.363C1831.12 304.363 1830.45 304.163 1829.88 303.763C1829.31 303.353 1828.87 302.767 1828.54 302.005C1828.23 301.243 1828.08 300.325 1828.08 299.251V299.236C1828.08 298.172 1828.23 297.259 1828.54 296.497C1828.86 295.735 1829.3 295.149 1829.86 294.739C1830.44 294.319 1831.11 294.109 1831.87 294.109C1832.84 294.109 1833.6 294.378 1834.15 294.915C1834.72 295.442 1835.08 296.082 1835.22 296.834L1835.25 296.951H1838.68V296.849C1838.6 295.813 1838.28 294.866 1837.71 294.007C1837.15 293.147 1836.37 292.459 1835.37 291.941C1834.37 291.414 1833.19 291.15 1831.83 291.15C1830.32 291.15 1829.01 291.478 1827.88 292.132C1826.77 292.786 1825.91 293.719 1825.29 294.93C1824.68 296.131 1824.37 297.557 1824.37 299.207V299.222C1824.37 300.882 1824.67 302.317 1825.28 303.528C1825.89 304.739 1826.76 305.672 1827.88 306.326C1829.01 306.98 1830.34 307.308 1831.87 307.308ZM1845.48 307.264C1846.16 307.264 1846.8 307.156 1847.4 306.941C1848 306.727 1848.54 306.419 1849.01 306.019C1849.48 305.618 1849.86 305.149 1850.15 304.612H1850.24V307H1853.87V296.321C1853.87 295.276 1853.61 294.368 1853.08 293.597C1852.56 292.825 1851.83 292.225 1850.87 291.795C1849.92 291.365 1848.8 291.15 1847.5 291.15C1846.19 291.15 1845.06 291.36 1844.1 291.78C1843.15 292.2 1842.41 292.776 1841.87 293.509C1841.34 294.231 1841.03 295.052 1840.95 295.97L1840.94 296.146H1844.31L1844.33 296.014C1844.46 295.438 1844.78 294.969 1845.3 294.607C1845.82 294.236 1846.51 294.051 1847.37 294.051C1848.29 294.051 1849 294.28 1849.49 294.739C1849.99 295.188 1850.24 295.804 1850.24 296.585V301.243C1850.24 301.858 1850.08 302.41 1849.75 302.898C1849.43 303.387 1848.99 303.772 1848.44 304.056C1847.89 304.339 1847.26 304.48 1846.56 304.48C1845.76 304.48 1845.12 304.3 1844.63 303.938C1844.15 303.567 1843.91 303.064 1843.91 302.43V302.415C1843.91 301.8 1844.15 301.307 1844.63 300.936C1845.11 300.564 1845.79 300.35 1846.69 300.291L1852.11 299.954V297.537L1846.18 297.903C1844.31 298.011 1842.85 298.47 1841.82 299.28C1840.79 300.081 1840.28 301.17 1840.28 302.547V302.576C1840.28 303.494 1840.49 304.31 1840.92 305.022C1841.36 305.726 1841.97 306.277 1842.75 306.678C1843.54 307.068 1844.45 307.264 1845.48 307.264ZM1862.59 307.308C1862.97 307.308 1863.31 307.293 1863.61 307.264C1863.92 307.234 1864.19 307.205 1864.4 307.176V304.437C1864.28 304.446 1864.14 304.461 1863.99 304.48C1863.86 304.49 1863.7 304.495 1863.51 304.495C1862.86 304.495 1862.36 304.354 1862.02 304.07C1861.68 303.777 1861.52 303.255 1861.52 302.503V294.285H1864.4V291.473H1861.52V287.532H1857.81V291.473H1855.61V294.285H1857.81V302.796C1857.81 304.397 1858.2 305.55 1858.98 306.253C1859.77 306.956 1860.98 307.308 1862.59 307.308ZM1867.01 307H1870.66V291.473H1867.01V307ZM1868.83 289.246C1869.4 289.246 1869.89 289.051 1870.28 288.66C1870.67 288.27 1870.86 287.801 1870.86 287.254C1870.86 286.697 1870.67 286.229 1870.28 285.848C1869.89 285.457 1869.4 285.262 1868.83 285.262C1868.26 285.262 1867.78 285.457 1867.39 285.848C1867 286.229 1866.81 286.697 1866.81 287.254C1866.81 287.801 1867 288.27 1867.39 288.66C1867.78 289.051 1868.26 289.246 1868.83 289.246ZM1880.63 307.308C1882.16 307.308 1883.48 306.985 1884.6 306.341C1885.73 305.696 1886.6 304.773 1887.21 303.572C1887.84 302.361 1888.15 300.916 1888.15 299.236V299.207C1888.15 297.537 1887.84 296.102 1887.21 294.9C1886.59 293.699 1885.71 292.776 1884.57 292.132C1883.45 291.478 1882.13 291.15 1880.62 291.15C1879.12 291.15 1877.8 291.478 1876.68 292.132C1875.56 292.776 1874.68 293.704 1874.06 294.915C1873.43 296.116 1873.12 297.547 1873.12 299.207V299.236C1873.12 300.906 1873.43 302.347 1874.04 303.558C1874.67 304.759 1875.54 305.687 1876.66 306.341C1877.79 306.985 1879.11 307.308 1880.63 307.308ZM1880.65 304.363C1879.88 304.363 1879.2 304.163 1878.63 303.763C1878.06 303.362 1877.62 302.781 1877.29 302.02C1876.98 301.248 1876.83 300.32 1876.83 299.236V299.207C1876.83 298.133 1876.98 297.215 1877.29 296.453C1877.62 295.691 1878.06 295.11 1878.63 294.71C1879.2 294.31 1879.87 294.109 1880.62 294.109C1881.39 294.109 1882.06 294.31 1882.63 294.71C1883.2 295.11 1883.65 295.691 1883.96 296.453C1884.27 297.215 1884.43 298.133 1884.43 299.207V299.236C1884.43 300.32 1884.27 301.248 1883.96 302.02C1883.66 302.781 1883.22 303.362 1882.66 303.763C1882.09 304.163 1881.42 304.363 1880.65 304.363ZM1890.49 307H1894.12V297.991C1894.12 297.239 1894.27 296.585 1894.55 296.028C1894.83 295.462 1895.23 295.022 1895.75 294.71C1896.27 294.388 1896.87 294.227 1897.57 294.227C1898.6 294.227 1899.38 294.529 1899.9 295.135C1900.41 295.73 1900.67 296.58 1900.67 297.684V307H1904.32V296.951C1904.32 295.154 1903.85 293.738 1902.91 292.703C1901.99 291.668 1900.67 291.15 1898.96 291.15C1897.79 291.15 1896.8 291.399 1896 291.897C1895.21 292.396 1894.61 293.064 1894.21 293.904H1894.12V291.473H1890.49V307ZM1918.82 307H1922.59V289.041H1928.9V285.862H1912.49V289.041H1918.82V307ZM1930.8 312.156C1931.88 312.156 1932.81 312.005 1933.59 311.702C1934.38 311.409 1935.05 310.921 1935.61 310.237C1936.17 309.563 1936.64 308.66 1937.03 307.527L1942.63 291.473H1938.79L1934.92 304.656L1935.48 303.895H1934.7L1935.26 304.656L1931.39 291.473H1927.42L1933 307.015L1932.78 307.645C1932.55 308.299 1932.23 308.743 1931.82 308.978C1931.41 309.222 1930.85 309.344 1930.15 309.344C1929.88 309.344 1929.65 309.329 1929.44 309.3C1929.24 309.271 1929.07 309.246 1928.93 309.227V311.995C1929.15 312.034 1929.43 312.068 1929.76 312.098C1930.11 312.137 1930.45 312.156 1930.8 312.156ZM1944.31 312.127H1947.94V304.378H1948.03C1948.32 304.983 1948.71 305.506 1949.19 305.945C1949.67 306.385 1950.22 306.722 1950.84 306.956C1951.48 307.19 1952.16 307.308 1952.89 307.308C1954.19 307.308 1955.32 306.985 1956.26 306.341C1957.22 305.687 1957.96 304.759 1958.48 303.558C1959 302.347 1959.27 300.911 1959.27 299.251V299.236C1959.27 297.566 1959 296.126 1958.48 294.915C1957.96 293.704 1957.22 292.776 1956.25 292.132C1955.29 291.478 1954.15 291.15 1952.84 291.15C1952.1 291.15 1951.42 291.272 1950.8 291.517C1950.18 291.761 1949.64 292.107 1949.17 292.557C1948.71 292.996 1948.33 293.528 1948.03 294.153H1947.94V291.473H1944.31V312.127ZM1951.77 304.246C1951.01 304.246 1950.35 304.041 1949.77 303.631C1949.2 303.221 1948.74 302.645 1948.41 301.902C1948.09 301.15 1947.93 300.267 1947.93 299.251V299.236C1947.93 298.211 1948.09 297.327 1948.41 296.585C1948.74 295.833 1949.2 295.252 1949.77 294.842C1950.35 294.432 1951.01 294.227 1951.77 294.227C1952.54 294.227 1953.21 294.427 1953.77 294.827C1954.35 295.228 1954.79 295.804 1955.09 296.556C1955.4 297.298 1955.56 298.191 1955.56 299.236V299.251C1955.56 300.267 1955.4 301.15 1955.09 301.902C1954.79 302.645 1954.35 303.221 1953.79 303.631C1953.22 304.041 1952.55 304.246 1951.77 304.246ZM1968.45 307.308C1969.46 307.308 1970.36 307.176 1971.15 306.912C1971.94 306.639 1972.62 306.272 1973.2 305.813C1973.77 305.354 1974.23 304.842 1974.57 304.275C1974.92 303.699 1975.15 303.113 1975.28 302.518L1975.31 302.356H1971.91L1971.88 302.459C1971.76 302.811 1971.55 303.138 1971.25 303.44C1970.96 303.743 1970.58 303.992 1970.12 304.188C1969.66 304.373 1969.13 304.466 1968.52 304.466C1967.71 304.466 1967.02 304.29 1966.43 303.938C1965.84 303.577 1965.39 303.064 1965.07 302.4C1964.75 301.727 1964.6 300.916 1964.6 299.969V298.562C1964.6 297.586 1964.75 296.756 1965.07 296.072C1965.39 295.389 1965.83 294.876 1966.39 294.534C1966.95 294.183 1967.6 294.007 1968.32 294.007C1969.03 294.007 1969.66 294.178 1970.21 294.52C1970.76 294.852 1971.19 295.354 1971.5 296.028C1971.81 296.702 1971.97 297.547 1971.97 298.562V299.969L1973.72 297.698H1962.78V300.13H1975.47V298.958C1975.47 297.396 1975.17 296.028 1974.59 294.856C1974.01 293.685 1973.18 292.776 1972.1 292.132C1971.02 291.478 1969.75 291.15 1968.28 291.15C1966.79 291.15 1965.5 291.487 1964.41 292.161C1963.32 292.835 1962.48 293.782 1961.87 295.003C1961.28 296.214 1960.98 297.635 1960.98 299.266V299.28C1960.98 300.921 1961.28 302.342 1961.87 303.543C1962.47 304.744 1963.32 305.672 1964.44 306.326C1965.56 306.98 1966.9 307.308 1968.45 307.308Z" fill="#181818"/>
</svg>
