<svg width="2350" height="500" viewBox="0 0 2350 500" fill="none" xmlns="http://www.w3.org/2000/svg">
<path d="M426.258 294H435.618C440.13 294 442.928 291.686 442.928 287.979V287.95C442.928 285.182 440.804 283.102 437.859 282.882V282.794C440.188 282.486 441.946 280.509 441.946 278.194V278.165C441.946 274.913 439.441 272.862 435.457 272.862H426.258V294ZM434.314 276.144C436.38 276.144 437.596 277.11 437.596 278.795V278.824C437.596 280.655 436.263 281.695 433.772 281.695H430.682V276.144H434.314ZM434.3 284.698C437.01 284.698 438.416 285.738 438.416 287.672V287.701C438.416 289.664 437.024 290.704 434.49 290.704H430.682V284.698H434.3ZM452.288 294.322C457.034 294.322 460.066 291.275 460.066 286.148V286.119C460.066 281.036 456.976 277.975 452.273 277.975C447.586 277.975 444.51 281.065 444.51 286.119V286.148C444.51 291.261 447.513 294.322 452.288 294.322ZM452.303 290.968C450.193 290.968 448.86 289.225 448.86 286.148V286.119C448.86 283.087 450.208 281.329 452.273 281.329C454.354 281.329 455.716 283.087 455.716 286.119V286.148C455.716 289.21 454.383 290.968 452.303 290.968ZM469.485 294.322C474.231 294.322 477.264 291.275 477.264 286.148V286.119C477.264 281.036 474.173 277.975 469.471 277.975C464.783 277.975 461.707 281.065 461.707 286.119V286.148C461.707 291.261 464.71 294.322 469.485 294.322ZM469.5 290.968C467.391 290.968 466.058 289.225 466.058 286.148V286.119C466.058 283.087 467.405 281.329 469.471 281.329C471.551 281.329 472.913 283.087 472.913 286.119V286.148C472.913 289.21 471.58 290.968 469.5 290.968ZM479.622 294H483.899V288.8L484.998 287.584L489.495 294H494.432L488.206 285.05L494.139 278.297H489.29L483.987 284.581H483.899V272.862H479.622V294Z" fill="#181818"/>
<path d="M444 224H475V222H444V224ZM475 342H444V344H475V342ZM444 342C411.415 342 385 315.585 385 283H383C383 316.689 410.311 344 444 344V342ZM534 283C534 315.585 507.585 342 475 342V344C508.689 344 536 316.689 536 283H534ZM475 224C507.585 224 534 250.415 534 283H536C536 249.311 508.689 222 475 222V224ZM444 222C410.311 222 383 249.311 383 283H385C385 250.415 411.415 224 444 224V222Z" fill="black"/>
<path d="M966 281C965.172 281 964.5 281.672 964.5 282.5C964.5 283.328 965.172 284 966 284L966 281ZM1027.06 283.561C1027.65 282.975 1027.65 282.025 1027.06 281.439L1017.51 271.893C1016.93 271.308 1015.98 271.308 1015.39 271.893C1014.81 272.479 1014.81 273.429 1015.39 274.015L1023.88 282.5L1015.39 290.985C1014.81 291.571 1014.81 292.521 1015.39 293.107C1015.98 293.692 1016.93 293.692 1017.51 293.107L1027.06 283.561ZM966 284L996 284L996 281L966 281L966 284ZM996 284L1026 284L1026 281L996 281L996 284Z" fill="#858585"/>
<path d="M293 281C292.172 281 291.5 281.672 291.5 282.5C291.5 283.328 292.172 284 293 284L293 281ZM354.061 283.561C354.646 282.975 354.646 282.025 354.061 281.439L344.515 271.893C343.929 271.308 342.979 271.308 342.393 271.893C341.808 272.479 341.808 273.429 342.393 274.015L350.879 282.5L342.393 290.985C341.808 291.571 341.808 292.521 342.393 293.107C342.979 293.692 343.929 293.692 344.515 293.107L354.061 283.561ZM293 284L323 284L323 281L293 281L293 284ZM323 284L353 284L353 281L323 281L323 284Z" fill="#858585"/>
<path d="M566 281C565.172 281 564.5 281.672 564.5 282.5C564.5 283.328 565.172 284 566 284L566 281ZM627.061 283.561C627.646 282.975 627.646 282.025 627.061 281.439L617.515 271.893C616.929 271.308 615.979 271.308 615.393 271.893C614.808 272.479 614.808 273.429 615.393 274.015L623.879 282.5L615.393 290.985C614.808 291.571 614.808 292.521 615.393 293.107C615.979 293.692 616.929 293.692 617.515 293.107L627.061 283.561ZM566 284L596 284L596 281L566 281L566 284ZM596 284L626 284L626 281L596 281L596 284Z" fill="#858585"/>
<path d="M1332 281C1331.17 281 1330.5 281.672 1330.5 282.5C1330.5 283.328 1331.17 284 1332 284L1332 281ZM1393.06 283.561C1393.65 282.975 1393.65 282.025 1393.06 281.439L1383.51 271.893C1382.93 271.308 1381.98 271.308 1381.39 271.893C1380.81 272.479 1380.81 273.429 1381.39 274.015L1389.88 282.5L1381.39 290.985C1380.81 291.571 1380.81 292.521 1381.39 293.107C1381.98 293.692 1382.93 293.692 1383.51 293.107L1393.06 283.561ZM1332 284L1362 284L1362 281L1332 281L1332 284ZM1362 284L1392 284L1392 281L1362 281L1362 284Z" fill="#858585"/>
<path d="M1721 281C1720.17 281 1719.5 281.672 1719.5 282.5C1719.5 283.328 1720.17 284 1721 284L1721 281ZM1782.06 283.561C1782.65 282.975 1782.65 282.025 1782.06 281.439L1772.51 271.893C1771.93 271.308 1770.98 271.308 1770.39 271.893C1769.81 272.479 1769.81 273.429 1770.39 274.015L1778.88 282.5L1770.39 290.985C1769.81 291.571 1769.81 292.521 1770.39 293.107C1770.98 293.692 1771.93 293.692 1772.51 293.107L1782.06 283.561ZM1721 284L1751 284L1751 281L1721 281L1721 284ZM1751 284L1781 284L1781 281L1751 281L1751 284Z" fill="#858585"/>
<path d="M2080 281C2079.17 281 2078.5 281.672 2078.5 282.5C2078.5 283.328 2079.17 284 2080 284L2080 281ZM2141.06 283.561C2141.65 282.975 2141.65 282.025 2141.06 281.439L2131.51 271.893C2130.93 271.308 2129.98 271.308 2129.39 271.893C2128.81 272.479 2128.81 273.429 2129.39 274.015L2137.88 282.5L2129.39 290.985C2128.81 291.571 2128.81 292.521 2129.39 293.107C2129.98 293.692 2130.93 293.692 2131.51 293.107L2141.06 283.561ZM2080 284L2110 284L2110 281L2080 281L2080 284ZM2110 284L2140 284L2140 281L2110 281L2110 284Z" fill="#858585"/>
<path d="M657 283C657 249.863 683.863 223 717 223H875C908.137 223 935 249.863 935 283V283C935 316.137 908.137 343 875 343H717C683.863 343 657 316.137 657 283V283Z" fill="#F8F8F8"/>
<path d="M728.06 294.366C729.681 294.366 731.136 294.059 732.425 293.443C733.714 292.818 734.764 291.954 735.574 290.851C736.385 289.747 736.878 288.478 737.054 287.042L737.083 286.881H733.377L733.333 287.027C733.108 287.896 732.752 288.634 732.264 289.239C731.775 289.845 731.175 290.309 730.462 290.631C729.759 290.943 728.958 291.1 728.06 291.1C726.839 291.1 725.77 290.787 724.852 290.162C723.943 289.527 723.24 288.639 722.742 287.496C722.244 286.344 721.995 284.986 721.995 283.424V283.409C721.995 281.837 722.244 280.484 722.742 279.352C723.24 278.209 723.943 277.325 724.852 276.7C725.76 276.075 726.829 275.763 728.06 275.763C728.978 275.763 729.793 275.924 730.506 276.246C731.219 276.568 731.81 277.022 732.278 277.608C732.747 278.194 733.084 278.893 733.289 279.703L733.362 279.981H737.068L737.054 279.835C736.868 278.399 736.37 277.13 735.56 276.026C734.749 274.923 733.699 274.059 732.41 273.434C731.131 272.809 729.681 272.496 728.06 272.496C726.038 272.496 724.285 272.94 722.801 273.829C721.316 274.708 720.169 275.963 719.358 277.594C718.548 279.225 718.143 281.163 718.143 283.409V283.424C718.143 285.67 718.543 287.613 719.344 289.254C720.154 290.885 721.302 292.145 722.786 293.033C724.28 293.922 726.038 294.366 728.06 294.366ZM739.69 294H743.338V272.862H739.69V294ZM746.546 294H750.193V278.473H746.546V294ZM748.362 276.246C748.938 276.246 749.422 276.051 749.812 275.66C750.203 275.27 750.398 274.801 750.398 274.254C750.398 273.697 750.203 273.229 749.812 272.848C749.422 272.457 748.938 272.262 748.362 272.262C747.796 272.262 747.317 272.457 746.927 272.848C746.536 273.229 746.341 273.697 746.341 274.254C746.341 274.801 746.536 275.27 746.927 275.66C747.317 276.051 747.796 276.246 748.362 276.246ZM760.125 294.308C761.131 294.308 762.029 294.176 762.82 293.912C763.611 293.639 764.295 293.272 764.871 292.813C765.447 292.354 765.906 291.842 766.248 291.275C766.59 290.699 766.824 290.113 766.951 289.518L766.98 289.356H763.582L763.553 289.459C763.436 289.811 763.226 290.138 762.923 290.44C762.63 290.743 762.254 290.992 761.795 291.188C761.336 291.373 760.804 291.466 760.198 291.466C759.388 291.466 758.689 291.29 758.104 290.938C757.518 290.577 757.063 290.064 756.741 289.4C756.429 288.727 756.272 287.916 756.272 286.969V285.562C756.272 284.586 756.429 283.756 756.741 283.072C757.063 282.389 757.503 281.876 758.06 281.534C758.626 281.183 759.271 281.007 759.993 281.007C760.706 281.007 761.336 281.178 761.883 281.52C762.43 281.852 762.859 282.354 763.172 283.028C763.484 283.702 763.641 284.547 763.641 285.562V286.969L765.398 284.698H754.456V287.13H767.142V285.958C767.142 284.396 766.849 283.028 766.263 281.856C765.687 280.685 764.856 279.776 763.772 279.132C762.698 278.478 761.424 278.15 759.949 278.15C758.465 278.15 757.176 278.487 756.082 279.161C754.998 279.835 754.153 280.782 753.548 282.003C752.952 283.214 752.654 284.635 752.654 286.266V286.28C752.654 287.921 752.952 289.342 753.548 290.543C754.144 291.744 754.998 292.672 756.111 293.326C757.234 293.98 758.572 294.308 760.125 294.308ZM769.471 294H773.104V284.991C773.104 284.239 773.245 283.585 773.528 283.028C773.812 282.462 774.212 282.022 774.729 281.71C775.247 281.388 775.853 281.227 776.546 281.227C777.581 281.227 778.357 281.529 778.875 282.135C779.393 282.73 779.651 283.58 779.651 284.684V294H783.299V283.951C783.299 282.154 782.83 280.738 781.893 279.703C780.965 278.668 779.646 278.15 777.938 278.15C776.766 278.15 775.779 278.399 774.979 278.897C774.188 279.396 773.592 280.064 773.191 280.904H773.104V278.473H769.471V294ZM791.985 294.308C792.366 294.308 792.708 294.293 793.011 294.264C793.323 294.234 793.587 294.205 793.802 294.176V291.437C793.675 291.446 793.538 291.461 793.392 291.48C793.255 291.49 793.094 291.495 792.908 291.495C792.254 291.495 791.756 291.354 791.414 291.07C791.082 290.777 790.916 290.255 790.916 289.503V281.285H793.802V278.473H790.916V274.532H787.21V278.473H785.013V281.285H787.21V289.796C787.21 291.397 787.601 292.55 788.382 293.253C789.173 293.956 790.374 294.308 791.985 294.308ZM811.526 294H815.687V293.927L804.041 281.607C803.426 280.953 802.923 280.396 802.532 279.938C802.142 279.479 801.854 279.063 801.668 278.692C801.482 278.321 801.39 277.95 801.39 277.579V277.564C801.39 277.086 801.497 276.666 801.712 276.305C801.937 275.934 802.239 275.646 802.62 275.44C803.001 275.226 803.436 275.118 803.924 275.118C804.422 275.118 804.856 275.221 805.228 275.426C805.608 275.631 805.906 275.914 806.121 276.275C806.336 276.637 806.443 277.057 806.443 277.535V277.55C806.443 278.321 806.126 279.015 805.491 279.63C804.856 280.235 803.797 280.885 802.312 281.578L804.1 283.38C806.072 282.423 807.479 281.471 808.318 280.523C809.168 279.576 809.593 278.521 809.593 277.359V277.345C809.593 276.397 809.349 275.567 808.86 274.854C808.372 274.132 807.703 273.57 806.854 273.17C806.004 272.76 805.027 272.555 803.924 272.555C802.811 272.555 801.819 272.765 800.95 273.185C800.081 273.604 799.397 274.181 798.899 274.913C798.401 275.646 798.152 276.476 798.152 277.403V277.418C798.162 277.945 798.265 278.468 798.46 278.985C798.665 279.503 798.997 280.069 799.456 280.685C799.925 281.29 800.54 282.013 801.302 282.853L811.526 294ZM803.147 294.366C804.808 294.366 806.292 294.088 807.601 293.531C808.909 292.965 810.018 292.174 810.926 291.158C811.814 290.162 812.493 288.976 812.962 287.599C813.44 286.212 813.68 284.64 813.68 282.882V282.105H810.53V282.765C810.53 284.093 810.389 285.274 810.105 286.31C809.822 287.345 809.402 288.238 808.846 288.99C808.465 289.518 808.006 289.977 807.469 290.367C806.941 290.758 806.346 291.061 805.682 291.275C805.018 291.49 804.295 291.598 803.514 291.598C802.693 291.598 801.971 291.456 801.346 291.173C800.721 290.88 800.232 290.475 799.881 289.957C799.539 289.439 799.368 288.839 799.368 288.155V288.141C799.368 287.447 799.568 286.812 799.969 286.236C800.379 285.66 801.062 285.099 802.02 284.552L803.821 283.526L801.932 281.593L799.954 282.662C798.567 283.414 797.542 284.264 796.878 285.211C796.214 286.148 795.882 287.223 795.882 288.434V288.448C795.882 289.63 796.18 290.665 796.775 291.554C797.381 292.442 798.23 293.136 799.324 293.634C800.418 294.122 801.692 294.366 803.147 294.366ZM819.744 287.013H825.999C827.425 287.013 828.675 286.72 829.749 286.134C830.833 285.538 831.678 284.713 832.283 283.658C832.889 282.594 833.191 281.358 833.191 279.952V279.923C833.191 278.507 832.889 277.271 832.283 276.217C831.678 275.152 830.833 274.327 829.749 273.741C828.675 273.155 827.425 272.862 825.999 272.862H819.744V275.938H825.062C826.429 275.938 827.483 276.285 828.226 276.979C828.978 277.672 829.354 278.658 829.354 279.938V279.967C829.354 281.236 828.978 282.223 828.226 282.926C827.483 283.619 826.429 283.966 825.062 283.966H819.744V287.013ZM817.854 294H821.634V272.862H817.854V294ZM841.834 294.308C842.84 294.308 843.738 294.176 844.529 293.912C845.32 293.639 846.004 293.272 846.58 292.813C847.156 292.354 847.615 291.842 847.957 291.275C848.299 290.699 848.533 290.113 848.66 289.518L848.689 289.356H845.291L845.262 289.459C845.145 289.811 844.935 290.138 844.632 290.44C844.339 290.743 843.963 290.992 843.504 291.188C843.045 291.373 842.513 291.466 841.907 291.466C841.097 291.466 840.398 291.29 839.812 290.938C839.227 290.577 838.772 290.064 838.45 289.4C838.138 288.727 837.981 287.916 837.981 286.969V285.562C837.981 284.586 838.138 283.756 838.45 283.072C838.772 282.389 839.212 281.876 839.769 281.534C840.335 281.183 840.979 281.007 841.702 281.007C842.415 281.007 843.045 281.178 843.592 281.52C844.139 281.852 844.568 282.354 844.881 283.028C845.193 283.702 845.35 284.547 845.35 285.562V286.969L847.107 284.698H836.165V287.13H848.851V285.958C848.851 284.396 848.558 283.028 847.972 281.856C847.396 280.685 846.565 279.776 845.481 279.132C844.407 278.478 843.133 278.15 841.658 278.15C840.174 278.15 838.885 278.487 837.791 279.161C836.707 279.835 835.862 280.782 835.257 282.003C834.661 283.214 834.363 284.635 834.363 286.266V286.28C834.363 287.921 834.661 289.342 835.257 290.543C835.853 291.744 836.707 292.672 837.82 293.326C838.943 293.98 840.281 294.308 841.834 294.308ZM856.937 294.308C857.317 294.308 857.659 294.293 857.962 294.264C858.274 294.234 858.538 294.205 858.753 294.176V291.437C858.626 291.446 858.489 291.461 858.343 291.48C858.206 291.49 858.045 291.495 857.859 291.495C857.205 291.495 856.707 291.354 856.365 291.07C856.033 290.777 855.867 290.255 855.867 289.503V281.285H858.753V278.473H855.867V274.532H852.161V278.473H849.964V281.285H852.161V289.796C852.161 291.397 852.552 292.55 853.333 293.253C854.124 293.956 855.325 294.308 856.937 294.308ZM867.322 294.308C868.592 294.308 869.715 294.107 870.691 293.707C871.678 293.297 872.449 292.726 873.006 291.993C873.562 291.251 873.841 290.392 873.841 289.415V289.4C873.841 288.277 873.499 287.384 872.815 286.72C872.132 286.046 870.984 285.528 869.373 285.167L866.795 284.596C865.994 284.41 865.423 284.166 865.081 283.863C864.749 283.561 864.583 283.189 864.583 282.75V282.735C864.583 282.354 864.686 282.022 864.891 281.739C865.105 281.456 865.408 281.236 865.799 281.08C866.199 280.924 866.668 280.846 867.205 280.846C868.055 280.846 868.724 281.051 869.212 281.461C869.7 281.861 869.983 282.374 870.062 282.999L870.076 283.116H873.475L873.46 282.955C873.421 282.057 873.147 281.246 872.64 280.523C872.142 279.801 871.434 279.225 870.516 278.795C869.598 278.365 868.494 278.15 867.205 278.15C865.965 278.15 864.876 278.351 863.938 278.751C863.001 279.151 862.273 279.708 861.756 280.421C861.238 281.134 860.979 281.964 860.979 282.911V282.926C860.979 284.078 861.351 285.021 862.093 285.753C862.845 286.485 863.963 287.013 865.447 287.335L868.025 287.906C868.836 288.092 869.397 288.331 869.71 288.624C870.022 288.907 870.179 289.278 870.179 289.737V289.752C870.179 290.133 870.062 290.465 869.827 290.748C869.603 291.031 869.28 291.246 868.86 291.393C868.44 291.539 867.933 291.612 867.337 291.612C866.409 291.612 865.687 291.427 865.169 291.056C864.661 290.685 864.339 290.162 864.202 289.488L864.173 289.356H860.584L860.599 289.488C860.716 290.445 861.043 291.29 861.58 292.022C862.127 292.745 862.879 293.307 863.836 293.707C864.803 294.107 865.965 294.308 867.322 294.308Z" fill="#181818"/>
<path d="M21 283C21 249.863 47.8629 223 81 223H202C235.137 223 262 249.863 262 283V283C262 316.137 235.137 343 202 343H81C47.8629 343 21 316.137 21 283V283Z" fill="#F8F8F8"/>
<path d="M92.0596 294.366C93.6807 294.366 95.1357 294.059 96.4248 293.443C97.7139 292.818 98.7637 291.954 99.5742 290.851C100.385 289.747 100.878 288.478 101.054 287.042L101.083 286.881H97.377L97.333 287.027C97.1084 287.896 96.752 288.634 96.2637 289.239C95.7754 289.845 95.1748 290.309 94.4619 290.631C93.7588 290.943 92.958 291.1 92.0596 291.1C90.8389 291.1 89.7695 290.787 88.8516 290.162C87.9434 289.527 87.2402 288.639 86.7422 287.496C86.2441 286.344 85.9951 284.986 85.9951 283.424V283.409C85.9951 281.837 86.2441 280.484 86.7422 279.352C87.2402 278.209 87.9434 277.325 88.8516 276.7C89.7598 276.075 90.8291 275.763 92.0596 275.763C92.9775 275.763 93.793 275.924 94.5059 276.246C95.2188 276.568 95.8096 277.022 96.2783 277.608C96.7471 278.194 97.084 278.893 97.2891 279.703L97.3623 279.981H101.068L101.054 279.835C100.868 278.399 100.37 277.13 99.5596 276.026C98.749 274.923 97.6992 274.059 96.4102 273.434C95.1309 272.809 93.6807 272.496 92.0596 272.496C90.0381 272.496 88.2852 272.94 86.8008 273.829C85.3164 274.708 84.1689 275.963 83.3584 277.594C82.5479 279.225 82.1426 281.163 82.1426 283.409V283.424C82.1426 285.67 82.543 287.613 83.3438 289.254C84.1543 290.885 85.3018 292.145 86.7861 293.033C88.2803 293.922 90.0381 294.366 92.0596 294.366ZM108.114 294.264C108.798 294.264 109.438 294.156 110.033 293.941C110.639 293.727 111.176 293.419 111.645 293.019C112.113 292.618 112.494 292.149 112.787 291.612H112.875V294H116.508V283.321C116.508 282.276 116.244 281.368 115.717 280.597C115.199 279.825 114.462 279.225 113.505 278.795C112.558 278.365 111.435 278.15 110.136 278.15C108.827 278.15 107.694 278.36 106.737 278.78C105.79 279.2 105.048 279.776 104.511 280.509C103.974 281.231 103.666 282.052 103.588 282.97L103.573 283.146H106.942L106.972 283.014C107.099 282.438 107.421 281.969 107.938 281.607C108.456 281.236 109.145 281.051 110.004 281.051C110.932 281.051 111.64 281.28 112.128 281.739C112.626 282.188 112.875 282.804 112.875 283.585V288.243C112.875 288.858 112.714 289.41 112.392 289.898C112.069 290.387 111.63 290.772 111.073 291.056C110.526 291.339 109.901 291.48 109.198 291.48C108.397 291.48 107.753 291.3 107.265 290.938C106.786 290.567 106.547 290.064 106.547 289.43V289.415C106.547 288.8 106.786 288.307 107.265 287.936C107.743 287.564 108.432 287.35 109.33 287.291L114.75 286.954V284.537L108.817 284.903C106.942 285.011 105.487 285.47 104.452 286.28C103.427 287.081 102.914 288.17 102.914 289.547V289.576C102.914 290.494 103.129 291.31 103.559 292.022C103.998 292.726 104.608 293.277 105.39 293.678C106.181 294.068 107.089 294.264 108.114 294.264ZM119.569 294H123.217V272.862H119.569V294ZM133.148 294.308C134.154 294.308 135.053 294.176 135.844 293.912C136.635 293.639 137.318 293.272 137.895 292.813C138.471 292.354 138.93 291.842 139.271 291.275C139.613 290.699 139.848 290.113 139.975 289.518L140.004 289.356H136.605L136.576 289.459C136.459 289.811 136.249 290.138 135.946 290.44C135.653 290.743 135.277 290.992 134.818 291.188C134.359 291.373 133.827 291.466 133.222 291.466C132.411 291.466 131.713 291.29 131.127 290.938C130.541 290.577 130.087 290.064 129.765 289.4C129.452 288.727 129.296 287.916 129.296 286.969V285.562C129.296 284.586 129.452 283.756 129.765 283.072C130.087 282.389 130.526 281.876 131.083 281.534C131.649 281.183 132.294 281.007 133.017 281.007C133.729 281.007 134.359 281.178 134.906 281.52C135.453 281.852 135.883 282.354 136.195 283.028C136.508 283.702 136.664 284.547 136.664 285.562V286.969L138.422 284.698H127.479V287.13H140.165V285.958C140.165 284.396 139.872 283.028 139.286 281.856C138.71 280.685 137.88 279.776 136.796 279.132C135.722 278.478 134.447 278.15 132.973 278.15C131.488 278.15 130.199 278.487 129.105 279.161C128.021 279.835 127.177 280.782 126.571 282.003C125.976 283.214 125.678 284.635 125.678 286.266V286.28C125.678 287.921 125.976 289.342 126.571 290.543C127.167 291.744 128.021 292.672 129.135 293.326C130.258 293.98 131.596 294.308 133.148 294.308ZM142.494 294H146.127V284.991C146.127 284.239 146.269 283.585 146.552 283.028C146.835 282.462 147.235 282.022 147.753 281.71C148.271 281.388 148.876 281.227 149.569 281.227C150.604 281.227 151.381 281.529 151.898 282.135C152.416 282.73 152.675 283.58 152.675 284.684V294H156.322V283.951C156.322 282.154 155.854 280.738 154.916 279.703C153.988 278.668 152.67 278.15 150.961 278.15C149.789 278.15 148.803 278.399 148.002 278.897C147.211 279.396 146.615 280.064 146.215 280.904H146.127V278.473H142.494V294ZM165.023 294.308C166.146 294.308 167.123 294.049 167.953 293.531C168.783 293.004 169.418 292.281 169.857 291.363H169.945V294H173.578V272.862H169.945V281.139H169.857C169.418 280.211 168.773 279.483 167.924 278.956C167.084 278.419 166.112 278.15 165.009 278.15C163.71 278.15 162.582 278.478 161.625 279.132C160.668 279.776 159.926 280.704 159.398 281.915C158.871 283.116 158.607 284.552 158.607 286.222V286.236C158.607 287.896 158.866 289.332 159.384 290.543C159.911 291.754 160.653 292.687 161.61 293.341C162.577 293.985 163.715 294.308 165.023 294.308ZM166.122 291.246C165.341 291.246 164.662 291.046 164.086 290.646C163.52 290.235 163.08 289.654 162.768 288.902C162.465 288.15 162.313 287.262 162.313 286.236V286.222C162.313 285.187 162.465 284.298 162.768 283.556C163.08 282.813 163.52 282.242 164.086 281.842C164.662 281.432 165.341 281.227 166.122 281.227C166.874 281.227 167.533 281.432 168.1 281.842C168.676 282.252 169.125 282.833 169.447 283.585C169.779 284.327 169.945 285.206 169.945 286.222V286.236C169.945 287.252 169.784 288.136 169.462 288.888C169.14 289.64 168.69 290.221 168.114 290.631C167.538 291.041 166.874 291.246 166.122 291.246ZM181.239 294.264C181.923 294.264 182.562 294.156 183.158 293.941C183.764 293.727 184.301 293.419 184.77 293.019C185.238 292.618 185.619 292.149 185.912 291.612H186V294H189.633V283.321C189.633 282.276 189.369 281.368 188.842 280.597C188.324 279.825 187.587 279.225 186.63 278.795C185.683 278.365 184.56 278.15 183.261 278.15C181.952 278.15 180.819 278.36 179.862 278.78C178.915 279.2 178.173 279.776 177.636 280.509C177.099 281.231 176.791 282.052 176.713 282.97L176.698 283.146H180.067L180.097 283.014C180.224 282.438 180.546 281.969 181.063 281.607C181.581 281.236 182.27 281.051 183.129 281.051C184.057 281.051 184.765 281.28 185.253 281.739C185.751 282.188 186 282.804 186 283.585V288.243C186 288.858 185.839 289.41 185.517 289.898C185.194 290.387 184.755 290.772 184.198 291.056C183.651 291.339 183.026 291.48 182.323 291.48C181.522 291.48 180.878 291.3 180.39 290.938C179.911 290.567 179.672 290.064 179.672 289.43V289.415C179.672 288.8 179.911 288.307 180.39 287.936C180.868 287.564 181.557 287.35 182.455 287.291L187.875 286.954V284.537L181.942 284.903C180.067 285.011 178.612 285.47 177.577 286.28C176.552 287.081 176.039 288.17 176.039 289.547V289.576C176.039 290.494 176.254 291.31 176.684 292.022C177.123 292.726 177.733 293.277 178.515 293.678C179.306 294.068 180.214 294.264 181.239 294.264ZM192.592 294H196.225V284.991C196.225 284.22 196.356 283.565 196.62 283.028C196.884 282.491 197.265 282.086 197.763 281.812C198.261 281.529 198.852 281.388 199.535 281.388C199.848 281.388 200.136 281.407 200.399 281.446C200.673 281.485 200.883 281.534 201.029 281.593V278.297C200.893 278.258 200.722 278.224 200.517 278.194C200.312 278.165 200.097 278.15 199.872 278.15C198.974 278.15 198.212 278.419 197.587 278.956C196.972 279.483 196.547 280.216 196.312 281.153H196.225V278.473H192.592V294Z" fill="#181818"/>
<path d="M1057 283C1057 249.863 1083.86 223 1117 223H1241C1274.14 223 1301 249.863 1301 283V283C1301 316.137 1274.14 343 1241 343H1117C1083.86 343 1057 316.137 1057 283V283Z" fill="#F8F8F8"/>
<path d="M1128.06 294.366C1129.68 294.366 1131.14 294.059 1132.42 293.443C1133.71 292.818 1134.76 291.954 1135.57 290.851C1136.38 289.747 1136.88 288.478 1137.05 287.042L1137.08 286.881H1133.38L1133.33 287.027C1133.11 287.896 1132.75 288.634 1132.26 289.239C1131.78 289.845 1131.17 290.309 1130.46 290.631C1129.76 290.943 1128.96 291.1 1128.06 291.1C1126.84 291.1 1125.77 290.787 1124.85 290.162C1123.94 289.527 1123.24 288.639 1122.74 287.496C1122.24 286.344 1122 284.986 1122 283.424V283.409C1122 281.837 1122.24 280.484 1122.74 279.352C1123.24 278.209 1123.94 277.325 1124.85 276.7C1125.76 276.075 1126.83 275.763 1128.06 275.763C1128.98 275.763 1129.79 275.924 1130.51 276.246C1131.22 276.568 1131.81 277.022 1132.28 277.608C1132.75 278.194 1133.08 278.893 1133.29 279.703L1133.36 279.981H1137.07L1137.05 279.835C1136.87 278.399 1136.37 277.13 1135.56 276.026C1134.75 274.923 1133.7 274.059 1132.41 273.434C1131.13 272.809 1129.68 272.496 1128.06 272.496C1126.04 272.496 1124.29 272.94 1122.8 273.829C1121.32 274.708 1120.17 275.963 1119.36 277.594C1118.55 279.225 1118.14 281.163 1118.14 283.409V283.424C1118.14 285.67 1118.54 287.613 1119.34 289.254C1120.15 290.885 1121.3 292.145 1122.79 293.033C1124.28 293.922 1126.04 294.366 1128.06 294.366ZM1144.11 294.264C1144.8 294.264 1145.44 294.156 1146.03 293.941C1146.64 293.727 1147.18 293.419 1147.64 293.019C1148.11 292.618 1148.49 292.149 1148.79 291.612H1148.88V294H1152.51V283.321C1152.51 282.276 1152.24 281.368 1151.72 280.597C1151.2 279.825 1150.46 279.225 1149.5 278.795C1148.56 278.365 1147.43 278.15 1146.14 278.15C1144.83 278.15 1143.69 278.36 1142.74 278.78C1141.79 279.2 1141.05 279.776 1140.51 280.509C1139.97 281.231 1139.67 282.052 1139.59 282.97L1139.57 283.146H1142.94L1142.97 283.014C1143.1 282.438 1143.42 281.969 1143.94 281.607C1144.46 281.236 1145.14 281.051 1146 281.051C1146.93 281.051 1147.64 281.28 1148.13 281.739C1148.63 282.188 1148.88 282.804 1148.88 283.585V288.243C1148.88 288.858 1148.71 289.41 1148.39 289.898C1148.07 290.387 1147.63 290.772 1147.07 291.056C1146.53 291.339 1145.9 291.48 1145.2 291.48C1144.4 291.48 1143.75 291.3 1143.26 290.938C1142.79 290.567 1142.55 290.064 1142.55 289.43V289.415C1142.55 288.8 1142.79 288.307 1143.26 287.936C1143.74 287.564 1144.43 287.35 1145.33 287.291L1150.75 286.954V284.537L1144.82 284.903C1142.94 285.011 1141.49 285.47 1140.45 286.28C1139.43 287.081 1138.91 288.17 1138.91 289.547V289.576C1138.91 290.494 1139.13 291.31 1139.56 292.022C1140 292.726 1140.61 293.277 1141.39 293.678C1142.18 294.068 1143.09 294.264 1144.11 294.264ZM1161.22 294.308C1161.6 294.308 1161.95 294.293 1162.25 294.264C1162.56 294.234 1162.83 294.205 1163.04 294.176V291.437C1162.91 291.446 1162.78 291.461 1162.63 291.48C1162.49 291.49 1162.33 291.495 1162.15 291.495C1161.49 291.495 1160.99 291.354 1160.65 291.07C1160.32 290.777 1160.15 290.255 1160.15 289.503V281.285H1163.04V278.473H1160.15V274.532H1156.45V278.473H1154.25V281.285H1156.45V289.796C1156.45 291.397 1156.84 292.55 1157.62 293.253C1158.41 293.956 1159.61 294.308 1161.22 294.308ZM1172.08 294.308C1173.08 294.308 1173.98 294.176 1174.77 293.912C1175.56 293.639 1176.25 293.272 1176.82 292.813C1177.4 292.354 1177.86 291.842 1178.2 291.275C1178.54 290.699 1178.78 290.113 1178.9 289.518L1178.93 289.356H1175.54L1175.51 289.459C1175.39 289.811 1175.18 290.138 1174.88 290.44C1174.58 290.743 1174.21 290.992 1173.75 291.188C1173.29 291.373 1172.76 291.466 1172.15 291.466C1171.34 291.466 1170.64 291.29 1170.06 290.938C1169.47 290.577 1169.02 290.064 1168.69 289.4C1168.38 288.727 1168.23 287.916 1168.23 286.969V285.562C1168.23 284.586 1168.38 283.756 1168.69 283.072C1169.02 282.389 1169.46 281.876 1170.01 281.534C1170.58 281.183 1171.22 281.007 1171.95 281.007C1172.66 281.007 1173.29 281.178 1173.84 281.52C1174.38 281.852 1174.81 282.354 1175.12 283.028C1175.44 283.702 1175.59 284.547 1175.59 285.562V286.969L1177.35 284.698H1166.41V287.13H1179.09V285.958C1179.09 284.396 1178.8 283.028 1178.22 281.856C1177.64 280.685 1176.81 279.776 1175.73 279.132C1174.65 278.478 1173.38 278.15 1171.9 278.15C1170.42 278.15 1169.13 278.487 1168.04 279.161C1166.95 279.835 1166.11 280.782 1165.5 282.003C1164.91 283.214 1164.61 284.635 1164.61 286.266V286.28C1164.61 287.921 1164.91 289.342 1165.5 290.543C1166.1 291.744 1166.95 292.672 1168.06 293.326C1169.19 293.98 1170.53 294.308 1172.08 294.308ZM1188.43 299.435C1189.93 299.435 1191.23 299.19 1192.32 298.702C1193.42 298.214 1194.26 297.525 1194.86 296.637C1195.45 295.758 1195.75 294.732 1195.75 293.561V278.473H1192.1V281.109H1192.01C1191.72 280.514 1191.34 279.996 1190.87 279.557C1190.41 279.117 1189.88 278.775 1189.26 278.531C1188.65 278.277 1187.97 278.15 1187.24 278.15C1185.93 278.15 1184.79 278.473 1183.83 279.117C1182.86 279.762 1182.11 280.675 1181.57 281.856C1181.04 283.028 1180.78 284.435 1180.78 286.075V286.09C1180.78 287.701 1181.04 289.093 1181.56 290.265C1182.08 291.427 1182.83 292.325 1183.78 292.96C1184.75 293.595 1185.88 293.912 1187.18 293.912C1187.92 293.912 1188.61 293.8 1189.23 293.575C1189.87 293.351 1190.42 293.038 1190.89 292.638C1191.37 292.237 1191.75 291.759 1192.03 291.202H1192.1V293.443C1192.1 294.43 1191.79 295.216 1191.15 295.802C1190.52 296.388 1189.6 296.681 1188.41 296.681C1187.47 296.681 1186.7 296.529 1186.08 296.227C1185.48 295.934 1185.08 295.562 1184.88 295.113L1184.82 294.996H1181.25L1181.28 295.128C1181.42 295.938 1181.8 296.671 1182.41 297.325C1183.01 297.979 1183.82 298.492 1184.84 298.863C1185.86 299.244 1187.06 299.435 1188.43 299.435ZM1188.32 291.1C1187.54 291.1 1186.86 290.899 1186.29 290.499C1185.71 290.099 1185.27 289.532 1184.95 288.8C1184.64 288.058 1184.49 287.179 1184.49 286.163V286.148C1184.49 285.133 1184.64 284.259 1184.95 283.526C1185.27 282.794 1185.71 282.228 1186.29 281.827C1186.86 281.427 1187.54 281.227 1188.32 281.227C1189.08 281.227 1189.73 281.427 1190.3 281.827C1190.87 282.228 1191.31 282.799 1191.63 283.541C1191.96 284.273 1192.12 285.143 1192.12 286.148V286.163C1192.12 287.159 1191.96 288.028 1191.63 288.771C1191.32 289.513 1190.88 290.089 1190.32 290.499C1189.75 290.899 1189.08 291.1 1188.32 291.1ZM1205.61 294.308C1207.13 294.308 1208.46 293.985 1209.58 293.341C1210.7 292.696 1211.57 291.773 1212.19 290.572C1212.81 289.361 1213.12 287.916 1213.12 286.236V286.207C1213.12 284.537 1212.81 283.102 1212.19 281.9C1211.56 280.699 1210.68 279.776 1209.55 279.132C1208.43 278.478 1207.11 278.15 1205.59 278.15C1204.09 278.15 1202.78 278.478 1201.65 279.132C1200.53 279.776 1199.66 280.704 1199.03 281.915C1198.41 283.116 1198.09 284.547 1198.09 286.207V286.236C1198.09 287.906 1198.4 289.347 1199.02 290.558C1199.64 291.759 1200.52 292.687 1201.64 293.341C1202.76 293.985 1204.08 294.308 1205.61 294.308ZM1205.62 291.363C1204.85 291.363 1204.18 291.163 1203.6 290.763C1203.04 290.362 1202.59 289.781 1202.27 289.02C1201.96 288.248 1201.8 287.32 1201.8 286.236V286.207C1201.8 285.133 1201.96 284.215 1202.27 283.453C1202.59 282.691 1203.04 282.11 1203.6 281.71C1204.18 281.31 1204.84 281.109 1205.59 281.109C1206.37 281.109 1207.03 281.31 1207.6 281.71C1208.18 282.11 1208.62 282.691 1208.93 283.453C1209.25 284.215 1209.4 285.133 1209.4 286.207V286.236C1209.4 287.32 1209.25 288.248 1208.93 289.02C1208.63 289.781 1208.2 290.362 1207.63 290.763C1207.06 291.163 1206.39 291.363 1205.62 291.363ZM1215.47 294H1219.1V284.991C1219.1 284.22 1219.23 283.565 1219.5 283.028C1219.76 282.491 1220.14 282.086 1220.64 281.812C1221.14 281.529 1221.73 281.388 1222.41 281.388C1222.72 281.388 1223.01 281.407 1223.27 281.446C1223.55 281.485 1223.76 281.534 1223.9 281.593V278.297C1223.77 278.258 1223.6 278.224 1223.39 278.194C1223.19 278.165 1222.97 278.15 1222.75 278.15C1221.85 278.15 1221.09 278.419 1220.46 278.956C1219.85 279.483 1219.42 280.216 1219.19 281.153H1219.1V278.473H1215.47V294ZM1228.36 299.156C1229.43 299.156 1230.36 299.005 1231.14 298.702C1231.93 298.409 1232.61 297.921 1233.16 297.237C1233.72 296.563 1234.19 295.66 1234.58 294.527L1240.18 278.473H1236.34L1232.47 291.656L1233.03 290.895H1232.25L1232.81 291.656L1228.94 278.473H1224.97L1230.55 294.015L1230.33 294.645C1230.1 295.299 1229.78 295.743 1229.37 295.978C1228.96 296.222 1228.4 296.344 1227.7 296.344C1227.43 296.344 1227.2 296.329 1227 296.3C1226.79 296.271 1226.62 296.246 1226.48 296.227V298.995C1226.71 299.034 1226.99 299.068 1227.32 299.098C1227.66 299.137 1228.01 299.156 1228.36 299.156Z" fill="#181818"/>
<path d="M1069 421C1069 387.863 1095.86 361 1129 361H1229C1262.14 361 1289 387.863 1289 421V421C1289 454.137 1262.14 481 1229 481H1129C1095.86 481 1069 454.137 1069 421V421Z" fill="#F8F8F8"/>
<path d="M1138.29 432.366C1140.01 432.366 1141.48 432.103 1142.71 431.575C1143.95 431.048 1144.9 430.301 1145.55 429.334C1146.22 428.367 1146.55 427.229 1146.55 425.921V425.906C1146.55 424.256 1146.05 422.962 1145.04 422.024C1144.03 421.077 1142.43 420.374 1140.22 419.915L1137.95 419.446C1136.68 419.183 1135.74 418.821 1135.14 418.362C1134.54 417.894 1134.24 417.288 1134.24 416.546V416.531C1134.24 415.965 1134.41 415.467 1134.73 415.037C1135.06 414.607 1135.52 414.275 1136.12 414.041C1136.72 413.797 1137.44 413.675 1138.26 413.675C1139.05 413.675 1139.75 413.792 1140.35 414.026C1140.96 414.261 1141.45 414.598 1141.82 415.037C1142.19 415.467 1142.42 415.989 1142.51 416.604L1142.54 416.795H1146.14L1146.12 416.546C1146.06 415.345 1145.69 414.29 1145.03 413.382C1144.37 412.474 1143.47 411.766 1142.32 411.258C1141.16 410.75 1139.82 410.496 1138.29 410.496C1136.77 410.496 1135.43 410.76 1134.24 411.287C1133.06 411.805 1132.13 412.532 1131.46 413.47C1130.8 414.397 1130.46 415.486 1130.45 416.736V416.751C1130.45 418.323 1130.97 419.603 1132 420.589C1133.04 421.565 1134.59 422.269 1136.66 422.698L1138.93 423.167C1140.3 423.46 1141.28 423.836 1141.86 424.295C1142.46 424.754 1142.75 425.379 1142.75 426.17V426.185C1142.75 426.79 1142.58 427.322 1142.23 427.781C1141.88 428.23 1141.37 428.577 1140.72 428.821C1140.07 429.065 1139.31 429.188 1138.42 429.188C1137.54 429.188 1136.75 429.07 1136.06 428.836C1135.38 428.592 1134.83 428.25 1134.41 427.811C1133.99 427.371 1133.72 426.849 1133.61 426.243L1133.58 426.067H1129.98L1130 426.287C1130.08 427.547 1130.47 428.631 1131.17 429.539C1131.87 430.447 1132.83 431.146 1134.04 431.634C1135.25 432.122 1136.67 432.366 1138.29 432.366ZM1155.84 432.308C1156.84 432.308 1157.74 432.176 1158.53 431.912C1159.32 431.639 1160.01 431.272 1160.58 430.813C1161.16 430.354 1161.62 429.842 1161.96 429.275C1162.3 428.699 1162.54 428.113 1162.66 427.518L1162.69 427.356H1159.29L1159.26 427.459C1159.15 427.811 1158.94 428.138 1158.63 428.44C1158.34 428.743 1157.96 428.992 1157.51 429.188C1157.05 429.373 1156.51 429.466 1155.91 429.466C1155.1 429.466 1154.4 429.29 1153.81 428.938C1153.23 428.577 1152.77 428.064 1152.45 427.4C1152.14 426.727 1151.98 425.916 1151.98 424.969V423.562C1151.98 422.586 1152.14 421.756 1152.45 421.072C1152.77 420.389 1153.21 419.876 1153.77 419.534C1154.34 419.183 1154.98 419.007 1155.7 419.007C1156.42 419.007 1157.05 419.178 1157.59 419.52C1158.14 419.852 1158.57 420.354 1158.88 421.028C1159.2 421.702 1159.35 422.547 1159.35 423.562V424.969L1161.11 422.698H1150.17V425.13H1162.85V423.958C1162.85 422.396 1162.56 421.028 1161.97 419.856C1161.4 418.685 1160.57 417.776 1159.48 417.132C1158.41 416.478 1157.13 416.15 1155.66 416.15C1154.18 416.15 1152.89 416.487 1151.79 417.161C1150.71 417.835 1149.86 418.782 1149.26 420.003C1148.66 421.214 1148.37 422.635 1148.37 424.266V424.28C1148.37 425.921 1148.66 427.342 1149.26 428.543C1149.85 429.744 1150.71 430.672 1151.82 431.326C1152.95 431.98 1154.28 432.308 1155.84 432.308ZM1165.18 432H1168.81V422.991C1168.81 422.22 1168.95 421.565 1169.21 421.028C1169.47 420.491 1169.85 420.086 1170.35 419.812C1170.85 419.529 1171.44 419.388 1172.12 419.388C1172.44 419.388 1172.73 419.407 1172.99 419.446C1173.26 419.485 1173.47 419.534 1173.62 419.593V416.297C1173.48 416.258 1173.31 416.224 1173.11 416.194C1172.9 416.165 1172.69 416.15 1172.46 416.15C1171.56 416.15 1170.8 416.419 1170.18 416.956C1169.56 417.483 1169.14 418.216 1168.9 419.153H1168.81V416.473H1165.18V432ZM1180.18 432H1184.2L1189.66 416.473H1185.87L1182.26 428.616H1182.17L1178.57 416.473H1174.69L1180.18 432ZM1191.45 432H1195.09V416.473H1191.45V432ZM1193.26 414.246C1193.84 414.246 1194.32 414.051 1194.71 413.66C1195.1 413.27 1195.3 412.801 1195.3 412.254C1195.3 411.697 1195.1 411.229 1194.71 410.848C1194.32 410.457 1193.84 410.262 1193.26 410.262C1192.7 410.262 1192.22 410.457 1191.83 410.848C1191.44 411.229 1191.24 411.697 1191.24 412.254C1191.24 412.801 1191.44 413.27 1191.83 413.66C1192.22 414.051 1192.7 414.246 1193.26 414.246ZM1205.05 432.308C1206.36 432.308 1207.51 432.059 1208.5 431.561C1209.48 431.053 1210.27 430.369 1210.86 429.51C1211.44 428.65 1211.78 427.684 1211.88 426.609L1211.9 426.507H1208.45L1208.42 426.639C1208.26 427.449 1207.89 428.108 1207.31 428.616C1206.74 429.114 1206 429.363 1205.07 429.363C1204.31 429.363 1203.64 429.163 1203.06 428.763C1202.5 428.353 1202.05 427.767 1201.73 427.005C1201.42 426.243 1201.26 425.325 1201.26 424.251V424.236C1201.26 423.172 1201.42 422.259 1201.73 421.497C1202.04 420.735 1202.48 420.149 1203.05 419.739C1203.62 419.319 1204.29 419.109 1205.05 419.109C1206.02 419.109 1206.78 419.378 1207.34 419.915C1207.91 420.442 1208.26 421.082 1208.41 421.834L1208.44 421.951H1211.87V421.849C1211.79 420.813 1211.47 419.866 1210.9 419.007C1210.33 418.147 1209.55 417.459 1208.56 416.941C1207.56 416.414 1206.38 416.15 1205.01 416.15C1203.51 416.15 1202.19 416.478 1201.07 417.132C1199.96 417.786 1199.09 418.719 1198.48 419.93C1197.86 421.131 1197.55 422.557 1197.55 424.207V424.222C1197.55 425.882 1197.86 427.317 1198.46 428.528C1199.08 429.739 1199.95 430.672 1201.07 431.326C1202.19 431.98 1203.52 432.308 1205.05 432.308ZM1220.9 432.308C1221.91 432.308 1222.81 432.176 1223.6 431.912C1224.39 431.639 1225.07 431.272 1225.65 430.813C1226.23 430.354 1226.69 429.842 1227.03 429.275C1227.37 428.699 1227.6 428.113 1227.73 427.518L1227.76 427.356H1224.36L1224.33 427.459C1224.21 427.811 1224 428.138 1223.7 428.44C1223.41 428.743 1223.03 428.992 1222.57 429.188C1222.12 429.373 1221.58 429.466 1220.98 429.466C1220.17 429.466 1219.47 429.29 1218.88 428.938C1218.3 428.577 1217.84 428.064 1217.52 427.4C1217.21 426.727 1217.05 425.916 1217.05 424.969V423.562C1217.05 422.586 1217.21 421.756 1217.52 421.072C1217.84 420.389 1218.28 419.876 1218.84 419.534C1219.41 419.183 1220.05 419.007 1220.77 419.007C1221.49 419.007 1222.12 419.178 1222.66 419.52C1223.21 419.852 1223.64 420.354 1223.95 421.028C1224.26 421.702 1224.42 422.547 1224.42 423.562V424.969L1226.18 422.698H1215.24V425.13H1227.92V423.958C1227.92 422.396 1227.63 421.028 1227.04 419.856C1226.47 418.685 1225.64 417.776 1224.55 417.132C1223.48 416.478 1222.2 416.15 1220.73 416.15C1219.24 416.15 1217.96 416.487 1216.86 417.161C1215.78 417.835 1214.93 418.782 1214.33 420.003C1213.73 421.214 1213.43 422.635 1213.43 424.266V424.28C1213.43 425.921 1213.73 427.342 1214.33 428.543C1214.92 429.744 1215.78 430.672 1216.89 431.326C1218.01 431.98 1219.35 432.308 1220.9 432.308Z" fill="#181818"/>
<path d="M1423 283C1423 249.863 1449.86 223 1483 223H1630C1663.14 223 1690 249.863 1690 283V283C1690 316.137 1663.14 343 1630 343H1483C1449.86 343 1423 316.137 1423 283V283Z" fill="#F8F8F8"/>
<path d="M1484.86 294H1492.58C1494.69 294 1496.49 293.58 1497.99 292.74C1499.49 291.9 1500.64 290.689 1501.43 289.107C1502.23 287.516 1502.63 285.606 1502.63 283.38V283.351C1502.63 281.124 1502.23 279.229 1501.43 277.667C1500.63 276.104 1499.48 274.913 1497.99 274.093C1496.49 273.272 1494.69 272.862 1492.58 272.862H1484.86V294ZM1488.64 290.821V276.041H1492.18C1493.59 276.041 1494.78 276.324 1495.76 276.891C1496.75 277.447 1497.49 278.272 1498 279.366C1498.52 280.46 1498.78 281.793 1498.78 283.365V283.395C1498.78 285.006 1498.52 286.363 1498.01 287.467C1497.51 288.561 1496.76 289.396 1495.79 289.972C1494.81 290.538 1493.61 290.821 1492.18 290.821H1488.64ZM1509.79 294.264C1510.48 294.264 1511.12 294.156 1511.71 293.941C1512.32 293.727 1512.85 293.419 1513.32 293.019C1513.79 292.618 1514.17 292.149 1514.46 291.612H1514.55V294H1518.19V283.321C1518.19 282.276 1517.92 281.368 1517.39 280.597C1516.88 279.825 1516.14 279.225 1515.18 278.795C1514.24 278.365 1513.11 278.15 1511.81 278.15C1510.5 278.15 1509.37 278.36 1508.42 278.78C1507.47 279.2 1506.73 279.776 1506.19 280.509C1505.65 281.231 1505.34 282.052 1505.27 282.97L1505.25 283.146H1508.62L1508.65 283.014C1508.78 282.438 1509.1 281.969 1509.62 281.607C1510.13 281.236 1510.82 281.051 1511.68 281.051C1512.61 281.051 1513.32 281.28 1513.81 281.739C1514.3 282.188 1514.55 282.804 1514.55 283.585V288.243C1514.55 288.858 1514.39 289.41 1514.07 289.898C1513.75 290.387 1513.31 290.772 1512.75 291.056C1512.2 291.339 1511.58 291.48 1510.88 291.48C1510.08 291.48 1509.43 291.3 1508.94 290.938C1508.46 290.567 1508.22 290.064 1508.22 289.43V289.415C1508.22 288.8 1508.46 288.307 1508.94 287.936C1509.42 287.564 1510.11 287.35 1511.01 287.291L1516.43 286.954V284.537L1510.5 284.903C1508.62 285.011 1507.17 285.47 1506.13 286.28C1505.1 287.081 1504.59 288.17 1504.59 289.547V289.576C1504.59 290.494 1504.81 291.31 1505.24 292.022C1505.68 292.726 1506.29 293.277 1507.07 293.678C1507.86 294.068 1508.77 294.264 1509.79 294.264ZM1526.9 294.308C1527.28 294.308 1527.62 294.293 1527.93 294.264C1528.24 294.234 1528.5 294.205 1528.72 294.176V291.437C1528.59 291.446 1528.45 291.461 1528.31 291.48C1528.17 291.49 1528.01 291.495 1527.82 291.495C1527.17 291.495 1526.67 291.354 1526.33 291.07C1526 290.777 1525.83 290.255 1525.83 289.503V281.285H1528.72V278.473H1525.83V274.532H1522.13V278.473H1519.93V281.285H1522.13V289.796C1522.13 291.397 1522.52 292.55 1523.3 293.253C1524.09 293.956 1525.29 294.308 1526.9 294.308ZM1537.76 294.308C1538.76 294.308 1539.66 294.176 1540.45 293.912C1541.24 293.639 1541.93 293.272 1542.5 292.813C1543.08 292.354 1543.54 291.842 1543.88 291.275C1544.22 290.699 1544.46 290.113 1544.58 289.518L1544.61 289.356H1541.21L1541.18 289.459C1541.07 289.811 1540.86 290.138 1540.55 290.44C1540.26 290.743 1539.88 290.992 1539.43 291.188C1538.97 291.373 1538.43 291.466 1537.83 291.466C1537.02 291.466 1536.32 291.29 1535.73 290.938C1535.15 290.577 1534.69 290.064 1534.37 289.4C1534.06 288.727 1533.9 287.916 1533.9 286.969V285.562C1533.9 284.586 1534.06 283.756 1534.37 283.072C1534.69 282.389 1535.13 281.876 1535.69 281.534C1536.26 281.183 1536.9 281.007 1537.62 281.007C1538.34 281.007 1538.97 281.178 1539.51 281.52C1540.06 281.852 1540.49 282.354 1540.8 283.028C1541.12 283.702 1541.27 284.547 1541.27 285.562V286.969L1543.03 284.698H1532.09V287.13H1544.77V285.958C1544.77 284.396 1544.48 283.028 1543.89 281.856C1543.32 280.685 1542.49 279.776 1541.4 279.132C1540.33 278.478 1539.05 278.15 1537.58 278.15C1536.1 278.15 1534.81 278.487 1533.71 279.161C1532.63 279.835 1531.78 280.782 1531.18 282.003C1530.58 283.214 1530.29 284.635 1530.29 286.266V286.28C1530.29 287.921 1530.58 289.342 1531.18 290.543C1531.77 291.744 1532.63 292.672 1533.74 293.326C1534.87 293.98 1536.2 294.308 1537.76 294.308ZM1562.32 294H1566.48V293.927L1554.84 281.607C1554.22 280.953 1553.72 280.396 1553.33 279.938C1552.94 279.479 1552.65 279.063 1552.46 278.692C1552.28 278.321 1552.18 277.95 1552.18 277.579V277.564C1552.18 277.086 1552.29 276.666 1552.51 276.305C1552.73 275.934 1553.03 275.646 1553.42 275.44C1553.8 275.226 1554.23 275.118 1554.72 275.118C1555.22 275.118 1555.65 275.221 1556.02 275.426C1556.4 275.631 1556.7 275.914 1556.92 276.275C1557.13 276.637 1557.24 277.057 1557.24 277.535V277.55C1557.24 278.321 1556.92 279.015 1556.29 279.63C1555.65 280.235 1554.59 280.885 1553.11 281.578L1554.89 283.38C1556.87 282.423 1558.27 281.471 1559.11 280.523C1559.96 279.576 1560.39 278.521 1560.39 277.359V277.345C1560.39 276.397 1560.14 275.567 1559.66 274.854C1559.17 274.132 1558.5 273.57 1557.65 273.17C1556.8 272.76 1555.82 272.555 1554.72 272.555C1553.61 272.555 1552.61 272.765 1551.75 273.185C1550.88 273.604 1550.19 274.181 1549.69 274.913C1549.2 275.646 1548.95 276.476 1548.95 277.403V277.418C1548.96 277.945 1549.06 278.468 1549.25 278.985C1549.46 279.503 1549.79 280.069 1550.25 280.685C1550.72 281.29 1551.33 282.013 1552.1 282.853L1562.32 294ZM1553.94 294.366C1555.6 294.366 1557.09 294.088 1558.4 293.531C1559.7 292.965 1560.81 292.174 1561.72 291.158C1562.61 290.162 1563.29 288.976 1563.76 287.599C1564.24 286.212 1564.47 284.64 1564.47 282.882V282.105H1561.33V282.765C1561.33 284.093 1561.18 285.274 1560.9 286.31C1560.62 287.345 1560.2 288.238 1559.64 288.99C1559.26 289.518 1558.8 289.977 1558.26 290.367C1557.74 290.758 1557.14 291.061 1556.48 291.275C1555.81 291.49 1555.09 291.598 1554.31 291.598C1553.49 291.598 1552.77 291.456 1552.14 291.173C1551.52 290.88 1551.03 290.475 1550.68 289.957C1550.33 289.439 1550.16 288.839 1550.16 288.155V288.141C1550.16 287.447 1550.36 286.812 1550.76 286.236C1551.17 285.66 1551.86 285.099 1552.81 284.552L1554.62 283.526L1552.73 281.593L1550.75 282.662C1549.36 283.414 1548.34 284.264 1547.67 285.211C1547.01 286.148 1546.68 287.223 1546.68 288.434V288.448C1546.68 289.63 1546.97 290.665 1547.57 291.554C1548.18 292.442 1549.03 293.136 1550.12 293.634C1551.21 294.122 1552.49 294.366 1553.94 294.366ZM1571.3 294H1575.07V276.041H1581.38V272.862H1564.97V276.041H1571.3V294ZM1583.03 294H1586.68V278.473H1583.03V294ZM1584.85 276.246C1585.43 276.246 1585.91 276.051 1586.3 275.66C1586.69 275.27 1586.89 274.801 1586.89 274.254C1586.89 273.697 1586.69 273.229 1586.3 272.848C1585.91 272.457 1585.43 272.262 1584.85 272.262C1584.28 272.262 1583.81 272.457 1583.42 272.848C1583.02 273.229 1582.83 273.697 1582.83 274.254C1582.83 274.801 1583.02 275.27 1583.42 275.66C1583.81 276.051 1584.28 276.246 1584.85 276.246ZM1589.79 294H1593.42V284.493C1593.42 283.858 1593.55 283.297 1593.8 282.809C1594.06 282.32 1594.42 281.935 1594.87 281.651C1595.32 281.368 1595.84 281.227 1596.42 281.227C1597.27 281.227 1597.94 281.48 1598.43 281.988C1598.93 282.486 1599.18 283.175 1599.18 284.054V294H1602.72V284.405C1602.72 283.78 1602.84 283.229 1603.09 282.75C1603.34 282.271 1603.69 281.9 1604.13 281.637C1604.58 281.363 1605.09 281.227 1605.68 281.227C1606.58 281.227 1607.27 281.49 1607.75 282.018C1608.22 282.545 1608.46 283.287 1608.46 284.244V294H1612.11V283.351C1612.11 282.306 1611.9 281.397 1611.47 280.626C1611.05 279.845 1610.46 279.239 1609.69 278.81C1608.94 278.37 1608.05 278.15 1607.03 278.15C1606.29 278.15 1605.59 278.282 1604.95 278.546C1604.31 278.8 1603.76 279.161 1603.28 279.63C1602.81 280.089 1602.45 280.641 1602.19 281.285H1602.12C1601.94 280.621 1601.64 280.06 1601.23 279.601C1600.83 279.132 1600.34 278.775 1599.76 278.531C1599.19 278.277 1598.54 278.15 1597.81 278.15C1596.79 278.15 1595.9 278.409 1595.13 278.927C1594.37 279.435 1593.83 280.113 1593.51 280.963H1593.42V278.473H1589.79V294ZM1621.87 294.308C1622.87 294.308 1623.77 294.176 1624.56 293.912C1625.35 293.639 1626.04 293.272 1626.61 292.813C1627.19 292.354 1627.65 291.842 1627.99 291.275C1628.33 290.699 1628.57 290.113 1628.69 289.518L1628.72 289.356H1625.32L1625.29 289.459C1625.18 289.811 1624.97 290.138 1624.67 290.44C1624.37 290.743 1624 290.992 1623.54 291.188C1623.08 291.373 1622.55 291.466 1621.94 291.466C1621.13 291.466 1620.43 291.29 1619.85 290.938C1619.26 290.577 1618.81 290.064 1618.48 289.4C1618.17 288.727 1618.01 287.916 1618.01 286.969V285.562C1618.01 284.586 1618.17 283.756 1618.48 283.072C1618.81 282.389 1619.25 281.876 1619.8 281.534C1620.37 281.183 1621.01 281.007 1621.74 281.007C1622.45 281.007 1623.08 281.178 1623.62 281.52C1624.17 281.852 1624.6 282.354 1624.91 283.028C1625.23 283.702 1625.38 284.547 1625.38 285.562V286.969L1627.14 284.698H1616.2V287.13H1628.88V285.958C1628.88 284.396 1628.59 283.028 1628 281.856C1627.43 280.685 1626.6 279.776 1625.51 279.132C1624.44 278.478 1623.17 278.15 1621.69 278.15C1620.21 278.15 1618.92 278.487 1617.82 279.161C1616.74 279.835 1615.9 280.782 1615.29 282.003C1614.69 283.214 1614.4 284.635 1614.4 286.266V286.28C1614.4 287.921 1614.69 289.342 1615.29 290.543C1615.89 291.744 1616.74 292.672 1617.85 293.326C1618.98 293.98 1620.31 294.308 1621.87 294.308Z" fill="#181818"/>
<path d="M1402 421C1402 387.863 1428.86 361 1462 361H1651C1684.14 361 1711 387.863 1711 421V421C1711 454.137 1684.14 481 1651 481H1462C1428.86 481 1402 454.137 1402 421V421Z" fill="#F8F8F8"/>
<path d="M1469.03 432H1472.8V414.041H1479.11V410.862H1462.7V414.041H1469.03V432ZM1484.53 432.308C1485.54 432.308 1486.43 432.176 1487.22 431.912C1488.02 431.639 1488.7 431.272 1489.28 430.813C1489.85 430.354 1490.31 429.842 1490.65 429.275C1490.99 428.699 1491.23 428.113 1491.36 427.518L1491.38 427.356H1487.99L1487.96 427.459C1487.84 427.811 1487.63 428.138 1487.33 428.44C1487.03 428.743 1486.66 428.992 1486.2 429.188C1485.74 429.373 1485.21 429.466 1484.6 429.466C1483.79 429.466 1483.09 429.29 1482.51 428.938C1481.92 428.577 1481.47 428.064 1481.15 427.4C1480.83 426.727 1480.68 425.916 1480.68 424.969V423.562C1480.68 422.586 1480.83 421.756 1481.15 421.072C1481.47 420.389 1481.91 419.876 1482.46 419.534C1483.03 419.183 1483.67 419.007 1484.4 419.007C1485.11 419.007 1485.74 419.178 1486.29 419.52C1486.83 419.852 1487.26 420.354 1487.58 421.028C1487.89 421.702 1488.04 422.547 1488.04 423.562V424.969L1489.8 422.698H1478.86V425.13H1491.55V423.958C1491.55 422.396 1491.25 421.028 1490.67 419.856C1490.09 418.685 1489.26 417.776 1488.18 417.132C1487.1 416.478 1485.83 416.15 1484.35 416.15C1482.87 416.15 1481.58 416.487 1480.49 417.161C1479.4 417.835 1478.56 418.782 1477.95 420.003C1477.36 421.214 1477.06 422.635 1477.06 424.266V424.28C1477.06 425.921 1477.36 427.342 1477.95 428.543C1478.55 429.744 1479.4 430.672 1480.52 431.326C1481.64 431.98 1482.98 432.308 1484.53 432.308ZM1498.46 432.264C1499.14 432.264 1499.78 432.156 1500.38 431.941C1500.98 431.727 1501.52 431.419 1501.99 431.019C1502.46 430.618 1502.84 430.149 1503.13 429.612H1503.22V432H1506.85V421.321C1506.85 420.276 1506.59 419.368 1506.06 418.597C1505.54 417.825 1504.81 417.225 1503.85 416.795C1502.9 416.365 1501.78 416.15 1500.48 416.15C1499.17 416.15 1498.04 416.36 1497.08 416.78C1496.14 417.2 1495.39 417.776 1494.86 418.509C1494.32 419.231 1494.01 420.052 1493.93 420.97L1493.92 421.146H1497.29L1497.32 421.014C1497.44 420.438 1497.77 419.969 1498.28 419.607C1498.8 419.236 1499.49 419.051 1500.35 419.051C1501.28 419.051 1501.99 419.28 1502.47 419.739C1502.97 420.188 1503.22 420.804 1503.22 421.585V426.243C1503.22 426.858 1503.06 427.41 1502.74 427.898C1502.42 428.387 1501.98 428.772 1501.42 429.056C1500.87 429.339 1500.25 429.48 1499.54 429.48C1498.74 429.48 1498.1 429.3 1497.61 428.938C1497.13 428.567 1496.89 428.064 1496.89 427.43V427.415C1496.89 426.8 1497.13 426.307 1497.61 425.936C1498.09 425.564 1498.78 425.35 1499.68 425.291L1505.1 424.954V422.537L1499.16 422.903C1497.29 423.011 1495.83 423.47 1494.8 424.28C1493.77 425.081 1493.26 426.17 1493.26 427.547V427.576C1493.26 428.494 1493.47 429.31 1493.9 430.022C1494.34 430.726 1494.95 431.277 1495.74 431.678C1496.53 432.068 1497.43 432.264 1498.46 432.264ZM1509.81 432H1513.45V422.493C1513.45 421.858 1513.57 421.297 1513.83 420.809C1514.09 420.32 1514.45 419.935 1514.9 419.651C1515.34 419.368 1515.86 419.227 1516.45 419.227C1517.3 419.227 1517.97 419.48 1518.46 419.988C1518.95 420.486 1519.2 421.175 1519.2 422.054V432H1522.75V422.405C1522.75 421.78 1522.87 421.229 1523.11 420.75C1523.37 420.271 1523.71 419.9 1524.15 419.637C1524.6 419.363 1525.12 419.227 1525.71 419.227C1526.6 419.227 1527.29 419.49 1527.77 420.018C1528.25 420.545 1528.49 421.287 1528.49 422.244V432H1532.14V421.351C1532.14 420.306 1531.92 419.397 1531.49 418.626C1531.07 417.845 1530.48 417.239 1529.72 416.81C1528.97 416.37 1528.08 416.15 1527.05 416.15C1526.31 416.15 1525.62 416.282 1524.97 416.546C1524.34 416.8 1523.78 417.161 1523.3 417.63C1522.83 418.089 1522.47 418.641 1522.22 419.285H1522.15C1521.96 418.621 1521.66 418.06 1521.25 417.601C1520.85 417.132 1520.36 416.775 1519.79 416.531C1519.21 416.277 1518.56 416.15 1517.84 416.15C1516.81 416.15 1515.92 416.409 1515.16 416.927C1514.4 417.435 1513.86 418.113 1513.53 418.963H1513.45V416.473H1509.81V432ZM1541.47 432H1544.87V416.956H1546.61L1542.76 411.448L1551.08 432H1553.64L1561.96 411.448L1558.11 416.956H1559.85V432H1563.25V410.862H1558.88L1552.41 427.02H1552.31L1545.83 410.862H1541.47V432ZM1573.45 432.308C1574.45 432.308 1575.35 432.176 1576.14 431.912C1576.93 431.639 1577.62 431.272 1578.19 430.813C1578.77 430.354 1579.23 429.842 1579.57 429.275C1579.91 428.699 1580.14 428.113 1580.27 427.518L1580.3 427.356H1576.9L1576.87 427.459C1576.76 427.811 1576.55 428.138 1576.24 428.44C1575.95 428.743 1575.57 428.992 1575.12 429.188C1574.66 429.373 1574.12 429.466 1573.52 429.466C1572.71 429.466 1572.01 429.29 1571.42 428.938C1570.84 428.577 1570.38 428.064 1570.06 427.4C1569.75 426.727 1569.59 425.916 1569.59 424.969V423.562C1569.59 422.586 1569.75 421.756 1570.06 421.072C1570.38 420.389 1570.82 419.876 1571.38 419.534C1571.95 419.183 1572.59 419.007 1573.31 419.007C1574.03 419.007 1574.66 419.178 1575.2 419.52C1575.75 419.852 1576.18 420.354 1576.49 421.028C1576.8 421.702 1576.96 422.547 1576.96 423.562V424.969L1578.72 422.698H1567.78V425.13H1580.46V423.958C1580.46 422.396 1580.17 421.028 1579.58 419.856C1579.01 418.685 1578.18 417.776 1577.09 417.132C1576.02 416.478 1574.74 416.15 1573.27 416.15C1571.79 416.15 1570.5 416.487 1569.4 417.161C1568.32 417.835 1567.47 418.782 1566.87 420.003C1566.27 421.214 1565.97 422.635 1565.97 424.266V424.28C1565.97 425.921 1566.27 427.342 1566.87 428.543C1567.46 429.744 1568.32 430.672 1569.43 431.326C1570.55 431.98 1571.89 432.308 1573.45 432.308ZM1582.79 432H1586.42V422.493C1586.42 421.858 1586.55 421.297 1586.8 420.809C1587.07 420.32 1587.42 419.935 1587.87 419.651C1588.32 419.368 1588.84 419.227 1589.43 419.227C1590.28 419.227 1590.95 419.48 1591.43 419.988C1591.93 420.486 1592.18 421.175 1592.18 422.054V432H1595.73V422.405C1595.73 421.78 1595.85 421.229 1596.09 420.75C1596.35 420.271 1596.69 419.9 1597.13 419.637C1597.58 419.363 1598.1 419.227 1598.68 419.227C1599.58 419.227 1600.27 419.49 1600.75 420.018C1601.23 420.545 1601.47 421.287 1601.47 422.244V432H1605.12V421.351C1605.12 420.306 1604.9 419.397 1604.47 418.626C1604.05 417.845 1603.46 417.239 1602.7 416.81C1601.95 416.37 1601.06 416.15 1600.03 416.15C1599.29 416.15 1598.6 416.282 1597.95 416.546C1597.32 416.8 1596.76 417.161 1596.28 417.63C1595.81 418.089 1595.45 418.641 1595.2 419.285H1595.12C1594.94 418.621 1594.64 418.06 1594.23 417.601C1593.83 417.132 1593.34 416.775 1592.77 416.531C1592.19 416.277 1591.54 416.15 1590.82 416.15C1589.79 416.15 1588.9 416.409 1588.14 416.927C1587.38 417.435 1586.83 418.113 1586.51 418.963H1586.42V416.473H1582.79V432ZM1616.7 432.308C1618.02 432.308 1619.16 431.985 1620.12 431.341C1621.08 430.687 1621.82 429.754 1622.34 428.543C1622.87 427.332 1623.13 425.896 1623.13 424.236V424.222C1623.13 422.552 1622.87 421.116 1622.34 419.915C1621.81 418.704 1621.07 417.776 1620.12 417.132C1619.16 416.478 1618.03 416.15 1616.73 416.15C1615.63 416.15 1614.65 416.419 1613.8 416.956C1612.96 417.483 1612.32 418.211 1611.87 419.139H1611.79V410.862H1608.15V432H1611.79V429.363H1611.87C1612.32 430.281 1612.96 431.004 1613.79 431.531C1614.62 432.049 1615.59 432.308 1616.7 432.308ZM1615.62 429.246C1614.87 429.246 1614.2 429.041 1613.63 428.631C1613.05 428.221 1612.6 427.64 1612.26 426.888C1611.94 426.136 1611.78 425.252 1611.78 424.236V424.222C1611.78 423.206 1611.95 422.327 1612.28 421.585C1612.61 420.833 1613.06 420.252 1613.63 419.842C1614.2 419.432 1614.87 419.227 1615.62 419.227C1616.4 419.227 1617.07 419.432 1617.64 419.842C1618.21 420.242 1618.64 420.813 1618.94 421.556C1619.26 422.298 1619.41 423.187 1619.41 424.222V424.236C1619.41 425.262 1619.26 426.15 1618.96 426.902C1618.66 427.654 1618.22 428.235 1617.64 428.646C1617.07 429.046 1616.4 429.246 1615.62 429.246ZM1632.3 432.308C1633.31 432.308 1634.21 432.176 1635 431.912C1635.79 431.639 1636.47 431.272 1637.05 430.813C1637.62 430.354 1638.08 429.842 1638.43 429.275C1638.77 428.699 1639 428.113 1639.13 427.518L1639.16 427.356H1635.76L1635.73 427.459C1635.61 427.811 1635.4 428.138 1635.1 428.44C1634.81 428.743 1634.43 428.992 1633.97 429.188C1633.51 429.373 1632.98 429.466 1632.38 429.466C1631.57 429.466 1630.87 429.29 1630.28 428.938C1629.7 428.577 1629.24 428.064 1628.92 427.4C1628.61 426.727 1628.45 425.916 1628.45 424.969V423.562C1628.45 422.586 1628.61 421.756 1628.92 421.072C1629.24 420.389 1629.68 419.876 1630.24 419.534C1630.8 419.183 1631.45 419.007 1632.17 419.007C1632.88 419.007 1633.51 419.178 1634.06 419.52C1634.61 419.852 1635.04 420.354 1635.35 421.028C1635.66 421.702 1635.82 422.547 1635.82 423.562V424.969L1637.58 422.698H1626.63V425.13H1639.32V423.958C1639.32 422.396 1639.03 421.028 1638.44 419.856C1637.86 418.685 1637.03 417.776 1635.95 417.132C1634.88 416.478 1633.6 416.15 1632.13 416.15C1630.64 416.15 1629.35 416.487 1628.26 417.161C1627.18 417.835 1626.33 418.782 1625.73 420.003C1625.13 421.214 1624.83 422.635 1624.83 424.266V424.28C1624.83 425.921 1625.13 427.342 1625.73 428.543C1626.32 429.744 1627.18 430.672 1628.29 431.326C1629.41 431.98 1630.75 432.308 1632.3 432.308ZM1641.65 432H1645.28V422.991C1645.28 422.22 1645.41 421.565 1645.68 421.028C1645.94 420.491 1646.32 420.086 1646.82 419.812C1647.32 419.529 1647.91 419.388 1648.59 419.388C1648.9 419.388 1649.19 419.407 1649.46 419.446C1649.73 419.485 1649.94 419.534 1650.09 419.593V416.297C1649.95 416.258 1649.78 416.224 1649.57 416.194C1649.37 416.165 1649.15 416.15 1648.93 416.15C1648.03 416.15 1647.27 416.419 1646.64 416.956C1646.03 417.483 1645.6 418.216 1645.37 419.153H1645.28V416.473H1641.65V432Z" fill="#181818"/>
<path d="M1812 283C1812 249.863 1838.86 223 1872 223H1989C2022.14 223 2049 249.863 2049 283V283C2049 316.137 2022.14 343 1989 343H1872C1838.86 343 1812 316.137 1812 283V283Z" fill="#F8F8F8"/>
<path d="M1875.75 287.013H1882C1883.43 287.013 1884.68 286.72 1885.75 286.134C1886.84 285.538 1887.68 284.713 1888.29 283.658C1888.89 282.594 1889.2 281.358 1889.2 279.952V279.923C1889.2 278.507 1888.89 277.271 1888.29 276.217C1887.68 275.152 1886.84 274.327 1885.75 273.741C1884.68 273.155 1883.43 272.862 1882 272.862H1875.75V275.938H1881.07C1882.43 275.938 1883.49 276.285 1884.23 276.979C1884.98 277.672 1885.36 278.658 1885.36 279.938V279.967C1885.36 281.236 1884.98 282.223 1884.23 282.926C1883.49 283.619 1882.43 283.966 1881.07 283.966H1875.75V287.013ZM1873.86 294H1877.64V272.862H1873.86V294ZM1895.04 294.264C1895.73 294.264 1896.37 294.156 1896.96 293.941C1897.57 293.727 1898.1 293.419 1898.57 293.019C1899.04 292.618 1899.42 292.149 1899.71 291.612H1899.8V294H1903.44V283.321C1903.44 282.276 1903.17 281.368 1902.64 280.597C1902.13 279.825 1901.39 279.225 1900.43 278.795C1899.49 278.365 1898.36 278.15 1897.06 278.15C1895.75 278.15 1894.62 278.36 1893.67 278.78C1892.72 279.2 1891.98 279.776 1891.44 280.509C1890.9 281.231 1890.59 282.052 1890.52 282.97L1890.5 283.146H1893.87L1893.9 283.014C1894.03 282.438 1894.35 281.969 1894.87 281.607C1895.38 281.236 1896.07 281.051 1896.93 281.051C1897.86 281.051 1898.57 281.28 1899.06 281.739C1899.55 282.188 1899.8 282.804 1899.8 283.585V288.243C1899.8 288.858 1899.64 289.41 1899.32 289.898C1899 290.387 1898.56 290.772 1898 291.056C1897.45 291.339 1896.83 291.48 1896.13 291.48C1895.33 291.48 1894.68 291.3 1894.19 290.938C1893.71 290.567 1893.47 290.064 1893.47 289.43V289.415C1893.47 288.8 1893.71 288.307 1894.19 287.936C1894.67 287.564 1895.36 287.35 1896.26 287.291L1901.68 286.954V284.537L1895.75 284.903C1893.87 285.011 1892.42 285.47 1891.38 286.28C1890.35 287.081 1889.84 288.17 1889.84 289.547V289.576C1889.84 290.494 1890.06 291.31 1890.49 292.022C1890.93 292.726 1891.54 293.277 1892.32 293.678C1893.11 294.068 1894.02 294.264 1895.04 294.264ZM1908.42 299.156C1909.49 299.156 1910.42 299.005 1911.2 298.702C1911.99 298.409 1912.66 297.921 1913.22 297.237C1913.78 296.563 1914.25 295.66 1914.64 294.527L1920.24 278.473H1916.4L1912.53 291.656L1913.09 290.895H1912.31L1912.87 291.656L1909 278.473H1905.03L1910.61 294.015L1910.39 294.645C1910.16 295.299 1909.84 295.743 1909.43 295.978C1909.02 296.222 1908.46 296.344 1907.76 296.344C1907.49 296.344 1907.26 296.329 1907.05 296.3C1906.85 296.271 1906.68 296.246 1906.54 296.227V298.995C1906.77 299.034 1907.04 299.068 1907.38 299.098C1907.72 299.137 1908.06 299.156 1908.42 299.156ZM1921.92 294H1925.55V284.493C1925.55 283.858 1925.68 283.297 1925.94 282.809C1926.2 282.32 1926.56 281.935 1927 281.651C1927.45 281.368 1927.97 281.227 1928.56 281.227C1929.41 281.227 1930.08 281.48 1930.56 281.988C1931.06 282.486 1931.31 283.175 1931.31 284.054V294H1934.86V284.405C1934.86 283.78 1934.98 283.229 1935.22 282.75C1935.48 282.271 1935.82 281.9 1936.26 281.637C1936.71 281.363 1937.23 281.227 1937.82 281.227C1938.71 281.227 1939.4 281.49 1939.88 282.018C1940.36 282.545 1940.6 283.287 1940.6 284.244V294H1944.25V283.351C1944.25 282.306 1944.03 281.397 1943.6 280.626C1943.18 279.845 1942.59 279.239 1941.83 278.81C1941.08 278.37 1940.19 278.15 1939.16 278.15C1938.42 278.15 1937.73 278.282 1937.08 278.546C1936.45 278.8 1935.89 279.161 1935.41 279.63C1934.94 280.089 1934.58 280.641 1934.33 281.285H1934.26C1934.07 280.621 1933.77 280.06 1933.36 279.601C1932.96 279.132 1932.47 278.775 1931.9 278.531C1931.32 278.277 1930.67 278.15 1929.95 278.15C1928.92 278.15 1928.03 278.409 1927.27 278.927C1926.51 279.435 1925.96 280.113 1925.64 280.963H1925.55V278.473H1921.92V294ZM1954 294.308C1955.01 294.308 1955.91 294.176 1956.7 293.912C1957.49 293.639 1958.17 293.272 1958.75 292.813C1959.32 292.354 1959.78 291.842 1960.12 291.275C1960.47 290.699 1960.7 290.113 1960.83 289.518L1960.86 289.356H1957.46L1957.43 289.459C1957.31 289.811 1957.1 290.138 1956.8 290.44C1956.51 290.743 1956.13 290.992 1955.67 291.188C1955.21 291.373 1954.68 291.466 1954.08 291.466C1953.26 291.466 1952.57 291.29 1951.98 290.938C1951.39 290.577 1950.94 290.064 1950.62 289.4C1950.31 288.727 1950.15 287.916 1950.15 286.969V285.562C1950.15 284.586 1950.31 283.756 1950.62 283.072C1950.94 282.389 1951.38 281.876 1951.94 281.534C1952.5 281.183 1953.15 281.007 1953.87 281.007C1954.58 281.007 1955.21 281.178 1955.76 281.52C1956.31 281.852 1956.74 282.354 1957.05 283.028C1957.36 283.702 1957.52 284.547 1957.52 285.562V286.969L1959.28 284.698H1948.33V287.13H1961.02V285.958C1961.02 284.396 1960.73 283.028 1960.14 281.856C1959.56 280.685 1958.73 279.776 1957.65 279.132C1956.58 278.478 1955.3 278.15 1953.83 278.15C1952.34 278.15 1951.05 278.487 1949.96 279.161C1948.88 279.835 1948.03 280.782 1947.42 282.003C1946.83 283.214 1946.53 284.635 1946.53 286.266V286.28C1946.53 287.921 1946.83 289.342 1947.42 290.543C1948.02 291.744 1948.88 292.672 1949.99 293.326C1951.11 293.98 1952.45 294.308 1954 294.308ZM1963.35 294H1966.98V284.991C1966.98 284.239 1967.12 283.585 1967.41 283.028C1967.69 282.462 1968.09 282.022 1968.61 281.71C1969.12 281.388 1969.73 281.227 1970.42 281.227C1971.46 281.227 1972.23 281.529 1972.75 282.135C1973.27 282.73 1973.53 283.58 1973.53 284.684V294H1977.18V283.951C1977.18 282.154 1976.71 280.738 1975.77 279.703C1974.84 278.668 1973.52 278.15 1971.81 278.15C1970.64 278.15 1969.66 278.399 1968.86 278.897C1968.06 279.396 1967.47 280.064 1967.07 280.904H1966.98V278.473H1963.35V294ZM1985.86 294.308C1986.24 294.308 1986.58 294.293 1986.89 294.264C1987.2 294.234 1987.46 294.205 1987.68 294.176V291.437C1987.55 291.446 1987.42 291.461 1987.27 291.48C1987.13 291.49 1986.97 291.495 1986.79 291.495C1986.13 291.495 1985.63 291.354 1985.29 291.07C1984.96 290.777 1984.79 290.255 1984.79 289.503V281.285H1987.68V278.473H1984.79V274.532H1981.09V278.473H1978.89V281.285H1981.09V289.796C1981.09 291.397 1981.48 292.55 1982.26 293.253C1983.05 293.956 1984.25 294.308 1985.86 294.308Z" fill="#181818"/>
<path d="M1802 421C1802 387.863 1828.86 361 1862 361H1999C2032.14 361 2059 387.863 2059 421V421C2059 454.137 2032.14 481 1999 481H1862C1828.86 481 1802 454.137 1802 421V421Z" fill="#F8F8F8"/>
<path d="M1865.75 425.013H1872C1873.43 425.013 1874.68 424.72 1875.75 424.134C1876.84 423.538 1877.68 422.713 1878.29 421.658C1878.89 420.594 1879.2 419.358 1879.2 417.952V417.923C1879.2 416.507 1878.89 415.271 1878.29 414.217C1877.68 413.152 1876.84 412.327 1875.75 411.741C1874.68 411.155 1873.43 410.862 1872 410.862H1865.75V413.938H1871.07C1872.43 413.938 1873.49 414.285 1874.23 414.979C1874.98 415.672 1875.36 416.658 1875.36 417.938V417.967C1875.36 419.236 1874.98 420.223 1874.23 420.926C1873.49 421.619 1872.43 421.966 1871.07 421.966H1865.75V425.013ZM1863.86 432H1867.64V410.862H1863.86V432ZM1881.6 432H1885.23V422.991C1885.23 422.22 1885.36 421.565 1885.63 421.028C1885.89 420.491 1886.27 420.086 1886.77 419.812C1887.27 419.529 1887.86 419.388 1888.54 419.388C1888.86 419.388 1889.14 419.407 1889.41 419.446C1889.68 419.485 1889.89 419.534 1890.04 419.593V416.297C1889.9 416.258 1889.73 416.224 1889.52 416.194C1889.32 416.165 1889.1 416.15 1888.88 416.15C1887.98 416.15 1887.22 416.419 1886.59 416.956C1885.98 417.483 1885.55 418.216 1885.32 419.153H1885.23V416.473H1881.6V432ZM1898.2 432.308C1899.72 432.308 1901.04 431.985 1902.17 431.341C1903.29 430.696 1904.16 429.773 1904.77 428.572C1905.4 427.361 1905.71 425.916 1905.71 424.236V424.207C1905.71 422.537 1905.4 421.102 1904.77 419.9C1904.15 418.699 1903.27 417.776 1902.14 417.132C1901.01 416.478 1899.7 416.15 1898.18 416.15C1896.68 416.15 1895.36 416.478 1894.24 417.132C1893.12 417.776 1892.24 418.704 1891.62 419.915C1890.99 421.116 1890.68 422.547 1890.68 424.207V424.236C1890.68 425.906 1890.99 427.347 1891.6 428.558C1892.23 429.759 1893.1 430.687 1894.23 431.341C1895.35 431.985 1896.67 432.308 1898.2 432.308ZM1898.21 429.363C1897.44 429.363 1896.77 429.163 1896.19 428.763C1895.62 428.362 1895.18 427.781 1894.86 427.02C1894.54 426.248 1894.39 425.32 1894.39 424.236V424.207C1894.39 423.133 1894.54 422.215 1894.86 421.453C1895.18 420.691 1895.62 420.11 1896.19 419.71C1896.77 419.31 1897.43 419.109 1898.18 419.109C1898.95 419.109 1899.62 419.31 1900.19 419.71C1900.76 420.11 1901.21 420.691 1901.52 421.453C1901.83 422.215 1901.99 423.133 1901.99 424.207V424.236C1901.99 425.32 1901.83 426.248 1901.52 427.02C1901.22 427.781 1900.78 428.362 1900.22 428.763C1899.65 429.163 1898.98 429.363 1898.21 429.363ZM1908.05 432H1911.69V422.493C1911.69 421.858 1911.81 421.297 1912.07 420.809C1912.33 420.32 1912.69 419.935 1913.14 419.651C1913.59 419.368 1914.1 419.227 1914.69 419.227C1915.54 419.227 1916.21 419.48 1916.7 419.988C1917.2 420.486 1917.44 421.175 1917.44 422.054V432H1920.99V422.405C1920.99 421.78 1921.11 421.229 1921.36 420.75C1921.61 420.271 1921.96 419.9 1922.4 419.637C1922.84 419.363 1923.36 419.227 1923.95 419.227C1924.85 419.227 1925.54 419.49 1926.01 420.018C1926.49 420.545 1926.73 421.287 1926.73 422.244V432H1930.38V421.351C1930.38 420.306 1930.16 419.397 1929.73 418.626C1929.31 417.845 1928.72 417.239 1927.96 416.81C1927.21 416.37 1926.32 416.15 1925.3 416.15C1924.55 416.15 1923.86 416.282 1923.22 416.546C1922.58 416.8 1922.02 417.161 1921.55 417.63C1921.08 418.089 1920.72 418.641 1920.46 419.285H1920.39C1920.2 418.621 1919.91 418.06 1919.5 417.601C1919.09 417.132 1918.61 416.775 1918.03 416.531C1917.45 416.277 1916.8 416.15 1916.08 416.15C1915.06 416.15 1914.16 416.409 1913.4 416.927C1912.64 417.435 1912.1 418.113 1911.78 418.963H1911.69V416.473H1908.05V432ZM1940.18 432.308C1941.7 432.308 1943.03 431.985 1944.15 431.341C1945.27 430.696 1946.14 429.773 1946.76 428.572C1947.38 427.361 1947.69 425.916 1947.69 424.236V424.207C1947.69 422.537 1947.38 421.102 1946.76 419.9C1946.13 418.699 1945.25 417.776 1944.12 417.132C1943 416.478 1941.68 416.15 1940.16 416.15C1938.66 416.15 1937.35 416.478 1936.22 417.132C1935.1 417.776 1934.23 418.704 1933.6 419.915C1932.98 421.116 1932.66 422.547 1932.66 424.207V424.236C1932.66 425.906 1932.97 427.347 1933.59 428.558C1934.21 429.759 1935.09 430.687 1936.21 431.341C1937.33 431.985 1938.66 432.308 1940.18 432.308ZM1940.19 429.363C1939.42 429.363 1938.75 429.163 1938.17 428.763C1937.61 428.362 1937.16 427.781 1936.84 427.02C1936.53 426.248 1936.37 425.32 1936.37 424.236V424.207C1936.37 423.133 1936.53 422.215 1936.84 421.453C1937.16 420.691 1937.61 420.11 1938.17 419.71C1938.75 419.31 1939.41 419.109 1940.16 419.109C1940.94 419.109 1941.6 419.31 1942.17 419.71C1942.75 420.11 1943.19 420.691 1943.5 421.453C1943.82 422.215 1943.97 423.133 1943.97 424.207V424.236C1943.97 425.32 1943.82 426.248 1943.5 427.02C1943.2 427.781 1942.77 428.362 1942.2 428.763C1941.63 429.163 1940.96 429.363 1940.19 429.363ZM1955.79 432.308C1956.17 432.308 1956.52 432.293 1956.82 432.264C1957.13 432.234 1957.4 432.205 1957.61 432.176V429.437C1957.48 429.446 1957.35 429.461 1957.2 429.48C1957.06 429.49 1956.9 429.495 1956.72 429.495C1956.06 429.495 1955.56 429.354 1955.22 429.07C1954.89 428.777 1954.72 428.255 1954.72 427.503V419.285H1957.61V416.473H1954.72V412.532H1951.02V416.473H1948.82V419.285H1951.02V427.796C1951.02 429.397 1951.41 430.55 1952.19 431.253C1952.98 431.956 1954.18 432.308 1955.79 432.308ZM1960.22 432H1963.87V416.473H1960.22V432ZM1962.03 414.246C1962.61 414.246 1963.09 414.051 1963.48 413.66C1963.88 413.27 1964.07 412.801 1964.07 412.254C1964.07 411.697 1963.88 411.229 1963.48 410.848C1963.09 410.457 1962.61 410.262 1962.03 410.262C1961.47 410.262 1960.99 410.457 1960.6 410.848C1960.21 411.229 1960.01 411.697 1960.01 412.254C1960.01 412.801 1960.21 413.27 1960.6 413.66C1960.99 414.051 1961.47 414.246 1962.03 414.246ZM1973.84 432.308C1975.36 432.308 1976.69 431.985 1977.81 431.341C1978.93 430.696 1979.8 429.773 1980.42 428.572C1981.04 427.361 1981.36 425.916 1981.36 424.236V424.207C1981.36 422.537 1981.04 421.102 1980.42 419.9C1979.79 418.699 1978.91 417.776 1977.78 417.132C1976.66 416.478 1975.34 416.15 1973.83 416.15C1972.32 416.15 1971.01 416.478 1969.89 417.132C1968.76 417.776 1967.89 418.704 1967.26 419.915C1966.64 421.116 1966.33 422.547 1966.33 424.207V424.236C1966.33 425.906 1966.63 427.347 1967.25 428.558C1967.87 429.759 1968.75 430.687 1969.87 431.341C1970.99 431.985 1972.32 432.308 1973.84 432.308ZM1973.86 429.363C1973.08 429.363 1972.41 429.163 1971.83 428.763C1971.27 428.362 1970.82 427.781 1970.5 427.02C1970.19 426.248 1970.03 425.32 1970.03 424.236V424.207C1970.03 423.133 1970.19 422.215 1970.5 421.453C1970.82 420.691 1971.27 420.11 1971.83 419.71C1972.41 419.31 1973.07 419.109 1973.83 419.109C1974.6 419.109 1975.27 419.31 1975.83 419.71C1976.41 420.11 1976.85 420.691 1977.17 421.453C1977.48 422.215 1977.63 423.133 1977.63 424.207V424.236C1977.63 425.32 1977.48 426.248 1977.17 427.02C1976.86 427.781 1976.43 428.362 1975.86 428.763C1975.3 429.163 1974.63 429.363 1973.86 429.363ZM1983.7 432H1987.33V422.991C1987.33 422.239 1987.47 421.585 1987.76 421.028C1988.04 420.462 1988.44 420.022 1988.96 419.71C1989.48 419.388 1990.08 419.227 1990.77 419.227C1991.81 419.227 1992.59 419.529 1993.1 420.135C1993.62 420.73 1993.88 421.58 1993.88 422.684V432H1997.53V421.951C1997.53 420.154 1997.06 418.738 1996.12 417.703C1995.19 416.668 1993.88 416.15 1992.17 416.15C1990.99 416.15 1990.01 416.399 1989.21 416.897C1988.42 417.396 1987.82 418.064 1987.42 418.904H1987.33V416.473H1983.7V432Z" fill="#181818"/>
<path d="M2202.16 294.366C2207.27 294.366 2210.98 291.158 2211.39 286.661L2211.41 286.5H2207.1L2207.07 286.646C2206.5 289.151 2204.71 290.616 2202.16 290.616C2198.78 290.616 2196.61 287.862 2196.61 283.409V283.395C2196.61 278.971 2198.78 276.246 2202.16 276.246C2204.8 276.246 2206.53 277.77 2207.03 280.099L2207.08 280.348H2211.39L2211.38 280.216C2210.97 275.733 2207.29 272.496 2202.16 272.496C2196 272.496 2192.1 276.598 2192.1 283.409V283.424C2192.1 290.235 2195.98 294.366 2202.16 294.366ZM2220.99 294.322C2225.73 294.322 2228.76 291.275 2228.76 286.148V286.119C2228.76 281.036 2225.67 277.975 2220.97 277.975C2216.28 277.975 2213.21 281.065 2213.21 286.119V286.148C2213.21 291.261 2216.21 294.322 2220.99 294.322ZM2221 290.968C2218.89 290.968 2217.56 289.225 2217.56 286.148V286.119C2217.56 283.087 2218.91 281.329 2220.97 281.329C2223.05 281.329 2224.41 283.087 2224.41 286.119V286.148C2224.41 289.21 2223.08 290.968 2221 290.968ZM2230.98 294H2235.25V284.977C2235.25 282.926 2236.47 281.52 2238.39 281.52C2240.31 281.52 2241.27 282.691 2241.27 284.742V294H2245.55V283.863C2245.55 280.187 2243.59 277.975 2240.13 277.975C2237.76 277.975 2236.15 279.073 2235.34 280.875H2235.25V278.297H2230.98V294ZM2249.4 294H2253.68V281.52H2256.7V278.297H2253.58V277.198C2253.58 276.07 2254.21 275.47 2255.63 275.47C2256.02 275.47 2256.43 275.484 2256.73 275.543V272.716C2256.23 272.613 2255.37 272.54 2254.57 272.54C2250.87 272.54 2249.4 273.961 2249.4 277.037V278.297H2247.26V281.52H2249.4V294ZM2261.18 276.275C2262.47 276.275 2263.47 275.265 2263.47 274.049C2263.47 272.833 2262.47 271.822 2261.18 271.822C2259.89 271.822 2258.9 272.833 2258.9 274.049C2258.9 275.265 2259.89 276.275 2261.18 276.275ZM2259.04 294H2263.32V278.297H2259.04V294ZM2266.19 294H2270.47V285.211C2270.47 282.926 2271.7 281.666 2273.81 281.666C2274.42 281.666 2275.01 281.754 2275.36 281.9V278.136C2275.04 278.048 2274.6 277.975 2274.13 277.975C2272.3 277.975 2271.02 279.103 2270.56 281.036H2270.47V278.297H2266.19V294ZM2277.12 294H2281.4V284.522C2281.4 282.75 2282.49 281.52 2284.12 281.52C2285.7 281.52 2286.65 282.516 2286.65 284.2V294H2290.77V284.449C2290.77 282.706 2291.84 281.52 2293.47 281.52C2295.12 281.52 2296.03 282.516 2296.03 284.332V294H2300.31V283.263C2300.31 280.099 2298.24 277.975 2295.17 277.975C2292.87 277.975 2290.99 279.234 2290.29 281.212H2290.2C2289.67 279.146 2288.08 277.975 2285.88 277.975C2283.77 277.975 2282.13 279.146 2281.48 280.934H2281.4V278.297H2277.12V294Z" fill="#181818"/>
<path d="M2231 224H2262V222H2231V224ZM2262 342H2231V344H2262V342ZM2231 342C2198.42 342 2172 315.585 2172 283H2170C2170 316.689 2197.31 344 2231 344V342ZM2321 283C2321 315.585 2294.58 342 2262 342V344C2295.69 344 2323 316.689 2323 283H2321ZM2262 224C2294.58 224 2321 250.415 2321 283H2323C2323 249.311 2295.69 222 2262 222V224ZM2231 222C2197.31 222 2170 249.311 2170 283H2172C2172 250.415 2198.42 224 2231 224V222Z" fill="black"/>
<path d="M2242.5 205C2242.5 205.828 2241.83 206.5 2241 206.5C2240.17 206.5 2239.5 205.828 2239.5 205H2242.5ZM142.061 206.061C141.475 206.646 140.525 206.646 139.939 206.061L130.393 196.515C129.808 195.929 129.808 194.979 130.393 194.393C130.979 193.808 131.929 193.808 132.515 194.393L141 202.879L149.485 194.393C150.071 193.808 151.021 193.808 151.607 194.393C152.192 194.979 152.192 195.929 151.607 196.515L142.061 206.061ZM139.5 195.917C139.5 195.088 140.172 194.417 141 194.417C141.828 194.417 142.5 195.088 142.5 195.917H139.5ZM142.5 177.75C142.5 178.578 141.828 179.25 141 179.25C140.172 179.25 139.5 178.578 139.5 177.75H142.5ZM139.5 159.583C139.5 158.755 140.172 158.083 141 158.083C141.828 158.083 142.5 158.755 142.5 159.583H139.5ZM142.5 141.417C142.5 142.245 141.828 142.917 141 142.917C140.172 142.917 139.5 142.245 139.5 141.417H142.5ZM139.5 123.25C139.5 122.422 140.172 121.75 141 121.75C141.828 121.75 142.5 122.422 142.5 123.25H139.5ZM142.5 105.083C142.5 105.912 141.828 106.583 141 106.583C140.172 106.583 139.5 105.912 139.5 105.083H142.5ZM140.48 85.9508C140.641 85.1381 141.43 84.6096 142.243 84.7704C143.055 84.9312 143.584 85.7203 143.423 86.533L140.48 85.9508ZM150.668 69.0537C150.207 69.7421 149.276 69.9265 148.587 69.4657C147.899 69.0048 147.714 68.0731 148.175 67.3847L150.668 69.0537ZM162.385 53.1753C163.073 52.7144 164.005 52.8989 164.466 53.5873C164.927 54.2756 164.742 55.2073 164.054 55.6682L162.385 53.1753ZM181.533 48.4232C180.72 48.584 179.931 48.0555 179.77 47.2428C179.61 46.4301 180.138 45.641 180.951 45.4802L181.533 48.4232ZM201 44.5C201.828 44.5 202.5 45.1716 202.5 46C202.5 46.8284 201.828 47.5 201 47.5V44.5ZM221 47.5C220.172 47.5 219.5 46.8284 219.5 46C219.5 45.1716 220.172 44.5 221 44.5V47.5ZM241 44.5C241.828 44.5 242.5 45.1716 242.5 46C242.5 46.8284 241.828 47.5 241 47.5V44.5ZM261 47.5C260.172 47.5 259.5 46.8284 259.5 46C259.5 45.1716 260.172 44.5 261 44.5V47.5ZM281 44.5C281.828 44.5 282.5 45.1716 282.5 46C282.5 46.8284 281.828 47.5 281 47.5V44.5ZM301 47.5C300.172 47.5 299.5 46.8284 299.5 46C299.5 45.1716 300.172 44.5 301 44.5V47.5ZM321 44.5C321.828 44.5 322.5 45.1716 322.5 46C322.5 46.8284 321.828 47.5 321 47.5V44.5ZM341 47.5C340.172 47.5 339.5 46.8284 339.5 46C339.5 45.1716 340.172 44.5 341 44.5V47.5ZM361 44.5C361.828 44.5 362.5 45.1716 362.5 46C362.5 46.8284 361.828 47.5 361 47.5V44.5ZM381 47.5C380.172 47.5 379.5 46.8284 379.5 46C379.5 45.1716 380.172 44.5 381 44.5V47.5ZM401 44.5C401.828 44.5 402.5 45.1716 402.5 46C402.5 46.8284 401.828 47.5 401 47.5V44.5ZM421 47.5C420.172 47.5 419.5 46.8284 419.5 46C419.5 45.1716 420.172 44.5 421 44.5V47.5ZM441 44.5C441.828 44.5 442.5 45.1716 442.5 46C442.5 46.8284 441.828 47.5 441 47.5V44.5ZM461 47.5C460.172 47.5 459.5 46.8284 459.5 46C459.5 45.1716 460.172 44.5 461 44.5V47.5ZM481 44.5C481.828 44.5 482.5 45.1716 482.5 46C482.5 46.8284 481.828 47.5 481 47.5V44.5ZM501 47.5C500.172 47.5 499.5 46.8284 499.5 46C499.5 45.1716 500.172 44.5 501 44.5V47.5ZM521 44.5C521.829 44.5 522.5 45.1716 522.5 46C522.5 46.8284 521.829 47.5 521 47.5V44.5ZM541 47.5C540.172 47.5 539.5 46.8284 539.5 46C539.5 45.1716 540.172 44.5 541 44.5V47.5ZM561 44.5C561.828 44.5 562.5 45.1716 562.5 46C562.5 46.8284 561.828 47.5 561 47.5V44.5ZM581 47.5C580.172 47.5 579.5 46.8284 579.5 46C579.5 45.1716 580.172 44.5 581 44.5V47.5ZM601 44.5C601.828 44.5 602.5 45.1716 602.5 46C602.5 46.8284 601.828 47.5 601 47.5V44.5ZM621 47.5C620.172 47.5 619.5 46.8284 619.5 46C619.5 45.1716 620.172 44.5 621 44.5V47.5ZM641 44.5C641.828 44.5 642.5 45.1716 642.5 46C642.5 46.8284 641.828 47.5 641 47.5V44.5ZM661 47.5C660.172 47.5 659.5 46.8284 659.5 46C659.5 45.1716 660.172 44.5 661 44.5V47.5ZM681 44.5C681.829 44.5 682.5 45.1716 682.5 46C682.5 46.8284 681.829 47.5 681 47.5V44.5ZM701 47.5C700.172 47.5 699.5 46.8284 699.5 46C699.5 45.1716 700.172 44.5 701 44.5V47.5ZM721 44.5C721.828 44.5 722.5 45.1716 722.5 46C722.5 46.8284 721.828 47.5 721 47.5V44.5ZM741 47.5C740.172 47.5 739.5 46.8284 739.5 46C739.5 45.1716 740.172 44.5 741 44.5V47.5ZM761 44.5C761.828 44.5 762.5 45.1716 762.5 46C762.5 46.8284 761.828 47.5 761 47.5V44.5ZM781 47.5C780.172 47.5 779.5 46.8284 779.5 46C779.5 45.1716 780.172 44.5 781 44.5V47.5ZM801 44.5C801.829 44.5 802.5 45.1716 802.5 46C802.5 46.8284 801.829 47.5 801 47.5V44.5ZM821 47.5C820.172 47.5 819.5 46.8284 819.5 46C819.5 45.1716 820.172 44.5 821 44.5V47.5ZM841 44.5C841.828 44.5 842.5 45.1716 842.5 46C842.5 46.8284 841.828 47.5 841 47.5V44.5ZM861 47.5C860.172 47.5 859.5 46.8284 859.5 46C859.5 45.1716 860.172 44.5 861 44.5V47.5ZM881 44.5C881.828 44.5 882.5 45.1716 882.5 46C882.5 46.8284 881.828 47.5 881 47.5V44.5ZM901 47.5C900.172 47.5 899.5 46.8284 899.5 46C899.5 45.1716 900.172 44.5 901 44.5V47.5ZM921 44.5C921.829 44.5 922.5 45.1716 922.5 46C922.5 46.8284 921.829 47.5 921 47.5V44.5ZM941 47.5C940.172 47.5 939.5 46.8284 939.5 46C939.5 45.1716 940.172 44.5 941 44.5V47.5ZM961 44.5C961.828 44.5 962.5 45.1716 962.5 46C962.5 46.8284 961.828 47.5 961 47.5V44.5ZM981 47.5C980.172 47.5 979.5 46.8284 979.5 46C979.5 45.1716 980.172 44.5 981 44.5V47.5ZM1001 44.5C1001.83 44.5 1002.5 45.1716 1002.5 46C1002.5 46.8284 1001.83 47.5 1001 47.5V44.5ZM1021 47.5C1020.17 47.5 1019.5 46.8284 1019.5 46C1019.5 45.1716 1020.17 44.5 1021 44.5V47.5ZM1041 44.5C1041.83 44.5 1042.5 45.1716 1042.5 46C1042.5 46.8284 1041.83 47.5 1041 47.5V44.5ZM1061 47.5C1060.17 47.5 1059.5 46.8284 1059.5 46C1059.5 45.1716 1060.17 44.5 1061 44.5V47.5ZM1081 44.5C1081.83 44.5 1082.5 45.1716 1082.5 46C1082.5 46.8284 1081.83 47.5 1081 47.5V44.5ZM1101 47.5C1100.17 47.5 1099.5 46.8284 1099.5 46C1099.5 45.1716 1100.17 44.5 1101 44.5V47.5ZM1121 44.5C1121.83 44.5 1122.5 45.1716 1122.5 46C1122.5 46.8284 1121.83 47.5 1121 47.5V44.5ZM1141 47.5C1140.17 47.5 1139.5 46.8284 1139.5 46C1139.5 45.1716 1140.17 44.5 1141 44.5V47.5ZM1161 44.5C1161.83 44.5 1162.5 45.1716 1162.5 46C1162.5 46.8284 1161.83 47.5 1161 47.5V44.5ZM1181 47.5C1180.17 47.5 1179.5 46.8284 1179.5 46C1179.5 45.1716 1180.17 44.5 1181 44.5V47.5ZM1201 44.5C1201.83 44.5 1202.5 45.1716 1202.5 46C1202.5 46.8284 1201.83 47.5 1201 47.5V44.5ZM1221 47.5C1220.17 47.5 1219.5 46.8284 1219.5 46C1219.5 45.1716 1220.17 44.5 1221 44.5V47.5ZM1241 44.5C1241.83 44.5 1242.5 45.1716 1242.5 46C1242.5 46.8284 1241.83 47.5 1241 47.5V44.5ZM1261 47.5C1260.17 47.5 1259.5 46.8284 1259.5 46C1259.5 45.1716 1260.17 44.5 1261 44.5V47.5ZM1281 44.5C1281.83 44.5 1282.5 45.1716 1282.5 46C1282.5 46.8284 1281.83 47.5 1281 47.5V44.5ZM1301 47.5C1300.17 47.5 1299.5 46.8284 1299.5 46C1299.5 45.1716 1300.17 44.5 1301 44.5V47.5ZM1321 44.5C1321.83 44.5 1322.5 45.1716 1322.5 46C1322.5 46.8284 1321.83 47.5 1321 47.5V44.5ZM1341 47.5C1340.17 47.5 1339.5 46.8284 1339.5 46C1339.5 45.1716 1340.17 44.5 1341 44.5V47.5ZM1361 44.5C1361.83 44.5 1362.5 45.1716 1362.5 46C1362.5 46.8284 1361.83 47.5 1361 47.5V44.5ZM1381 47.5C1380.17 47.5 1379.5 46.8284 1379.5 46C1379.5 45.1716 1380.17 44.5 1381 44.5V47.5ZM1401 44.5C1401.83 44.5 1402.5 45.1716 1402.5 46C1402.5 46.8284 1401.83 47.5 1401 47.5V44.5ZM1421 47.5C1420.17 47.5 1419.5 46.8284 1419.5 46C1419.5 45.1716 1420.17 44.5 1421 44.5V47.5ZM1441 44.5C1441.83 44.5 1442.5 45.1716 1442.5 46C1442.5 46.8284 1441.83 47.5 1441 47.5V44.5ZM1461 47.5C1460.17 47.5 1459.5 46.8284 1459.5 46C1459.5 45.1716 1460.17 44.5 1461 44.5V47.5ZM1481 44.5C1481.83 44.5 1482.5 45.1716 1482.5 46C1482.5 46.8284 1481.83 47.5 1481 47.5V44.5ZM1501 47.5C1500.17 47.5 1499.5 46.8284 1499.5 46C1499.5 45.1716 1500.17 44.5 1501 44.5V47.5ZM1521 44.5C1521.83 44.5 1522.5 45.1716 1522.5 46C1522.5 46.8284 1521.83 47.5 1521 47.5V44.5ZM1541 47.5C1540.17 47.5 1539.5 46.8284 1539.5 46C1539.5 45.1716 1540.17 44.5 1541 44.5V47.5ZM1561 44.5C1561.83 44.5 1562.5 45.1716 1562.5 46C1562.5 46.8284 1561.83 47.5 1561 47.5V44.5ZM1581 47.5C1580.17 47.5 1579.5 46.8284 1579.5 46C1579.5 45.1716 1580.17 44.5 1581 44.5V47.5ZM1601 44.5C1601.83 44.5 1602.5 45.1716 1602.5 46C1602.5 46.8284 1601.83 47.5 1601 47.5V44.5ZM1621 47.5C1620.17 47.5 1619.5 46.8284 1619.5 46C1619.5 45.1716 1620.17 44.5 1621 44.5V47.5ZM1641 44.5C1641.83 44.5 1642.5 45.1716 1642.5 46C1642.5 46.8284 1641.83 47.5 1641 47.5V44.5ZM1661 47.5C1660.17 47.5 1659.5 46.8284 1659.5 46C1659.5 45.1716 1660.17 44.5 1661 44.5V47.5ZM1681 44.5C1681.83 44.5 1682.5 45.1716 1682.5 46C1682.5 46.8284 1681.83 47.5 1681 47.5V44.5ZM1701 47.5C1700.17 47.5 1699.5 46.8284 1699.5 46C1699.5 45.1716 1700.17 44.5 1701 44.5V47.5ZM1721 44.5C1721.83 44.5 1722.5 45.1716 1722.5 46C1722.5 46.8284 1721.83 47.5 1721 47.5V44.5ZM1741 47.5C1740.17 47.5 1739.5 46.8284 1739.5 46C1739.5 45.1716 1740.17 44.5 1741 44.5V47.5ZM1761 44.5C1761.83 44.5 1762.5 45.1716 1762.5 46C1762.5 46.8284 1761.83 47.5 1761 47.5V44.5ZM1781 47.5C1780.17 47.5 1779.5 46.8284 1779.5 46C1779.5 45.1716 1780.17 44.5 1781 44.5V47.5ZM1801 44.5C1801.83 44.5 1802.5 45.1716 1802.5 46C1802.5 46.8284 1801.83 47.5 1801 47.5V44.5ZM1821 47.5C1820.17 47.5 1819.5 46.8284 1819.5 46C1819.5 45.1716 1820.17 44.5 1821 44.5V47.5ZM1841 44.5C1841.83 44.5 1842.5 45.1716 1842.5 46C1842.5 46.8284 1841.83 47.5 1841 47.5V44.5ZM1861 47.5C1860.17 47.5 1859.5 46.8284 1859.5 46C1859.5 45.1716 1860.17 44.5 1861 44.5V47.5ZM1881 44.5C1881.83 44.5 1882.5 45.1716 1882.5 46C1882.5 46.8284 1881.83 47.5 1881 47.5V44.5ZM1901 47.5C1900.17 47.5 1899.5 46.8284 1899.5 46C1899.5 45.1716 1900.17 44.5 1901 44.5V47.5ZM1921 44.5C1921.83 44.5 1922.5 45.1716 1922.5 46C1922.5 46.8284 1921.83 47.5 1921 47.5V44.5ZM1941 47.5C1940.17 47.5 1939.5 46.8284 1939.5 46C1939.5 45.1716 1940.17 44.5 1941 44.5V47.5ZM1961 44.5C1961.83 44.5 1962.5 45.1716 1962.5 46C1962.5 46.8284 1961.83 47.5 1961 47.5V44.5ZM1981 47.5C1980.17 47.5 1979.5 46.8284 1979.5 46C1979.5 45.1716 1980.17 44.5 1981 44.5V47.5ZM2001 44.5C2001.83 44.5 2002.5 45.1716 2002.5 46C2002.5 46.8284 2001.83 47.5 2001 47.5V44.5ZM2021 47.5C2020.17 47.5 2019.5 46.8284 2019.5 46C2019.5 45.1716 2020.17 44.5 2021 44.5V47.5ZM2041 44.5C2041.83 44.5 2042.5 45.1716 2042.5 46C2042.5 46.8284 2041.83 47.5 2041 47.5V44.5ZM2061 47.5C2060.17 47.5 2059.5 46.8284 2059.5 46C2059.5 45.1716 2060.17 44.5 2061 44.5V47.5ZM2081 44.5C2081.83 44.5 2082.5 45.1716 2082.5 46C2082.5 46.8284 2081.83 47.5 2081 47.5V44.5ZM2101 47.5C2100.17 47.5 2099.5 46.8284 2099.5 46C2099.5 45.1716 2100.17 44.5 2101 44.5V47.5ZM2121 44.5C2121.83 44.5 2122.5 45.1716 2122.5 46C2122.5 46.8284 2121.83 47.5 2121 47.5V44.5ZM2141 47.5C2140.17 47.5 2139.5 46.8284 2139.5 46C2139.5 45.1716 2140.17 44.5 2141 44.5V47.5ZM2161 44.5C2161.83 44.5 2162.5 45.1716 2162.5 46C2162.5 46.8284 2161.83 47.5 2161 47.5V44.5ZM2181 47.5C2180.17 47.5 2179.5 46.8284 2179.5 46C2179.5 45.1716 2180.17 44.5 2181 44.5V47.5ZM2201.05 45.4802C2201.86 45.641 2202.39 46.4301 2202.23 47.2428C2202.07 48.0555 2201.28 48.584 2200.47 48.4232L2201.05 45.4802ZM2217.95 55.6682C2217.26 55.2073 2217.07 54.2756 2217.53 53.5872C2218 52.8988 2218.93 52.7144 2219.62 53.1753L2217.95 55.6682ZM2233.82 67.3847C2234.29 68.0731 2234.1 69.0048 2233.41 69.4657C2232.72 69.9265 2231.79 69.7421 2231.33 69.0537L2233.82 67.3847ZM2238.58 86.533C2238.42 85.7203 2238.94 84.9312 2239.76 84.7704C2240.57 84.6096 2241.36 85.1381 2241.52 85.9508L2238.58 86.533ZM2242.5 105.083C2242.5 105.912 2241.83 106.583 2241 106.583C2240.17 106.583 2239.5 105.912 2239.5 105.083H2242.5ZM2239.5 123.25C2239.5 122.422 2240.17 121.75 2241 121.75C2241.83 121.75 2242.5 122.422 2242.5 123.25H2239.5ZM2242.5 141.417C2242.5 142.245 2241.83 142.917 2241 142.917C2240.17 142.917 2239.5 142.245 2239.5 141.417H2242.5ZM2239.5 159.583C2239.5 158.755 2240.17 158.083 2241 158.083C2241.83 158.083 2242.5 158.755 2242.5 159.583H2239.5ZM2242.5 177.75C2242.5 178.578 2241.83 179.25 2241 179.25C2240.17 179.25 2239.5 178.578 2239.5 177.75H2242.5ZM2239.5 195.917C2239.5 195.088 2240.17 194.417 2241 194.417C2241.83 194.417 2242.5 195.088 2242.5 195.917H2239.5ZM139.5 205V195.917H142.5V205H139.5ZM139.5 177.75V159.583H142.5V177.75H139.5ZM139.5 141.417V123.25H142.5V141.417H139.5ZM139.5 105.083V96H142.5V105.083H139.5ZM139.5 96C139.5 92.5625 139.837 89.2022 140.48 85.9508L143.423 86.533C142.818 89.5937 142.5 92.759 142.5 96H139.5ZM148.175 67.3847C151.935 61.7692 156.769 56.9348 162.385 53.1753L164.054 55.6682C158.764 59.2095 154.21 63.7641 150.668 69.0537L148.175 67.3847ZM180.951 45.4802C184.202 44.837 187.563 44.5 191 44.5V47.5C187.759 47.5 184.594 47.8177 181.533 48.4232L180.951 45.4802ZM191 44.5H201V47.5H191V44.5ZM221 44.5H241V47.5H221V44.5ZM261 44.5H281V47.5H261V44.5ZM301 44.5H321V47.5H301V44.5ZM341 44.5H361V47.5H341V44.5ZM381 44.5H401V47.5H381V44.5ZM421 44.5H441V47.5H421V44.5ZM461 44.5H481V47.5H461V44.5ZM501 44.5H521V47.5H501V44.5ZM541 44.5H561V47.5H541V44.5ZM581 44.5H601V47.5H581V44.5ZM621 44.5H641V47.5H621V44.5ZM661 44.5H681V47.5H661V44.5ZM701 44.5H721V47.5H701V44.5ZM741 44.5H761V47.5H741V44.5ZM781 44.5H801V47.5H781V44.5ZM821 44.5H841V47.5H821V44.5ZM861 44.5H881V47.5H861V44.5ZM901 44.5H921V47.5H901V44.5ZM941 44.5H961V47.5H941V44.5ZM981 44.5H1001V47.5H981V44.5ZM1021 44.5H1041V47.5H1021V44.5ZM1061 44.5H1081V47.5H1061V44.5ZM1101 44.5H1121V47.5H1101V44.5ZM1141 44.5H1161V47.5H1141V44.5ZM1181 44.5H1201V47.5H1181V44.5ZM1221 44.5H1241V47.5H1221V44.5ZM1261 44.5H1281V47.5H1261V44.5ZM1301 44.5H1321V47.5H1301V44.5ZM1341 44.5H1361V47.5H1341V44.5ZM1381 44.5H1401V47.5H1381V44.5ZM1421 44.5H1441V47.5H1421V44.5ZM1461 44.5H1481V47.5H1461V44.5ZM1501 44.5H1521V47.5H1501V44.5ZM1541 44.5H1561V47.5H1541V44.5ZM1581 44.5H1601V47.5H1581V44.5ZM1621 44.5H1641V47.5H1621V44.5ZM1661 44.5H1681V47.5H1661V44.5ZM1701 44.5H1721V47.5H1701V44.5ZM1741 44.5H1761V47.5H1741V44.5ZM1781 44.5H1801V47.5H1781V44.5ZM1821 44.5H1841V47.5H1821V44.5ZM1861 44.5H1881V47.5H1861V44.5ZM1901 44.5H1921V47.5H1901V44.5ZM1941 44.5H1961V47.5H1941V44.5ZM1981 44.5H2001V47.5H1981V44.5ZM2021 44.5H2041V47.5H2021V44.5ZM2061 44.5H2081V47.5H2061V44.5ZM2101 44.5H2121V47.5H2101V44.5ZM2141 44.5H2161V47.5H2141V44.5ZM2181 44.5H2191V47.5H2181V44.5ZM2191 44.5C2194.44 44.5 2197.8 44.837 2201.05 45.4802L2200.47 48.4232C2197.41 47.8177 2194.24 47.5 2191 47.5V44.5ZM2219.62 53.1753C2225.23 56.9348 2230.07 61.7692 2233.82 67.3847L2231.33 69.0537C2227.79 63.7641 2223.24 59.2095 2217.95 55.6682L2219.62 53.1753ZM2241.52 85.9508C2242.16 89.2022 2242.5 92.5625 2242.5 96H2239.5C2239.5 92.759 2239.18 89.5937 2238.58 86.533L2241.52 85.9508ZM2242.5 96V105.083H2239.5V96H2242.5ZM2242.5 123.25V141.417H2239.5V123.25H2242.5ZM2242.5 159.583V177.75H2239.5V159.583H2242.5ZM2242.5 195.917V205H2239.5V195.917H2242.5Z" fill="#858585"/>
</svg>
