<svg width="2350" height="630" viewBox="0 0 2350 630" fill="none" xmlns="http://www.w3.org/2000/svg">
<path d="M879 286C878.172 286 877.5 286.672 877.5 287.5C877.5 288.328 878.172 289 879 289L879 286ZM940.061 288.561C940.646 287.975 940.646 287.025 940.061 286.439L930.515 276.893C929.929 276.308 928.979 276.308 928.393 276.893C927.808 277.479 927.808 278.429 928.393 279.015L936.879 287.5L928.393 295.985C927.808 296.571 927.808 297.521 928.393 298.107C928.979 298.692 929.929 298.692 930.515 298.107L940.061 288.561ZM879 289L909 289L909 286L879 286L879 289ZM909 289L939 289L939 286L909 286L909 289Z" fill="#858585"/>
<path d="M1279 286C1278.17 286 1277.5 286.672 1277.5 287.5C1277.5 288.328 1278.17 289 1279 289L1279 286ZM1340.06 288.561C1340.65 287.975 1340.65 287.025 1340.06 286.439L1330.51 276.893C1329.93 276.308 1328.98 276.308 1328.39 276.893C1327.81 277.479 1327.81 278.429 1328.39 279.015L1336.88 287.5L1328.39 295.985C1327.81 296.571 1327.81 297.521 1328.39 298.107C1328.98 298.692 1329.93 298.692 1330.51 298.107L1340.06 288.561ZM1279 289L1309 289L1309 286L1279 286L1279 289ZM1309 289L1339 289L1339 286L1309 286L1309 289Z" fill="#858585"/>
<path d="M1680 286C1679.17 286 1678.5 286.672 1678.5 287.5C1678.5 288.328 1679.17 289 1680 289L1680 286ZM1741.06 288.561C1741.65 287.975 1741.65 287.025 1741.06 286.439L1731.51 276.893C1730.93 276.308 1729.98 276.308 1729.39 276.893C1728.81 277.479 1728.81 278.429 1729.39 279.015L1737.88 287.5L1729.39 295.985C1728.81 296.571 1728.81 297.521 1729.39 298.107C1729.98 298.692 1730.93 298.692 1731.51 298.107L1741.06 288.561ZM1680 289L1710 289L1710 286L1680 286L1680 289ZM1710 289L1740 289L1740 286L1710 286L1710 289Z" fill="#858585"/>
<path d="M2030 286C2029.17 286 2028.5 286.672 2028.5 287.5C2028.5 288.328 2029.17 289 2030 289L2030 286ZM2091.06 288.561C2091.65 287.975 2091.65 287.025 2091.06 286.439L2081.51 276.893C2080.93 276.308 2079.98 276.308 2079.39 276.893C2078.81 277.479 2078.81 278.429 2079.39 279.015L2087.88 287.5L2079.39 295.985C2078.81 296.571 2078.81 297.521 2079.39 298.107C2079.98 298.692 2080.93 298.692 2081.51 298.107L2091.06 288.561ZM2030 289L2060 289L2060 286L2030 286L2030 289ZM2060 289L2090 289L2090 286L2060 286L2060 289Z" fill="#858585"/>
<path d="M633 287C633 253.863 659.863 227 693 227H817C850.137 227 877 253.863 877 287V287C877 320.137 850.137 347 817 347H693C659.863 347 633 320.137 633 287V287Z" fill="#F8F8F8"/>
<path d="M704.06 298.366C705.681 298.366 707.136 298.059 708.425 297.443C709.714 296.818 710.764 295.954 711.574 294.851C712.385 293.747 712.878 292.478 713.054 291.042L713.083 290.881H709.377L709.333 291.027C709.108 291.896 708.752 292.634 708.264 293.239C707.775 293.845 707.175 294.309 706.462 294.631C705.759 294.943 704.958 295.1 704.06 295.1C702.839 295.1 701.77 294.787 700.852 294.162C699.943 293.527 699.24 292.639 698.742 291.496C698.244 290.344 697.995 288.986 697.995 287.424V287.409C697.995 285.837 698.244 284.484 698.742 283.352C699.24 282.209 699.943 281.325 700.852 280.7C701.76 280.075 702.829 279.763 704.06 279.763C704.978 279.763 705.793 279.924 706.506 280.246C707.219 280.568 707.81 281.022 708.278 281.608C708.747 282.194 709.084 282.893 709.289 283.703L709.362 283.981H713.068L713.054 283.835C712.868 282.399 712.37 281.13 711.56 280.026C710.749 278.923 709.699 278.059 708.41 277.434C707.131 276.809 705.681 276.496 704.06 276.496C702.038 276.496 700.285 276.94 698.801 277.829C697.316 278.708 696.169 279.963 695.358 281.594C694.548 283.225 694.143 285.163 694.143 287.409V287.424C694.143 289.67 694.543 291.613 695.344 293.254C696.154 294.885 697.302 296.145 698.786 297.033C700.28 297.922 702.038 298.366 704.06 298.366ZM720.114 298.264C720.798 298.264 721.438 298.156 722.033 297.941C722.639 297.727 723.176 297.419 723.645 297.019C724.113 296.618 724.494 296.149 724.787 295.612H724.875V298H728.508V287.321C728.508 286.276 728.244 285.368 727.717 284.597C727.199 283.825 726.462 283.225 725.505 282.795C724.558 282.365 723.435 282.15 722.136 282.15C720.827 282.15 719.694 282.36 718.737 282.78C717.79 283.2 717.048 283.776 716.511 284.509C715.974 285.231 715.666 286.052 715.588 286.97L715.573 287.146H718.942L718.972 287.014C719.099 286.438 719.421 285.969 719.938 285.607C720.456 285.236 721.145 285.051 722.004 285.051C722.932 285.051 723.64 285.28 724.128 285.739C724.626 286.188 724.875 286.804 724.875 287.585V292.243C724.875 292.858 724.714 293.41 724.392 293.898C724.069 294.387 723.63 294.772 723.073 295.056C722.526 295.339 721.901 295.48 721.198 295.48C720.397 295.48 719.753 295.3 719.265 294.938C718.786 294.567 718.547 294.064 718.547 293.43V293.415C718.547 292.8 718.786 292.307 719.265 291.936C719.743 291.564 720.432 291.35 721.33 291.291L726.75 290.954V288.537L720.817 288.903C718.942 289.011 717.487 289.47 716.452 290.28C715.427 291.081 714.914 292.17 714.914 293.547V293.576C714.914 294.494 715.129 295.31 715.559 296.022C715.998 296.726 716.608 297.277 717.39 297.678C718.181 298.068 719.089 298.264 720.114 298.264ZM737.224 298.308C737.604 298.308 737.946 298.293 738.249 298.264C738.562 298.234 738.825 298.205 739.04 298.176V295.437C738.913 295.446 738.776 295.461 738.63 295.48C738.493 295.49 738.332 295.495 738.146 295.495C737.492 295.495 736.994 295.354 736.652 295.07C736.32 294.777 736.154 294.255 736.154 293.503V285.285H739.04V282.473H736.154V278.532H732.448V282.473H730.251V285.285H732.448V293.796C732.448 295.397 732.839 296.55 733.62 297.253C734.411 297.956 735.612 298.308 737.224 298.308ZM748.078 298.308C749.084 298.308 749.982 298.176 750.773 297.912C751.564 297.639 752.248 297.272 752.824 296.813C753.4 296.354 753.859 295.842 754.201 295.275C754.543 294.699 754.777 294.113 754.904 293.518L754.934 293.356H751.535L751.506 293.459C751.389 293.811 751.179 294.138 750.876 294.44C750.583 294.743 750.207 294.992 749.748 295.188C749.289 295.373 748.757 295.466 748.151 295.466C747.341 295.466 746.643 295.29 746.057 294.938C745.471 294.577 745.017 294.064 744.694 293.4C744.382 292.727 744.226 291.916 744.226 290.969V289.562C744.226 288.586 744.382 287.756 744.694 287.072C745.017 286.389 745.456 285.876 746.013 285.534C746.579 285.183 747.224 285.007 747.946 285.007C748.659 285.007 749.289 285.178 749.836 285.52C750.383 285.852 750.812 286.354 751.125 287.028C751.438 287.702 751.594 288.547 751.594 289.562V290.969L753.352 288.698H742.409V291.13H755.095V289.958C755.095 288.396 754.802 287.028 754.216 285.856C753.64 284.685 752.81 283.776 751.726 283.132C750.651 282.478 749.377 282.15 747.902 282.15C746.418 282.15 745.129 282.487 744.035 283.161C742.951 283.835 742.106 284.782 741.501 286.003C740.905 287.214 740.607 288.635 740.607 290.266V290.28C740.607 291.921 740.905 293.342 741.501 294.543C742.097 295.744 742.951 296.672 744.064 297.326C745.188 297.98 746.525 298.308 748.078 298.308ZM764.426 303.435C765.93 303.435 767.229 303.19 768.322 302.702C769.416 302.214 770.261 301.525 770.856 300.637C771.452 299.758 771.75 298.732 771.75 297.561V282.473H768.103V285.109H768.015C767.722 284.514 767.341 283.996 766.872 283.557C766.413 283.117 765.876 282.775 765.261 282.531C764.646 282.277 763.972 282.15 763.239 282.15C761.931 282.15 760.793 282.473 759.826 283.117C758.859 283.762 758.107 284.675 757.57 285.856C757.043 287.028 756.779 288.435 756.779 290.075V290.09C756.779 291.701 757.038 293.093 757.556 294.265C758.083 295.427 758.825 296.325 759.782 296.96C760.749 297.595 761.882 297.912 763.181 297.912C763.923 297.912 764.606 297.8 765.231 297.575C765.866 297.351 766.418 297.038 766.887 296.638C767.365 296.237 767.746 295.759 768.029 295.202H768.103V297.443C768.103 298.43 767.785 299.216 767.15 299.802C766.516 300.388 765.603 300.681 764.411 300.681C763.474 300.681 762.697 300.529 762.082 300.227C761.477 299.934 761.076 299.562 760.881 299.113L760.822 298.996H757.248L757.277 299.128C757.424 299.938 757.8 300.671 758.405 301.325C759.011 301.979 759.821 302.492 760.837 302.863C761.862 303.244 763.059 303.435 764.426 303.435ZM764.323 295.1C763.542 295.1 762.863 294.899 762.287 294.499C761.711 294.099 761.267 293.532 760.954 292.8C760.642 292.058 760.485 291.179 760.485 290.163V290.148C760.485 289.133 760.642 288.259 760.954 287.526C761.267 286.794 761.711 286.228 762.287 285.827C762.863 285.427 763.542 285.227 764.323 285.227C765.075 285.227 765.734 285.427 766.301 285.827C766.867 286.228 767.312 286.799 767.634 287.541C767.956 288.273 768.117 289.143 768.117 290.148V290.163C768.117 291.159 767.956 292.028 767.634 292.771C767.321 293.513 766.882 294.089 766.315 294.499C765.749 294.899 765.085 295.1 764.323 295.1ZM781.608 298.308C783.132 298.308 784.455 297.985 785.578 297.341C786.701 296.696 787.57 295.773 788.186 294.572C788.811 293.361 789.123 291.916 789.123 290.236V290.207C789.123 288.537 788.811 287.102 788.186 285.9C787.561 284.699 786.682 283.776 785.549 283.132C784.426 282.478 783.107 282.15 781.594 282.15C780.09 282.15 778.776 282.478 777.653 283.132C776.53 283.776 775.656 284.704 775.031 285.915C774.406 287.116 774.094 288.547 774.094 290.207V290.236C774.094 291.906 774.401 293.347 775.017 294.558C775.642 295.759 776.516 296.687 777.639 297.341C778.762 297.985 780.085 298.308 781.608 298.308ZM781.623 295.363C780.852 295.363 780.178 295.163 779.602 294.763C779.035 294.362 778.591 293.781 778.269 293.02C777.956 292.248 777.8 291.32 777.8 290.236V290.207C777.8 289.133 777.956 288.215 778.269 287.453C778.591 286.691 779.035 286.11 779.602 285.71C780.178 285.31 780.842 285.109 781.594 285.109C782.365 285.109 783.034 285.31 783.601 285.71C784.177 286.11 784.621 286.691 784.934 287.453C785.246 288.215 785.402 289.133 785.402 290.207V290.236C785.402 291.32 785.246 292.248 784.934 293.02C784.631 293.781 784.196 294.362 783.63 294.763C783.063 295.163 782.395 295.363 781.623 295.363ZM791.467 298H795.1V288.991C795.1 288.22 795.231 287.565 795.495 287.028C795.759 286.491 796.14 286.086 796.638 285.812C797.136 285.529 797.727 285.388 798.41 285.388C798.723 285.388 799.011 285.407 799.274 285.446C799.548 285.485 799.758 285.534 799.904 285.593V282.297C799.768 282.258 799.597 282.224 799.392 282.194C799.187 282.165 798.972 282.15 798.747 282.15C797.849 282.15 797.087 282.419 796.462 282.956C795.847 283.483 795.422 284.216 795.188 285.153H795.1V282.473H791.467V298ZM804.357 303.156C805.432 303.156 806.359 303.005 807.141 302.702C807.932 302.409 808.605 301.921 809.162 301.237C809.719 300.563 810.192 299.66 810.583 298.527L816.179 282.473H812.341L808.474 295.656L809.03 294.895H808.254L808.811 295.656L804.943 282.473H800.974L806.555 298.015L806.335 298.645C806.101 299.299 805.778 299.743 805.368 299.978C804.958 300.222 804.401 300.344 803.698 300.344C803.435 300.344 803.2 300.329 802.995 300.3C802.79 300.271 802.619 300.246 802.482 300.227V302.995C802.707 303.034 802.985 303.068 803.317 303.098C803.659 303.137 804.006 303.156 804.357 303.156Z" fill="#181818"/>
<path d="M645 427C645 393.863 671.863 367 705 367H805C838.137 367 865 393.863 865 427V427C865 460.137 838.137 487 805 487H705C671.863 487 645 460.137 645 427V427Z" fill="#F8F8F8"/>
<path d="M714.287 438.366C716.006 438.366 717.48 438.103 718.711 437.575C719.951 437.048 720.898 436.301 721.553 435.334C722.217 434.367 722.549 433.229 722.549 431.921V431.906C722.549 430.256 722.046 428.962 721.04 428.024C720.034 427.077 718.428 426.374 716.221 425.915L713.95 425.446C712.681 425.183 711.743 424.821 711.138 424.362C710.542 423.894 710.244 423.288 710.244 422.546V422.531C710.244 421.965 710.405 421.467 710.728 421.037C711.06 420.607 711.523 420.275 712.119 420.041C712.725 419.797 713.438 419.675 714.258 419.675C715.049 419.675 715.747 419.792 716.353 420.026C716.958 420.261 717.446 420.598 717.817 421.037C718.188 421.467 718.418 421.989 718.506 422.604L718.535 422.795H722.139L722.124 422.546C722.056 421.345 721.689 420.29 721.025 419.382C720.371 418.474 719.468 417.766 718.315 417.258C717.163 416.75 715.82 416.496 714.287 416.496C712.773 416.496 711.426 416.76 710.244 417.287C709.062 417.805 708.135 418.532 707.461 419.47C706.797 420.397 706.46 421.486 706.45 422.736V422.751C706.45 424.323 706.968 425.603 708.003 426.589C709.038 427.565 710.591 428.269 712.661 428.698L714.932 429.167C716.299 429.46 717.275 429.836 717.861 430.295C718.457 430.754 718.755 431.379 718.755 432.17V432.185C718.755 432.79 718.579 433.322 718.228 433.781C717.876 434.23 717.373 434.577 716.719 434.821C716.074 435.065 715.308 435.188 714.419 435.188C713.54 435.188 712.754 435.07 712.061 434.836C711.377 434.592 710.825 434.25 710.405 433.811C709.985 433.371 709.722 432.849 709.614 432.243L709.585 432.067H705.981L705.996 432.287C706.084 433.547 706.475 434.631 707.168 435.539C707.871 436.447 708.828 437.146 710.039 437.634C711.25 438.122 712.666 438.366 714.287 438.366ZM731.836 438.308C732.842 438.308 733.74 438.176 734.531 437.912C735.322 437.639 736.006 437.272 736.582 436.813C737.158 436.354 737.617 435.842 737.959 435.275C738.301 434.699 738.535 434.113 738.662 433.518L738.691 433.356H735.293L735.264 433.459C735.146 433.811 734.937 434.138 734.634 434.44C734.341 434.743 733.965 434.992 733.506 435.188C733.047 435.373 732.515 435.466 731.909 435.466C731.099 435.466 730.4 435.29 729.814 434.938C729.229 434.577 728.774 434.064 728.452 433.4C728.14 432.727 727.983 431.916 727.983 430.969V429.562C727.983 428.586 728.14 427.756 728.452 427.072C728.774 426.389 729.214 425.876 729.771 425.534C730.337 425.183 730.981 425.007 731.704 425.007C732.417 425.007 733.047 425.178 733.594 425.52C734.141 425.852 734.57 426.354 734.883 427.028C735.195 427.702 735.352 428.547 735.352 429.562V430.969L737.109 428.698H726.167V431.13H738.853V429.958C738.853 428.396 738.56 427.028 737.974 425.856C737.397 424.685 736.567 423.776 735.483 423.132C734.409 422.478 733.135 422.15 731.66 422.15C730.176 422.15 728.887 422.487 727.793 423.161C726.709 423.835 725.864 424.782 725.259 426.003C724.663 427.214 724.365 428.635 724.365 430.266V430.28C724.365 431.921 724.663 433.342 725.259 434.543C725.854 435.744 726.709 436.672 727.822 437.326C728.945 437.98 730.283 438.308 731.836 438.308ZM741.182 438H744.814V428.991C744.814 428.22 744.946 427.565 745.21 427.028C745.474 426.491 745.854 426.086 746.353 425.812C746.851 425.529 747.441 425.388 748.125 425.388C748.438 425.388 748.726 425.407 748.989 425.446C749.263 425.485 749.473 425.534 749.619 425.593V422.297C749.482 422.258 749.312 422.224 749.106 422.194C748.901 422.165 748.687 422.15 748.462 422.15C747.563 422.15 746.802 422.419 746.177 422.956C745.562 423.483 745.137 424.216 744.902 425.153H744.814V422.473H741.182V438ZM756.182 438H760.195L765.659 422.473H761.865L758.262 434.616H758.174L754.57 422.473H750.688L756.182 438ZM767.446 438H771.094V422.473H767.446V438ZM769.263 420.246C769.839 420.246 770.322 420.051 770.713 419.66C771.104 419.27 771.299 418.801 771.299 418.254C771.299 417.697 771.104 417.229 770.713 416.848C770.322 416.457 769.839 416.262 769.263 416.262C768.696 416.262 768.218 416.457 767.827 416.848C767.437 417.229 767.241 417.697 767.241 418.254C767.241 418.801 767.437 419.27 767.827 419.66C768.218 420.051 768.696 420.246 769.263 420.246ZM781.055 438.308C782.363 438.308 783.511 438.059 784.497 437.561C785.483 437.053 786.27 436.369 786.855 435.51C787.441 434.65 787.783 433.684 787.881 432.609L787.896 432.507H784.453L784.424 432.639C784.258 433.449 783.887 434.108 783.311 434.616C782.744 435.114 781.997 435.363 781.069 435.363C780.308 435.363 779.639 435.163 779.062 434.763C778.496 434.353 778.052 433.767 777.729 433.005C777.417 432.243 777.261 431.325 777.261 430.251V430.236C777.261 429.172 777.417 428.259 777.729 427.497C778.042 426.735 778.481 426.149 779.048 425.739C779.624 425.319 780.293 425.109 781.055 425.109C782.021 425.109 782.783 425.378 783.34 425.915C783.906 426.442 784.263 427.082 784.409 427.834L784.438 427.951H787.866V427.849C787.788 426.813 787.466 425.866 786.899 425.007C786.333 424.147 785.552 423.459 784.556 422.941C783.56 422.414 782.378 422.15 781.011 422.15C779.507 422.15 778.193 422.478 777.07 423.132C775.957 423.786 775.093 424.719 774.478 425.93C773.862 427.131 773.555 428.557 773.555 430.207V430.222C773.555 431.882 773.857 433.317 774.463 434.528C775.078 435.739 775.947 436.672 777.07 437.326C778.193 437.98 779.521 438.308 781.055 438.308ZM796.904 438.308C797.91 438.308 798.809 438.176 799.6 437.912C800.391 437.639 801.074 437.272 801.65 436.813C802.227 436.354 802.686 435.842 803.027 435.275C803.369 434.699 803.604 434.113 803.73 433.518L803.76 433.356H800.361L800.332 433.459C800.215 433.811 800.005 434.138 799.702 434.44C799.409 434.743 799.033 434.992 798.574 435.188C798.115 435.373 797.583 435.466 796.978 435.466C796.167 435.466 795.469 435.29 794.883 434.938C794.297 434.577 793.843 434.064 793.521 433.4C793.208 432.727 793.052 431.916 793.052 430.969V429.562C793.052 428.586 793.208 427.756 793.521 427.072C793.843 426.389 794.282 425.876 794.839 425.534C795.405 425.183 796.05 425.007 796.772 425.007C797.485 425.007 798.115 425.178 798.662 425.52C799.209 425.852 799.639 426.354 799.951 427.028C800.264 427.702 800.42 428.547 800.42 429.562V430.969L802.178 428.698H791.235V431.13H803.921V429.958C803.921 428.396 803.628 427.028 803.042 425.856C802.466 424.685 801.636 423.776 800.552 423.132C799.478 422.478 798.203 422.15 796.729 422.15C795.244 422.15 793.955 422.487 792.861 423.161C791.777 423.835 790.933 424.782 790.327 426.003C789.731 427.214 789.434 428.635 789.434 430.266V430.28C789.434 431.921 789.731 433.342 790.327 434.543C790.923 435.744 791.777 436.672 792.891 437.326C794.014 437.98 795.352 438.308 796.904 438.308Z" fill="#181818"/>
<path d="M949 287C949 253.863 975.863 227 1009 227H1198C1231.14 227 1258 253.863 1258 287V287C1258 320.137 1231.14 347 1198 347H1009C975.863 347 949 320.137 949 287V287Z" fill="#F8F8F8"/>
<path d="M1016.03 298H1019.8V280.041H1026.11V276.862H1009.7V280.041H1016.03V298ZM1031.53 298.308C1032.54 298.308 1033.43 298.176 1034.22 297.912C1035.02 297.639 1035.7 297.272 1036.28 296.813C1036.85 296.354 1037.31 295.842 1037.65 295.275C1037.99 294.699 1038.23 294.113 1038.36 293.518L1038.38 293.356H1034.99L1034.96 293.459C1034.84 293.811 1034.63 294.138 1034.33 294.44C1034.03 294.743 1033.66 294.992 1033.2 295.188C1032.74 295.373 1032.21 295.466 1031.6 295.466C1030.79 295.466 1030.09 295.29 1029.51 294.938C1028.92 294.577 1028.47 294.064 1028.15 293.4C1027.83 292.727 1027.68 291.916 1027.68 290.969V289.562C1027.68 288.586 1027.83 287.756 1028.15 287.072C1028.47 286.389 1028.91 285.876 1029.46 285.534C1030.03 285.183 1030.67 285.007 1031.4 285.007C1032.11 285.007 1032.74 285.178 1033.29 285.52C1033.83 285.852 1034.26 286.354 1034.58 287.028C1034.89 287.702 1035.04 288.547 1035.04 289.562V290.969L1036.8 288.698H1025.86V291.13H1038.55V289.958C1038.55 288.396 1038.25 287.028 1037.67 285.856C1037.09 284.685 1036.26 283.776 1035.18 283.132C1034.1 282.478 1032.83 282.15 1031.35 282.15C1029.87 282.15 1028.58 282.487 1027.49 283.161C1026.4 283.835 1025.56 284.782 1024.95 286.003C1024.36 287.214 1024.06 288.635 1024.06 290.266V290.28C1024.06 291.921 1024.36 293.342 1024.95 294.543C1025.55 295.744 1026.4 296.672 1027.52 297.326C1028.64 297.98 1029.98 298.308 1031.53 298.308ZM1045.46 298.264C1046.14 298.264 1046.78 298.156 1047.38 297.941C1047.98 297.727 1048.52 297.419 1048.99 297.019C1049.46 296.618 1049.84 296.149 1050.13 295.612H1050.22V298H1053.85V287.321C1053.85 286.276 1053.59 285.368 1053.06 284.597C1052.54 283.825 1051.81 283.225 1050.85 282.795C1049.9 282.365 1048.78 282.15 1047.48 282.15C1046.17 282.15 1045.04 282.36 1044.08 282.78C1043.14 283.2 1042.39 283.776 1041.86 284.509C1041.32 285.231 1041.01 286.052 1040.93 286.97L1040.92 287.146H1044.29L1044.32 287.014C1044.44 286.438 1044.77 285.969 1045.28 285.607C1045.8 285.236 1046.49 285.051 1047.35 285.051C1048.28 285.051 1048.99 285.28 1049.47 285.739C1049.97 286.188 1050.22 286.804 1050.22 287.585V292.243C1050.22 292.858 1050.06 293.41 1049.74 293.898C1049.42 294.387 1048.98 294.772 1048.42 295.056C1047.87 295.339 1047.25 295.48 1046.54 295.48C1045.74 295.48 1045.1 295.3 1044.61 294.938C1044.13 294.567 1043.89 294.064 1043.89 293.43V293.415C1043.89 292.8 1044.13 292.307 1044.61 291.936C1045.09 291.564 1045.78 291.35 1046.68 291.291L1052.1 290.954V288.537L1046.16 288.903C1044.29 289.011 1042.83 289.47 1041.8 290.28C1040.77 291.081 1040.26 292.17 1040.26 293.547V293.576C1040.26 294.494 1040.47 295.31 1040.9 296.022C1041.34 296.726 1041.95 297.277 1042.74 297.678C1043.53 298.068 1044.43 298.264 1045.46 298.264ZM1056.81 298H1060.45V288.493C1060.45 287.858 1060.57 287.297 1060.83 286.809C1061.09 286.32 1061.45 285.935 1061.9 285.651C1062.34 285.368 1062.86 285.227 1063.45 285.227C1064.3 285.227 1064.97 285.48 1065.46 285.988C1065.95 286.486 1066.2 287.175 1066.2 288.054V298H1069.75V288.405C1069.75 287.78 1069.87 287.229 1070.11 286.75C1070.37 286.271 1070.71 285.9 1071.15 285.637C1071.6 285.363 1072.12 285.227 1072.71 285.227C1073.6 285.227 1074.29 285.49 1074.77 286.018C1075.25 286.545 1075.49 287.287 1075.49 288.244V298H1079.14V287.351C1079.14 286.306 1078.92 285.397 1078.49 284.626C1078.07 283.845 1077.48 283.239 1076.72 282.81C1075.97 282.37 1075.08 282.15 1074.05 282.15C1073.31 282.15 1072.62 282.282 1071.97 282.546C1071.34 282.8 1070.78 283.161 1070.3 283.63C1069.83 284.089 1069.47 284.641 1069.22 285.285H1069.15C1068.96 284.621 1068.66 284.06 1068.25 283.601C1067.85 283.132 1067.36 282.775 1066.79 282.531C1066.21 282.277 1065.56 282.15 1064.84 282.15C1063.81 282.15 1062.92 282.409 1062.16 282.927C1061.4 283.435 1060.86 284.113 1060.53 284.963H1060.45V282.473H1056.81V298ZM1088.47 298H1091.87V282.956H1093.61L1089.76 277.448L1098.08 298H1100.64L1108.96 277.448L1105.11 282.956H1106.85V298H1110.25V276.862H1105.88L1099.41 293.02H1099.31L1092.83 276.862H1088.47V298ZM1120.45 298.308C1121.45 298.308 1122.35 298.176 1123.14 297.912C1123.93 297.639 1124.62 297.272 1125.19 296.813C1125.77 296.354 1126.23 295.842 1126.57 295.275C1126.91 294.699 1127.14 294.113 1127.27 293.518L1127.3 293.356H1123.9L1123.87 293.459C1123.76 293.811 1123.55 294.138 1123.24 294.44C1122.95 294.743 1122.57 294.992 1122.12 295.188C1121.66 295.373 1121.12 295.466 1120.52 295.466C1119.71 295.466 1119.01 295.29 1118.42 294.938C1117.84 294.577 1117.38 294.064 1117.06 293.4C1116.75 292.727 1116.59 291.916 1116.59 290.969V289.562C1116.59 288.586 1116.75 287.756 1117.06 287.072C1117.38 286.389 1117.82 285.876 1118.38 285.534C1118.95 285.183 1119.59 285.007 1120.31 285.007C1121.03 285.007 1121.66 285.178 1122.2 285.52C1122.75 285.852 1123.18 286.354 1123.49 287.028C1123.8 287.702 1123.96 288.547 1123.96 289.562V290.969L1125.72 288.698H1114.78V291.13H1127.46V289.958C1127.46 288.396 1127.17 287.028 1126.58 285.856C1126.01 284.685 1125.18 283.776 1124.09 283.132C1123.02 282.478 1121.74 282.15 1120.27 282.15C1118.79 282.15 1117.5 282.487 1116.4 283.161C1115.32 283.835 1114.47 284.782 1113.87 286.003C1113.27 287.214 1112.97 288.635 1112.97 290.266V290.28C1112.97 291.921 1113.27 293.342 1113.87 294.543C1114.46 295.744 1115.32 296.672 1116.43 297.326C1117.55 297.98 1118.89 298.308 1120.45 298.308ZM1129.79 298H1133.42V288.493C1133.42 287.858 1133.55 287.297 1133.8 286.809C1134.07 286.32 1134.42 285.935 1134.87 285.651C1135.32 285.368 1135.84 285.227 1136.43 285.227C1137.28 285.227 1137.95 285.48 1138.43 285.988C1138.93 286.486 1139.18 287.175 1139.18 288.054V298H1142.73V288.405C1142.73 287.78 1142.85 287.229 1143.09 286.75C1143.35 286.271 1143.69 285.9 1144.13 285.637C1144.58 285.363 1145.1 285.227 1145.68 285.227C1146.58 285.227 1147.27 285.49 1147.75 286.018C1148.23 286.545 1148.47 287.287 1148.47 288.244V298H1152.12V287.351C1152.12 286.306 1151.9 285.397 1151.47 284.626C1151.05 283.845 1150.46 283.239 1149.7 282.81C1148.95 282.37 1148.06 282.15 1147.03 282.15C1146.29 282.15 1145.6 282.282 1144.95 282.546C1144.32 282.8 1143.76 283.161 1143.28 283.63C1142.81 284.089 1142.45 284.641 1142.2 285.285H1142.12C1141.94 284.621 1141.64 284.06 1141.23 283.601C1140.83 283.132 1140.34 282.775 1139.77 282.531C1139.19 282.277 1138.54 282.15 1137.82 282.15C1136.79 282.15 1135.9 282.409 1135.14 282.927C1134.38 283.435 1133.83 284.113 1133.51 284.963H1133.42V282.473H1129.79V298ZM1163.7 298.308C1165.02 298.308 1166.16 297.985 1167.12 297.341C1168.08 296.687 1168.82 295.754 1169.34 294.543C1169.87 293.332 1170.13 291.896 1170.13 290.236V290.222C1170.13 288.552 1169.87 287.116 1169.34 285.915C1168.81 284.704 1168.07 283.776 1167.12 283.132C1166.16 282.478 1165.03 282.15 1163.73 282.15C1162.63 282.15 1161.65 282.419 1160.8 282.956C1159.96 283.483 1159.32 284.211 1158.87 285.139H1158.79V276.862H1155.15V298H1158.79V295.363H1158.87C1159.32 296.281 1159.96 297.004 1160.79 297.531C1161.62 298.049 1162.59 298.308 1163.7 298.308ZM1162.62 295.246C1161.87 295.246 1161.2 295.041 1160.63 294.631C1160.05 294.221 1159.6 293.64 1159.26 292.888C1158.94 292.136 1158.78 291.252 1158.78 290.236V290.222C1158.78 289.206 1158.95 288.327 1159.28 287.585C1159.61 286.833 1160.06 286.252 1160.63 285.842C1161.2 285.432 1161.87 285.227 1162.62 285.227C1163.4 285.227 1164.07 285.432 1164.64 285.842C1165.21 286.242 1165.64 286.813 1165.94 287.556C1166.26 288.298 1166.41 289.187 1166.41 290.222V290.236C1166.41 291.262 1166.26 292.15 1165.96 292.902C1165.66 293.654 1165.22 294.235 1164.64 294.646C1164.07 295.046 1163.4 295.246 1162.62 295.246ZM1179.3 298.308C1180.31 298.308 1181.21 298.176 1182 297.912C1182.79 297.639 1183.47 297.272 1184.05 296.813C1184.62 296.354 1185.08 295.842 1185.43 295.275C1185.77 294.699 1186 294.113 1186.13 293.518L1186.16 293.356H1182.76L1182.73 293.459C1182.61 293.811 1182.4 294.138 1182.1 294.44C1181.81 294.743 1181.43 294.992 1180.97 295.188C1180.51 295.373 1179.98 295.466 1179.38 295.466C1178.57 295.466 1177.87 295.29 1177.28 294.938C1176.7 294.577 1176.24 294.064 1175.92 293.4C1175.61 292.727 1175.45 291.916 1175.45 290.969V289.562C1175.45 288.586 1175.61 287.756 1175.92 287.072C1176.24 286.389 1176.68 285.876 1177.24 285.534C1177.8 285.183 1178.45 285.007 1179.17 285.007C1179.88 285.007 1180.51 285.178 1181.06 285.52C1181.61 285.852 1182.04 286.354 1182.35 287.028C1182.66 287.702 1182.82 288.547 1182.82 289.562V290.969L1184.58 288.698H1173.63V291.13H1186.32V289.958C1186.32 288.396 1186.03 287.028 1185.44 285.856C1184.86 284.685 1184.03 283.776 1182.95 283.132C1181.88 282.478 1180.6 282.15 1179.13 282.15C1177.64 282.15 1176.35 282.487 1175.26 283.161C1174.18 283.835 1173.33 284.782 1172.73 286.003C1172.13 287.214 1171.83 288.635 1171.83 290.266V290.28C1171.83 291.921 1172.13 293.342 1172.73 294.543C1173.32 295.744 1174.18 296.672 1175.29 297.326C1176.41 297.98 1177.75 298.308 1179.3 298.308ZM1188.65 298H1192.28V288.991C1192.28 288.22 1192.41 287.565 1192.68 287.028C1192.94 286.491 1193.32 286.086 1193.82 285.812C1194.32 285.529 1194.91 285.388 1195.59 285.388C1195.9 285.388 1196.19 285.407 1196.46 285.446C1196.73 285.485 1196.94 285.534 1197.09 285.593V282.297C1196.95 282.258 1196.78 282.224 1196.57 282.194C1196.37 282.165 1196.15 282.15 1195.93 282.15C1195.03 282.15 1194.27 282.419 1193.64 282.956C1193.03 283.483 1192.6 284.216 1192.37 285.153H1192.28V282.473H1188.65V298Z" fill="#181818"/>
<path d="M2200.16 298.366C2205.27 298.366 2208.98 295.158 2209.39 290.661L2209.41 290.5H2205.1L2205.07 290.646C2204.5 293.151 2202.71 294.616 2200.16 294.616C2196.78 294.616 2194.61 291.862 2194.61 287.409V287.395C2194.61 282.971 2196.78 280.246 2200.16 280.246C2202.8 280.246 2204.53 281.77 2205.03 284.099L2205.08 284.348H2209.39L2209.38 284.216C2208.97 279.733 2205.29 276.496 2200.16 276.496C2194 276.496 2190.1 280.598 2190.1 287.409V287.424C2190.1 294.235 2193.98 298.366 2200.16 298.366ZM2218.99 298.322C2223.73 298.322 2226.76 295.275 2226.76 290.148V290.119C2226.76 285.036 2223.67 281.975 2218.97 281.975C2214.28 281.975 2211.21 285.065 2211.21 290.119V290.148C2211.21 295.261 2214.21 298.322 2218.99 298.322ZM2219 294.968C2216.89 294.968 2215.56 293.225 2215.56 290.148V290.119C2215.56 287.087 2216.91 285.329 2218.97 285.329C2221.05 285.329 2222.41 287.087 2222.41 290.119V290.148C2222.41 293.21 2221.08 294.968 2219 294.968ZM2228.98 298H2233.25V288.977C2233.25 286.926 2234.47 285.52 2236.39 285.52C2238.31 285.52 2239.27 286.691 2239.27 288.742V298H2243.55V287.863C2243.55 284.187 2241.59 281.975 2238.13 281.975C2235.76 281.975 2234.15 283.073 2233.34 284.875H2233.25V282.297H2228.98V298ZM2247.4 298H2251.68V285.52H2254.7V282.297H2251.58V281.198C2251.58 280.07 2252.21 279.47 2253.63 279.47C2254.02 279.47 2254.43 279.484 2254.73 279.543V276.716C2254.23 276.613 2253.37 276.54 2252.57 276.54C2248.87 276.54 2247.4 277.961 2247.4 281.037V282.297H2245.26V285.52H2247.4V298ZM2259.18 280.275C2260.47 280.275 2261.47 279.265 2261.47 278.049C2261.47 276.833 2260.47 275.822 2259.18 275.822C2257.89 275.822 2256.9 276.833 2256.9 278.049C2256.9 279.265 2257.89 280.275 2259.18 280.275ZM2257.04 298H2261.32V282.297H2257.04V298ZM2264.19 298H2268.47V289.211C2268.47 286.926 2269.7 285.666 2271.81 285.666C2272.42 285.666 2273.01 285.754 2273.36 285.9V282.136C2273.04 282.048 2272.6 281.975 2272.13 281.975C2270.3 281.975 2269.02 283.103 2268.56 285.036H2268.47V282.297H2264.19V298ZM2275.12 298H2279.4V288.522C2279.4 286.75 2280.49 285.52 2282.12 285.52C2283.7 285.52 2284.65 286.516 2284.65 288.2V298H2288.77V288.449C2288.77 286.706 2289.84 285.52 2291.47 285.52C2293.12 285.52 2294.03 286.516 2294.03 288.332V298H2298.31V287.263C2298.31 284.099 2296.24 281.975 2293.17 281.975C2290.87 281.975 2288.99 283.234 2288.29 285.212H2288.2C2287.67 283.146 2286.08 281.975 2283.88 281.975C2281.77 281.975 2280.13 283.146 2279.48 284.934H2279.4V282.297H2275.12V298Z" fill="#181818"/>
<path d="M2229 228H2260V226H2229V228ZM2260 346H2229V348H2260V346ZM2229 346C2196.42 346 2170 319.585 2170 287H2168C2168 320.689 2195.31 348 2229 348V346ZM2319 287C2319 319.585 2292.58 346 2260 346V348C2293.69 348 2321 320.689 2321 287H2319ZM2260 228C2292.58 228 2319 254.415 2319 287H2321C2321 253.311 2293.69 226 2260 226V228ZM2229 226C2195.31 226 2168 253.311 2168 287H2170C2170 254.415 2196.42 228 2229 228V226Z" fill="black"/>
<path d="M2246.5 207C2246.5 207.828 2245.83 208.5 2245 208.5C2244.17 208.5 2243.5 207.828 2243.5 207H2246.5ZM149.061 208.061C148.475 208.646 147.525 208.646 146.939 208.061L137.393 198.515C136.808 197.929 136.808 196.979 137.393 196.393C137.979 195.808 138.929 195.808 139.515 196.393L148 204.879L156.485 196.393C157.071 195.808 158.021 195.808 158.607 196.393C159.192 196.979 159.192 197.929 158.607 198.515L149.061 208.061ZM146.5 197.917C146.5 197.088 147.172 196.417 148 196.417C148.828 196.417 149.5 197.088 149.5 197.917H146.5ZM149.5 179.75C149.5 180.578 148.828 181.25 148 181.25C147.172 181.25 146.5 180.578 146.5 179.75H149.5ZM146.5 161.583C146.5 160.755 147.172 160.083 148 160.083C148.828 160.083 149.5 160.755 149.5 161.583H146.5ZM149.5 143.417C149.5 144.245 148.828 144.917 148 144.917C147.172 144.917 146.5 144.245 146.5 143.417H149.5ZM146.5 125.25C146.5 124.422 147.172 123.75 148 123.75C148.828 123.75 149.5 124.422 149.5 125.25H146.5ZM149.5 107.083C149.5 107.912 148.828 108.583 148 108.583C147.172 108.583 146.5 107.912 146.5 107.083H149.5ZM147.48 87.9508C147.641 87.1381 148.43 86.6096 149.243 86.7704C150.055 86.9312 150.584 87.7203 150.423 88.533L147.48 87.9508ZM157.668 71.0537C157.207 71.7421 156.276 71.9265 155.587 71.4657C154.899 71.0048 154.714 70.0731 155.175 69.3847L157.668 71.0537ZM169.385 55.1753C170.073 54.7144 171.005 54.8989 171.466 55.5873C171.927 56.2756 171.742 57.2073 171.054 57.6682L169.385 55.1753ZM188.533 50.4232C187.72 50.584 186.931 50.0555 186.77 49.2428C186.61 48.4301 187.138 47.641 187.951 47.4802L188.533 50.4232ZM207.985 46.5C208.813 46.5 209.485 47.1716 209.485 48C209.485 48.8284 208.813 49.5 207.985 49.5V46.5ZM227.955 49.5C227.127 49.5 226.455 48.8284 226.455 48C226.455 47.1716 227.127 46.5 227.955 46.5V49.5ZM247.925 46.5C248.753 46.5 249.425 47.1716 249.425 48C249.425 48.8284 248.753 49.5 247.925 49.5V46.5ZM267.895 49.5C267.067 49.5 266.395 48.8284 266.395 48C266.395 47.1716 267.067 46.5 267.895 46.5V49.5ZM287.865 46.5C288.693 46.5 289.365 47.1716 289.365 48C289.365 48.8284 288.693 49.5 287.865 49.5V46.5ZM307.835 49.5C307.007 49.5 306.335 48.8284 306.335 48C306.335 47.1716 307.007 46.5 307.835 46.5V49.5ZM327.805 46.5C328.633 46.5 329.305 47.1716 329.305 48C329.305 48.8284 328.633 49.5 327.805 49.5V46.5ZM347.775 49.5C346.947 49.5 346.275 48.8284 346.275 48C346.275 47.1716 346.947 46.5 347.775 46.5V49.5ZM367.745 46.5C368.573 46.5 369.245 47.1716 369.245 48C369.245 48.8284 368.573 49.5 367.745 49.5V46.5ZM387.715 49.5C386.887 49.5 386.215 48.8284 386.215 48C386.215 47.1716 386.887 46.5 387.715 46.5V49.5ZM407.685 46.5C408.513 46.5 409.185 47.1716 409.185 48C409.185 48.8284 408.513 49.5 407.685 49.5V46.5ZM427.655 49.5C426.827 49.5 426.155 48.8284 426.155 48C426.155 47.1716 426.827 46.5 427.655 46.5V49.5ZM447.625 46.5C448.453 46.5 449.125 47.1716 449.125 48C449.125 48.8284 448.453 49.5 447.625 49.5V46.5ZM467.595 49.5C466.767 49.5 466.095 48.8284 466.095 48C466.095 47.1716 466.767 46.5 467.595 46.5V49.5ZM487.565 46.5C488.393 46.5 489.065 47.1716 489.065 48C489.065 48.8284 488.393 49.5 487.565 49.5V46.5ZM507.535 49.5C506.707 49.5 506.035 48.8284 506.035 48C506.035 47.1716 506.707 46.5 507.535 46.5V49.5ZM527.505 46.5C528.333 46.5 529.005 47.1716 529.005 48C529.005 48.8284 528.333 49.5 527.505 49.5V46.5ZM547.475 49.5C546.647 49.5 545.975 48.8284 545.975 48C545.975 47.1716 546.647 46.5 547.475 46.5V49.5ZM567.445 46.5C568.273 46.5 568.945 47.1716 568.945 48C568.945 48.8284 568.273 49.5 567.445 49.5V46.5ZM587.415 49.5C586.587 49.5 585.915 48.8284 585.915 48C585.915 47.1716 586.587 46.5 587.415 46.5V49.5ZM607.385 46.5C608.213 46.5 608.885 47.1716 608.885 48C608.885 48.8284 608.213 49.5 607.385 49.5V46.5ZM627.355 49.5C626.527 49.5 625.855 48.8284 625.855 48C625.855 47.1716 626.527 46.5 627.355 46.5V49.5ZM647.325 46.5C648.153 46.5 648.825 47.1716 648.825 48C648.825 48.8284 648.153 49.5 647.325 49.5V46.5ZM667.295 49.5C666.467 49.5 665.795 48.8284 665.795 48C665.795 47.1716 666.467 46.5 667.295 46.5V49.5ZM687.265 46.5C688.093 46.5 688.765 47.1716 688.765 48C688.765 48.8284 688.093 49.5 687.265 49.5V46.5ZM707.235 49.5C706.407 49.5 705.735 48.8284 705.735 48C705.735 47.1716 706.407 46.5 707.235 46.5V49.5ZM727.205 46.5C728.033 46.5 728.705 47.1716 728.705 48C728.705 48.8284 728.033 49.5 727.205 49.5V46.5ZM747.175 49.5C746.347 49.5 745.675 48.8284 745.675 48C745.675 47.1716 746.347 46.5 747.175 46.5V49.5ZM767.145 46.5C767.973 46.5 768.645 47.1716 768.645 48C768.645 48.8284 767.973 49.5 767.145 49.5V46.5ZM787.115 49.5C786.286 49.5 785.615 48.8284 785.615 48C785.615 47.1716 786.286 46.5 787.115 46.5V49.5ZM807.085 46.5C807.913 46.5 808.585 47.1716 808.585 48C808.585 48.8284 807.913 49.5 807.085 49.5V46.5ZM827.055 49.5C826.226 49.5 825.555 48.8284 825.555 48C825.555 47.1716 826.226 46.5 827.055 46.5V49.5ZM847.025 46.5C847.853 46.5 848.525 47.1716 848.525 48C848.525 48.8284 847.853 49.5 847.025 49.5V46.5ZM866.995 49.5C866.166 49.5 865.495 48.8284 865.495 48C865.495 47.1716 866.166 46.5 866.995 46.5V49.5ZM886.965 46.5C887.793 46.5 888.465 47.1716 888.465 48C888.465 48.8284 887.793 49.5 886.965 49.5V46.5ZM906.935 49.5C906.106 49.5 905.435 48.8284 905.435 48C905.435 47.1716 906.106 46.5 906.935 46.5V49.5ZM926.905 46.5C927.733 46.5 928.405 47.1716 928.405 48C928.405 48.8284 927.733 49.5 926.905 49.5V46.5ZM946.875 49.5C946.046 49.5 945.375 48.8284 945.375 48C945.375 47.1716 946.046 46.5 946.875 46.5V49.5ZM966.845 46.5C967.673 46.5 968.345 47.1716 968.345 48C968.345 48.8284 967.673 49.5 966.845 49.5V46.5ZM986.815 49.5C985.986 49.5 985.315 48.8284 985.315 48C985.315 47.1716 985.986 46.5 986.815 46.5V49.5ZM1006.78 46.5C1007.61 46.5 1008.28 47.1716 1008.28 48C1008.28 48.8284 1007.61 49.5 1006.78 49.5V46.5ZM1026.75 49.5C1025.93 49.5 1025.25 48.8284 1025.25 48C1025.25 47.1716 1025.93 46.5 1026.75 46.5V49.5ZM1046.72 46.5C1047.55 46.5 1048.22 47.1716 1048.22 48C1048.22 48.8284 1047.55 49.5 1046.72 49.5V46.5ZM1066.69 49.5C1065.87 49.5 1065.19 48.8284 1065.19 48C1065.19 47.1716 1065.87 46.5 1066.69 46.5V49.5ZM1086.66 46.5C1087.49 46.5 1088.16 47.1716 1088.16 48C1088.16 48.8284 1087.49 49.5 1086.66 49.5V46.5ZM1106.63 49.5C1105.81 49.5 1105.13 48.8284 1105.13 48C1105.13 47.1716 1105.81 46.5 1106.63 46.5V49.5ZM1126.6 46.5C1127.43 46.5 1128.1 47.1716 1128.1 48C1128.1 48.8284 1127.43 49.5 1126.6 49.5V46.5ZM1146.57 49.5C1145.75 49.5 1145.07 48.8284 1145.07 48C1145.07 47.1716 1145.75 46.5 1146.57 46.5V49.5ZM1166.54 46.5C1167.37 46.5 1168.04 47.1716 1168.04 48C1168.04 48.8284 1167.37 49.5 1166.54 49.5V46.5ZM1186.51 49.5C1185.69 49.5 1185.01 48.8284 1185.01 48C1185.01 47.1716 1185.69 46.5 1186.51 46.5V49.5ZM1206.48 46.5C1207.31 46.5 1207.98 47.1716 1207.98 48C1207.98 48.8284 1207.31 49.5 1206.48 49.5V46.5ZM1226.45 49.5C1225.63 49.5 1224.95 48.8284 1224.95 48C1224.95 47.1716 1225.63 46.5 1226.45 46.5V49.5ZM1246.42 46.5C1247.25 46.5 1247.92 47.1716 1247.92 48C1247.92 48.8284 1247.25 49.5 1246.42 49.5V46.5ZM1266.39 49.5C1265.57 49.5 1264.89 48.8284 1264.89 48C1264.89 47.1716 1265.57 46.5 1266.39 46.5V49.5ZM1286.36 46.5C1287.19 46.5 1287.86 47.1716 1287.86 48C1287.86 48.8284 1287.19 49.5 1286.36 49.5V46.5ZM1306.33 49.5C1305.51 49.5 1304.83 48.8284 1304.83 48C1304.83 47.1716 1305.51 46.5 1306.33 46.5V49.5ZM1326.3 46.5C1327.13 46.5 1327.8 47.1716 1327.8 48C1327.8 48.8284 1327.13 49.5 1326.3 49.5V46.5ZM1346.27 49.5C1345.45 49.5 1344.77 48.8284 1344.77 48C1344.77 47.1716 1345.45 46.5 1346.27 46.5V49.5ZM1366.24 46.5C1367.07 46.5 1367.74 47.1716 1367.74 48C1367.74 48.8284 1367.07 49.5 1366.24 49.5V46.5ZM1386.21 49.5C1385.39 49.5 1384.71 48.8284 1384.71 48C1384.71 47.1716 1385.39 46.5 1386.21 46.5V49.5ZM1406.18 46.5C1407.01 46.5 1407.68 47.1716 1407.68 48C1407.68 48.8284 1407.01 49.5 1406.18 49.5V46.5ZM1426.15 49.5C1425.33 49.5 1424.65 48.8284 1424.65 48C1424.65 47.1716 1425.33 46.5 1426.15 46.5V49.5ZM1446.12 46.5C1446.95 46.5 1447.62 47.1716 1447.62 48C1447.62 48.8284 1446.95 49.5 1446.12 49.5V46.5ZM1466.09 49.5C1465.27 49.5 1464.59 48.8284 1464.59 48C1464.59 47.1716 1465.27 46.5 1466.09 46.5V49.5ZM1486.06 46.5C1486.89 46.5 1487.56 47.1716 1487.56 48C1487.56 48.8284 1486.89 49.5 1486.06 49.5V46.5ZM1506.03 49.5C1505.21 49.5 1504.53 48.8284 1504.53 48C1504.53 47.1716 1505.21 46.5 1506.03 46.5V49.5ZM1526 46.5C1526.83 46.5 1527.5 47.1716 1527.5 48C1527.5 48.8284 1526.83 49.5 1526 49.5V46.5ZM1545.97 49.5C1545.15 49.5 1544.47 48.8284 1544.47 48C1544.47 47.1716 1545.15 46.5 1545.97 46.5V49.5ZM1565.94 46.5C1566.77 46.5 1567.44 47.1716 1567.44 48C1567.44 48.8284 1566.77 49.5 1565.94 49.5V46.5ZM1585.91 49.5C1585.09 49.5 1584.41 48.8284 1584.41 48C1584.41 47.1716 1585.09 46.5 1585.91 46.5V49.5ZM1605.88 46.5C1606.71 46.5 1607.38 47.1716 1607.38 48C1607.38 48.8284 1606.71 49.5 1605.88 49.5V46.5ZM1625.85 49.5C1625.03 49.5 1624.35 48.8284 1624.35 48C1624.35 47.1716 1625.03 46.5 1625.85 46.5V49.5ZM1645.82 46.5C1646.65 46.5 1647.32 47.1716 1647.32 48C1647.32 48.8284 1646.65 49.5 1645.82 49.5V46.5ZM1665.79 49.5C1664.97 49.5 1664.29 48.8284 1664.29 48C1664.29 47.1716 1664.97 46.5 1665.79 46.5V49.5ZM1685.76 46.5C1686.59 46.5 1687.26 47.1716 1687.26 48C1687.26 48.8284 1686.59 49.5 1685.76 49.5V46.5ZM1705.73 49.5C1704.91 49.5 1704.23 48.8284 1704.23 48C1704.23 47.1716 1704.91 46.5 1705.73 46.5V49.5ZM1725.7 46.5C1726.53 46.5 1727.2 47.1716 1727.2 48C1727.2 48.8284 1726.53 49.5 1725.7 49.5V46.5ZM1745.67 49.5C1744.85 49.5 1744.17 48.8284 1744.17 48C1744.17 47.1716 1744.85 46.5 1745.67 46.5V49.5ZM1765.64 46.5C1766.47 46.5 1767.14 47.1716 1767.14 48C1767.14 48.8284 1766.47 49.5 1765.64 49.5V46.5ZM1785.61 49.5C1784.79 49.5 1784.11 48.8284 1784.11 48C1784.11 47.1716 1784.79 46.5 1785.61 46.5V49.5ZM1805.58 46.5C1806.41 46.5 1807.08 47.1716 1807.08 48C1807.08 48.8284 1806.41 49.5 1805.58 49.5V46.5ZM1825.55 49.5C1824.72 49.5 1824.05 48.8284 1824.05 48C1824.05 47.1716 1824.72 46.5 1825.55 46.5V49.5ZM1845.52 46.5C1846.35 46.5 1847.02 47.1716 1847.02 48C1847.02 48.8284 1846.35 49.5 1845.52 49.5V46.5ZM1865.49 49.5C1864.66 49.5 1863.99 48.8284 1863.99 48C1863.99 47.1716 1864.66 46.5 1865.49 46.5V49.5ZM1885.46 46.5C1886.29 46.5 1886.96 47.1716 1886.96 48C1886.96 48.8284 1886.29 49.5 1885.46 49.5V46.5ZM1905.43 49.5C1904.6 49.5 1903.93 48.8284 1903.93 48C1903.93 47.1716 1904.6 46.5 1905.43 46.5V49.5ZM1925.4 46.5C1926.23 46.5 1926.9 47.1716 1926.9 48C1926.9 48.8284 1926.23 49.5 1925.4 49.5V46.5ZM1945.37 49.5C1944.54 49.5 1943.87 48.8284 1943.87 48C1943.87 47.1716 1944.54 46.5 1945.37 46.5V49.5ZM1965.34 46.5C1966.17 46.5 1966.84 47.1716 1966.84 48C1966.84 48.8284 1966.17 49.5 1965.34 49.5V46.5ZM1985.31 49.5C1984.48 49.5 1983.81 48.8284 1983.81 48C1983.81 47.1716 1984.48 46.5 1985.31 46.5V49.5ZM2005.28 46.5C2006.11 46.5 2006.78 47.1716 2006.78 48C2006.78 48.8284 2006.11 49.5 2005.28 49.5V46.5ZM2025.25 49.5C2024.42 49.5 2023.75 48.8284 2023.75 48C2023.75 47.1716 2024.42 46.5 2025.25 46.5V49.5ZM2045.22 46.5C2046.05 46.5 2046.72 47.1716 2046.72 48C2046.72 48.8284 2046.05 49.5 2045.22 49.5V46.5ZM2065.19 49.5C2064.36 49.5 2063.69 48.8284 2063.69 48C2063.69 47.1716 2064.36 46.5 2065.19 46.5V49.5ZM2085.16 46.5C2085.99 46.5 2086.66 47.1716 2086.66 48C2086.66 48.8284 2085.99 49.5 2085.16 49.5V46.5ZM2105.13 49.5C2104.3 49.5 2103.63 48.8284 2103.63 48C2103.63 47.1716 2104.3 46.5 2105.13 46.5V49.5ZM2125.1 46.5C2125.93 46.5 2126.6 47.1716 2126.6 48C2126.6 48.8284 2125.93 49.5 2125.1 49.5V46.5ZM2145.07 49.5C2144.24 49.5 2143.57 48.8284 2143.57 48C2143.57 47.1716 2144.24 46.5 2145.07 46.5V49.5ZM2165.04 46.5C2165.87 46.5 2166.54 47.1716 2166.54 48C2166.54 48.8284 2165.87 49.5 2165.04 49.5V46.5ZM2185.01 49.5C2184.18 49.5 2183.51 48.8284 2183.51 48C2183.51 47.1716 2184.18 46.5 2185.01 46.5V49.5ZM2205.05 47.4802C2205.86 47.641 2206.39 48.4301 2206.23 49.2428C2206.07 50.0555 2205.28 50.584 2204.47 50.4232L2205.05 47.4802ZM2221.95 57.6682C2221.26 57.2073 2221.07 56.2756 2221.53 55.5872C2222 54.8989 2222.93 54.7144 2223.62 55.1753L2221.95 57.6682ZM2237.82 69.3847C2238.29 70.0731 2238.1 71.0048 2237.41 71.4657C2236.72 71.9265 2235.79 71.7421 2235.33 71.0537L2237.82 69.3847ZM2242.58 88.533C2242.42 87.7203 2242.94 86.9312 2243.76 86.7704C2244.57 86.6096 2245.36 87.1381 2245.52 87.9508L2242.58 88.533ZM2246.5 107.083C2246.5 107.912 2245.83 108.583 2245 108.583C2244.17 108.583 2243.5 107.912 2243.5 107.083H2246.5ZM2243.5 125.25C2243.5 124.422 2244.17 123.75 2245 123.75C2245.83 123.75 2246.5 124.422 2246.5 125.25H2243.5ZM2246.5 143.417C2246.5 144.245 2245.83 144.917 2245 144.917C2244.17 144.917 2243.5 144.245 2243.5 143.417H2246.5ZM2243.5 161.583C2243.5 160.755 2244.17 160.083 2245 160.083C2245.83 160.083 2246.5 160.755 2246.5 161.583H2243.5ZM2246.5 179.75C2246.5 180.578 2245.83 181.25 2245 181.25C2244.17 181.25 2243.5 180.578 2243.5 179.75H2246.5ZM2243.5 197.917C2243.5 197.088 2244.17 196.417 2245 196.417C2245.83 196.417 2246.5 197.088 2246.5 197.917H2243.5ZM146.5 207V197.917H149.5V207H146.5ZM146.5 179.75V161.583H149.5V179.75H146.5ZM146.5 143.417V125.25H149.5V143.417H146.5ZM146.5 107.083V98H149.5V107.083H146.5ZM146.5 98C146.5 94.5625 146.837 91.2022 147.48 87.9508L150.423 88.533C149.818 91.5937 149.5 94.759 149.5 98H146.5ZM155.175 69.3847C158.935 63.7692 163.769 58.9348 169.385 55.1753L171.054 57.6682C165.764 61.2095 161.21 65.7641 157.668 71.0537L155.175 69.3847ZM187.951 47.4802C191.202 46.837 194.562 46.5 198 46.5V49.5C194.759 49.5 191.594 49.8177 188.533 50.4232L187.951 47.4802ZM198 46.5H207.985V49.5H198V46.5ZM227.955 46.5H247.925V49.5H227.955V46.5ZM267.895 46.5H287.865V49.5H267.895V46.5ZM307.835 46.5H327.805V49.5H307.835V46.5ZM347.775 46.5H367.745V49.5H347.775V46.5ZM387.715 46.5H407.685V49.5H387.715V46.5ZM427.655 46.5H447.625V49.5H427.655V46.5ZM467.595 46.5H487.565V49.5H467.595V46.5ZM507.535 46.5H527.505V49.5H507.535V46.5ZM547.475 46.5H567.445V49.5H547.475V46.5ZM587.415 46.5H607.385V49.5H587.415V46.5ZM627.355 46.5H647.325V49.5H627.355V46.5ZM667.295 46.5H687.265V49.5H667.295V46.5ZM707.235 46.5H727.205V49.5H707.235V46.5ZM747.175 46.5H767.145V49.5H747.175V46.5ZM787.115 46.5H807.085V49.5H787.115V46.5ZM827.055 46.5H847.025V49.5H827.055V46.5ZM866.995 46.5H886.965V49.5H866.995V46.5ZM906.935 46.5H926.905V49.5H906.935V46.5ZM946.875 46.5H966.845V49.5H946.875V46.5ZM986.815 46.5H1006.78V49.5H986.815V46.5ZM1026.75 46.5H1046.72V49.5H1026.75V46.5ZM1066.69 46.5H1086.66V49.5H1066.69V46.5ZM1106.63 46.5H1126.6V49.5H1106.63V46.5ZM1146.57 46.5H1166.54V49.5H1146.57V46.5ZM1186.51 46.5H1206.48V49.5H1186.51V46.5ZM1226.45 46.5H1246.42V49.5H1226.45V46.5ZM1266.39 46.5H1286.36V49.5H1266.39V46.5ZM1306.33 46.5H1326.3V49.5H1306.33V46.5ZM1346.27 46.5H1366.24V49.5H1346.27V46.5ZM1386.21 46.5H1406.18V49.5H1386.21V46.5ZM1426.15 46.5H1446.12V49.5H1426.15V46.5ZM1466.09 46.5H1486.06V49.5H1466.09V46.5ZM1506.03 46.5H1526V49.5H1506.03V46.5ZM1545.97 46.5H1565.94V49.5H1545.97V46.5ZM1585.91 46.5H1605.88V49.5H1585.91V46.5ZM1625.85 46.5H1645.82V49.5H1625.85V46.5ZM1665.79 46.5H1685.76V49.5H1665.79V46.5ZM1705.73 46.5H1725.7V49.5H1705.73V46.5ZM1745.67 46.5H1765.64V49.5H1745.67V46.5ZM1785.61 46.5H1805.58V49.5H1785.61V46.5ZM1825.55 46.5H1845.52V49.5H1825.55V46.5ZM1865.49 46.5H1885.46V49.5H1865.49V46.5ZM1905.43 46.5H1925.4V49.5H1905.43V46.5ZM1945.37 46.5H1965.34V49.5H1945.37V46.5ZM1985.31 46.5H2005.28V49.5H1985.31V46.5ZM2025.25 46.5H2045.22V49.5H2025.25V46.5ZM2065.19 46.5H2085.16V49.5H2065.19V46.5ZM2105.13 46.5H2125.1V49.5H2105.13V46.5ZM2145.07 46.5H2165.04V49.5H2145.07V46.5ZM2185.01 46.5H2195V49.5H2185.01V46.5ZM2195 46.5C2198.44 46.5 2201.8 46.837 2205.05 47.4802L2204.47 50.4232C2201.41 49.8177 2198.24 49.5 2195 49.5V46.5ZM2223.62 55.1753C2229.23 58.9348 2234.07 63.7692 2237.82 69.3847L2235.33 71.0537C2231.79 65.7641 2227.24 61.2095 2221.95 57.6682L2223.62 55.1753ZM2245.52 87.9508C2246.16 91.2022 2246.5 94.5625 2246.5 98H2243.5C2243.5 94.759 2243.18 91.5937 2242.58 88.533L2245.52 87.9508ZM2246.5 98V107.083H2243.5V98H2246.5ZM2246.5 125.25V143.417H2243.5V125.25H2246.5ZM2246.5 161.583V179.75H2243.5V161.583H2246.5ZM2246.5 197.917V207H2243.5V197.917H2246.5Z" fill="#858585"/>
<path d="M1371 287C1371 253.863 1397.86 227 1431 227H1589C1622.14 227 1649 253.863 1649 287V287C1649 320.137 1622.14 347 1589 347H1431C1397.86 347 1371 320.137 1371 287V287Z" fill="#F8F8F8"/>
<path d="M1442.06 298.366C1443.68 298.366 1445.14 298.059 1446.42 297.443C1447.71 296.818 1448.76 295.954 1449.57 294.851C1450.38 293.747 1450.88 292.478 1451.05 291.042L1451.08 290.881H1447.38L1447.33 291.027C1447.11 291.896 1446.75 292.634 1446.26 293.239C1445.78 293.845 1445.17 294.309 1444.46 294.631C1443.76 294.943 1442.96 295.1 1442.06 295.1C1440.84 295.1 1439.77 294.787 1438.85 294.162C1437.94 293.527 1437.24 292.639 1436.74 291.496C1436.24 290.344 1436 288.986 1436 287.424V287.409C1436 285.837 1436.24 284.484 1436.74 283.352C1437.24 282.209 1437.94 281.325 1438.85 280.7C1439.76 280.075 1440.83 279.763 1442.06 279.763C1442.98 279.763 1443.79 279.924 1444.51 280.246C1445.22 280.568 1445.81 281.022 1446.28 281.608C1446.75 282.194 1447.08 282.893 1447.29 283.703L1447.36 283.981H1451.07L1451.05 283.835C1450.87 282.399 1450.37 281.13 1449.56 280.026C1448.75 278.923 1447.7 278.059 1446.41 277.434C1445.13 276.809 1443.68 276.496 1442.06 276.496C1440.04 276.496 1438.29 276.94 1436.8 277.829C1435.32 278.708 1434.17 279.963 1433.36 281.594C1432.55 283.225 1432.14 285.163 1432.14 287.409V287.424C1432.14 289.67 1432.54 291.613 1433.34 293.254C1434.15 294.885 1435.3 296.145 1436.79 297.033C1438.28 297.922 1440.04 298.366 1442.06 298.366ZM1453.69 298H1457.34V276.862H1453.69V298ZM1460.55 298H1464.19V282.473H1460.55V298ZM1462.36 280.246C1462.94 280.246 1463.42 280.051 1463.81 279.66C1464.2 279.27 1464.4 278.801 1464.4 278.254C1464.4 277.697 1464.2 277.229 1463.81 276.848C1463.42 276.457 1462.94 276.262 1462.36 276.262C1461.8 276.262 1461.32 276.457 1460.93 276.848C1460.54 277.229 1460.34 277.697 1460.34 278.254C1460.34 278.801 1460.54 279.27 1460.93 279.66C1461.32 280.051 1461.8 280.246 1462.36 280.246ZM1474.12 298.308C1475.13 298.308 1476.03 298.176 1476.82 297.912C1477.61 297.639 1478.29 297.272 1478.87 296.813C1479.45 296.354 1479.91 295.842 1480.25 295.275C1480.59 294.699 1480.82 294.113 1480.95 293.518L1480.98 293.356H1477.58L1477.55 293.459C1477.44 293.811 1477.23 294.138 1476.92 294.44C1476.63 294.743 1476.25 294.992 1475.79 295.188C1475.34 295.373 1474.8 295.466 1474.2 295.466C1473.39 295.466 1472.69 295.29 1472.1 294.938C1471.52 294.577 1471.06 294.064 1470.74 293.4C1470.43 292.727 1470.27 291.916 1470.27 290.969V289.562C1470.27 288.586 1470.43 287.756 1470.74 287.072C1471.06 286.389 1471.5 285.876 1472.06 285.534C1472.63 285.183 1473.27 285.007 1473.99 285.007C1474.71 285.007 1475.34 285.178 1475.88 285.52C1476.43 285.852 1476.86 286.354 1477.17 287.028C1477.48 287.702 1477.64 288.547 1477.64 289.562V290.969L1479.4 288.698H1468.46V291.13H1481.14V289.958C1481.14 288.396 1480.85 287.028 1480.26 285.856C1479.69 284.685 1478.86 283.776 1477.77 283.132C1476.7 282.478 1475.42 282.15 1473.95 282.15C1472.46 282.15 1471.18 282.487 1470.08 283.161C1469 283.835 1468.15 284.782 1467.55 286.003C1466.95 287.214 1466.65 288.635 1466.65 290.266V290.28C1466.65 291.921 1466.95 293.342 1467.55 294.543C1468.14 295.744 1469 296.672 1470.11 297.326C1471.23 297.98 1472.57 298.308 1474.12 298.308ZM1483.47 298H1487.1V288.991C1487.1 288.239 1487.25 287.585 1487.53 287.028C1487.81 286.462 1488.21 286.022 1488.73 285.71C1489.25 285.388 1489.85 285.227 1490.55 285.227C1491.58 285.227 1492.36 285.529 1492.88 286.135C1493.39 286.73 1493.65 287.58 1493.65 288.684V298H1497.3V287.951C1497.3 286.154 1496.83 284.738 1495.89 283.703C1494.96 282.668 1493.65 282.15 1491.94 282.15C1490.77 282.15 1489.78 282.399 1488.98 282.897C1488.19 283.396 1487.59 284.064 1487.19 284.904H1487.1V282.473H1483.47V298ZM1505.99 298.308C1506.37 298.308 1506.71 298.293 1507.01 298.264C1507.32 298.234 1507.59 298.205 1507.8 298.176V295.437C1507.67 295.446 1507.54 295.461 1507.39 295.48C1507.25 295.49 1507.09 295.495 1506.91 295.495C1506.25 295.495 1505.76 295.354 1505.41 295.07C1505.08 294.777 1504.92 294.255 1504.92 293.503V285.285H1507.8V282.473H1504.92V278.532H1501.21V282.473H1499.01V285.285H1501.21V293.796C1501.21 295.397 1501.6 296.55 1502.38 297.253C1503.17 297.956 1504.37 298.308 1505.99 298.308ZM1525.53 298H1529.69V297.927L1518.04 285.607C1517.43 284.953 1516.92 284.396 1516.53 283.938C1516.14 283.479 1515.85 283.063 1515.67 282.692C1515.48 282.321 1515.39 281.95 1515.39 281.579V281.564C1515.39 281.086 1515.5 280.666 1515.71 280.305C1515.94 279.934 1516.24 279.646 1516.62 279.44C1517 279.226 1517.44 279.118 1517.92 279.118C1518.42 279.118 1518.86 279.221 1519.23 279.426C1519.61 279.631 1519.91 279.914 1520.12 280.275C1520.34 280.637 1520.44 281.057 1520.44 281.535V281.55C1520.44 282.321 1520.13 283.015 1519.49 283.63C1518.86 284.235 1517.8 284.885 1516.31 285.578L1518.1 287.38C1520.07 286.423 1521.48 285.471 1522.32 284.523C1523.17 283.576 1523.59 282.521 1523.59 281.359V281.345C1523.59 280.397 1523.35 279.567 1522.86 278.854C1522.37 278.132 1521.7 277.57 1520.85 277.17C1520 276.76 1519.03 276.555 1517.92 276.555C1516.81 276.555 1515.82 276.765 1514.95 277.185C1514.08 277.604 1513.4 278.181 1512.9 278.913C1512.4 279.646 1512.15 280.476 1512.15 281.403V281.418C1512.16 281.945 1512.26 282.468 1512.46 282.985C1512.67 283.503 1513 284.069 1513.46 284.685C1513.92 285.29 1514.54 286.013 1515.3 286.853L1525.53 298ZM1517.15 298.366C1518.81 298.366 1520.29 298.088 1521.6 297.531C1522.91 296.965 1524.02 296.174 1524.93 295.158C1525.81 294.162 1526.49 292.976 1526.96 291.599C1527.44 290.212 1527.68 288.64 1527.68 286.882V286.105H1524.53V286.765C1524.53 288.093 1524.39 289.274 1524.11 290.31C1523.82 291.345 1523.4 292.238 1522.85 292.99C1522.46 293.518 1522.01 293.977 1521.47 294.367C1520.94 294.758 1520.35 295.061 1519.68 295.275C1519.02 295.49 1518.29 295.598 1517.51 295.598C1516.69 295.598 1515.97 295.456 1515.35 295.173C1514.72 294.88 1514.23 294.475 1513.88 293.957C1513.54 293.439 1513.37 292.839 1513.37 292.155V292.141C1513.37 291.447 1513.57 290.812 1513.97 290.236C1514.38 289.66 1515.06 289.099 1516.02 288.552L1517.82 287.526L1515.93 285.593L1513.95 286.662C1512.57 287.414 1511.54 288.264 1510.88 289.211C1510.21 290.148 1509.88 291.223 1509.88 292.434V292.448C1509.88 293.63 1510.18 294.665 1510.78 295.554C1511.38 296.442 1512.23 297.136 1513.32 297.634C1514.42 298.122 1515.69 298.366 1517.15 298.366ZM1533.74 291.013H1540C1541.42 291.013 1542.67 290.72 1543.75 290.134C1544.83 289.538 1545.68 288.713 1546.28 287.658C1546.89 286.594 1547.19 285.358 1547.19 283.952V283.923C1547.19 282.507 1546.89 281.271 1546.28 280.217C1545.68 279.152 1544.83 278.327 1543.75 277.741C1542.67 277.155 1541.42 276.862 1540 276.862H1533.74V279.938H1539.06C1540.43 279.938 1541.48 280.285 1542.23 280.979C1542.98 281.672 1543.35 282.658 1543.35 283.938V283.967C1543.35 285.236 1542.98 286.223 1542.23 286.926C1541.48 287.619 1540.43 287.966 1539.06 287.966H1533.74V291.013ZM1531.85 298H1535.63V276.862H1531.85V298ZM1555.83 298.308C1556.84 298.308 1557.74 298.176 1558.53 297.912C1559.32 297.639 1560 297.272 1560.58 296.813C1561.16 296.354 1561.62 295.842 1561.96 295.275C1562.3 294.699 1562.53 294.113 1562.66 293.518L1562.69 293.356H1559.29L1559.26 293.459C1559.14 293.811 1558.93 294.138 1558.63 294.44C1558.34 294.743 1557.96 294.992 1557.5 295.188C1557.04 295.373 1556.51 295.466 1555.91 295.466C1555.1 295.466 1554.4 295.29 1553.81 294.938C1553.23 294.577 1552.77 294.064 1552.45 293.4C1552.14 292.727 1551.98 291.916 1551.98 290.969V289.562C1551.98 288.586 1552.14 287.756 1552.45 287.072C1552.77 286.389 1553.21 285.876 1553.77 285.534C1554.33 285.183 1554.98 285.007 1555.7 285.007C1556.42 285.007 1557.04 285.178 1557.59 285.52C1558.14 285.852 1558.57 286.354 1558.88 287.028C1559.19 287.702 1559.35 288.547 1559.35 289.562V290.969L1561.11 288.698H1550.17V291.13H1562.85V289.958C1562.85 288.396 1562.56 287.028 1561.97 285.856C1561.4 284.685 1560.57 283.776 1559.48 283.132C1558.41 282.478 1557.13 282.15 1555.66 282.15C1554.17 282.15 1552.88 282.487 1551.79 283.161C1550.71 283.835 1549.86 284.782 1549.26 286.003C1548.66 287.214 1548.36 288.635 1548.36 290.266V290.28C1548.36 291.921 1548.66 293.342 1549.26 294.543C1549.85 295.744 1550.71 296.672 1551.82 297.326C1552.94 297.98 1554.28 298.308 1555.83 298.308ZM1570.94 298.308C1571.32 298.308 1571.66 298.293 1571.96 298.264C1572.27 298.234 1572.54 298.205 1572.75 298.176V295.437C1572.63 295.446 1572.49 295.461 1572.34 295.48C1572.21 295.49 1572.04 295.495 1571.86 295.495C1571.21 295.495 1570.71 295.354 1570.37 295.07C1570.03 294.777 1569.87 294.255 1569.87 293.503V285.285H1572.75V282.473H1569.87V278.532H1566.16V282.473H1563.96V285.285H1566.16V293.796C1566.16 295.397 1566.55 296.55 1567.33 297.253C1568.12 297.956 1569.33 298.308 1570.94 298.308ZM1581.32 298.308C1582.59 298.308 1583.71 298.107 1584.69 297.707C1585.68 297.297 1586.45 296.726 1587.01 295.993C1587.56 295.251 1587.84 294.392 1587.84 293.415V293.4C1587.84 292.277 1587.5 291.384 1586.82 290.72C1586.13 290.046 1584.98 289.528 1583.37 289.167L1580.79 288.596C1579.99 288.41 1579.42 288.166 1579.08 287.863C1578.75 287.561 1578.58 287.189 1578.58 286.75V286.735C1578.58 286.354 1578.69 286.022 1578.89 285.739C1579.11 285.456 1579.41 285.236 1579.8 285.08C1580.2 284.924 1580.67 284.846 1581.21 284.846C1582.05 284.846 1582.72 285.051 1583.21 285.461C1583.7 285.861 1583.98 286.374 1584.06 286.999L1584.08 287.116H1587.47L1587.46 286.955C1587.42 286.057 1587.15 285.246 1586.64 284.523C1586.14 283.801 1585.43 283.225 1584.52 282.795C1583.6 282.365 1582.49 282.15 1581.21 282.15C1579.96 282.15 1578.88 282.351 1577.94 282.751C1577 283.151 1576.27 283.708 1575.76 284.421C1575.24 285.134 1574.98 285.964 1574.98 286.911V286.926C1574.98 288.078 1575.35 289.021 1576.09 289.753C1576.84 290.485 1577.96 291.013 1579.45 291.335L1582.03 291.906C1582.84 292.092 1583.4 292.331 1583.71 292.624C1584.02 292.907 1584.18 293.278 1584.18 293.737V293.752C1584.18 294.133 1584.06 294.465 1583.83 294.748C1583.6 295.031 1583.28 295.246 1582.86 295.393C1582.44 295.539 1581.93 295.612 1581.34 295.612C1580.41 295.612 1579.69 295.427 1579.17 295.056C1578.66 294.685 1578.34 294.162 1578.2 293.488L1578.17 293.356H1574.58L1574.6 293.488C1574.72 294.445 1575.04 295.29 1575.58 296.022C1576.13 296.745 1576.88 297.307 1577.84 297.707C1578.8 298.107 1579.96 298.308 1581.32 298.308Z" fill="#181818"/>
<path d="M1750 287C1750 253.863 1776.86 227 1810 227H1927C1960.14 227 1987 253.863 1987 287V287C1987 320.137 1960.14 347 1927 347H1810C1776.86 347 1750 320.137 1750 287V287Z" fill="#F8F8F8"/>
<path d="M1813.75 291.013H1820C1821.43 291.013 1822.68 290.72 1823.75 290.134C1824.84 289.538 1825.68 288.713 1826.29 287.658C1826.89 286.594 1827.2 285.358 1827.2 283.952V283.923C1827.2 282.507 1826.89 281.271 1826.29 280.217C1825.68 279.152 1824.84 278.327 1823.75 277.741C1822.68 277.155 1821.43 276.862 1820 276.862H1813.75V279.938H1819.07C1820.43 279.938 1821.49 280.285 1822.23 280.979C1822.98 281.672 1823.36 282.658 1823.36 283.938V283.967C1823.36 285.236 1822.98 286.223 1822.23 286.926C1821.49 287.619 1820.43 287.966 1819.07 287.966H1813.75V291.013ZM1811.86 298H1815.64V276.862H1811.86V298ZM1833.04 298.264C1833.73 298.264 1834.37 298.156 1834.96 297.941C1835.57 297.727 1836.1 297.419 1836.57 297.019C1837.04 296.618 1837.42 296.149 1837.71 295.612H1837.8V298H1841.44V287.321C1841.44 286.276 1841.17 285.368 1840.64 284.597C1840.13 283.825 1839.39 283.225 1838.43 282.795C1837.49 282.365 1836.36 282.15 1835.06 282.15C1833.75 282.15 1832.62 282.36 1831.67 282.78C1830.72 283.2 1829.98 283.776 1829.44 284.509C1828.9 285.231 1828.59 286.052 1828.52 286.97L1828.5 287.146H1831.87L1831.9 287.014C1832.03 286.438 1832.35 285.969 1832.87 285.607C1833.38 285.236 1834.07 285.051 1834.93 285.051C1835.86 285.051 1836.57 285.28 1837.06 285.739C1837.55 286.188 1837.8 286.804 1837.8 287.585V292.243C1837.8 292.858 1837.64 293.41 1837.32 293.898C1837 294.387 1836.56 294.772 1836 295.056C1835.45 295.339 1834.83 295.48 1834.13 295.48C1833.33 295.48 1832.68 295.3 1832.19 294.938C1831.71 294.567 1831.47 294.064 1831.47 293.43V293.415C1831.47 292.8 1831.71 292.307 1832.19 291.936C1832.67 291.564 1833.36 291.35 1834.26 291.291L1839.68 290.954V288.537L1833.75 288.903C1831.87 289.011 1830.42 289.47 1829.38 290.28C1828.35 291.081 1827.84 292.17 1827.84 293.547V293.576C1827.84 294.494 1828.06 295.31 1828.49 296.022C1828.93 296.726 1829.54 297.277 1830.32 297.678C1831.11 298.068 1832.02 298.264 1833.04 298.264ZM1846.42 303.156C1847.49 303.156 1848.42 303.005 1849.2 302.702C1849.99 302.409 1850.66 301.921 1851.22 301.237C1851.78 300.563 1852.25 299.66 1852.64 298.527L1858.24 282.473H1854.4L1850.53 295.656L1851.09 294.895H1850.31L1850.87 295.656L1847 282.473H1843.03L1848.61 298.015L1848.39 298.645C1848.16 299.299 1847.84 299.743 1847.43 299.978C1847.02 300.222 1846.46 300.344 1845.76 300.344C1845.49 300.344 1845.26 300.329 1845.05 300.3C1844.85 300.271 1844.68 300.246 1844.54 300.227V302.995C1844.77 303.034 1845.04 303.068 1845.38 303.098C1845.72 303.137 1846.06 303.156 1846.42 303.156ZM1859.92 298H1863.55V288.493C1863.55 287.858 1863.68 287.297 1863.94 286.809C1864.2 286.32 1864.56 285.935 1865 285.651C1865.45 285.368 1865.97 285.227 1866.56 285.227C1867.41 285.227 1868.08 285.48 1868.56 285.988C1869.06 286.486 1869.31 287.175 1869.31 288.054V298H1872.86V288.405C1872.86 287.78 1872.98 287.229 1873.22 286.75C1873.48 286.271 1873.82 285.9 1874.26 285.637C1874.71 285.363 1875.23 285.227 1875.82 285.227C1876.71 285.227 1877.4 285.49 1877.88 286.018C1878.36 286.545 1878.6 287.287 1878.6 288.244V298H1882.25V287.351C1882.25 286.306 1882.03 285.397 1881.6 284.626C1881.18 283.845 1880.59 283.239 1879.83 282.81C1879.08 282.37 1878.19 282.15 1877.16 282.15C1876.42 282.15 1875.73 282.282 1875.08 282.546C1874.45 282.8 1873.89 283.161 1873.41 283.63C1872.94 284.089 1872.58 284.641 1872.33 285.285H1872.26C1872.07 284.621 1871.77 284.06 1871.36 283.601C1870.96 283.132 1870.47 282.775 1869.9 282.531C1869.32 282.277 1868.67 282.15 1867.95 282.15C1866.92 282.15 1866.03 282.409 1865.27 282.927C1864.51 283.435 1863.96 284.113 1863.64 284.963H1863.55V282.473H1859.92V298ZM1892 298.308C1893.01 298.308 1893.91 298.176 1894.7 297.912C1895.49 297.639 1896.17 297.272 1896.75 296.813C1897.32 296.354 1897.78 295.842 1898.12 295.275C1898.47 294.699 1898.7 294.113 1898.83 293.518L1898.86 293.356H1895.46L1895.43 293.459C1895.31 293.811 1895.1 294.138 1894.8 294.44C1894.51 294.743 1894.13 294.992 1893.67 295.188C1893.21 295.373 1892.68 295.466 1892.08 295.466C1891.26 295.466 1890.57 295.29 1889.98 294.938C1889.39 294.577 1888.94 294.064 1888.62 293.4C1888.31 292.727 1888.15 291.916 1888.15 290.969V289.562C1888.15 288.586 1888.31 287.756 1888.62 287.072C1888.94 286.389 1889.38 285.876 1889.94 285.534C1890.5 285.183 1891.15 285.007 1891.87 285.007C1892.58 285.007 1893.21 285.178 1893.76 285.52C1894.31 285.852 1894.74 286.354 1895.05 287.028C1895.36 287.702 1895.52 288.547 1895.52 289.562V290.969L1897.28 288.698H1886.33V291.13H1899.02V289.958C1899.02 288.396 1898.73 287.028 1898.14 285.856C1897.56 284.685 1896.73 283.776 1895.65 283.132C1894.58 282.478 1893.3 282.15 1891.83 282.15C1890.34 282.15 1889.05 282.487 1887.96 283.161C1886.88 283.835 1886.03 284.782 1885.42 286.003C1884.83 287.214 1884.53 288.635 1884.53 290.266V290.28C1884.53 291.921 1884.83 293.342 1885.42 294.543C1886.02 295.744 1886.88 296.672 1887.99 297.326C1889.11 297.98 1890.45 298.308 1892 298.308ZM1901.35 298H1904.98V288.991C1904.98 288.239 1905.12 287.585 1905.41 287.028C1905.69 286.462 1906.09 286.022 1906.61 285.71C1907.12 285.388 1907.73 285.227 1908.42 285.227C1909.46 285.227 1910.23 285.529 1910.75 286.135C1911.27 286.73 1911.53 287.58 1911.53 288.684V298H1915.18V287.951C1915.18 286.154 1914.71 284.738 1913.77 283.703C1912.84 282.668 1911.52 282.15 1909.81 282.15C1908.64 282.15 1907.66 282.399 1906.86 282.897C1906.06 283.396 1905.47 284.064 1905.07 284.904H1904.98V282.473H1901.35V298ZM1923.86 298.308C1924.24 298.308 1924.58 298.293 1924.89 298.264C1925.2 298.234 1925.46 298.205 1925.68 298.176V295.437C1925.55 295.446 1925.42 295.461 1925.27 295.48C1925.13 295.49 1924.97 295.495 1924.79 295.495C1924.13 295.495 1923.63 295.354 1923.29 295.07C1922.96 294.777 1922.79 294.255 1922.79 293.503V285.285H1925.68V282.473H1922.79V278.532H1919.09V282.473H1916.89V285.285H1919.09V293.796C1919.09 295.397 1919.48 296.55 1920.26 297.253C1921.05 297.956 1922.25 298.308 1923.86 298.308Z" fill="#181818"/>
<path d="M1750 426C1750 392.863 1776.86 366 1810 366H1947C1980.14 366 2007 392.863 2007 426V426C2007 459.137 1980.14 486 1947 486H1810C1776.86 486 1750 459.137 1750 426V426Z" fill="#F8F8F8"/>
<path d="M1813.75 430.013H1820C1821.43 430.013 1822.68 429.72 1823.75 429.134C1824.84 428.538 1825.68 427.713 1826.29 426.658C1826.89 425.594 1827.2 424.358 1827.2 422.952V422.923C1827.2 421.507 1826.89 420.271 1826.29 419.217C1825.68 418.152 1824.84 417.327 1823.75 416.741C1822.68 416.155 1821.43 415.862 1820 415.862H1813.75V418.938H1819.07C1820.43 418.938 1821.49 419.285 1822.23 419.979C1822.98 420.672 1823.36 421.658 1823.36 422.938V422.967C1823.36 424.236 1822.98 425.223 1822.23 425.926C1821.49 426.619 1820.43 426.966 1819.07 426.966H1813.75V430.013ZM1811.86 437H1815.64V415.862H1811.86V437ZM1829.6 437H1833.23V427.991C1833.23 427.22 1833.36 426.565 1833.63 426.028C1833.89 425.491 1834.27 425.086 1834.77 424.812C1835.27 424.529 1835.86 424.388 1836.54 424.388C1836.86 424.388 1837.14 424.407 1837.41 424.446C1837.68 424.485 1837.89 424.534 1838.04 424.593V421.297C1837.9 421.258 1837.73 421.224 1837.52 421.194C1837.32 421.165 1837.1 421.15 1836.88 421.15C1835.98 421.15 1835.22 421.419 1834.59 421.956C1833.98 422.483 1833.55 423.216 1833.32 424.153H1833.23V421.473H1829.6V437ZM1846.2 437.308C1847.72 437.308 1849.04 436.985 1850.17 436.341C1851.29 435.696 1852.16 434.773 1852.77 433.572C1853.4 432.361 1853.71 430.916 1853.71 429.236V429.207C1853.71 427.537 1853.4 426.102 1852.77 424.9C1852.15 423.699 1851.27 422.776 1850.14 422.132C1849.01 421.478 1847.7 421.15 1846.18 421.15C1844.68 421.15 1843.36 421.478 1842.24 422.132C1841.12 422.776 1840.24 423.704 1839.62 424.915C1838.99 426.116 1838.68 427.547 1838.68 429.207V429.236C1838.68 430.906 1838.99 432.347 1839.6 433.558C1840.23 434.759 1841.1 435.687 1842.23 436.341C1843.35 436.985 1844.67 437.308 1846.2 437.308ZM1846.21 434.363C1845.44 434.363 1844.77 434.163 1844.19 433.763C1843.62 433.362 1843.18 432.781 1842.86 432.02C1842.54 431.248 1842.39 430.32 1842.39 429.236V429.207C1842.39 428.133 1842.54 427.215 1842.86 426.453C1843.18 425.691 1843.62 425.11 1844.19 424.71C1844.77 424.31 1845.43 424.109 1846.18 424.109C1846.95 424.109 1847.62 424.31 1848.19 424.71C1848.76 425.11 1849.21 425.691 1849.52 426.453C1849.83 427.215 1849.99 428.133 1849.99 429.207V429.236C1849.99 430.32 1849.83 431.248 1849.52 432.02C1849.22 432.781 1848.78 433.362 1848.22 433.763C1847.65 434.163 1846.98 434.363 1846.21 434.363ZM1856.05 437H1859.69V427.493C1859.69 426.858 1859.81 426.297 1860.07 425.809C1860.33 425.32 1860.69 424.935 1861.14 424.651C1861.59 424.368 1862.1 424.227 1862.69 424.227C1863.54 424.227 1864.21 424.48 1864.7 424.988C1865.2 425.486 1865.44 426.175 1865.44 427.054V437H1868.99V427.405C1868.99 426.78 1869.11 426.229 1869.36 425.75C1869.61 425.271 1869.96 424.9 1870.4 424.637C1870.84 424.363 1871.36 424.227 1871.95 424.227C1872.85 424.227 1873.54 424.49 1874.01 425.018C1874.49 425.545 1874.73 426.287 1874.73 427.244V437H1878.38V426.351C1878.38 425.306 1878.16 424.397 1877.73 423.626C1877.31 422.845 1876.72 422.239 1875.96 421.81C1875.21 421.37 1874.32 421.15 1873.3 421.15C1872.55 421.15 1871.86 421.282 1871.22 421.546C1870.58 421.8 1870.02 422.161 1869.55 422.63C1869.08 423.089 1868.72 423.641 1868.46 424.285H1868.39C1868.2 423.621 1867.91 423.06 1867.5 422.601C1867.09 422.132 1866.61 421.775 1866.03 421.531C1865.45 421.277 1864.8 421.15 1864.08 421.15C1863.06 421.15 1862.16 421.409 1861.4 421.927C1860.64 422.435 1860.1 423.113 1859.78 423.963H1859.69V421.473H1856.05V437ZM1888.18 437.308C1889.7 437.308 1891.03 436.985 1892.15 436.341C1893.27 435.696 1894.14 434.773 1894.76 433.572C1895.38 432.361 1895.69 430.916 1895.69 429.236V429.207C1895.69 427.537 1895.38 426.102 1894.76 424.9C1894.13 423.699 1893.25 422.776 1892.12 422.132C1891 421.478 1889.68 421.15 1888.16 421.15C1886.66 421.15 1885.35 421.478 1884.22 422.132C1883.1 422.776 1882.23 423.704 1881.6 424.915C1880.98 426.116 1880.66 427.547 1880.66 429.207V429.236C1880.66 430.906 1880.97 432.347 1881.59 433.558C1882.21 434.759 1883.09 435.687 1884.21 436.341C1885.33 436.985 1886.66 437.308 1888.18 437.308ZM1888.19 434.363C1887.42 434.363 1886.75 434.163 1886.17 433.763C1885.61 433.362 1885.16 432.781 1884.84 432.02C1884.53 431.248 1884.37 430.32 1884.37 429.236V429.207C1884.37 428.133 1884.53 427.215 1884.84 426.453C1885.16 425.691 1885.61 425.11 1886.17 424.71C1886.75 424.31 1887.41 424.109 1888.16 424.109C1888.94 424.109 1889.6 424.31 1890.17 424.71C1890.75 425.11 1891.19 425.691 1891.5 426.453C1891.82 427.215 1891.97 428.133 1891.97 429.207V429.236C1891.97 430.32 1891.82 431.248 1891.5 432.02C1891.2 432.781 1890.77 433.362 1890.2 433.763C1889.63 434.163 1888.96 434.363 1888.19 434.363ZM1903.79 437.308C1904.17 437.308 1904.52 437.293 1904.82 437.264C1905.13 437.234 1905.4 437.205 1905.61 437.176V434.437C1905.48 434.446 1905.35 434.461 1905.2 434.48C1905.06 434.49 1904.9 434.495 1904.72 434.495C1904.06 434.495 1903.56 434.354 1903.22 434.07C1902.89 433.777 1902.72 433.255 1902.72 432.503V424.285H1905.61V421.473H1902.72V417.532H1899.02V421.473H1896.82V424.285H1899.02V432.796C1899.02 434.397 1899.41 435.55 1900.19 436.253C1900.98 436.956 1902.18 437.308 1903.79 437.308ZM1908.22 437H1911.87V421.473H1908.22V437ZM1910.03 419.246C1910.61 419.246 1911.09 419.051 1911.48 418.66C1911.88 418.27 1912.07 417.801 1912.07 417.254C1912.07 416.697 1911.88 416.229 1911.48 415.848C1911.09 415.457 1910.61 415.262 1910.03 415.262C1909.47 415.262 1908.99 415.457 1908.6 415.848C1908.21 416.229 1908.01 416.697 1908.01 417.254C1908.01 417.801 1908.21 418.27 1908.6 418.66C1908.99 419.051 1909.47 419.246 1910.03 419.246ZM1921.84 437.308C1923.36 437.308 1924.69 436.985 1925.81 436.341C1926.93 435.696 1927.8 434.773 1928.42 433.572C1929.04 432.361 1929.36 430.916 1929.36 429.236V429.207C1929.36 427.537 1929.04 426.102 1928.42 424.9C1927.79 423.699 1926.91 422.776 1925.78 422.132C1924.66 421.478 1923.34 421.15 1921.83 421.15C1920.32 421.15 1919.01 421.478 1917.89 422.132C1916.76 422.776 1915.89 423.704 1915.26 424.915C1914.64 426.116 1914.33 427.547 1914.33 429.207V429.236C1914.33 430.906 1914.63 432.347 1915.25 433.558C1915.87 434.759 1916.75 435.687 1917.87 436.341C1918.99 436.985 1920.32 437.308 1921.84 437.308ZM1921.86 434.363C1921.08 434.363 1920.41 434.163 1919.83 433.763C1919.27 433.362 1918.82 432.781 1918.5 432.02C1918.19 431.248 1918.03 430.32 1918.03 429.236V429.207C1918.03 428.133 1918.19 427.215 1918.5 426.453C1918.82 425.691 1919.27 425.11 1919.83 424.71C1920.41 424.31 1921.07 424.109 1921.83 424.109C1922.6 424.109 1923.27 424.31 1923.83 424.71C1924.41 425.11 1924.85 425.691 1925.17 426.453C1925.48 427.215 1925.63 428.133 1925.63 429.207V429.236C1925.63 430.32 1925.48 431.248 1925.17 432.02C1924.86 432.781 1924.43 433.362 1923.86 433.763C1923.3 434.163 1922.63 434.363 1921.86 434.363ZM1931.7 437H1935.33V427.991C1935.33 427.239 1935.47 426.585 1935.76 426.028C1936.04 425.462 1936.44 425.022 1936.96 424.71C1937.48 424.388 1938.08 424.227 1938.77 424.227C1939.81 424.227 1940.59 424.529 1941.1 425.135C1941.62 425.73 1941.88 426.58 1941.88 427.684V437H1945.53V426.951C1945.53 425.154 1945.06 423.738 1944.12 422.703C1943.19 421.668 1941.88 421.15 1940.17 421.15C1938.99 421.15 1938.01 421.399 1937.21 421.897C1936.42 422.396 1935.82 423.064 1935.42 423.904H1935.33V421.473H1931.7V437Z" fill="#181818"/>
<path d="M976 537C976 520.431 989.431 507 1006 507H1202C1218.57 507 1232 520.431 1232 537V537C1232 553.569 1218.57 567 1202 567H1006C989.431 567 976 553.569 976 537V537Z" fill="#EFEFEF"/>
<path d="M996.279 545H998.804L1000.23 540.811H1006.21L1007.62 545H1010.15L1004.52 529.499H1001.92L996.279 545ZM1003.2 532.066H1003.24L1005.55 538.877H1000.88L1003.2 532.066ZM1011.59 548.76H1013.91V543.099H1013.96C1014.63 544.409 1015.93 545.226 1017.53 545.226C1020.36 545.226 1022.22 542.959 1022.22 539.36V539.35C1022.22 535.74 1020.37 533.484 1017.5 533.484C1015.88 533.484 1014.64 534.301 1013.96 535.644H1013.91V533.699H1011.59V548.76ZM1016.89 543.228C1015.14 543.228 1013.9 541.702 1013.9 539.36V539.35C1013.9 536.997 1015.13 535.472 1016.89 535.472C1018.71 535.472 1019.86 536.943 1019.86 539.35V539.36C1019.86 541.745 1018.72 543.228 1016.89 543.228ZM1024.03 548.76H1026.35V543.099H1026.4C1027.07 544.409 1028.37 545.226 1029.97 545.226C1032.8 545.226 1034.66 542.959 1034.66 539.36V539.35C1034.66 535.74 1032.81 533.484 1029.93 533.484C1028.32 533.484 1027.08 534.301 1026.4 535.644H1026.35V533.699H1024.03V548.76ZM1029.33 543.228C1027.58 543.228 1026.34 541.702 1026.34 539.36V539.35C1026.34 536.997 1027.57 535.472 1029.33 535.472C1031.15 535.472 1032.3 536.943 1032.3 539.35V539.36C1032.3 541.745 1031.16 543.228 1029.33 543.228ZM1041.32 545.226C1044.55 545.226 1046.68 542.991 1046.68 539.35V539.328C1046.68 535.708 1044.53 533.484 1041.31 533.484C1038.1 533.484 1035.96 535.719 1035.96 539.328V539.35C1035.96 542.98 1038.08 545.226 1041.32 545.226ZM1041.33 543.281C1039.52 543.281 1038.33 541.853 1038.33 539.35V539.328C1038.33 536.857 1039.53 535.429 1041.31 535.429C1043.13 535.429 1044.31 536.857 1044.31 539.328V539.35C1044.31 541.842 1043.15 543.281 1041.33 543.281ZM1049.73 531.959C1050.5 531.959 1051.09 531.357 1051.09 530.627C1051.09 529.886 1050.5 529.284 1049.73 529.284C1048.98 529.284 1048.38 529.886 1048.38 530.627C1048.38 531.357 1048.98 531.959 1049.73 531.959ZM1048.57 545H1050.89V533.699H1048.57V545ZM1053.29 545H1055.61V538.415C1055.61 536.653 1056.66 535.472 1058.29 535.472C1059.91 535.472 1060.7 536.428 1060.7 538.125V545H1063.03V537.685C1063.03 535.085 1061.6 533.484 1059.12 533.484C1057.41 533.484 1056.25 534.258 1055.66 535.407H1055.61V533.699H1053.29V545ZM1069.24 545.226C1069.71 545.226 1070.15 545.172 1070.42 545.129V543.335C1070.25 543.356 1070.05 543.378 1069.8 543.378C1068.82 543.378 1068.31 543.034 1068.31 541.885V535.547H1070.42V533.699H1068.31V530.756H1065.93V533.699H1064.31V535.547H1065.93V542.024C1065.93 544.28 1067.01 545.226 1069.24 545.226ZM1072.34 545H1074.67V538.018C1074.67 536.557 1075.64 535.472 1077.02 535.472C1078.33 535.472 1079.16 536.31 1079.16 537.62V545H1081.43V537.932C1081.43 536.503 1082.39 535.472 1083.76 535.472C1085.14 535.472 1085.92 536.32 1085.92 537.792V545H1088.25V537.233C1088.25 534.967 1086.79 533.484 1084.56 533.484C1082.95 533.484 1081.62 534.333 1081.04 535.708H1080.98C1080.53 534.29 1079.39 533.484 1077.83 533.484C1076.35 533.484 1075.2 534.269 1074.72 535.45H1074.67V533.699H1072.34V545ZM1095.32 545.226C1098.06 545.226 1099.8 543.593 1100.17 541.799L1100.19 541.681H1097.99L1097.95 541.767C1097.66 542.615 1096.75 543.324 1095.38 543.324C1093.53 543.324 1092.36 542.078 1092.31 539.94H1100.32V539.156C1100.32 535.762 1098.37 533.484 1095.2 533.484C1092.04 533.484 1089.99 535.848 1089.99 539.382V539.393C1089.99 542.959 1092 545.226 1095.32 545.226ZM1095.21 535.386C1096.73 535.386 1097.83 536.342 1098.02 538.297H1092.35C1092.55 536.406 1093.71 535.386 1095.21 535.386ZM1102.12 545H1104.44V538.415C1104.44 536.653 1105.5 535.472 1107.13 535.472C1108.74 535.472 1109.53 536.428 1109.53 538.125V545H1111.87V537.685C1111.87 535.085 1110.44 533.484 1107.96 533.484C1106.25 533.484 1105.09 534.258 1104.5 535.407H1104.44V533.699H1102.12V545ZM1118.07 545.226C1118.55 545.226 1118.99 545.172 1119.26 545.129V543.335C1119.08 543.356 1118.88 543.378 1118.63 543.378C1117.66 543.378 1117.14 543.034 1117.14 541.885V535.547H1119.26V533.699H1117.14V530.756H1114.77V533.699H1113.14V535.547H1114.77V542.024C1114.77 544.28 1115.84 545.226 1118.07 545.226ZM1125.93 545H1135.55V542.927H1128.33V529.499H1125.93V545ZM1141.91 545.226C1145.14 545.226 1147.27 542.991 1147.27 539.35V539.328C1147.27 535.708 1145.12 533.484 1141.9 533.484C1138.69 533.484 1136.55 535.719 1136.55 539.328V539.35C1136.55 542.98 1138.67 545.226 1141.91 545.226ZM1141.92 543.281C1140.11 543.281 1138.92 541.853 1138.92 539.35V539.328C1138.92 536.857 1140.12 535.429 1141.9 535.429C1143.72 535.429 1144.9 536.857 1144.9 539.328V539.35C1144.9 541.842 1143.74 543.281 1141.92 543.281ZM1153.92 545.226C1156.64 545.226 1158.53 543.485 1158.78 541.219L1158.79 541.144H1156.55L1156.54 541.229C1156.26 542.454 1155.35 543.281 1153.92 543.281C1152.13 543.281 1150.93 541.831 1150.93 539.36V539.35C1150.93 536.933 1152.11 535.429 1153.91 535.429C1155.42 535.429 1156.28 536.363 1156.53 537.47L1156.55 537.556H1158.77L1158.75 537.48C1158.56 535.354 1156.8 533.484 1153.89 533.484C1150.67 533.484 1148.56 535.751 1148.56 539.328V539.339C1148.56 542.959 1150.62 545.226 1153.92 545.226ZM1163.75 545.204C1165.24 545.204 1166.55 544.431 1167.21 543.217H1167.25V545H1169.58V537.212C1169.58 534.945 1167.83 533.484 1165.07 533.484C1162.29 533.484 1160.6 534.978 1160.44 536.922L1160.43 537.04H1162.62L1162.64 536.943C1162.84 536.041 1163.66 535.407 1165.01 535.407C1166.45 535.407 1167.25 536.159 1167.25 537.405V538.254L1164.18 538.437C1161.5 538.598 1159.98 539.801 1159.98 541.767V541.788C1159.98 543.818 1161.49 545.204 1163.75 545.204ZM1162.32 541.734V541.713C1162.32 540.757 1163.09 540.145 1164.49 540.059L1167.25 539.887V540.768C1167.25 542.239 1166.02 543.346 1164.38 543.346C1163.14 543.346 1162.32 542.723 1162.32 541.734ZM1175.8 545.226C1176.28 545.226 1176.72 545.172 1176.98 545.129V543.335C1176.81 543.356 1176.61 543.378 1176.36 543.378C1175.38 543.378 1174.87 543.034 1174.87 541.885V535.547H1176.98V533.699H1174.87V530.756H1172.49V533.699H1170.87V535.547H1172.49V542.024C1172.49 544.28 1173.57 545.226 1175.8 545.226ZM1180.16 531.959C1180.93 531.959 1181.52 531.357 1181.52 530.627C1181.52 529.886 1180.93 529.284 1180.16 529.284C1179.41 529.284 1178.81 529.886 1178.81 530.627C1178.81 531.357 1179.41 531.959 1180.16 531.959ZM1179 545H1181.32V533.699H1179V545ZM1188.58 545.226C1191.81 545.226 1193.94 542.991 1193.94 539.35V539.328C1193.94 535.708 1191.79 533.484 1188.56 533.484C1185.35 533.484 1183.21 535.719 1183.21 539.328V539.35C1183.21 542.98 1185.33 545.226 1188.58 545.226ZM1188.59 543.281C1186.77 543.281 1185.59 541.853 1185.59 539.35V539.328C1185.59 536.857 1186.78 535.429 1188.56 535.429C1190.38 535.429 1191.56 536.857 1191.56 539.328V539.35C1191.56 541.842 1190.4 543.281 1188.59 543.281ZM1195.73 545H1198.05V538.415C1198.05 536.653 1199.1 535.472 1200.74 535.472C1202.35 535.472 1203.14 536.428 1203.14 538.125V545H1205.47V537.685C1205.47 535.085 1204.04 533.484 1201.56 533.484C1199.85 533.484 1198.69 534.258 1198.1 535.407H1198.05V533.699H1195.73V545Z" fill="#181818"/>
<path d="M970 427C970 393.863 996.863 367 1030 367H1177C1210.14 367 1237 393.863 1237 427V427C1237 460.137 1210.14 487 1177 487H1030C996.863 487 970 460.137 970 427V427Z" fill="#F8F8F8"/>
<path d="M1031.86 438H1039.58C1041.69 438 1043.49 437.58 1044.99 436.74C1046.49 435.9 1047.64 434.689 1048.43 433.107C1049.23 431.516 1049.63 429.606 1049.63 427.38V427.351C1049.63 425.124 1049.23 423.229 1048.43 421.667C1047.63 420.104 1046.48 418.913 1044.99 418.093C1043.49 417.272 1041.69 416.862 1039.58 416.862H1031.86V438ZM1035.64 434.821V420.041H1039.18C1040.59 420.041 1041.78 420.324 1042.76 420.891C1043.75 421.447 1044.49 422.272 1045 423.366C1045.52 424.46 1045.78 425.793 1045.78 427.365V427.395C1045.78 429.006 1045.52 430.363 1045.01 431.467C1044.51 432.561 1043.76 433.396 1042.79 433.972C1041.81 434.538 1040.61 434.821 1039.18 434.821H1035.64ZM1056.79 438.264C1057.48 438.264 1058.12 438.156 1058.71 437.941C1059.32 437.727 1059.85 437.419 1060.32 437.019C1060.79 436.618 1061.17 436.149 1061.46 435.612H1061.55V438H1065.19V427.321C1065.19 426.276 1064.92 425.368 1064.39 424.597C1063.88 423.825 1063.14 423.225 1062.18 422.795C1061.24 422.365 1060.11 422.15 1058.81 422.15C1057.5 422.15 1056.37 422.36 1055.42 422.78C1054.47 423.2 1053.73 423.776 1053.19 424.509C1052.65 425.231 1052.34 426.052 1052.27 426.97L1052.25 427.146H1055.62L1055.65 427.014C1055.78 426.438 1056.1 425.969 1056.62 425.607C1057.13 425.236 1057.82 425.051 1058.68 425.051C1059.61 425.051 1060.32 425.28 1060.81 425.739C1061.3 426.188 1061.55 426.804 1061.55 427.585V432.243C1061.55 432.858 1061.39 433.41 1061.07 433.898C1060.75 434.387 1060.31 434.772 1059.75 435.056C1059.2 435.339 1058.58 435.48 1057.88 435.48C1057.08 435.48 1056.43 435.3 1055.94 434.938C1055.46 434.567 1055.22 434.064 1055.22 433.43V433.415C1055.22 432.8 1055.46 432.307 1055.94 431.936C1056.42 431.564 1057.11 431.35 1058.01 431.291L1063.43 430.954V428.537L1057.5 428.903C1055.62 429.011 1054.17 429.47 1053.13 430.28C1052.1 431.081 1051.59 432.17 1051.59 433.547V433.576C1051.59 434.494 1051.81 435.31 1052.24 436.022C1052.68 436.726 1053.29 437.277 1054.07 437.678C1054.86 438.068 1055.77 438.264 1056.79 438.264ZM1073.9 438.308C1074.28 438.308 1074.62 438.293 1074.93 438.264C1075.24 438.234 1075.5 438.205 1075.72 438.176V435.437C1075.59 435.446 1075.45 435.461 1075.31 435.48C1075.17 435.49 1075.01 435.495 1074.82 435.495C1074.17 435.495 1073.67 435.354 1073.33 435.07C1073 434.777 1072.83 434.255 1072.83 433.503V425.285H1075.72V422.473H1072.83V418.532H1069.13V422.473H1066.93V425.285H1069.13V433.796C1069.13 435.397 1069.52 436.55 1070.3 437.253C1071.09 437.956 1072.29 438.308 1073.9 438.308ZM1084.76 438.308C1085.76 438.308 1086.66 438.176 1087.45 437.912C1088.24 437.639 1088.93 437.272 1089.5 436.813C1090.08 436.354 1090.54 435.842 1090.88 435.275C1091.22 434.699 1091.46 434.113 1091.58 433.518L1091.61 433.356H1088.21L1088.18 433.459C1088.07 433.811 1087.86 434.138 1087.55 434.44C1087.26 434.743 1086.88 434.992 1086.43 435.188C1085.97 435.373 1085.43 435.466 1084.83 435.466C1084.02 435.466 1083.32 435.29 1082.73 434.938C1082.15 434.577 1081.69 434.064 1081.37 433.4C1081.06 432.727 1080.9 431.916 1080.9 430.969V429.562C1080.9 428.586 1081.06 427.756 1081.37 427.072C1081.69 426.389 1082.13 425.876 1082.69 425.534C1083.26 425.183 1083.9 425.007 1084.62 425.007C1085.34 425.007 1085.97 425.178 1086.51 425.52C1087.06 425.852 1087.49 426.354 1087.8 427.028C1088.12 427.702 1088.27 428.547 1088.27 429.562V430.969L1090.03 428.698H1079.09V431.13H1091.77V429.958C1091.77 428.396 1091.48 427.028 1090.89 425.856C1090.32 424.685 1089.49 423.776 1088.4 423.132C1087.33 422.478 1086.05 422.15 1084.58 422.15C1083.1 422.15 1081.81 422.487 1080.71 423.161C1079.63 423.835 1078.78 424.782 1078.18 426.003C1077.58 427.214 1077.29 428.635 1077.29 430.266V430.28C1077.29 431.921 1077.58 433.342 1078.18 434.543C1078.77 435.744 1079.63 436.672 1080.74 437.326C1081.87 437.98 1083.2 438.308 1084.76 438.308ZM1109.32 438H1113.48V437.927L1101.84 425.607C1101.22 424.953 1100.72 424.396 1100.33 423.938C1099.94 423.479 1099.65 423.063 1099.46 422.692C1099.28 422.321 1099.18 421.95 1099.18 421.579V421.564C1099.18 421.086 1099.29 420.666 1099.51 420.305C1099.73 419.934 1100.03 419.646 1100.42 419.44C1100.8 419.226 1101.23 419.118 1101.72 419.118C1102.22 419.118 1102.65 419.221 1103.02 419.426C1103.4 419.631 1103.7 419.914 1103.92 420.275C1104.13 420.637 1104.24 421.057 1104.24 421.535V421.55C1104.24 422.321 1103.92 423.015 1103.29 423.63C1102.65 424.235 1101.59 424.885 1100.11 425.578L1101.89 427.38C1103.87 426.423 1105.27 425.471 1106.11 424.523C1106.96 423.576 1107.39 422.521 1107.39 421.359V421.345C1107.39 420.397 1107.14 419.567 1106.66 418.854C1106.17 418.132 1105.5 417.57 1104.65 417.17C1103.8 416.76 1102.82 416.555 1101.72 416.555C1100.61 416.555 1099.61 416.765 1098.75 417.185C1097.88 417.604 1097.19 418.181 1096.69 418.913C1096.2 419.646 1095.95 420.476 1095.95 421.403V421.418C1095.96 421.945 1096.06 422.468 1096.25 422.985C1096.46 423.503 1096.79 424.069 1097.25 424.685C1097.72 425.29 1098.33 426.013 1099.1 426.853L1109.32 438ZM1100.94 438.366C1102.6 438.366 1104.09 438.088 1105.4 437.531C1106.7 436.965 1107.81 436.174 1108.72 435.158C1109.61 434.162 1110.29 432.976 1110.76 431.599C1111.24 430.212 1111.47 428.64 1111.47 426.882V426.105H1108.33V426.765C1108.33 428.093 1108.18 429.274 1107.9 430.31C1107.62 431.345 1107.2 432.238 1106.64 432.99C1106.26 433.518 1105.8 433.977 1105.26 434.367C1104.74 434.758 1104.14 435.061 1103.48 435.275C1102.81 435.49 1102.09 435.598 1101.31 435.598C1100.49 435.598 1099.77 435.456 1099.14 435.173C1098.52 434.88 1098.03 434.475 1097.68 433.957C1097.33 433.439 1097.16 432.839 1097.16 432.155V432.141C1097.16 431.447 1097.36 430.812 1097.76 430.236C1098.17 429.66 1098.86 429.099 1099.81 428.552L1101.62 427.526L1099.73 425.593L1097.75 426.662C1096.36 427.414 1095.34 428.264 1094.67 429.211C1094.01 430.148 1093.68 431.223 1093.68 432.434V432.448C1093.68 433.63 1093.97 434.665 1094.57 435.554C1095.18 436.442 1096.03 437.136 1097.12 437.634C1098.21 438.122 1099.49 438.366 1100.94 438.366ZM1118.3 438H1122.07V420.041H1128.38V416.862H1111.97V420.041H1118.3V438ZM1130.03 438H1133.68V422.473H1130.03V438ZM1131.85 420.246C1132.43 420.246 1132.91 420.051 1133.3 419.66C1133.69 419.27 1133.89 418.801 1133.89 418.254C1133.89 417.697 1133.69 417.229 1133.3 416.848C1132.91 416.457 1132.43 416.262 1131.85 416.262C1131.28 416.262 1130.81 416.457 1130.42 416.848C1130.02 417.229 1129.83 417.697 1129.83 418.254C1129.83 418.801 1130.02 419.27 1130.42 419.66C1130.81 420.051 1131.28 420.246 1131.85 420.246ZM1136.79 438H1140.42V428.493C1140.42 427.858 1140.55 427.297 1140.8 426.809C1141.06 426.32 1141.42 425.935 1141.87 425.651C1142.32 425.368 1142.84 425.227 1143.42 425.227C1144.27 425.227 1144.94 425.48 1145.43 425.988C1145.93 426.486 1146.18 427.175 1146.18 428.054V438H1149.72V428.405C1149.72 427.78 1149.84 427.229 1150.09 426.75C1150.34 426.271 1150.69 425.9 1151.13 425.637C1151.58 425.363 1152.09 425.227 1152.68 425.227C1153.58 425.227 1154.27 425.49 1154.75 426.018C1155.22 426.545 1155.46 427.287 1155.46 428.244V438H1159.11V427.351C1159.11 426.306 1158.9 425.397 1158.47 424.626C1158.05 423.845 1157.46 423.239 1156.69 422.81C1155.94 422.37 1155.05 422.15 1154.03 422.15C1153.29 422.15 1152.59 422.282 1151.95 422.546C1151.31 422.8 1150.76 423.161 1150.28 423.63C1149.81 424.089 1149.45 424.641 1149.19 425.285H1149.12C1148.94 424.621 1148.64 424.06 1148.23 423.601C1147.83 423.132 1147.34 422.775 1146.76 422.531C1146.19 422.277 1145.54 422.15 1144.81 422.15C1143.79 422.15 1142.9 422.409 1142.13 422.927C1141.37 423.435 1140.83 424.113 1140.51 424.963H1140.42V422.473H1136.79V438ZM1168.87 438.308C1169.87 438.308 1170.77 438.176 1171.56 437.912C1172.35 437.639 1173.04 437.272 1173.61 436.813C1174.19 436.354 1174.65 435.842 1174.99 435.275C1175.33 434.699 1175.57 434.113 1175.69 433.518L1175.72 433.356H1172.32L1172.29 433.459C1172.18 433.811 1171.97 434.138 1171.67 434.44C1171.37 434.743 1171 434.992 1170.54 435.188C1170.08 435.373 1169.55 435.466 1168.94 435.466C1168.13 435.466 1167.43 435.29 1166.85 434.938C1166.26 434.577 1165.81 434.064 1165.48 433.4C1165.17 432.727 1165.01 431.916 1165.01 430.969V429.562C1165.01 428.586 1165.17 427.756 1165.48 427.072C1165.81 426.389 1166.25 425.876 1166.8 425.534C1167.37 425.183 1168.01 425.007 1168.74 425.007C1169.45 425.007 1170.08 425.178 1170.62 425.52C1171.17 425.852 1171.6 426.354 1171.91 427.028C1172.23 427.702 1172.38 428.547 1172.38 429.562V430.969L1174.14 428.698H1163.2V431.13H1175.88V429.958C1175.88 428.396 1175.59 427.028 1175 425.856C1174.43 424.685 1173.6 423.776 1172.51 423.132C1171.44 422.478 1170.17 422.15 1168.69 422.15C1167.21 422.15 1165.92 422.487 1164.82 423.161C1163.74 423.835 1162.9 424.782 1162.29 426.003C1161.69 427.214 1161.4 428.635 1161.4 430.266V430.28C1161.4 431.921 1161.69 433.342 1162.29 434.543C1162.89 435.744 1163.74 436.672 1164.85 437.326C1165.98 437.98 1167.31 438.308 1168.87 438.308Z" fill="#181818"/>
<path d="M428.258 298H437.618C442.13 298 444.928 295.686 444.928 291.979V291.95C444.928 289.182 442.804 287.102 439.859 286.882V286.794C442.188 286.486 443.946 284.509 443.946 282.194V282.165C443.946 278.913 441.441 276.862 437.457 276.862H428.258V298ZM436.314 280.144C438.38 280.144 439.596 281.11 439.596 282.795V282.824C439.596 284.655 438.263 285.695 435.772 285.695H432.682V280.144H436.314ZM436.3 288.698C439.01 288.698 440.416 289.738 440.416 291.672V291.701C440.416 293.664 439.024 294.704 436.49 294.704H432.682V288.698H436.3ZM454.288 298.322C459.034 298.322 462.066 295.275 462.066 290.148V290.119C462.066 285.036 458.976 281.975 454.273 281.975C449.586 281.975 446.51 285.065 446.51 290.119V290.148C446.51 295.261 449.513 298.322 454.288 298.322ZM454.303 294.968C452.193 294.968 450.86 293.225 450.86 290.148V290.119C450.86 287.087 452.208 285.329 454.273 285.329C456.354 285.329 457.716 287.087 457.716 290.119V290.148C457.716 293.21 456.383 294.968 454.303 294.968ZM471.485 298.322C476.231 298.322 479.264 295.275 479.264 290.148V290.119C479.264 285.036 476.173 281.975 471.471 281.975C466.783 281.975 463.707 285.065 463.707 290.119V290.148C463.707 295.261 466.71 298.322 471.485 298.322ZM471.5 294.968C469.391 294.968 468.058 293.225 468.058 290.148V290.119C468.058 287.087 469.405 285.329 471.471 285.329C473.551 285.329 474.913 287.087 474.913 290.119V290.148C474.913 293.21 473.58 294.968 471.5 294.968ZM481.622 298H485.899V292.8L486.998 291.584L491.495 298H496.432L490.206 289.05L496.139 282.297H491.29L485.987 288.581H485.899V276.862H481.622V298Z" fill="#181818"/>
<path d="M446 228H477V226H446V228ZM477 346H446V348H477V346ZM446 346C413.415 346 387 319.585 387 287H385C385 320.689 412.311 348 446 348V346ZM536 287C536 319.585 509.585 346 477 346V348C510.689 348 538 320.689 538 287H536ZM477 228C509.585 228 536 254.415 536 287H538C538 253.311 510.689 226 477 226V228ZM446 226C412.311 226 385 253.311 385 287H387C387 254.415 413.415 228 446 228V226Z" fill="black"/>
<path d="M294 286C293.172 286 292.5 286.672 292.5 287.5C292.5 288.328 293.172 289 294 289L294 286ZM355.061 288.561C355.646 287.975 355.646 287.025 355.061 286.439L345.515 276.893C344.929 276.308 343.979 276.308 343.393 276.893C342.808 277.479 342.808 278.429 343.393 279.015L351.879 287.5L343.393 295.985C342.808 296.571 342.808 297.521 343.393 298.107C343.979 298.692 344.929 298.692 345.515 298.107L355.061 288.561ZM294 289L324 289L324 286L294 286L294 289ZM324 289L354 289L354 286L324 286L324 289Z" fill="#858585"/>
<path d="M569 286C568.172 286 567.5 286.672 567.5 287.5C567.5 288.328 568.172 289 569 289L569 286ZM630.061 288.561C630.646 287.975 630.646 287.025 630.061 286.439L620.515 276.893C619.929 276.308 618.979 276.308 618.393 276.893C617.808 277.479 617.808 278.429 618.393 279.015L626.879 287.5L618.393 295.985C617.808 296.571 617.808 297.521 618.393 298.107C618.979 298.692 619.929 298.692 620.515 298.107L630.061 288.561ZM569 289L599 289L599 286L569 286L569 289ZM599 289L629 289L629 286L599 286L599 289Z" fill="#858585"/>
<path d="M21 287C21 253.863 47.8629 227 81 227H202C235.137 227 262 253.863 262 287V287C262 320.137 235.137 347 202 347H81C47.8629 347 21 320.137 21 287V287Z" fill="#F8F8F8"/>
<path d="M92.0596 298.366C93.6807 298.366 95.1357 298.059 96.4248 297.443C97.7139 296.818 98.7637 295.954 99.5742 294.851C100.385 293.747 100.878 292.478 101.054 291.042L101.083 290.881H97.377L97.333 291.027C97.1084 291.896 96.752 292.634 96.2637 293.239C95.7754 293.845 95.1748 294.309 94.4619 294.631C93.7588 294.943 92.958 295.1 92.0596 295.1C90.8389 295.1 89.7695 294.787 88.8516 294.162C87.9434 293.527 87.2402 292.639 86.7422 291.496C86.2441 290.344 85.9951 288.986 85.9951 287.424V287.409C85.9951 285.837 86.2441 284.484 86.7422 283.352C87.2402 282.209 87.9434 281.325 88.8516 280.7C89.7598 280.075 90.8291 279.763 92.0596 279.763C92.9775 279.763 93.793 279.924 94.5059 280.246C95.2188 280.568 95.8096 281.022 96.2783 281.608C96.7471 282.194 97.084 282.893 97.2891 283.703L97.3623 283.981H101.068L101.054 283.835C100.868 282.399 100.37 281.13 99.5596 280.026C98.749 278.923 97.6992 278.059 96.4102 277.434C95.1309 276.809 93.6807 276.496 92.0596 276.496C90.0381 276.496 88.2852 276.94 86.8008 277.829C85.3164 278.708 84.1689 279.963 83.3584 281.594C82.5479 283.225 82.1426 285.163 82.1426 287.409V287.424C82.1426 289.67 82.543 291.613 83.3438 293.254C84.1543 294.885 85.3018 296.145 86.7861 297.033C88.2803 297.922 90.0381 298.366 92.0596 298.366ZM108.114 298.264C108.798 298.264 109.438 298.156 110.033 297.941C110.639 297.727 111.176 297.419 111.645 297.019C112.113 296.618 112.494 296.149 112.787 295.612H112.875V298H116.508V287.321C116.508 286.276 116.244 285.368 115.717 284.597C115.199 283.825 114.462 283.225 113.505 282.795C112.558 282.365 111.435 282.15 110.136 282.15C108.827 282.15 107.694 282.36 106.737 282.78C105.79 283.2 105.048 283.776 104.511 284.509C103.974 285.231 103.666 286.052 103.588 286.97L103.573 287.146H106.942L106.972 287.014C107.099 286.438 107.421 285.969 107.938 285.607C108.456 285.236 109.145 285.051 110.004 285.051C110.932 285.051 111.64 285.28 112.128 285.739C112.626 286.188 112.875 286.804 112.875 287.585V292.243C112.875 292.858 112.714 293.41 112.392 293.898C112.069 294.387 111.63 294.772 111.073 295.056C110.526 295.339 109.901 295.48 109.198 295.48C108.397 295.48 107.753 295.3 107.265 294.938C106.786 294.567 106.547 294.064 106.547 293.43V293.415C106.547 292.8 106.786 292.307 107.265 291.936C107.743 291.564 108.432 291.35 109.33 291.291L114.75 290.954V288.537L108.817 288.903C106.942 289.011 105.487 289.47 104.452 290.28C103.427 291.081 102.914 292.17 102.914 293.547V293.576C102.914 294.494 103.129 295.31 103.559 296.022C103.998 296.726 104.608 297.277 105.39 297.678C106.181 298.068 107.089 298.264 108.114 298.264ZM119.569 298H123.217V276.862H119.569V298ZM133.148 298.308C134.154 298.308 135.053 298.176 135.844 297.912C136.635 297.639 137.318 297.272 137.895 296.813C138.471 296.354 138.93 295.842 139.271 295.275C139.613 294.699 139.848 294.113 139.975 293.518L140.004 293.356H136.605L136.576 293.459C136.459 293.811 136.249 294.138 135.946 294.44C135.653 294.743 135.277 294.992 134.818 295.188C134.359 295.373 133.827 295.466 133.222 295.466C132.411 295.466 131.713 295.29 131.127 294.938C130.541 294.577 130.087 294.064 129.765 293.4C129.452 292.727 129.296 291.916 129.296 290.969V289.562C129.296 288.586 129.452 287.756 129.765 287.072C130.087 286.389 130.526 285.876 131.083 285.534C131.649 285.183 132.294 285.007 133.017 285.007C133.729 285.007 134.359 285.178 134.906 285.52C135.453 285.852 135.883 286.354 136.195 287.028C136.508 287.702 136.664 288.547 136.664 289.562V290.969L138.422 288.698H127.479V291.13H140.165V289.958C140.165 288.396 139.872 287.028 139.286 285.856C138.71 284.685 137.88 283.776 136.796 283.132C135.722 282.478 134.447 282.15 132.973 282.15C131.488 282.15 130.199 282.487 129.105 283.161C128.021 283.835 127.177 284.782 126.571 286.003C125.976 287.214 125.678 288.635 125.678 290.266V290.28C125.678 291.921 125.976 293.342 126.571 294.543C127.167 295.744 128.021 296.672 129.135 297.326C130.258 297.98 131.596 298.308 133.148 298.308ZM142.494 298H146.127V288.991C146.127 288.239 146.269 287.585 146.552 287.028C146.835 286.462 147.235 286.022 147.753 285.71C148.271 285.388 148.876 285.227 149.569 285.227C150.604 285.227 151.381 285.529 151.898 286.135C152.416 286.73 152.675 287.58 152.675 288.684V298H156.322V287.951C156.322 286.154 155.854 284.738 154.916 283.703C153.988 282.668 152.67 282.15 150.961 282.15C149.789 282.15 148.803 282.399 148.002 282.897C147.211 283.396 146.615 284.064 146.215 284.904H146.127V282.473H142.494V298ZM165.023 298.308C166.146 298.308 167.123 298.049 167.953 297.531C168.783 297.004 169.418 296.281 169.857 295.363H169.945V298H173.578V276.862H169.945V285.139H169.857C169.418 284.211 168.773 283.483 167.924 282.956C167.084 282.419 166.112 282.15 165.009 282.15C163.71 282.15 162.582 282.478 161.625 283.132C160.668 283.776 159.926 284.704 159.398 285.915C158.871 287.116 158.607 288.552 158.607 290.222V290.236C158.607 291.896 158.866 293.332 159.384 294.543C159.911 295.754 160.653 296.687 161.61 297.341C162.577 297.985 163.715 298.308 165.023 298.308ZM166.122 295.246C165.341 295.246 164.662 295.046 164.086 294.646C163.52 294.235 163.08 293.654 162.768 292.902C162.465 292.15 162.313 291.262 162.313 290.236V290.222C162.313 289.187 162.465 288.298 162.768 287.556C163.08 286.813 163.52 286.242 164.086 285.842C164.662 285.432 165.341 285.227 166.122 285.227C166.874 285.227 167.533 285.432 168.1 285.842C168.676 286.252 169.125 286.833 169.447 287.585C169.779 288.327 169.945 289.206 169.945 290.222V290.236C169.945 291.252 169.784 292.136 169.462 292.888C169.14 293.64 168.69 294.221 168.114 294.631C167.538 295.041 166.874 295.246 166.122 295.246ZM181.239 298.264C181.923 298.264 182.562 298.156 183.158 297.941C183.764 297.727 184.301 297.419 184.77 297.019C185.238 296.618 185.619 296.149 185.912 295.612H186V298H189.633V287.321C189.633 286.276 189.369 285.368 188.842 284.597C188.324 283.825 187.587 283.225 186.63 282.795C185.683 282.365 184.56 282.15 183.261 282.15C181.952 282.15 180.819 282.36 179.862 282.78C178.915 283.2 178.173 283.776 177.636 284.509C177.099 285.231 176.791 286.052 176.713 286.97L176.698 287.146H180.067L180.097 287.014C180.224 286.438 180.546 285.969 181.063 285.607C181.581 285.236 182.27 285.051 183.129 285.051C184.057 285.051 184.765 285.28 185.253 285.739C185.751 286.188 186 286.804 186 287.585V292.243C186 292.858 185.839 293.41 185.517 293.898C185.194 294.387 184.755 294.772 184.198 295.056C183.651 295.339 183.026 295.48 182.323 295.48C181.522 295.48 180.878 295.3 180.39 294.938C179.911 294.567 179.672 294.064 179.672 293.43V293.415C179.672 292.8 179.911 292.307 180.39 291.936C180.868 291.564 181.557 291.35 182.455 291.291L187.875 290.954V288.537L181.942 288.903C180.067 289.011 178.612 289.47 177.577 290.28C176.552 291.081 176.039 292.17 176.039 293.547V293.576C176.039 294.494 176.254 295.31 176.684 296.022C177.123 296.726 177.733 297.277 178.515 297.678C179.306 298.068 180.214 298.264 181.239 298.264ZM192.592 298H196.225V288.991C196.225 288.22 196.356 287.565 196.62 287.028C196.884 286.491 197.265 286.086 197.763 285.812C198.261 285.529 198.852 285.388 199.535 285.388C199.848 285.388 200.136 285.407 200.399 285.446C200.673 285.485 200.883 285.534 201.029 285.593V282.297C200.893 282.258 200.722 282.224 200.517 282.194C200.312 282.165 200.097 282.15 199.872 282.15C198.974 282.15 198.212 282.419 197.587 282.956C196.972 283.483 196.547 284.216 196.312 285.153H196.225V282.473H192.592V298Z" fill="#181818"/>
</svg>
