<svg width="712" height="105" viewBox="0 0 712 105" fill="none" xmlns="http://www.w3.org/2000/svg">
<path d="M17.3333 78C17.3333 79.4728 18.5272 80.6667 20 80.6667C21.4728 80.6667 22.6667 79.4728 22.6667 78C22.6667 76.5272 21.4728 75.3333 20 75.3333C18.5272 75.3333 17.3333 76.5272 17.3333 78ZM689.333 78C689.333 79.4728 690.527 80.6667 692 80.6667C693.473 80.6667 694.667 79.4728 694.667 78C694.667 76.5272 693.473 75.3333 692 75.3333C690.527 75.3333 689.333 76.5272 689.333 78ZM20 78.5H692V77.5H20V78.5Z" fill="#858585"/>
<path d="M9.31392 47.6364C9.31392 48.5455 9.15199 49.3366 8.82812 50.0099C8.50426 50.6804 8.05824 51.2003 7.49006 51.5696C6.92472 51.9361 6.27415 52.1193 5.53835 52.1193C4.80256 52.1193 4.15057 51.9361 3.58239 51.5696C3.01705 51.2003 2.57244 50.6804 2.24858 50.0099C1.92756 49.3366 1.76705 48.5455 1.76705 47.6364C1.76705 46.7273 1.92756 45.9375 2.24858 45.267C2.57244 44.5937 3.01847 44.0739 3.58665 43.7074C4.15483 43.3381 4.8054 43.1534 5.53835 43.1534C6.27415 43.1534 6.92472 43.3381 7.49006 43.7074C8.05824 44.0739 8.50426 44.5937 8.82812 45.267C9.15199 45.9375 9.31392 46.7273 9.31392 47.6364ZM8.53835 47.6364C8.53835 46.8551 8.40767 46.1861 8.14631 45.6293C7.88494 45.0696 7.52841 44.642 7.0767 44.3466C6.625 44.0511 6.11222 43.9034 5.53835 43.9034C4.96733 43.9034 4.45597 44.0511 4.00426 44.3466C3.55256 44.642 3.1946 45.0682 2.9304 45.625C2.66903 46.1818 2.53835 46.8523 2.53835 47.6364C2.53835 48.4176 2.66903 49.0866 2.9304 49.6435C3.19176 50.2003 3.5483 50.6278 4 50.9261C4.4517 51.2216 4.96449 51.3693 5.53835 51.3693C6.11222 51.3693 6.625 51.2216 7.0767 50.9261C7.53125 50.6307 7.8892 50.2045 8.15057 49.6477C8.41193 49.0881 8.54119 48.4176 8.53835 47.6364ZM13.6403 52.1364C13.055 52.1364 12.5451 51.9901 12.1104 51.6974C11.6786 51.4048 11.3434 51.0043 11.1048 50.4957C10.8661 49.9872 10.7468 49.4077 10.7468 48.7571C10.7468 48.1009 10.8675 47.517 11.109 47.0057C11.3533 46.4943 11.6914 46.0937 12.1232 45.804C12.555 45.5114 13.0565 45.3651 13.6275 45.3651C14.065 45.3651 14.4613 45.4503 14.8164 45.6207C15.1715 45.7884 15.4641 46.0256 15.6942 46.3324C15.9272 46.6364 16.0735 46.9915 16.1332 47.3977H15.3661C15.2866 47.0284 15.0948 46.7131 14.7908 46.4517C14.4897 46.1875 14.1062 46.0554 13.6403 46.0554C13.2227 46.0554 12.8533 46.169 12.5323 46.3963C12.2113 46.6207 11.9599 46.9347 11.7781 47.3381C11.5991 47.7386 11.5096 48.2031 11.5096 48.7315C11.5096 49.2628 11.5977 49.733 11.7738 50.142C11.9499 50.5483 12.1971 50.8665 12.5153 51.0966C12.8363 51.3267 13.2113 51.4418 13.6403 51.4418C13.93 51.4418 14.1942 51.3878 14.4329 51.2798C14.6744 51.169 14.8761 51.0128 15.038 50.8111C15.2028 50.6094 15.3136 50.3693 15.3704 50.0909H16.1374C16.0806 50.4858 15.94 50.8381 15.7156 51.1477C15.494 51.4545 15.2056 51.696 14.8505 51.8722C14.4982 52.0483 14.0948 52.1364 13.6403 52.1364ZM20.3413 45.4545V46.1151H17.2177V45.4545H20.3413ZM18.1935 43.8864H18.9563V50.2912C18.9563 50.5639 19.0032 50.7784 19.0969 50.9347C19.1907 51.0881 19.3129 51.1974 19.4634 51.2628C19.614 51.3253 19.7745 51.3565 19.945 51.3565C20.0444 51.3565 20.1296 51.3509 20.2006 51.3395C20.2717 51.3253 20.3342 51.3111 20.3881 51.2969L20.5501 51.983C20.4762 52.0114 20.3853 52.0369 20.2773 52.0597C20.1694 52.0852 20.0359 52.098 19.8768 52.098C19.5984 52.098 19.3299 52.0369 19.0714 51.9148C18.8157 51.7926 18.6055 51.6108 18.4407 51.3693C18.2759 51.1278 18.1935 50.8281 18.1935 50.4702V43.8864ZM22.669 52.0639C22.5014 52.0639 22.3565 52.0043 22.2344 51.8849C22.1151 51.7628 22.0554 51.6179 22.0554 51.4503C22.0554 51.2798 22.1151 51.1349 22.2344 51.0156C22.3565 50.8963 22.5014 50.8366 22.669 50.8366C22.8395 50.8366 22.9844 50.8963 23.1037 51.0156C23.223 51.1349 23.2827 51.2798 23.2827 51.4503C23.2827 51.5611 23.2543 51.6634 23.1974 51.7571C23.1435 51.8509 23.0696 51.9261 22.9759 51.983C22.8849 52.0369 22.7827 52.0639 22.669 52.0639ZM28.6317 52V51.4162L31.4826 48.2116C31.8548 47.7912 32.1545 47.4318 32.3817 47.1335C32.609 46.8352 32.7738 46.5597 32.8761 46.3068C32.9812 46.054 33.0337 45.7912 33.0337 45.5185C33.0337 45.1861 32.9556 44.8963 32.7994 44.6491C32.646 44.3991 32.4343 44.2045 32.1644 44.0653C31.8945 43.9261 31.5906 43.8565 31.2525 43.8565C30.8945 43.8565 30.5806 43.9332 30.3107 44.0866C30.0437 44.2401 29.8363 44.4503 29.6886 44.7173C29.5408 44.9844 29.467 45.2912 29.467 45.6378H28.7042C28.7042 45.1548 28.815 44.7273 29.0366 44.3551C29.261 43.9801 29.5664 43.6861 29.9528 43.473C30.342 43.2599 30.7823 43.1534 31.2738 43.1534C31.7596 43.1534 32.1914 43.2585 32.5692 43.4688C32.9471 43.6761 33.244 43.9588 33.4599 44.3168C33.6758 44.6747 33.7837 45.0753 33.7837 45.5185C33.7837 45.8395 33.7269 46.1506 33.6133 46.4517C33.5025 46.7528 33.3107 47.0881 33.038 47.4574C32.7653 47.8267 32.3874 48.2784 31.9045 48.8125L29.7397 51.2287V51.2841H34.0565V52H28.6317ZM38.6662 52.1193C38.0526 52.1193 37.5284 51.9432 37.0938 51.5909C36.6619 51.2358 36.3295 50.723 36.0966 50.0526C35.8665 49.3821 35.7514 48.5767 35.7514 47.6364C35.7514 46.6989 35.8665 45.8963 36.0966 45.2287C36.3295 44.5582 36.6634 44.0455 37.098 43.6903C37.5355 43.3324 38.0582 43.1534 38.6662 43.1534C39.2741 43.1534 39.7955 43.3324 40.2301 43.6903C40.6676 44.0455 41.0014 44.5582 41.2315 45.2287C41.4645 45.8963 41.581 46.6989 41.581 47.6364C41.581 48.5767 41.4645 49.3821 41.2315 50.0526C41.0014 50.723 40.669 51.2358 40.2344 51.5909C39.8026 51.9432 39.2798 52.1193 38.6662 52.1193ZM38.6662 51.4034C39.3395 51.4034 39.8651 51.0753 40.2429 50.419C40.6207 49.7599 40.8097 48.8324 40.8097 47.6364C40.8097 46.8409 40.723 46.1619 40.5497 45.5994C40.3793 45.0341 40.1335 44.6023 39.8125 44.304C39.4943 44.0057 39.1122 43.8565 38.6662 43.8565C37.9986 43.8565 37.4744 44.1889 37.0938 44.8537C36.7131 45.5156 36.5227 46.4432 36.5227 47.6364C36.5227 48.4318 36.608 49.1108 36.7784 49.6733C36.9517 50.2358 37.1974 50.6648 37.5156 50.9602C37.8366 51.2557 38.2202 51.4034 38.6662 51.4034ZM43.3153 52V51.4162L46.1662 48.2116C46.5384 47.7912 46.8381 47.4318 47.0653 47.1335C47.2926 46.8352 47.4574 46.5597 47.5597 46.3068C47.6648 46.054 47.7173 45.7912 47.7173 45.5185C47.7173 45.1861 47.6392 44.8963 47.483 44.6491C47.3295 44.3991 47.1179 44.2045 46.848 44.0653C46.5781 43.9261 46.2741 43.8565 45.9361 43.8565C45.5781 43.8565 45.2642 43.9332 44.9943 44.0866C44.7273 44.2401 44.5199 44.4503 44.3722 44.7173C44.2244 44.9844 44.1506 45.2912 44.1506 45.6378H43.3878C43.3878 45.1548 43.4986 44.7273 43.7202 44.3551C43.9446 43.9801 44.25 43.6861 44.6364 43.473C45.0256 43.2599 45.4659 43.1534 45.9574 43.1534C46.4432 43.1534 46.875 43.2585 47.2528 43.4688C47.6307 43.6761 47.9276 43.9588 48.1435 44.3168C48.3594 44.6747 48.4673 45.0753 48.4673 45.5185C48.4673 45.8395 48.4105 46.1506 48.2969 46.4517C48.1861 46.7528 47.9943 47.0881 47.7216 47.4574C47.4489 47.8267 47.071 48.2784 46.5881 48.8125L44.4233 51.2287V51.2841H48.7401V52H43.3153ZM53.3327 43.2727V52H52.5359V44.108H52.4847L50.4393 45.4673V44.6406L52.5018 43.2727H53.3327Z" fill="#181818"/>
<path d="M651.172 52H650.337L653.511 43.2727H654.364L657.538 52H656.703L653.967 44.3082H653.908L651.172 52ZM651.773 48.6548H656.102V49.3707H651.773V48.6548ZM658.876 54.4545V45.4545H659.614V46.7031H659.703C659.794 46.5071 659.919 46.3068 660.078 46.1023C660.237 45.8949 660.447 45.7202 660.709 45.5781C660.973 45.4361 661.305 45.3651 661.706 45.3651C662.246 45.3651 662.717 45.5071 663.121 45.7912C663.527 46.0724 663.842 46.4673 664.067 46.9759C664.294 47.4815 664.408 48.071 664.408 48.7443C664.408 49.4205 664.294 50.0128 664.067 50.5213C663.842 51.0298 663.527 51.4261 663.121 51.7102C662.717 51.9943 662.249 52.1364 661.714 52.1364C661.32 52.1364 660.989 52.0653 660.722 51.9233C660.457 51.7812 660.243 51.6065 660.078 51.3991C659.916 51.1889 659.791 50.9844 659.703 50.7855H659.635V54.4545H658.876ZM659.626 48.7315C659.626 49.2599 659.705 49.7287 659.861 50.1378C660.02 50.544 660.247 50.8636 660.543 51.0966C660.841 51.3267 661.202 51.4418 661.625 51.4418C662.06 51.4418 662.426 51.3224 662.724 51.0838C663.026 50.8423 663.254 50.517 663.411 50.108C663.57 49.6989 663.649 49.2401 663.649 48.7315C663.649 48.2287 663.571 47.7756 663.415 47.3722C663.261 46.9687 663.034 46.6491 662.733 46.4134C662.432 46.1747 662.062 46.0554 661.625 46.0554C661.199 46.0554 660.837 46.1705 660.538 46.4006C660.24 46.6278 660.013 46.9432 659.857 47.3466C659.703 47.7472 659.626 48.2088 659.626 48.7315ZM666.072 52V45.4545H666.809V46.4602H666.864C666.995 46.1307 667.222 45.8651 667.546 45.6634C667.873 45.4588 668.242 45.3565 668.654 45.3565C668.717 45.3565 668.786 45.358 668.863 45.3608C668.94 45.3636 669.004 45.3665 669.055 45.3693V46.1406C669.021 46.1349 668.961 46.1264 668.876 46.1151C668.79 46.1037 668.698 46.098 668.599 46.098C668.258 46.098 667.954 46.1705 667.687 46.3153C667.423 46.4574 667.214 46.6548 667.06 46.9077C666.907 47.1605 666.83 47.4489 666.83 47.7727V52H666.072ZM670.358 52V45.4545H671.12V52H670.358ZM670.745 44.3295C670.589 44.3295 670.456 44.277 670.345 44.1719C670.234 44.0639 670.179 43.9347 670.179 43.7841C670.179 43.6335 670.234 43.5057 670.345 43.4006C670.456 43.2926 670.589 43.2386 670.745 43.2386C670.902 43.2386 671.035 43.2926 671.146 43.4006C671.257 43.5057 671.312 43.6335 671.312 43.7841C671.312 43.9347 671.257 44.0639 671.146 44.1719C671.035 44.277 670.902 44.3295 670.745 44.3295ZM673.885 43.2727V52H673.126V43.2727H673.885ZM676.497 52.0639C676.33 52.0639 676.185 52.0043 676.062 51.8849C675.943 51.7628 675.884 51.6179 675.884 51.4503C675.884 51.2798 675.943 51.1349 676.062 51.0156C676.185 50.8963 676.33 50.8366 676.497 50.8366C676.668 50.8366 676.812 50.8963 676.932 51.0156C677.051 51.1349 677.111 51.2798 677.111 51.4503C677.111 51.5611 677.082 51.6634 677.026 51.7571C676.972 51.8509 676.898 51.9261 676.804 51.983C676.713 52.0369 676.611 52.0639 676.497 52.0639ZM682.46 52V51.4162L685.311 48.2116C685.683 47.7912 685.983 47.4318 686.21 47.1335C686.437 46.8352 686.602 46.5597 686.704 46.3068C686.809 46.054 686.862 45.7912 686.862 45.5185C686.862 45.1861 686.784 44.8963 686.627 44.6491C686.474 44.3991 686.262 44.2045 685.993 44.0653C685.723 43.9261 685.419 43.8565 685.081 43.8565C684.723 43.8565 684.409 43.9332 684.139 44.0866C683.872 44.2401 683.664 44.4503 683.517 44.7173C683.369 44.9844 683.295 45.2912 683.295 45.6378H682.532C682.532 45.1548 682.643 44.7273 682.865 44.3551C683.089 43.9801 683.395 43.6861 683.781 43.473C684.17 43.2599 684.61 43.1534 685.102 43.1534C685.588 43.1534 686.02 43.2585 686.397 43.4688C686.775 43.6761 687.072 43.9588 687.288 44.3168C687.504 44.6747 687.612 45.0753 687.612 45.5185C687.612 45.8395 687.555 46.1506 687.441 46.4517C687.331 46.7528 687.139 47.0881 686.866 47.4574C686.593 47.8267 686.216 48.2784 685.733 48.8125L683.568 51.2287V51.2841H687.885V52H682.46ZM692.494 52.1193C691.881 52.1193 691.357 51.9432 690.922 51.5909C690.49 51.2358 690.158 50.723 689.925 50.0526C689.695 49.3821 689.58 48.5767 689.58 47.6364C689.58 46.6989 689.695 45.8963 689.925 45.2287C690.158 44.5582 690.491 44.0455 690.926 43.6903C691.364 43.3324 691.886 43.1534 692.494 43.1534C693.102 43.1534 693.624 43.3324 694.058 43.6903C694.496 44.0455 694.83 44.5582 695.06 45.2287C695.293 45.8963 695.409 46.6989 695.409 47.6364C695.409 48.5767 695.293 49.3821 695.06 50.0526C694.83 50.723 694.497 51.2358 694.062 51.5909C693.631 51.9432 693.108 52.1193 692.494 52.1193ZM692.494 51.4034C693.168 51.4034 693.693 51.0753 694.071 50.419C694.449 49.7599 694.638 48.8324 694.638 47.6364C694.638 46.8409 694.551 46.1619 694.378 45.5994C694.207 45.0341 693.962 44.6023 693.641 44.304C693.322 44.0057 692.94 43.8565 692.494 43.8565C691.827 43.8565 691.303 44.1889 690.922 44.8537C690.541 45.5156 690.351 46.4432 690.351 47.6364C690.351 48.4318 690.436 49.1108 690.607 49.6733C690.78 50.2358 691.026 50.6648 691.344 50.9602C691.665 51.2557 692.048 51.4034 692.494 51.4034ZM697.143 52V51.4162L699.994 48.2116C700.366 47.7912 700.666 47.4318 700.893 47.1335C701.121 46.8352 701.286 46.5597 701.388 46.3068C701.493 46.054 701.545 45.7912 701.545 45.5185C701.545 45.1861 701.467 44.8963 701.311 44.6491C701.158 44.3991 700.946 44.2045 700.676 44.0653C700.406 43.9261 700.102 43.8565 699.764 43.8565C699.406 43.8565 699.092 43.9332 698.822 44.0866C698.555 44.2401 698.348 44.4503 698.2 44.7173C698.053 44.9844 697.979 45.2912 697.979 45.6378H697.216C697.216 45.1548 697.327 44.7273 697.548 44.3551C697.773 43.9801 698.078 43.6861 698.464 43.473C698.854 43.2599 699.294 43.1534 699.786 43.1534C700.271 43.1534 700.703 43.2585 701.081 43.4688C701.459 43.6761 701.756 43.9588 701.972 44.3168C702.188 44.6747 702.295 45.0753 702.295 45.5185C702.295 45.8395 702.239 46.1506 702.125 46.4517C702.014 46.7528 701.822 47.0881 701.55 47.4574C701.277 47.8267 700.899 48.2784 700.416 48.8125L698.251 51.2287V51.2841H702.568V52H697.143ZM704.468 52V51.4162L707.319 48.2116C707.691 47.7912 707.99 47.4318 708.218 47.1335C708.445 46.8352 708.61 46.5597 708.712 46.3068C708.817 46.054 708.87 45.7912 708.87 45.5185C708.87 45.1861 708.792 44.8963 708.635 44.6491C708.482 44.3991 708.27 44.2045 708 44.0653C707.73 43.9261 707.426 43.8565 707.088 43.8565C706.73 43.8565 706.417 43.9332 706.147 44.0866C705.88 44.2401 705.672 44.4503 705.525 44.7173C705.377 44.9844 705.303 45.2912 705.303 45.6378H704.54C704.54 45.1548 704.651 44.7273 704.873 44.3551C705.097 43.9801 705.402 43.6861 705.789 43.473C706.178 43.2599 706.618 43.1534 707.11 43.1534C707.596 43.1534 708.027 43.2585 708.405 43.4688C708.783 43.6761 709.08 43.9588 709.296 44.3168C709.512 44.6747 709.62 45.0753 709.62 45.5185C709.62 45.8395 709.563 46.1506 709.449 46.4517C709.338 46.7528 709.147 47.0881 708.874 47.4574C708.601 47.8267 708.223 48.2784 707.74 48.8125L705.576 51.2287V51.2841H709.892V52H704.468Z" fill="#181818"/>
<path d="M301.104 49.16V56H299.88V39.02H304.26C306.252 39.02 307.752 39.456 308.76 40.328C309.776 41.2 310.284 42.444 310.284 44.06C310.284 44.804 310.144 45.488 309.864 46.112C309.592 46.736 309.196 47.276 308.676 47.732C308.156 48.18 307.524 48.532 306.78 48.788C306.036 49.036 305.196 49.16 304.26 49.16H301.104ZM301.104 48.176H304.26C305.012 48.176 305.684 48.072 306.276 47.864C306.868 47.656 307.368 47.368 307.776 47C308.192 46.632 308.508 46.2 308.724 45.704C308.948 45.2 309.06 44.652 309.06 44.06C309.06 42.756 308.656 41.752 307.848 41.048C307.048 40.344 305.852 39.992 304.26 39.992H301.104V48.176ZM313.194 56V44.06H313.794C313.93 44.06 314.026 44.088 314.082 44.144C314.146 44.2 314.182 44.296 314.19 44.432L314.286 46.952C314.67 45.984 315.182 45.228 315.822 44.684C316.462 44.132 317.25 43.856 318.186 43.856C318.546 43.856 318.878 43.896 319.182 43.976C319.486 44.048 319.774 44.156 320.046 44.3L319.89 45.092C319.866 45.22 319.786 45.284 319.65 45.284C319.602 45.284 319.534 45.268 319.446 45.236C319.358 45.204 319.246 45.168 319.11 45.128C318.982 45.088 318.822 45.052 318.63 45.02C318.438 44.988 318.218 44.972 317.97 44.972C317.066 44.972 316.322 45.252 315.738 45.812C315.162 46.372 314.694 47.18 314.334 48.236V56H313.194ZM327.233 43.868C327.905 43.868 328.525 43.984 329.093 44.216C329.669 44.448 330.165 44.788 330.581 45.236C331.005 45.676 331.333 46.22 331.565 46.868C331.805 47.516 331.925 48.26 331.925 49.1C331.925 49.276 331.897 49.396 331.841 49.46C331.793 49.524 331.713 49.556 331.601 49.556H322.973V49.784C322.973 50.68 323.077 51.468 323.285 52.148C323.493 52.828 323.789 53.4 324.173 53.864C324.557 54.32 325.021 54.664 325.565 54.896C326.109 55.128 326.717 55.244 327.389 55.244C327.989 55.244 328.509 55.18 328.949 55.052C329.389 54.916 329.757 54.768 330.053 54.608C330.357 54.44 330.597 54.292 330.773 54.164C330.949 54.028 331.077 53.96 331.157 53.96C331.261 53.96 331.341 54 331.397 54.08L331.709 54.464C331.517 54.704 331.261 54.928 330.941 55.136C330.629 55.344 330.277 55.524 329.885 55.676C329.501 55.82 329.085 55.936 328.637 56.024C328.197 56.112 327.753 56.156 327.305 56.156C326.489 56.156 325.745 56.016 325.073 55.736C324.401 55.448 323.825 55.032 323.345 54.488C322.865 53.944 322.493 53.28 322.229 52.496C321.973 51.704 321.845 50.8 321.845 49.784C321.845 48.928 321.965 48.14 322.205 47.42C322.453 46.692 322.805 46.068 323.261 45.548C323.725 45.02 324.289 44.608 324.953 44.312C325.625 44.016 326.385 43.868 327.233 43.868ZM327.245 44.72C326.629 44.72 326.077 44.816 325.589 45.008C325.101 45.2 324.677 45.476 324.317 45.836C323.965 46.196 323.677 46.628 323.453 47.132C323.237 47.636 323.093 48.2 323.021 48.824H330.893C330.893 48.184 330.805 47.612 330.629 47.108C330.453 46.596 330.205 46.164 329.885 45.812C329.565 45.46 329.181 45.192 328.733 45.008C328.285 44.816 327.789 44.72 327.245 44.72ZM334.247 48.392H339.827V49.364H334.247V48.392ZM344.436 38.54V56H343.296V38.54H344.436ZM356.275 56C356.035 56 355.887 55.888 355.831 55.664L355.663 54.14C355.335 54.46 355.007 54.748 354.679 55.004C354.359 55.26 354.023 55.476 353.671 55.652C353.319 55.828 352.939 55.96 352.531 56.048C352.123 56.144 351.675 56.192 351.187 56.192C350.779 56.192 350.383 56.132 349.999 56.012C349.615 55.892 349.275 55.708 348.979 55.46C348.683 55.212 348.443 54.896 348.259 54.512C348.083 54.12 347.995 53.652 347.995 53.108C347.995 52.604 348.139 52.136 348.427 51.704C348.715 51.272 349.163 50.896 349.771 50.576C350.387 50.256 351.175 50 352.135 49.808C353.103 49.616 354.263 49.504 355.615 49.472V48.224C355.615 47.12 355.375 46.272 354.895 45.68C354.423 45.08 353.719 44.78 352.783 44.78C352.207 44.78 351.715 44.86 351.307 45.02C350.907 45.18 350.567 45.356 350.287 45.548C350.007 45.74 349.779 45.916 349.603 46.076C349.427 46.236 349.279 46.316 349.159 46.316C348.999 46.316 348.879 46.244 348.799 46.1L348.595 45.752C349.219 45.128 349.875 44.656 350.563 44.336C351.251 44.016 352.031 43.856 352.903 43.856C353.543 43.856 354.103 43.96 354.583 44.168C355.063 44.368 355.459 44.66 355.771 45.044C356.091 45.42 356.331 45.88 356.491 46.424C356.651 46.96 356.731 47.56 356.731 48.224V56H356.275ZM351.475 55.364C351.939 55.364 352.363 55.316 352.747 55.22C353.139 55.116 353.499 54.976 353.827 54.8C354.163 54.616 354.475 54.4 354.763 54.152C355.051 53.904 355.335 53.636 355.615 53.348V50.24C354.479 50.272 353.499 50.36 352.675 50.504C351.859 50.64 351.183 50.828 350.647 51.068C350.119 51.308 349.727 51.596 349.471 51.932C349.223 52.26 349.099 52.636 349.099 53.06C349.099 53.46 349.163 53.808 349.291 54.104C349.427 54.392 349.603 54.632 349.819 54.824C350.035 55.008 350.287 55.144 350.575 55.232C350.863 55.32 351.163 55.364 351.475 55.364ZM361.179 44.06V51.692C361.179 52.812 361.435 53.692 361.947 54.332C362.459 54.964 363.239 55.28 364.287 55.28C365.063 55.28 365.787 55.084 366.459 54.692C367.131 54.292 367.735 53.74 368.271 53.036V44.06H369.423V56H368.787C368.563 56 368.447 55.896 368.439 55.688L368.331 53.912C367.779 54.6 367.139 55.152 366.411 55.568C365.691 55.984 364.887 56.192 363.999 56.192C363.335 56.192 362.755 56.088 362.259 55.88C361.763 55.672 361.351 55.372 361.023 54.98C360.695 54.588 360.447 54.116 360.279 53.564C360.111 53.012 360.027 52.388 360.027 51.692V44.06H361.179ZM373.311 56V44.06H373.935C374.143 44.06 374.263 44.16 374.295 44.36L374.403 46.16C374.947 45.472 375.579 44.92 376.299 44.504C377.027 44.08 377.835 43.868 378.723 43.868C379.379 43.868 379.955 43.972 380.451 44.18C380.955 44.388 381.371 44.688 381.699 45.08C382.027 45.472 382.275 45.944 382.443 46.496C382.611 47.048 382.695 47.672 382.695 48.368V56H381.555V48.368C381.555 47.248 381.299 46.372 380.787 45.74C380.275 45.1 379.491 44.78 378.435 44.78C377.651 44.78 376.923 44.984 376.251 45.392C375.579 45.792 374.979 46.344 374.451 47.048V56H373.311ZM394.156 45.656C394.116 45.696 394.076 45.732 394.036 45.764C394.004 45.788 393.956 45.8 393.892 45.8C393.812 45.8 393.7 45.748 393.556 45.644C393.42 45.532 393.236 45.412 393.004 45.284C392.772 45.156 392.48 45.04 392.128 44.936C391.784 44.824 391.364 44.768 390.868 44.768C390.18 44.768 389.568 44.892 389.032 45.14C388.504 45.38 388.056 45.728 387.688 46.184C387.328 46.64 387.052 47.192 386.86 47.84C386.668 48.488 386.572 49.216 386.572 50.024C386.572 50.864 386.668 51.608 386.86 52.256C387.06 52.904 387.34 53.452 387.7 53.9C388.06 54.34 388.496 54.676 389.008 54.908C389.52 55.14 390.088 55.256 390.712 55.256C391.288 55.256 391.768 55.188 392.152 55.052C392.544 54.916 392.864 54.768 393.112 54.608C393.368 54.448 393.568 54.3 393.712 54.164C393.864 54.028 393.984 53.96 394.072 53.96C394.176 53.96 394.256 54 394.312 54.08L394.624 54.464C394.44 54.704 394.208 54.928 393.928 55.136C393.648 55.344 393.332 55.524 392.98 55.676C392.628 55.828 392.244 55.944 391.828 56.024C391.42 56.112 390.992 56.156 390.544 56.156C389.784 56.156 389.088 56.02 388.456 55.748C387.832 55.468 387.292 55.068 386.836 54.548C386.388 54.02 386.036 53.376 385.78 52.616C385.532 51.856 385.408 50.992 385.408 50.024C385.408 49.112 385.528 48.28 385.768 47.528C386.008 46.776 386.356 46.128 386.812 45.584C387.276 45.04 387.84 44.62 388.504 44.324C389.176 44.02 389.944 43.868 390.808 43.868C391.584 43.868 392.272 43.992 392.872 44.24C393.48 44.488 394.008 44.824 394.456 45.248L394.156 45.656ZM397.217 56V38.54H398.357V46.1C398.909 45.42 399.537 44.88 400.241 44.48C400.953 44.072 401.749 43.868 402.629 43.868C403.285 43.868 403.861 43.972 404.357 44.18C404.861 44.388 405.277 44.688 405.605 45.08C405.933 45.472 406.181 45.944 406.349 46.496C406.517 47.048 406.601 47.672 406.601 48.368V56H405.461V48.368C405.461 47.248 405.205 46.372 404.693 45.74C404.181 45.1 403.397 44.78 402.341 44.78C401.557 44.78 400.829 44.984 400.157 45.392C399.485 45.792 398.885 46.344 398.357 47.048V56H397.217Z" fill="#181818"/>
</svg>
