<svg width="712" height="105" viewBox="0 0 712 105" fill="none" xmlns="http://www.w3.org/2000/svg">
<path d="M17.3333 78C17.3333 79.4728 18.5272 80.6667 20 80.6667C21.4728 80.6667 22.6667 79.4728 22.6667 78C22.6667 76.5272 21.4728 75.3333 20 75.3333C18.5272 75.3333 17.3333 76.5272 17.3333 78ZM689.333 78C689.333 79.4728 690.527 80.6667 692 80.6667C693.473 80.6667 694.667 79.4728 694.667 78C694.667 76.5272 693.473 75.3333 692 75.3333C690.527 75.3333 689.333 76.5272 689.333 78ZM20 78.5H692V77.5H20V78.5Z" fill="#858585"/>
<path d="M2.17188 52H1.33665L4.51136 43.2727H5.36364L8.53835 52H7.70312L4.96733 44.3082H4.90767L2.17188 52ZM2.77273 48.6548H7.10227V49.3707H2.77273V48.6548ZM9.87642 54.4545V45.4545H10.6136V46.7031H10.7031C10.794 46.5071 10.919 46.3068 11.0781 46.1023C11.2372 45.8949 11.4474 45.7202 11.7088 45.5781C11.973 45.4361 12.3054 45.3651 12.706 45.3651C13.2457 45.3651 13.7173 45.5071 14.1207 45.7912C14.527 46.0724 14.8423 46.4673 15.0668 46.9759C15.294 47.4815 15.4077 48.071 15.4077 48.7443C15.4077 49.4205 15.294 50.0128 15.0668 50.5213C14.8423 51.0298 14.527 51.4261 14.1207 51.7102C13.7173 51.9943 13.2486 52.1364 12.7145 52.1364C12.3196 52.1364 11.9886 52.0653 11.7216 51.9233C11.4574 51.7812 11.2429 51.6065 11.0781 51.3991C10.9162 51.1889 10.7912 50.9844 10.7031 50.7855H10.6349V54.4545H9.87642ZM10.6264 48.7315C10.6264 49.2599 10.7045 49.7287 10.8608 50.1378C11.0199 50.544 11.2472 50.8636 11.5426 51.0966C11.8409 51.3267 12.2017 51.4418 12.625 51.4418C13.0597 51.4418 13.4261 51.3224 13.7244 51.0838C14.0256 50.8423 14.2543 50.517 14.4105 50.108C14.5696 49.6989 14.6491 49.2401 14.6491 48.7315C14.6491 48.2287 14.571 47.7756 14.4148 47.3722C14.2614 46.9687 14.0341 46.6491 13.733 46.4134C13.4318 46.1747 13.0625 46.0554 12.625 46.0554C12.1989 46.0554 11.8366 46.1705 11.5384 46.4006C11.2401 46.6278 11.0128 46.9432 10.8565 47.3466C10.7031 47.7472 10.6264 48.2088 10.6264 48.7315ZM17.0717 52V45.4545H17.8089V46.4602H17.8643C17.995 46.1307 18.2223 45.8651 18.5462 45.6634C18.8729 45.4588 19.2422 45.3565 19.6541 45.3565C19.7166 45.3565 19.7862 45.358 19.8629 45.3608C19.9396 45.3636 20.0036 45.3665 20.0547 45.3693V46.1406C20.0206 46.1349 19.9609 46.1264 19.8757 46.1151C19.7905 46.1037 19.6982 46.098 19.5987 46.098C19.2578 46.098 18.9538 46.1705 18.6868 46.3153C18.4226 46.4574 18.2138 46.6548 18.0604 46.9077C17.907 47.1605 17.8303 47.4489 17.8303 47.7727V52H17.0717ZM21.3576 52V45.4545H22.1204V52H21.3576ZM21.7454 44.3295C21.5891 44.3295 21.4556 44.277 21.3448 44.1719C21.234 44.0639 21.1786 43.9347 21.1786 43.7841C21.1786 43.6335 21.234 43.5057 21.3448 43.4006C21.4556 43.2926 21.5891 43.2386 21.7454 43.2386C21.9016 43.2386 22.0352 43.2926 22.146 43.4006C22.2567 43.5057 22.3121 43.6335 22.3121 43.7841C22.3121 43.9347 22.2567 44.0639 22.146 44.1719C22.0352 44.277 21.9016 44.3295 21.7454 44.3295ZM24.8849 43.2727V52H24.1264V43.2727H24.8849ZM32.9304 43.2727V52H32.1335V44.108H32.0824L30.0369 45.4673V44.6406L32.0994 43.2727H32.9304ZM38.206 43.1534C38.5696 43.1562 38.9219 43.2301 39.2628 43.375C39.6065 43.517 39.9162 43.7472 40.1918 44.0653C40.4673 44.3807 40.6861 44.8011 40.848 45.3267C41.0099 45.8494 41.0909 46.4929 41.0909 47.2571C41.0909 47.9702 41.0284 48.6236 40.9034 49.2173C40.7784 49.8111 40.5909 50.3253 40.3409 50.7599C40.0938 51.1918 39.7813 51.527 39.4034 51.7656C39.0284 52.0014 38.5895 52.1193 38.0866 52.1193C37.6179 52.1193 37.2017 52.0213 36.8381 51.8253C36.4773 51.6293 36.1847 51.358 35.9602 51.0114C35.7358 50.6619 35.5966 50.2585 35.5426 49.8011H36.3267C36.4034 50.267 36.5909 50.6506 36.8892 50.9517C37.1903 51.2528 37.5895 51.4034 38.0866 51.4034C38.7997 51.4034 39.3537 51.071 39.7486 50.4062C40.1435 49.7415 40.3409 48.7955 40.3409 47.5682H40.2855C40.1491 47.8239 39.9702 48.0469 39.7486 48.2372C39.5298 48.4276 39.2798 48.5767 38.9986 48.6847C38.7173 48.7898 38.4205 48.8423 38.108 48.8423C37.6222 48.8423 37.1776 48.7202 36.7741 48.4759C36.3707 48.2287 36.0483 47.892 35.8068 47.4659C35.5653 47.0369 35.4446 46.5483 35.4446 46C35.4446 45.483 35.5582 45.0085 35.7855 44.5767C36.0156 44.142 36.3366 43.7955 36.7486 43.5369C37.1634 43.2756 37.6491 43.1477 38.206 43.1534ZM38.206 43.8693C37.8281 43.8693 37.4886 43.9659 37.1875 44.1591C36.8892 44.3494 36.652 44.6065 36.4759 44.9304C36.3026 45.2514 36.2159 45.608 36.2159 46C36.2159 46.3949 36.3026 46.7543 36.4759 47.0781C36.652 47.3991 36.8892 47.6548 37.1875 47.8452C37.4886 48.0327 37.8281 48.1264 38.206 48.1264C38.4957 48.1264 38.7656 48.0682 39.0156 47.9517C39.2656 47.8324 39.4815 47.6705 39.6634 47.4659C39.848 47.2614 39.9872 47.0298 40.081 46.7713C40.1776 46.5099 40.2159 46.2358 40.196 45.9489C40.1619 45.5511 40.0554 45.196 39.8764 44.8835C39.7003 44.5682 39.4673 44.321 39.1776 44.142C38.8906 43.9602 38.5668 43.8693 38.206 43.8693ZM43.1651 52.0639C42.9975 52.0639 42.8526 52.0043 42.7305 51.8849C42.6112 51.7628 42.5515 51.6179 42.5515 51.4503C42.5515 51.2798 42.6112 51.1349 42.7305 51.0156C42.8526 50.8963 42.9975 50.8366 43.1651 50.8366C43.3356 50.8366 43.4805 50.8963 43.5998 51.0156C43.7191 51.1349 43.7788 51.2798 43.7788 51.4503C43.7788 51.5611 43.7504 51.6634 43.6935 51.7571C43.6396 51.8509 43.5657 51.9261 43.4719 51.983C43.381 52.0369 43.2788 52.0639 43.1651 52.0639ZM49.1278 52V51.4162L51.9787 48.2116C52.3509 47.7912 52.6506 47.4318 52.8778 47.1335C53.1051 46.8352 53.2699 46.5597 53.3722 46.3068C53.4773 46.054 53.5298 45.7912 53.5298 45.5185C53.5298 45.1861 53.4517 44.8963 53.2955 44.6491C53.142 44.3991 52.9304 44.2045 52.6605 44.0653C52.3906 43.9261 52.0866 43.8565 51.7486 43.8565C51.3906 43.8565 51.0767 43.9332 50.8068 44.0866C50.5398 44.2401 50.3324 44.4503 50.1847 44.7173C50.0369 44.9844 49.9631 45.2912 49.9631 45.6378H49.2003C49.2003 45.1548 49.3111 44.7273 49.5327 44.3551C49.7571 43.9801 50.0625 43.6861 50.4489 43.473C50.8381 43.2599 51.2784 43.1534 51.7699 43.1534C52.2557 43.1534 52.6875 43.2585 53.0653 43.4688C53.4432 43.6761 53.7401 43.9588 53.956 44.3168C54.1719 44.6747 54.2798 45.0753 54.2798 45.5185C54.2798 45.8395 54.223 46.1506 54.1094 46.4517C53.9986 46.7528 53.8068 47.0881 53.5341 47.4574C53.2614 47.8267 52.8835 48.2784 52.4006 48.8125L50.2358 51.2287V51.2841H54.5526V52H49.1278ZM59.1623 52.1193C58.5487 52.1193 58.0245 51.9432 57.5898 51.5909C57.158 51.2358 56.8256 50.723 56.5927 50.0526C56.3626 49.3821 56.2475 48.5767 56.2475 47.6364C56.2475 46.6989 56.3626 45.8963 56.5927 45.2287C56.8256 44.5582 57.1594 44.0455 57.5941 43.6903C58.0316 43.3324 58.5543 43.1534 59.1623 43.1534C59.7702 43.1534 60.2915 43.3324 60.7262 43.6903C61.1637 44.0455 61.4975 44.5582 61.7276 45.2287C61.9606 45.8963 62.0771 46.6989 62.0771 47.6364C62.0771 48.5767 61.9606 49.3821 61.7276 50.0526C61.4975 50.723 61.1651 51.2358 60.7305 51.5909C60.2987 51.9432 59.7759 52.1193 59.1623 52.1193ZM59.1623 51.4034C59.8356 51.4034 60.3612 51.0753 60.739 50.419C61.1168 49.7599 61.3058 48.8324 61.3058 47.6364C61.3058 46.8409 61.2191 46.1619 61.0458 45.5994C60.8754 45.0341 60.6296 44.6023 60.3086 44.304C59.9904 44.0057 59.6083 43.8565 59.1623 43.8565C58.4947 43.8565 57.9705 44.1889 57.5898 44.8537C57.2092 45.5156 57.0188 46.4432 57.0188 47.6364C57.0188 48.4318 57.104 49.1108 57.2745 49.6733C57.4478 50.2358 57.6935 50.6648 58.0117 50.9602C58.3327 51.2557 58.7163 51.4034 59.1623 51.4034ZM63.8114 52V51.4162L66.6623 48.2116C67.0344 47.7912 67.3342 47.4318 67.5614 47.1335C67.7887 46.8352 67.9535 46.5597 68.0558 46.3068C68.1609 46.054 68.2134 45.7912 68.2134 45.5185C68.2134 45.1861 68.1353 44.8963 67.979 44.6491C67.8256 44.3991 67.614 44.2045 67.3441 44.0653C67.0742 43.9261 66.7702 43.8565 66.4322 43.8565C66.0742 43.8565 65.7603 43.9332 65.4904 44.0866C65.2234 44.2401 65.016 44.4503 64.8683 44.7173C64.7205 44.9844 64.6467 45.2912 64.6467 45.6378H63.8839C63.8839 45.1548 63.9947 44.7273 64.2163 44.3551C64.4407 43.9801 64.7461 43.6861 65.1325 43.473C65.5217 43.2599 65.962 43.1534 66.4535 43.1534C66.9393 43.1534 67.3711 43.2585 67.7489 43.4688C68.1268 43.6761 68.4237 43.9588 68.6396 44.3168C68.8555 44.6747 68.9634 45.0753 68.9634 45.5185C68.9634 45.8395 68.9066 46.1506 68.793 46.4517C68.6822 46.7528 68.4904 47.0881 68.2177 47.4574C67.945 47.8267 67.5671 48.2784 67.0842 48.8125L64.9194 51.2287V51.2841H69.2362V52H63.8114ZM71.1357 52V51.4162L73.9865 48.2116C74.3587 47.7912 74.6584 47.4318 74.8857 47.1335C75.1129 46.8352 75.2777 46.5597 75.38 46.3068C75.4851 46.054 75.5376 45.7912 75.5376 45.5185C75.5376 45.1861 75.4595 44.8963 75.3033 44.6491C75.1499 44.3991 74.9382 44.2045 74.6683 44.0653C74.3984 43.9261 74.0945 43.8565 73.7564 43.8565C73.3984 43.8565 73.0845 43.9332 72.8146 44.0866C72.5476 44.2401 72.3402 44.4503 72.1925 44.7173C72.0447 44.9844 71.9709 45.2912 71.9709 45.6378H71.2081C71.2081 45.1548 71.3189 44.7273 71.5405 44.3551C71.7649 43.9801 72.0703 43.6861 72.4567 43.473C72.8459 43.2599 73.2862 43.1534 73.7777 43.1534C74.2635 43.1534 74.6953 43.2585 75.0732 43.4688C75.451 43.6761 75.7479 43.9588 75.9638 44.3168C76.1797 44.6747 76.2876 45.0753 76.2876 45.5185C76.2876 45.8395 76.2308 46.1506 76.1172 46.4517C76.0064 46.7528 75.8146 47.0881 75.5419 47.4574C75.2692 47.8267 74.8913 48.2784 74.4084 48.8125L72.2436 51.2287V51.2841H76.5604V52H71.1357Z" fill="#181818"/>
<path d="M669.159 52V43.2727H671.976C672.595 43.2727 673.112 43.392 673.527 43.6307C673.945 43.8665 674.259 44.1875 674.469 44.5938C674.682 45 674.788 45.4574 674.788 45.9659C674.788 46.4744 674.683 46.9332 674.473 47.3423C674.263 47.7486 673.95 48.071 673.536 48.3097C673.121 48.5455 672.605 48.6634 671.989 48.6634H669.773V47.9474H671.967C672.425 47.9474 672.804 47.8622 673.105 47.6918C673.406 47.5185 673.631 47.2827 673.778 46.9844C673.929 46.6861 674.004 46.3466 674.004 45.9659C674.004 45.5852 673.929 45.2457 673.778 44.9474C673.631 44.6491 673.405 44.4148 673.101 44.2443C672.8 44.0739 672.418 43.9886 671.955 43.9886H669.956V52H669.159ZM676.501 52V45.4545H677.239V46.4602H677.294C677.425 46.1307 677.652 45.8651 677.976 45.6634C678.303 45.4588 678.672 45.3565 679.084 45.3565C679.146 45.3565 679.216 45.358 679.293 45.3608C679.369 45.3636 679.433 45.3665 679.484 45.3693V46.1406C679.45 46.1349 679.391 46.1264 679.305 46.1151C679.22 46.1037 679.128 46.098 679.028 46.098C678.688 46.098 678.384 46.1705 678.116 46.3153C677.852 46.4574 677.643 46.6548 677.49 46.9077C677.337 47.1605 677.26 47.4489 677.26 47.7727V52H676.501ZM683.226 52.1364C682.615 52.1364 682.087 51.9943 681.641 51.7102C681.195 51.4233 680.849 51.027 680.605 50.5213C680.364 50.0128 680.243 49.4276 680.243 48.7656C680.243 48.1065 680.364 47.5213 680.605 47.0099C680.849 46.4957 681.186 46.0937 681.615 45.804C682.047 45.5114 682.545 45.3651 683.111 45.3651C683.466 45.3651 683.808 45.4304 684.138 45.5611C684.467 45.6889 684.763 45.8864 685.024 46.1534C685.288 46.4176 685.497 46.7514 685.651 47.1548C685.804 47.5554 685.881 48.0298 685.881 48.5781V48.9531H680.767V48.2841H685.105C685.105 47.8636 685.02 47.4858 684.849 47.1506C684.682 46.8125 684.447 46.5455 684.146 46.3494C683.848 46.1534 683.503 46.0554 683.111 46.0554C682.696 46.0554 682.331 46.1662 682.016 46.3878C681.7 46.6094 681.453 46.902 681.274 47.2656C681.098 47.6293 681.009 48.027 681.006 48.4588V48.8594C681.006 49.3793 681.095 49.8338 681.274 50.223C681.456 50.6094 681.713 50.9091 682.045 51.1222C682.378 51.3352 682.771 51.4418 683.226 51.4418C683.536 51.4418 683.807 51.3935 684.04 51.2969C684.276 51.2003 684.473 51.071 684.632 50.9091C684.794 50.7443 684.916 50.5639 684.999 50.3679L685.719 50.6023C685.619 50.8778 685.456 51.1321 685.229 51.3651C685.004 51.598 684.723 51.7855 684.385 51.9276C684.05 52.0668 683.663 52.1364 683.226 52.1364ZM691.95 46.8906L691.255 47.0866C691.187 46.8906 691.091 46.7131 690.966 46.554C690.841 46.3949 690.677 46.2685 690.475 46.1747C690.277 46.081 690.029 46.0341 689.734 46.0341C689.291 46.0341 688.927 46.1392 688.643 46.3494C688.359 46.5597 688.217 46.831 688.217 47.1634C688.217 47.4446 688.314 47.6733 688.507 47.8494C688.703 48.0227 689.004 48.1605 689.41 48.2628L690.399 48.5057C690.947 48.6392 691.358 48.8509 691.63 49.1406C691.906 49.4304 692.044 49.794 692.044 50.2315C692.044 50.6009 691.941 50.929 691.737 51.2159C691.532 51.5028 691.247 51.7287 690.88 51.8935C690.517 52.0554 690.095 52.1364 689.615 52.1364C688.975 52.1364 688.449 51.9929 688.034 51.706C687.619 51.4162 687.353 50.9986 687.237 50.4531L687.966 50.2741C688.059 50.6634 688.243 50.9574 688.515 51.1562C688.791 51.3551 689.153 51.4545 689.602 51.4545C690.105 51.4545 690.507 51.3423 690.808 51.1179C691.109 50.8906 691.26 50.6065 691.26 50.2656C691.26 50.0014 691.172 49.7798 690.995 49.6009C690.819 49.419 690.552 49.2855 690.194 49.2003L689.125 48.9446C688.556 48.8082 688.136 48.5923 687.863 48.2969C687.591 48.0014 687.454 47.6349 687.454 47.1974C687.454 46.8366 687.552 46.5199 687.748 46.2472C687.944 45.9716 688.214 45.7557 688.558 45.5994C688.902 45.4432 689.294 45.3651 689.734 45.3651C690.333 45.3651 690.812 45.5014 691.17 45.7741C691.531 46.044 691.791 46.4162 691.95 46.8906ZM696.351 52.1364C695.74 52.1364 695.212 51.9943 694.766 51.7102C694.32 51.4233 693.974 51.027 693.73 50.5213C693.489 50.0128 693.368 49.4276 693.368 48.7656C693.368 48.1065 693.489 47.5213 693.73 47.0099C693.974 46.4957 694.311 46.0937 694.74 45.804C695.172 45.5114 695.67 45.3651 696.236 45.3651C696.591 45.3651 696.933 45.4304 697.263 45.5611C697.592 45.6889 697.888 45.8864 698.149 46.1534C698.413 46.4176 698.622 46.7514 698.776 47.1548C698.929 47.5554 699.006 48.0298 699.006 48.5781V48.9531H693.892V48.2841H698.23C698.23 47.8636 698.145 47.4858 697.974 47.1506C697.807 46.8125 697.572 46.5455 697.271 46.3494C696.973 46.1534 696.628 46.0554 696.236 46.0554C695.821 46.0554 695.456 46.1662 695.141 46.3878C694.825 46.6094 694.578 46.902 694.399 47.2656C694.223 47.6293 694.134 48.027 694.131 48.4588V48.8594C694.131 49.3793 694.22 49.8338 694.399 50.223C694.581 50.6094 694.838 50.9091 695.17 51.1222C695.503 51.3352 695.896 51.4418 696.351 51.4418C696.661 51.4418 696.932 51.3935 697.165 51.2969C697.401 51.2003 697.598 51.071 697.757 50.9091C697.919 50.7443 698.041 50.5639 698.124 50.3679L698.844 50.6023C698.744 50.8778 698.581 51.1321 698.354 51.3651C698.129 51.598 697.848 51.7855 697.51 51.9276C697.175 52.0668 696.788 52.1364 696.351 52.1364ZM701.436 47.9091V52H700.677V45.4545H701.414V46.4815H701.483C701.636 46.1463 701.875 45.8778 702.199 45.6761C702.525 45.4716 702.929 45.3693 703.409 45.3693C703.849 45.3693 704.235 45.4616 704.568 45.6463C704.903 45.8281 705.163 46.0966 705.348 46.4517C705.535 46.8068 705.629 47.2429 705.629 47.7599V52H704.87V47.8068C704.87 47.2699 704.72 46.8452 704.419 46.5327C704.12 46.2202 703.72 46.0639 703.217 46.0639C702.873 46.0639 702.568 46.1378 702.301 46.2855C702.034 46.4332 701.822 46.6463 701.666 46.9247C701.512 47.2003 701.436 47.5284 701.436 47.9091ZM710.205 45.4545V46.1151H707.081V45.4545H710.205ZM708.057 43.8864H708.82V50.2912C708.82 50.5639 708.866 50.7784 708.96 50.9347C709.054 51.0881 709.176 51.1974 709.327 51.2628C709.477 51.3253 709.638 51.3565 709.808 51.3565C709.908 51.3565 709.993 51.3509 710.064 51.3395C710.135 51.3253 710.197 51.3111 710.251 51.2969L710.413 51.983C710.339 52.0114 710.249 52.0369 710.141 52.0597C710.033 52.0852 709.899 52.098 709.74 52.098C709.462 52.098 709.193 52.0369 708.935 51.9148C708.679 51.7926 708.469 51.6108 708.304 51.3693C708.139 51.1278 708.057 50.8281 708.057 50.4702V43.8864Z" fill="#181818"/>
<path d="M315.104 49.16V56H313.88V39.02H318.26C320.252 39.02 321.752 39.456 322.76 40.328C323.776 41.2 324.284 42.444 324.284 44.06C324.284 44.804 324.144 45.488 323.864 46.112C323.592 46.736 323.196 47.276 322.676 47.732C322.156 48.18 321.524 48.532 320.78 48.788C320.036 49.036 319.196 49.16 318.26 49.16H315.104ZM315.104 48.176H318.26C319.012 48.176 319.684 48.072 320.276 47.864C320.868 47.656 321.368 47.368 321.776 47C322.192 46.632 322.508 46.2 322.724 45.704C322.948 45.2 323.06 44.652 323.06 44.06C323.06 42.756 322.656 41.752 321.848 41.048C321.048 40.344 319.852 39.992 318.26 39.992H315.104V48.176ZM331.39 43.868C332.246 43.868 333.01 44.016 333.682 44.312C334.362 44.6 334.934 45.012 335.398 45.548C335.862 46.084 336.214 46.732 336.454 47.492C336.702 48.244 336.826 49.088 336.826 50.024C336.826 50.96 336.702 51.804 336.454 52.556C336.214 53.308 335.862 53.952 335.398 54.488C334.934 55.024 334.362 55.436 333.682 55.724C333.01 56.012 332.246 56.156 331.39 56.156C330.534 56.156 329.766 56.012 329.086 55.724C328.414 55.436 327.842 55.024 327.37 54.488C326.906 53.952 326.55 53.308 326.302 52.556C326.062 51.804 325.942 50.96 325.942 50.024C325.942 49.088 326.062 48.244 326.302 47.492C326.55 46.732 326.906 46.084 327.37 45.548C327.842 45.012 328.414 44.6 329.086 44.312C329.766 44.016 330.534 43.868 331.39 43.868ZM331.39 55.256C332.102 55.256 332.722 55.136 333.25 54.896C333.786 54.648 334.23 54.296 334.582 53.84C334.942 53.384 335.21 52.836 335.386 52.196C335.562 51.548 335.65 50.824 335.65 50.024C335.65 49.232 335.562 48.512 335.386 47.864C335.21 47.216 334.942 46.664 334.582 46.208C334.23 45.744 333.786 45.388 333.25 45.14C332.722 44.892 332.102 44.768 331.39 44.768C330.678 44.768 330.054 44.892 329.518 45.14C328.99 45.388 328.546 45.744 328.186 46.208C327.834 46.664 327.566 47.216 327.382 47.864C327.206 48.512 327.118 49.232 327.118 50.024C327.118 50.824 327.206 51.548 327.382 52.196C327.566 52.836 327.834 53.384 328.186 53.84C328.546 54.296 328.99 54.648 329.518 54.896C330.054 55.136 330.678 55.256 331.39 55.256ZM346.403 45.536C346.347 45.648 346.259 45.704 346.139 45.704C346.051 45.704 345.935 45.656 345.791 45.56C345.655 45.456 345.471 45.344 345.239 45.224C345.015 45.096 344.735 44.984 344.399 44.888C344.071 44.784 343.667 44.732 343.187 44.732C342.755 44.732 342.359 44.796 341.999 44.924C341.647 45.044 341.343 45.208 341.087 45.416C340.839 45.624 340.643 45.868 340.499 46.148C340.363 46.42 340.295 46.708 340.295 47.012C340.295 47.388 340.391 47.7 340.583 47.948C340.775 48.196 341.027 48.408 341.339 48.584C341.651 48.76 342.003 48.912 342.395 49.04C342.795 49.168 343.203 49.296 343.619 49.424C344.035 49.552 344.439 49.696 344.831 49.856C345.231 50.008 345.587 50.2 345.899 50.432C346.211 50.664 346.463 50.948 346.655 51.284C346.847 51.62 346.943 52.028 346.943 52.508C346.943 53.028 346.847 53.512 346.655 53.96C346.471 54.408 346.199 54.796 345.839 55.124C345.487 55.452 345.051 55.712 344.531 55.904C344.011 56.096 343.419 56.192 342.755 56.192C341.915 56.192 341.191 56.06 340.583 55.796C339.975 55.524 339.431 55.172 338.951 54.74L339.227 54.332C339.267 54.268 339.311 54.22 339.359 54.188C339.407 54.156 339.475 54.14 339.563 54.14C339.667 54.14 339.795 54.204 339.947 54.332C340.099 54.46 340.295 54.6 340.535 54.752C340.783 54.896 341.087 55.032 341.447 55.16C341.815 55.288 342.267 55.352 342.803 55.352C343.307 55.352 343.751 55.284 344.135 55.148C344.519 55.004 344.839 54.812 345.095 54.572C345.351 54.332 345.543 54.052 345.671 53.732C345.807 53.404 345.875 53.06 345.875 52.7C345.875 52.3 345.779 51.968 345.587 51.704C345.395 51.44 345.143 51.216 344.831 51.032C344.519 50.848 344.163 50.692 343.763 50.564C343.371 50.436 342.963 50.308 342.539 50.18C342.123 50.052 341.715 49.912 341.315 49.76C340.923 49.608 340.571 49.416 340.259 49.184C339.947 48.952 339.695 48.672 339.503 48.344C339.311 48.008 339.215 47.592 339.215 47.096C339.215 46.672 339.307 46.264 339.491 45.872C339.675 45.48 339.935 45.136 340.271 44.84C340.615 44.544 341.031 44.308 341.519 44.132C342.007 43.956 342.555 43.868 343.163 43.868C343.891 43.868 344.535 43.972 345.095 44.18C345.663 44.388 346.183 44.708 346.655 45.14L346.403 45.536ZM353.403 56.192C352.595 56.192 351.963 55.968 351.507 55.52C351.059 55.072 350.835 54.38 350.835 53.444V45.284H349.119C349.031 45.284 348.959 45.26 348.903 45.212C348.847 45.164 348.819 45.096 348.819 45.008V44.564L350.859 44.42L351.147 40.148C351.155 40.076 351.183 40.012 351.231 39.956C351.287 39.9 351.359 39.872 351.447 39.872H351.987V44.432H355.743V45.284H351.987V53.384C351.987 53.712 352.027 53.996 352.107 54.236C352.195 54.468 352.311 54.66 352.455 54.812C352.607 54.964 352.783 55.076 352.983 55.148C353.183 55.22 353.399 55.256 353.631 55.256C353.919 55.256 354.167 55.216 354.375 55.136C354.583 55.048 354.763 54.956 354.915 54.86C355.067 54.756 355.191 54.664 355.287 54.584C355.383 54.496 355.459 54.452 355.515 54.452C355.579 54.452 355.643 54.492 355.707 54.572L356.019 55.076C355.715 55.412 355.327 55.684 354.855 55.892C354.391 56.092 353.907 56.192 353.403 56.192ZM357.95 48.392H363.53V49.364H357.95V48.392ZM368.139 38.54V56H366.999V38.54H368.139ZM379.978 56C379.738 56 379.59 55.888 379.534 55.664L379.366 54.14C379.038 54.46 378.71 54.748 378.382 55.004C378.062 55.26 377.726 55.476 377.374 55.652C377.022 55.828 376.642 55.96 376.234 56.048C375.826 56.144 375.378 56.192 374.89 56.192C374.482 56.192 374.086 56.132 373.702 56.012C373.318 55.892 372.978 55.708 372.682 55.46C372.386 55.212 372.146 54.896 371.962 54.512C371.786 54.12 371.698 53.652 371.698 53.108C371.698 52.604 371.842 52.136 372.13 51.704C372.418 51.272 372.866 50.896 373.474 50.576C374.09 50.256 374.878 50 375.838 49.808C376.806 49.616 377.966 49.504 379.318 49.472V48.224C379.318 47.12 379.078 46.272 378.598 45.68C378.126 45.08 377.422 44.78 376.486 44.78C375.91 44.78 375.418 44.86 375.01 45.02C374.61 45.18 374.27 45.356 373.99 45.548C373.71 45.74 373.482 45.916 373.306 46.076C373.13 46.236 372.982 46.316 372.862 46.316C372.702 46.316 372.582 46.244 372.502 46.1L372.298 45.752C372.922 45.128 373.578 44.656 374.266 44.336C374.954 44.016 375.734 43.856 376.606 43.856C377.246 43.856 377.806 43.96 378.286 44.168C378.766 44.368 379.162 44.66 379.474 45.044C379.794 45.42 380.034 45.88 380.194 46.424C380.354 46.96 380.434 47.56 380.434 48.224V56H379.978ZM375.178 55.364C375.642 55.364 376.066 55.316 376.45 55.22C376.842 55.116 377.202 54.976 377.53 54.8C377.866 54.616 378.178 54.4 378.466 54.152C378.754 53.904 379.038 53.636 379.318 53.348V50.24C378.182 50.272 377.202 50.36 376.378 50.504C375.562 50.64 374.886 50.828 374.35 51.068C373.822 51.308 373.43 51.596 373.174 51.932C372.926 52.26 372.802 52.636 372.802 53.06C372.802 53.46 372.866 53.808 372.994 54.104C373.13 54.392 373.306 54.632 373.522 54.824C373.738 55.008 373.99 55.144 374.278 55.232C374.566 55.32 374.866 55.364 375.178 55.364ZM384.882 44.06V51.692C384.882 52.812 385.138 53.692 385.65 54.332C386.162 54.964 386.942 55.28 387.99 55.28C388.766 55.28 389.49 55.084 390.162 54.692C390.834 54.292 391.438 53.74 391.974 53.036V44.06H393.126V56H392.49C392.266 56 392.15 55.896 392.142 55.688L392.034 53.912C391.482 54.6 390.842 55.152 390.114 55.568C389.394 55.984 388.59 56.192 387.702 56.192C387.038 56.192 386.458 56.088 385.962 55.88C385.466 55.672 385.054 55.372 384.726 54.98C384.398 54.588 384.15 54.116 383.982 53.564C383.814 53.012 383.73 52.388 383.73 51.692V44.06H384.882ZM397.014 56V44.06H397.638C397.846 44.06 397.966 44.16 397.998 44.36L398.106 46.16C398.65 45.472 399.282 44.92 400.002 44.504C400.73 44.08 401.538 43.868 402.426 43.868C403.082 43.868 403.658 43.972 404.154 44.18C404.658 44.388 405.074 44.688 405.402 45.08C405.73 45.472 405.978 45.944 406.146 46.496C406.314 47.048 406.398 47.672 406.398 48.368V56H405.258V48.368C405.258 47.248 405.002 46.372 404.49 45.74C403.978 45.1 403.194 44.78 402.138 44.78C401.354 44.78 400.626 44.984 399.954 45.392C399.282 45.792 398.682 46.344 398.154 47.048V56H397.014ZM417.859 45.656C417.819 45.696 417.779 45.732 417.739 45.764C417.707 45.788 417.659 45.8 417.595 45.8C417.515 45.8 417.403 45.748 417.259 45.644C417.123 45.532 416.939 45.412 416.707 45.284C416.475 45.156 416.183 45.04 415.831 44.936C415.487 44.824 415.067 44.768 414.571 44.768C413.883 44.768 413.271 44.892 412.735 45.14C412.207 45.38 411.759 45.728 411.391 46.184C411.031 46.64 410.755 47.192 410.563 47.84C410.371 48.488 410.275 49.216 410.275 50.024C410.275 50.864 410.371 51.608 410.563 52.256C410.763 52.904 411.043 53.452 411.403 53.9C411.763 54.34 412.199 54.676 412.711 54.908C413.223 55.14 413.791 55.256 414.415 55.256C414.991 55.256 415.471 55.188 415.855 55.052C416.247 54.916 416.567 54.768 416.815 54.608C417.071 54.448 417.271 54.3 417.415 54.164C417.567 54.028 417.687 53.96 417.775 53.96C417.879 53.96 417.959 54 418.015 54.08L418.327 54.464C418.143 54.704 417.911 54.928 417.631 55.136C417.351 55.344 417.035 55.524 416.683 55.676C416.331 55.828 415.947 55.944 415.531 56.024C415.123 56.112 414.695 56.156 414.247 56.156C413.487 56.156 412.791 56.02 412.159 55.748C411.535 55.468 410.995 55.068 410.539 54.548C410.091 54.02 409.739 53.376 409.483 52.616C409.235 51.856 409.111 50.992 409.111 50.024C409.111 49.112 409.231 48.28 409.471 47.528C409.711 46.776 410.059 46.128 410.515 45.584C410.979 45.04 411.543 44.62 412.207 44.324C412.879 44.02 413.647 43.868 414.511 43.868C415.287 43.868 415.975 43.992 416.575 44.24C417.183 44.488 417.711 44.824 418.159 45.248L417.859 45.656ZM420.921 56V38.54H422.061V46.1C422.613 45.42 423.241 44.88 423.945 44.48C424.657 44.072 425.453 43.868 426.333 43.868C426.989 43.868 427.565 43.972 428.061 44.18C428.565 44.388 428.981 44.688 429.309 45.08C429.637 45.472 429.885 45.944 430.053 46.496C430.221 47.048 430.305 47.672 430.305 48.368V56H429.165V48.368C429.165 47.248 428.909 46.372 428.397 45.74C427.885 45.1 427.101 44.78 426.045 44.78C425.261 44.78 424.533 44.984 423.861 45.392C423.189 45.792 422.589 46.344 422.061 47.048V56H420.921Z" fill="#181818"/>
</svg>
